<svg width="17" height="17" viewBox="0 0 17 17" fill="none" xmlns="http://www.w3.org/2000/svg">
<path d="M2.37 2.37C3.95 0.79 5.86 0 8.11 0C10.36 0 12.27 0.79 13.85 2.37C15.43 3.95 16.22 5.86 16.22 8.11C16.22 10.36 15.43 12.27 13.85 13.85C12.27 15.43 10.36 16.22 8.11 16.22C5.86 16.22 3.95 15.43 2.37 13.85C0.79 12.27 0 10.36 0 8.11C0 5.86 0.79 3.95 2.37 2.37ZM8.11 14.38C10.05 14.38 11.64 13.64 12.88 12.16C12.57 11.57 12.14 11.1 11.57 10.74C11 10.38 10.37 10.2 9.67 10.2C9.61 10.2 9.53 10.21 9.44 10.23C8.98 10.38 8.54 10.46 8.1 10.46C7.66 10.46 7.22 10.38 6.76 10.23C6.67 10.21 6.6 10.2 6.53 10.2C5.83 10.2 5.2 10.38 4.63 10.74C4.06 11.1 3.63 11.57 3.32 12.16C4.56 13.64 6.15 14.38 8.09 14.38H8.11ZM10.14 3.99C9.57 3.42 8.9 3.14 8.11 3.14C7.32 3.14 6.65 3.42 6.08 3.99C5.51 4.56 5.23 5.23 5.23 6.02C5.23 6.81 5.51 7.48 6.08 8.05C6.65 8.62 7.32 8.9 8.11 8.9C8.9 8.9 9.57 8.62 10.14 8.05C10.71 7.48 10.99 6.81 10.99 6.02C10.99 5.23 10.71 4.56 10.14 3.99Z" fill="white"/>
</svg>
