<svg width="35" height="25" viewBox="0 0 35 25" fill="none" xmlns="http://www.w3.org/2000/svg">
<path d="M30.3701 0.559998H4.37012C2.43712 0.559998 0.870117 2.127 0.870117 4.06V20.06C0.870117 21.993 2.43712 23.56 4.37012 23.56H30.3701C32.3031 23.56 33.8701 21.993 33.8701 20.06V4.06C33.8701 2.127 32.3031 0.559998 30.3701 0.559998Z" fill="white"/>
<path d="M30.3701 0.559998H4.37012C2.43712 0.559998 0.870117 2.127 0.870117 4.06V20.06C0.870117 21.993 2.43712 23.56 4.37012 23.56H30.3701C32.3031 23.56 33.8701 21.993 33.8701 20.06V4.06C33.8701 2.127 32.3031 0.559998 30.3701 0.559998Z" stroke="#DFE3E6"/>
<path fill-rule="evenodd" clip-rule="evenodd" d="M27.23 16.66C24.56 18.63 20.69 19.68 17.35 19.68C12.68 19.68 8.47004 17.95 5.28004 15.08C5.03004 14.85 5.25004 14.55 5.55004 14.72C8.99004 16.72 13.24 17.92 17.62 17.92C20.58 17.92 23.84 17.31 26.83 16.04C27.28 15.85 27.66 16.34 27.22 16.66M28.33 15.39C28.67 15.83 27.95 17.63 27.63 18.44C27.53 18.68 27.74 18.78 27.96 18.6C29.39 17.4 29.76 14.89 29.47 14.53C29.18 14.17 26.67 13.86 25.14 14.93C24.9 15.09 24.95 15.32 25.21 15.29C26.07 15.19 27.99 14.96 28.33 15.39Z" fill="#FF9900"/>
<path fill-rule="evenodd" clip-rule="evenodd" d="M24.4702 12.17L27.2502 5.09002C27.3102 4.95002 27.3402 4.85002 27.3402 4.79002C27.3402 4.69002 27.2802 4.64001 27.1602 4.64001H26.4502C26.3102 4.64001 26.2202 4.66002 26.1702 4.70002C26.1202 4.74002 26.0702 4.84001 26.0202 4.98001L24.3102 9.88002L22.5402 4.98001C22.4902 4.84001 22.4402 4.74002 22.3902 4.70002C22.3402 4.66002 22.2502 4.64001 22.1102 4.64001H21.3502C21.2302 4.64001 21.1702 4.69002 21.1702 4.79002C21.1702 4.85002 21.2002 4.95002 21.2602 5.09002L23.7002 11.11L23.4602 11.75C23.3202 12.15 23.1602 12.43 22.9802 12.58C22.8002 12.73 22.5502 12.81 22.2302 12.81C22.0902 12.81 21.9702 12.81 21.8902 12.78C21.8102 12.76 21.7402 12.75 21.7002 12.75C21.5702 12.75 21.5102 12.83 21.5102 12.99V13.32C21.5102 13.44 21.5302 13.52 21.5702 13.58C21.6102 13.63 21.6802 13.68 21.7702 13.7C21.9802 13.76 22.2202 13.79 22.4902 13.79C22.9702 13.79 23.3602 13.66 23.6602 13.41C23.9602 13.16 24.2202 12.74 24.4502 12.16" fill="#232F3E"/>
<path fill-rule="evenodd" clip-rule="evenodd" d="M14.0901 6.37C13.9701 5.96 13.7901 5.61001 13.5701 5.33001C13.3401 5.04001 13.0601 4.82 12.7401 4.67C12.4101 4.52 12.0501 4.44 11.6401 4.44C11.2601 4.44 10.8901 4.51001 10.5301 4.65001C10.1701 4.79001 9.8301 5 9.5101 5.28L9.4501 4.88C9.4201 4.71 9.3301 4.63 9.1601 4.63H8.6001C8.4301 4.63 8.3501 4.71 8.3501 4.88V13.39C8.3501 13.56 8.4301 13.64 8.6001 13.64H9.3501C9.5201 13.64 9.6001 13.56 9.6001 13.39V10.43C10.1501 10.93 10.8001 11.18 11.5601 11.18C11.9701 11.18 12.3501 11.1 12.6801 10.93C13.0201 10.77 13.3001 10.54 13.5401 10.24C13.7801 9.95001 13.9601 9.59 14.0901 9.17C14.2201 8.75 14.2901 8.28 14.2901 7.75C14.2901 7.24 14.2301 6.78 14.1101 6.37H14.0901ZM11.2501 10.17C10.6801 10.17 10.1201 9.97001 9.5801 9.56001V6.03C10.1101 5.64 10.6801 5.45 11.2701 5.45C12.4201 5.45 12.9901 6.24001 12.9901 7.81001C12.9901 9.38001 12.4101 10.16 11.2501 10.16V10.17Z" fill="#232F3E"/>
<path fill-rule="evenodd" clip-rule="evenodd" d="M19.7901 4.94001C19.4101 4.61001 18.8201 4.45001 18.0201 4.45001C17.6201 4.45001 17.2301 4.49001 16.8301 4.56001C16.4301 4.63001 16.1001 4.73001 15.8301 4.84001C15.7301 4.88001 15.6601 4.93001 15.6301 4.97001C15.6001 5.01001 15.5801 5.10001 15.5801 5.22001V5.56001C15.5801 5.71001 15.6301 5.79001 15.7401 5.79001C15.7701 5.79001 15.8101 5.79001 15.8501 5.77001C15.8901 5.76001 15.9201 5.75001 15.9401 5.74001C16.5901 5.55001 17.2101 5.45001 17.8001 5.45001C18.3101 5.45001 18.6601 5.54001 18.8601 5.73001C19.0601 5.92001 19.1601 6.24001 19.1601 6.69001V7.52001C18.5701 7.38001 18.0401 7.31001 17.5701 7.31001C16.8301 7.31001 16.2401 7.49001 15.8001 7.86001C15.3601 8.23001 15.1401 8.72001 15.1401 9.33001C15.1401 9.90001 15.3201 10.36 15.6701 10.7C16.0201 11.04 16.5001 11.21 17.1101 11.21C17.4701 11.21 17.8401 11.14 18.2001 11C18.5601 10.86 18.9001 10.65 19.2001 10.39L19.2601 10.81C19.2901 10.97 19.3801 11.05 19.5401 11.05H20.0801C20.2501 11.05 20.3301 10.97 20.3301 10.8V6.48001C20.3301 5.79001 20.1401 5.28001 19.7601 4.95001L19.7901 4.94001ZM19.1701 9.62001C18.8901 9.83001 18.6001 9.99001 18.3001 10.1C18.0001 10.21 17.7101 10.26 17.4301 10.26C17.1001 10.26 16.8501 10.17 16.6701 10C16.4901 9.83001 16.4001 9.58001 16.4001 9.26001C16.4001 8.53001 16.8801 8.16001 17.8301 8.16001C18.0501 8.16001 18.2701 8.18001 18.5101 8.20001C18.7401 8.23001 18.9601 8.27001 19.1701 8.32001V9.61001V9.62001Z" fill="#232F3E"/>
</svg>
