<svg width="34" height="24" viewBox="0 0 34 24" fill="none" xmlns="http://www.w3.org/2000/svg">
<path d="M30 0.5H4C2.067 0.5 0.5 2.067 0.5 4V20C0.5 21.933 2.067 23.5 4 23.5H30C31.933 23.5 33.5 21.933 33.5 20V4C33.5 2.067 31.933 0.5 30 0.5Z" fill="white"/>
<path d="M30 0.5H4C2.067 0.5 0.5 2.067 0.5 4V20C0.5 21.933 2.067 23.5 4 23.5H30C31.933 23.5 33.5 21.933 33.5 20V4C33.5 2.067 31.933 0.5 30 0.5Z" stroke="#DFE3E6"/>
<path fill-rule="evenodd" clip-rule="evenodd" d="M9.45002 8.34C9.16002 8.69 8.71002 8.97 8.25002 8.93C8.19002 8.45 8.42002 7.95 8.68002 7.64C8.97002 7.28 9.46002 7.02 9.87002 7C9.92002 7.5 9.73002 7.98 9.45002 8.34ZM9.86002 9.02C9.46002 9 9.09002 9.15 8.79002 9.27C8.60002 9.35 8.44002 9.41 8.31002 9.41C8.17002 9.41 8.00002 9.34 7.81002 9.26C7.56002 9.16 7.28002 9.04 6.98002 9.05C6.30002 9.05 5.67002 9.46 5.32002 10.1C4.61002 11.38 5.13002 13.27 5.82002 14.31C6.16002 14.83 6.56002 15.39 7.09002 15.37C7.32002 15.37 7.49002 15.29 7.67002 15.21C7.87002 15.12 8.08002 15.03 8.41002 15.03C8.74002 15.03 8.92002 15.12 9.12002 15.21C9.30002 15.29 9.48002 15.37 9.74002 15.37C10.29 15.37 10.64 14.85 10.98 14.34C11.34 13.79 11.5 13.25 11.53 13.16C11.53 13.16 11.53 13.15 11.52 13.14C11.4 13.08 10.47 12.64 10.46 11.45C10.46 10.45 11.2 9.94 11.32 9.86H11.33C10.85 9.13 10.11 9.05 9.86002 9.03V9.02ZM13.68 15.31V7.58H16.46C17.9 7.58 18.9 8.61 18.9 10.12C18.9 11.63 17.88 12.67 16.42 12.67H14.83V15.31H13.68ZM14.83 8.59H16.16C17.16 8.59 17.73 9.15 17.73 10.12C17.73 11.09 17.16 11.66 16.16 11.66H14.84V8.59H14.83ZM22.7 14.38C22.4 14.98 21.72 15.37 21 15.37C19.93 15.37 19.18 14.71 19.18 13.7C19.18 12.69 19.9 12.14 21.24 12.05L22.68 11.96V11.53C22.68 10.9 22.29 10.56 21.58 10.56C21 10.56 20.58 10.87 20.49 11.35H19.45C19.48 10.35 20.39 9.62 21.61 9.62C22.93 9.62 23.78 10.34 23.78 11.45V15.3H22.71V14.37H22.69L22.7 14.38ZM21.31 14.45C20.7 14.45 20.31 14.14 20.31 13.67C20.31 13.2 20.69 12.9 21.4 12.86L22.68 12.78V13.22C22.68 13.94 22.09 14.46 21.31 14.46V14.45ZM27.32 15.61C26.86 16.96 26.33 17.41 25.21 17.41C25.12 17.41 24.84 17.41 24.77 17.38V16.45C24.84 16.45 25.02 16.47 25.11 16.47C25.62 16.47 25.9 16.25 26.08 15.67L26.18 15.33L24.23 9.7H25.43L26.79 14.26H26.81L28.17 9.7H29.34L27.32 15.61Z" fill="black"/>
</svg>
