<svg width="70" height="24" viewBox="0 0 70 24" fill="none" xmlns="http://www.w3.org/2000/svg">
<g clip-path="url(#clip0_2267_201)">
<path d="M10.16 1.69995H69.51V20.2299H3.84998V8.00995C3.84998 4.52995 6.66998 1.70995 10.15 1.70995L10.16 1.69995Z" fill="white" stroke="#717473" stroke-miterlimit="10"/>
<path d="M5.69 13.47V7H8.29V13.46C8.29 14.46 9.1 15.28 10.11 15.28C11.12 15.28 11.93 14.47 11.93 13.46C11.93 12.45 11.12 11.64 10.11 11.64H9.33V9.05H10.11C12.55 9.05 14.53 11.01 14.53 13.45C14.53 15.89 12.55 17.85 10.11 17.85C7.67 17.86 5.69 15.9 5.69 13.46M17.03 13.98C17.84 13.98 18.51 14.64 18.51 15.44C18.51 16.24 17.85 16.9 17.03 16.9C16.21 16.9 15.55 16.24 15.55 15.44C15.55 14.64 16.2 13.98 17.03 13.98ZM17.03 10.04C17.84 10.04 18.51 10.7 18.51 11.5C18.51 12.3 17.85 12.96 17.03 12.96C16.21 12.96 15.55 12.3 15.55 11.5C15.55 10.7 16.2 10.04 17.03 10.04ZM23.84 11.89C23.84 5.33 18.51 0 11.92 0C5.33 0 0 5.32 0 11.89V23.78H11.92C18.49 23.78 23.84 18.45 23.84 11.89Z" fill="#39626E"/>
<path d="M27.51 9.96002L29.67 5.02002H30.47L32.63 9.96002H31.72L31.22 8.78002H28.9L28.4 9.96002H27.52H27.51ZM29.21 8.01002H30.9L30.05 6.05002L29.21 8.01002Z" fill="#39626E"/>
<path d="M34.75 10.04C34.34 10.04 34.02 9.91001 33.78 9.65001C33.55 9.39001 33.43 9.05001 33.43 8.61001V6.26001H34.28V8.36001C34.28 8.65001 34.35 8.87001 34.49 9.03001C34.63 9.19001 34.82 9.26001 35.07 9.26001C35.32 9.26001 35.52 9.18001 35.67 9.02001C35.82 8.86001 35.9 8.63001 35.9 8.35001V6.26001H36.75V9.96001H35.9V9.39001C35.61 9.82001 35.22 10.04 34.75 10.04Z" fill="#39626E"/>
<path d="M39.23 10.02C38.52 10.02 38.17 9.65999 38.17 8.93999V6.98999H37.7V6.25999H38.17V5.23999H39.02V6.25999H40.01V6.98999H39.02V8.79999C39.02 9.10999 39.17 9.25999 39.47 9.25999C39.65 9.25999 39.83 9.21999 40 9.12999V9.81999C39.78 9.94999 39.52 10.01 39.24 10.01L39.23 10.02Z" fill="#39626E"/>
<path d="M41.03 9.95998V4.84998H41.88V6.83998C42.17 6.40998 42.56 6.18998 43.03 6.18998C43.44 6.18998 43.76 6.31998 44 6.57998C44.23 6.83998 44.35 7.17998 44.35 7.61998V9.96998H43.5V7.86998C43.5 7.57998 43.43 7.35998 43.29 7.19998C43.15 7.03998 42.96 6.96998 42.71 6.96998C42.46 6.96998 42.26 7.04998 42.11 7.20998C41.96 7.36998 41.88 7.59998 41.88 7.87998V9.96998H41.03V9.95998Z" fill="#39626E"/>
<path d="M47.24 10.0399C46.7 10.0399 46.25 9.85994 45.89 9.49994C45.53 9.13994 45.35 8.67994 45.35 8.10994C45.35 7.56994 45.52 7.11994 45.86 6.74994C46.2 6.37994 46.63 6.18994 47.16 6.18994C47.72 6.18994 48.15 6.37994 48.47 6.75994C48.78 7.13994 48.94 7.60994 48.94 8.17994C48.94 8.27994 48.94 8.35994 48.93 8.41994H46.21C46.26 8.70994 46.38 8.93994 46.57 9.10994C46.76 9.27994 47 9.35994 47.28 9.35994C47.64 9.35994 47.98 9.20994 48.28 8.91994L48.78 9.35994C48.4 9.81994 47.89 10.0499 47.27 10.0499L47.24 10.0399ZM46.18 7.84994H48.08C48.05 7.56994 47.96 7.32994 47.79 7.14994C47.62 6.96994 47.41 6.87994 47.14 6.87994C46.87 6.87994 46.67 6.96994 46.5 7.14994C46.33 7.32994 46.22 7.55994 46.19 7.84994H46.18Z" fill="#39626E"/>
<path d="M49.95 9.95993V6.25993H50.8V6.82993C51.09 6.39993 51.48 6.17993 51.95 6.17993C52.36 6.17993 52.68 6.30993 52.92 6.56993C53.15 6.82993 53.27 7.16993 53.27 7.60993V9.95993H52.42V7.85993C52.42 7.56993 52.35 7.34993 52.21 7.18993C52.07 7.02993 51.88 6.95993 51.63 6.95993C51.38 6.95993 51.18 7.03993 51.03 7.19993C50.88 7.35993 50.8 7.58993 50.8 7.86993V9.95993H49.95Z" fill="#39626E"/>
<path d="M55.7 10.02C54.99 10.02 54.64 9.65999 54.64 8.93999V6.98999H54.17V6.25999H54.64V5.23999H55.49V6.25999H56.48V6.98999H55.49V8.79999C55.49 9.10999 55.64 9.25999 55.94 9.25999C56.12 9.25999 56.3 9.21999 56.47 9.12999V9.81999C56.25 9.94999 55.99 10.01 55.71 10.01L55.7 10.02Z" fill="#39626E"/>
<path d="M57.52 5.70001V4.89001H58.43V5.70001H57.52ZM57.56 9.96001V6.26002H58.41V9.96001H57.56Z" fill="#39626E"/>
<path d="M61.39 10.0399C60.84 10.0399 60.39 9.84993 60.03 9.47993C59.67 9.10993 59.48 8.64993 59.48 8.11993C59.48 7.58993 59.66 7.12993 60.03 6.74993C60.4 6.36993 60.85 6.17993 61.4 6.17993C62 6.17993 62.49 6.38993 62.88 6.81993L62.36 7.38993C62.07 7.07993 61.75 6.92993 61.4 6.92993C61.1 6.92993 60.84 7.04993 60.64 7.27993C60.44 7.50993 60.34 7.78993 60.34 8.11993C60.34 8.44993 60.44 8.73993 60.65 8.96993C60.86 9.19993 61.12 9.30993 61.44 9.30993C61.78 9.30993 62.1 9.15993 62.4 8.84993L62.91 9.34993C62.71 9.56993 62.49 9.74993 62.26 9.85993C62.03 9.96993 61.74 10.0399 61.4 10.0399H61.39Z" fill="#39626E"/>
<path d="M28 16.9599V12.0599H30.11C30.71 12.0599 31.18 12.2199 31.5 12.5499C31.75 12.7999 31.88 13.1299 31.88 13.5299C31.88 13.9299 31.76 14.2399 31.52 14.4799C31.28 14.7199 30.96 14.8799 30.55 14.9599L32.06 16.9599H31.38L29.96 15.0599H28.56V16.9599H28.01H28ZM28.55 14.5599H30.05C30.42 14.5599 30.73 14.4699 30.96 14.2899C31.19 14.1099 31.31 13.8599 31.31 13.5399C31.31 13.2199 31.2 12.9999 30.98 12.8299C30.76 12.6599 30.45 12.5699 30.06 12.5699H28.55V14.5599Z" fill="#9B9B9B"/>
<path d="M33.39 15.37C33.43 15.74 33.57 16.03 33.81 16.25C34.05 16.47 34.34 16.58 34.67 16.58C35.1 16.58 35.48 16.41 35.81 16.07L36.15 16.37C35.74 16.82 35.25 17.05 34.66 17.05C34.15 17.05 33.72 16.87 33.38 16.52C33.03 16.17 32.86 15.71 32.86 15.16C32.86 14.61 33.03 14.19 33.36 13.82C33.69 13.45 34.1 13.27 34.6 13.27C35.1 13.27 35.53 13.45 35.83 13.82C36.13 14.19 36.28 14.64 36.28 15.19C36.28 15.26 36.28 15.32 36.28 15.38H33.41L33.39 15.37ZM33.39 14.94H35.72C35.69 14.59 35.57 14.3 35.37 14.07C35.17 13.84 34.9 13.72 34.56 13.72C34.25 13.72 33.99 13.83 33.77 14.06C33.55 14.29 33.42 14.58 33.38 14.94H33.39Z" fill="#9B9B9B"/>
<path d="M38.43 16.99L36.86 13.34H37.46L38.68 16.34L39.9 13.34H40.48L38.91 16.99H38.43Z" fill="#9B9B9B"/>
<path d="M41.51 12.55V11.96H42.13V12.55H41.51ZM41.55 16.96V13.34H42.09V16.96H41.55Z" fill="#9B9B9B"/>
<path d="M43.84 15.37C43.88 15.74 44.02 16.03 44.26 16.25C44.5 16.47 44.79 16.58 45.12 16.58C45.55 16.58 45.93 16.41 46.26 16.07L46.6 16.37C46.19 16.82 45.7 17.05 45.11 17.05C44.6 17.05 44.17 16.87 43.83 16.52C43.48 16.17 43.31 15.71 43.31 15.16C43.31 14.61 43.48 14.19 43.81 13.82C44.14 13.45 44.55 13.27 45.05 13.27C45.55 13.27 45.98 13.45 46.28 13.82C46.58 14.18 46.74 14.64 46.74 15.19C46.74 15.26 46.74 15.32 46.74 15.38H43.87L43.84 15.37ZM43.84 14.94H46.17C46.14 14.59 46.02 14.3 45.82 14.07C45.62 13.84 45.35 13.72 45.01 13.72C44.7 13.72 44.44 13.83 44.22 14.06C44 14.29 43.87 14.58 43.83 14.94H43.84Z" fill="#9B9B9B"/>
<path d="M48.62 16.99L47.35 13.34H47.92L48.87 16.25L49.84 13.33H50.29L51.27 16.25L52.22 13.34H52.78L51.51 16.99H51.04L50.07 14.13L49.09 16.99H48.61H48.62Z" fill="#9B9B9B"/>
<path d="M54.95 17.03C54.69 17.03 54.42 16.98 54.16 16.89C53.89 16.79 53.66 16.66 53.46 16.5L53.73 16.11C54.14 16.42 54.56 16.57 54.98 16.57C55.2 16.57 55.38 16.52 55.52 16.41C55.66 16.3 55.73 16.16 55.73 15.98C55.73 15.82 55.65 15.69 55.5 15.6C55.35 15.51 55.12 15.42 54.82 15.34C54.64 15.29 54.49 15.24 54.39 15.2C54.28 15.16 54.16 15.1 54.03 15.02C53.89 14.94 53.79 14.84 53.73 14.73C53.66 14.61 53.63 14.47 53.63 14.31C53.63 14 53.75 13.75 53.98 13.56C54.21 13.37 54.51 13.27 54.87 13.27C55.34 13.27 55.77 13.4 56.17 13.67L55.93 14.08C55.57 13.85 55.21 13.73 54.86 13.73C54.65 13.73 54.48 13.78 54.35 13.88C54.22 13.98 54.16 14.11 54.16 14.27C54.16 14.34 54.18 14.4 54.22 14.45C54.26 14.51 54.3 14.55 54.35 14.59C54.4 14.63 54.47 14.67 54.57 14.71C54.67 14.75 54.75 14.78 54.81 14.8C54.87 14.82 54.97 14.85 55.1 14.89C55.27 14.94 55.41 14.99 55.53 15.04C55.64 15.09 55.76 15.15 55.89 15.23C56.02 15.31 56.11 15.41 56.17 15.53C56.23 15.65 56.26 15.79 56.26 15.95C56.26 16.29 56.14 16.55 55.9 16.74C55.66 16.93 55.35 17.03 54.98 17.03H54.95Z" fill="#9B9B9B"/>
</g>
<defs>
<clipPath id="clip0_2267_201">
<rect width="70.01" height="23.78" rx="8" fill="white"/>
</clipPath>
</defs>
</svg>
