<?xml version="1.0" encoding="iso-8859-1"?>
<!-- Uploaded to: SVG Repo, www.svgrepo.com, Generator: SVG Repo Mixer Tools -->
<svg fill="#DBE3FF" height="800px" width="800px" version="1.1" id="Capa_1" xmlns="http://www.w3.org/2000/svg" xmlns:xlink="http://www.w3.org/1999/xlink" 
	 viewBox="0 0 470 470" xml:space="preserve">
<g>
	<path d="M157.313,274.717c-14.169,15.228-30.787,29.689-47.223,41.13c-22.887-15.915-45.294-37.002-62.036-58.458
		C26.43,229.675,15,202.492,15,178.778c0-46.609,33.306-86.041,79.193-93.762c4.085-0.687,6.839-4.556,6.152-8.64
		c-0.688-4.085-4.558-6.842-8.641-6.152C66.34,74.492,43.124,87.67,26.334,107.332C9.353,127.219,0,152.592,0,178.778
		c0,27.09,12.527,57.464,36.229,87.838c17.253,22.111,40.212,43.832,63.759,60.453l-10.606,17.345
		c-1.416,2.315-1.471,5.214-0.144,7.581s3.829,3.832,6.542,3.832h6.813V462.5c0,4.142,3.357,7.5,7.5,7.5s7.5-3.358,7.5-7.5V355.827
		h6.812c4.143,0,7.5-3.358,7.5-7.5s-3.357-7.5-7.5-7.5h-15.247l6.488-10.61c18.271-12.346,36.913-28.368,52.652-45.282
		c2.821-3.032,2.65-7.778-0.382-10.6C164.88,271.513,160.135,271.685,157.313,274.717z"/>
	<path d="M82.641,103.533C51.155,115.052,30,145.291,30,178.778c0,4.142,3.357,7.5,7.5,7.5s7.5-3.358,7.5-7.5
		c0-27.216,17.198-51.794,42.795-61.158c3.89-1.423,5.89-5.73,4.467-9.62C90.839,104.109,86.534,102.109,82.641,103.533z"/>
	<path d="M443.666,107.332c-16.789-19.662-40.005-32.84-65.37-37.108c-4.085-0.69-7.952,2.067-8.641,6.152
		c-0.687,4.084,2.067,7.953,6.152,8.64C421.694,92.737,455,132.169,455,178.778c0,23.714-11.43,50.897-33.054,78.611
		c-16.742,21.457-39.15,42.543-62.036,58.458c-16.438-11.442-33.057-25.904-47.223-41.13c-2.821-3.032-7.567-3.204-10.6-0.382
		c-3.033,2.821-3.204,7.567-0.383,10.6c14.43,15.509,31.306,30.27,48.098,42.136l-10.605,17.344
		c-1.416,2.315-1.471,5.214-0.144,7.581s3.829,3.832,6.542,3.832h6.812l0.001,106.673c0,4.142,3.358,7.5,7.5,7.5
		c4.143,0,7.5-3.358,7.5-7.5l-0.001-106.673h6.813c4.143,0,7.5-3.358,7.5-7.5s-3.357-7.5-7.5-7.5h-15.247l6.492-10.618
		c25.119-16.969,49.943-40.06,68.306-63.592C457.473,236.242,470,205.868,470,178.778C470,152.592,460.647,127.219,443.666,107.332z
		"/>
	<path d="M320.944,230.968c27.73-35.539,42.388-71.029,42.388-102.636C363.332,57.569,305.763,0,235,0
		S106.668,57.569,106.668,128.332c0,31.606,14.657,67.097,42.388,102.636c20.492,26.262,47.844,52.066,75.829,71.658l-13.139,21.488
		c-1.416,2.315-1.471,5.214-0.144,7.581s3.829,3.832,6.542,3.832h9.356V462.5c0,4.142,3.357,7.5,7.5,7.5s7.5-3.358,7.5-7.5V335.527
		h9.357c4.143,0,7.5-3.358,7.5-7.5s-3.357-7.5-7.5-7.5h-20.337l9.038-14.781C270.114,285.82,299.341,258.654,320.944,230.968z
		 M160.882,221.74c-25.654-32.877-39.214-65.177-39.214-93.408C121.668,65.84,172.509,15,235,15s113.332,50.84,113.332,113.332
		c0,28.231-13.56,60.531-39.214,93.408c-19.984,25.611-46.791,50.776-74.118,69.656C207.673,272.516,180.866,247.352,160.882,221.74
		z"/>
	<path d="M144.168,135.819c4.142,0,7.499-3.357,7.5-7.499C151.674,82.377,189.057,45,235,45c4.143,0,7.5-3.358,7.5-7.5
		S239.143,30,235,30c-54.213,0-98.324,44.105-98.332,98.318C136.667,132.46,140.024,135.819,144.168,135.819L144.168,135.819z"/>
	<path d="M156.799,155.297c-1.383-3.904-5.669-5.949-9.573-4.567s-5.949,5.668-4.567,9.573
		c5.893,16.642,16.002,34.208,30.049,52.209c1.479,1.896,3.688,2.887,5.918,2.887c1.613,0,3.238-0.519,4.609-1.587
		c3.266-2.548,3.847-7.261,1.299-10.527C171.481,186.559,162.15,170.413,156.799,155.297z"/>
</g>
</svg>