<svg width="23" height="19" viewBox="0 0 23 19" fill="currentColor" xmlns="http://www.w3.org/2000/svg">
<path d="M0.518313 13.4305L2.59111 3.64768L22.1567 7.79327L20.0839 17.5761C19.9674 18.1264 19.4181 18.4572 18.8984 18.3471L1.28932 14.6161C0.739033 14.4995 0.401719 13.9808 0.518313 13.4305ZM15.5616 9.97358L15.3543 10.9519C15.296 11.227 15.4647 11.4863 15.7398 11.5446L18.6746 12.1665C18.9192 12.2183 19.2091 12.0561 19.2674 11.781L19.4747 10.8027C19.5265 10.5581 19.3338 10.2617 19.0892 10.2099L16.1544 9.58808C15.8792 9.52978 15.6134 9.72901 15.5616 9.97358ZM14.7843 13.6421L14.6806 14.1313C14.6482 14.2841 14.7205 14.3953 14.8734 14.4277L18.2974 15.1531C18.4197 15.1791 18.5614 15.1132 18.5938 14.9604L18.6974 14.4713C18.7233 14.349 18.6269 14.2008 18.5047 14.1749L15.0807 13.4494C14.9278 13.417 14.8102 13.5198 14.7843 13.6421ZM3.66673 8.21994L3.56309 8.70908C3.53071 8.86194 3.60299 8.97308 3.75584 9.00547L13.0495 10.9746C13.1718 11.0005 13.3135 10.9347 13.3459 10.7819L13.4496 10.2927C13.4755 10.1704 13.3791 10.0222 13.2568 9.99634L3.96312 8.02719C3.81027 7.9948 3.69264 8.09765 3.66673 8.21994ZM3.04489 11.1548L2.94126 11.6439C2.90887 11.7968 2.98115 11.9079 3.13401 11.9403L8.51456 13.0804C8.63684 13.1063 8.77856 13.0405 8.81095 12.8876L8.91459 12.3985C8.9405 12.2762 8.84412 12.128 8.72183 12.1021L3.34129 10.962C3.18843 10.9296 3.0708 11.0325 3.04489 11.1548ZM22.2894 4.75478C22.534 4.8066 22.7268 5.10299 22.6749 5.34756L22.364 6.81498L2.79838 2.6694L3.1093 1.20198C3.16112 0.957407 3.42694 0.758179 3.70208 0.816476L22.2894 4.75478Z" />
</svg>
