<svg width="206" height="43" viewBox="0 0 206 43" fill="none" xmlns="http://www.w3.org/2000/svg">
<g clip-path="url(#clip0_2227_2428)">
<path fill-rule="evenodd" clip-rule="evenodd" d="M97.3601 30.58H108.69V10.13H97.3601V30.58Z" fill="#FF5F00"/>
<path fill-rule="evenodd" clip-rule="evenodd" d="M98.0801 20.35C98.0801 16.2 100.01 12.5 103.03 10.12C100.83 8.38003 98.0501 7.34003 95.0301 7.34003C87.8801 7.34003 82.0801 13.16 82.0801 20.35C82.0801 27.54 87.8801 33.36 95.0301 33.36C98.0501 33.36 100.83 32.32 103.03 30.58C100.02 28.2 98.0801 24.5 98.0801 20.35Z" fill="#EB001B"/>
<path fill-rule="evenodd" clip-rule="evenodd" d="M123.57 28.42V27.92H123.44L123.29 28.27L123.14 27.92H123.01V28.42H123.1V28.04L123.24 28.37H123.34L123.48 28.04V28.42H123.57ZM122.74 28.42V28H122.91V27.91H122.48V28H122.65V28.42H122.74ZM123.98 20.36C123.98 27.54 118.18 33.37 111.03 33.37C108.01 33.37 105.23 32.33 103.03 30.59C106.04 28.21 107.98 24.51 107.98 20.36C107.98 16.21 106.05 12.51 103.03 10.13C105.23 8.39004 108.01 7.35004 111.03 7.35004C118.18 7.35004 123.98 13.17 123.98 20.36Z" fill="#F79E1B"/>
<path d="M127.71 1.11999C130.76 1.11999 133.24 3.58999 133.24 6.64999V35.6C133.24 38.65 130.77 41.13 127.71 41.13H78.35C75.3 41.13 72.82 38.66 72.82 35.6V6.63999C72.82 3.58999 75.29 1.10999 78.35 1.10999H127.71M127.71 -0.0100098H78.35C74.69 -0.0100098 71.71 2.96999 71.71 6.62999V35.58C71.71 39.24 74.69 42.22 78.35 42.22H127.71C131.37 42.22 134.35 39.24 134.35 35.58V6.63999C134.35 2.97999 131.37 -9.76585e-06 127.71 -9.76585e-06V-0.0100098Z" fill="#EAEAEA"/>
<path d="M56.01 1.12C59.06 1.12 61.54 3.59 61.54 6.65V35.6C61.54 38.65 59.07 41.13 56.01 41.13H6.64C3.59 41.13 1.11 38.66 1.11 35.6V6.64C1.12 3.59 3.59 1.12 6.64 1.12H56M56 0H6.64C2.98 0 0 2.98 0 6.64V35.59C0 39.25 2.98 42.23 6.64 42.23H56C59.66 42.23 62.64 39.25 62.64 35.59V6.64C62.64 2.98 59.66 0 56 0Z" fill="#EAEAEA"/>
<path d="M199.01 1.11999C202.06 1.11999 204.54 3.58999 204.54 6.64999V35.6C204.54 38.65 202.07 41.13 199.01 41.13H149.65C146.6 41.13 144.12 38.66 144.12 35.6V6.63999C144.12 3.58999 146.59 1.10999 149.65 1.10999H199.01M199.01 -0.0100098H149.65C145.99 -0.0100098 143.01 2.96999 143.01 6.62999V35.58C143.01 39.24 145.99 42.22 149.65 42.22H199.01C202.67 42.22 205.65 39.24 205.65 35.58V6.63999C205.65 2.97999 202.67 -9.76585e-06 199.01 -9.76585e-06V-0.0100098Z" fill="#EAEAEA"/>
<path d="M196.35 26.13V25.59H196.22L196.06 25.95L195.9 25.59H195.77V26.13H195.86V25.73L196.02 26.09H196.13L196.29 25.73V26.13H196.36H196.35ZM195.45 26.13V25.68H195.63V25.59H195.18V25.68H195.36V26.13H195.45Z" fill="#00A2E5"/>
<path d="M180.39 28.44H168.25V6.62H180.39V28.44Z" fill="#7375CF"/>
<path d="M169.03 17.53C169.03 13.11 171.1 9.15997 174.33 6.61997C171.97 4.75997 168.99 3.65997 165.75 3.65997C158.1 3.65997 151.88 9.87997 151.88 17.53C151.88 25.18 158.1 31.4 165.75 31.4C168.98 31.4 171.97 30.3 174.33 28.44C171.1 25.9 169.03 21.95 169.03 17.53Z" fill="#EB001B"/>
<path d="M196.78 17.53C196.78 25.18 190.56 31.4 182.91 31.4C179.68 31.4 176.69 30.3 174.33 28.44C177.56 25.9 179.63 21.95 179.63 17.53C179.63 13.11 177.56 9.15997 174.33 6.61997C176.69 4.75997 179.67 3.65997 182.91 3.65997C190.56 3.65997 196.78 9.87997 196.78 17.53Z" fill="#00A2E5"/>
<path d="M184.48 34.62C184.64 34.62 184.88 34.64 185.04 34.71L184.79 35.47C184.61 35.4 184.45 35.38 184.3 35.38C183.78 35.38 183.51 35.72 183.51 36.32V38.39H182.7V34.71H183.49V35.16C183.71 34.82 184.03 34.62 184.48 34.62ZM181.52 35.43H180.22V37.09C180.22 37.45 180.35 37.7 180.76 37.7C180.96 37.7 181.23 37.63 181.48 37.5L181.7 38.2C181.45 38.38 181.05 38.49 180.69 38.49C179.75 38.49 179.41 37.97 179.41 37.12V35.44H178.67V34.7H179.41V33.58H180.22V34.7H181.52V35.44V35.43ZM171.26 36.22C171.35 35.68 171.66 35.32 172.25 35.32C172.77 35.32 173.1 35.63 173.19 36.22H171.26ZM174.02 36.56C174.02 35.42 173.3 34.63 172.27 34.63C171.24 34.63 170.43 35.42 170.43 36.56C170.43 37.7 171.22 38.49 172.32 38.49C172.88 38.49 173.38 38.36 173.82 37.97L173.42 37.39C173.11 37.64 172.72 37.77 172.34 37.77C171.82 37.77 171.35 37.52 171.24 36.87H173.98C174 36.76 174.02 36.67 174.02 36.56ZM177.54 35.66C177.32 35.53 176.87 35.35 176.4 35.35C175.93 35.35 175.7 35.51 175.7 35.78C175.7 36.03 175.97 36.09 176.33 36.14L176.71 36.18C177.52 36.29 177.99 36.63 177.99 37.28C177.99 37.98 177.38 38.49 176.31 38.49C175.7 38.49 175.14 38.33 174.72 38.02L175.1 37.39C175.37 37.59 175.77 37.77 176.33 37.77C176.89 37.77 177.16 37.61 177.16 37.32C177.16 37.12 176.96 37.01 176.51 36.94L176.13 36.9C175.3 36.79 174.85 36.41 174.85 35.82C174.85 35.08 175.46 34.63 176.38 34.63C176.96 34.63 177.5 34.76 177.88 35.01L177.54 35.66ZM187.42 35.37C187.26 35.37 187.11 35.39 186.97 35.46C186.84 35.53 186.7 35.59 186.61 35.71C186.52 35.83 186.43 35.93 186.36 36.09C186.29 36.22 186.27 36.4 186.27 36.56C186.27 36.74 186.29 36.9 186.36 37.03C186.43 37.16 186.49 37.3 186.61 37.41C186.73 37.52 186.83 37.59 186.97 37.66C187.11 37.73 187.26 37.75 187.42 37.75C187.58 37.75 187.73 37.73 187.87 37.66C188 37.59 188.14 37.53 188.23 37.41C188.34 37.3 188.41 37.19 188.48 37.03C188.55 36.9 188.57 36.72 188.57 36.56C188.57 36.38 188.55 36.22 188.48 36.09C188.41 35.96 188.35 35.82 188.23 35.71C188.11 35.6 188.01 35.53 187.87 35.46C187.74 35.42 187.58 35.37 187.42 35.37ZM187.42 34.63C187.71 34.63 187.98 34.67 188.21 34.79C188.46 34.88 188.66 35.01 188.84 35.19C189.02 35.37 189.15 35.57 189.27 35.8C189.36 36.05 189.43 36.29 189.43 36.56C189.43 36.83 189.39 37.1 189.27 37.32C189.18 37.57 189.02 37.77 188.84 37.93C188.66 38.11 188.46 38.24 188.21 38.33C187.96 38.42 187.69 38.49 187.42 38.49C187.13 38.49 186.86 38.45 186.63 38.33C186.38 38.24 186.18 38.11 186 37.93C185.82 37.75 185.69 37.55 185.57 37.32C185.48 37.07 185.41 36.83 185.41 36.56C185.41 36.29 185.45 36.02 185.57 35.8C185.66 35.55 185.82 35.35 186 35.19C186.18 35.01 186.38 34.88 186.63 34.79C186.85 34.68 187.12 34.63 187.42 34.63ZM166.59 36.56C166.59 35.91 167.02 35.37 167.71 35.37C168.4 35.37 168.81 35.89 168.81 36.56C168.81 37.23 168.36 37.73 167.71 37.73C167.01 37.73 166.59 37.21 166.59 36.56ZM169.58 36.56V34.72H168.77V35.17C168.52 34.83 168.14 34.63 167.6 34.63C166.57 34.63 165.76 35.44 165.76 36.56C165.76 37.68 166.57 38.49 167.6 38.49C168.12 38.49 168.5 38.29 168.77 37.95V38.4H169.58V36.56ZM165.07 38.4V36.09C165.07 35.21 164.51 34.63 163.61 34.63C163.14 34.63 162.64 34.76 162.31 35.28C162.06 34.88 161.66 34.63 161.1 34.63C160.72 34.63 160.31 34.74 160.02 35.17V34.72H159.21V38.4H160.02V36.36C160.02 35.73 160.38 35.37 160.92 35.37C161.46 35.37 161.73 35.71 161.73 36.34V38.38H162.54V36.34C162.54 35.71 162.92 35.35 163.44 35.35C163.96 35.35 164.25 35.69 164.25 36.32V38.36H165.08V38.4H165.07Z" fill="black"/>
<path d="M190.27 38.1V38.19H190.36C190.36 38.19 190.4 38.19 190.4 38.17C190.42 38.17 190.42 38.15 190.42 38.13C190.42 38.11 190.42 38.11 190.4 38.11C190.4 38.11 190.38 38.09 190.36 38.09H190.27V38.11V38.1ZM190.36 38.06C190.36 38.06 190.43 38.06 190.45 38.08C190.47 38.1 190.49 38.12 190.49 38.17C190.49 38.19 190.49 38.21 190.47 38.24C190.45 38.27 190.43 38.26 190.38 38.26L190.49 38.39H190.4L190.29 38.26H190.27V38.39H190.2V38.05H190.36V38.06ZM190.34 38.51C190.34 38.51 190.41 38.51 190.45 38.49C190.49 38.47 190.52 38.45 190.54 38.42C190.56 38.4 190.58 38.38 190.61 38.33C190.64 38.28 190.63 38.26 190.63 38.22C190.63 38.18 190.63 38.15 190.61 38.11C190.59 38.07 190.57 38.04 190.54 38.02C190.52 38 190.5 37.98 190.45 37.95C190.43 37.93 190.38 37.93 190.34 37.93C190.3 37.93 190.27 37.93 190.23 37.95C190.19 37.97 190.16 37.99 190.14 38.02C190.12 38.04 190.1 38.09 190.07 38.11C190.05 38.15 190.05 38.18 190.05 38.22C190.05 38.26 190.05 38.29 190.07 38.33C190.09 38.37 190.11 38.4 190.14 38.42C190.16 38.44 190.21 38.46 190.23 38.49C190.27 38.51 190.3 38.51 190.34 38.51ZM190.34 37.86C190.34 37.86 190.43 37.86 190.47 37.88C190.51 37.9 190.56 37.92 190.58 37.95C190.6 37.98 190.65 38.02 190.67 38.06C190.69 38.1 190.69 38.15 190.69 38.19C190.69 38.23 190.69 38.28 190.67 38.32C190.65 38.36 190.63 38.41 190.58 38.43C190.53 38.45 190.51 38.5 190.47 38.52C190.43 38.54 190.38 38.54 190.34 38.54C190.3 38.54 190.23 38.54 190.18 38.52C190.13 38.5 190.09 38.48 190.07 38.43C190.05 38.41 190 38.36 189.98 38.32C189.96 38.28 189.96 38.23 189.96 38.19C189.96 38.15 189.96 38.1 189.98 38.06C190 38.02 190.02 37.97 190.07 37.95C190.09 37.93 190.14 37.88 190.18 37.88C190.22 37.86 190.29 37.86 190.34 37.86Z" fill="black"/>
<path d="M38.1201 13.22C34.6601 13.22 31.5601 15.02 31.5601 18.33C31.5601 22.13 37.0501 22.4 37.0501 24.31C37.0501 25.11 36.1301 25.83 34.5501 25.83C32.3201 25.83 30.6501 24.82 30.6501 24.82L29.9401 28.17C29.9401 28.17 31.8601 29.02 34.4201 29.02C38.2101 29.02 41.1901 27.14 41.1901 23.76C41.1901 19.74 35.6801 19.49 35.6801 17.71C35.6801 17.08 36.4401 16.39 38.0101 16.39C39.7801 16.39 41.2301 17.12 41.2301 17.12L41.9301 13.89C41.9301 13.89 40.3601 13.21 38.1401 13.21L38.1201 13.22ZM6.44011 13.46L6.36011 13.95C6.36011 13.95 7.82011 14.22 9.13011 14.75C10.8201 15.36 10.9401 15.72 11.2201 16.82L14.3201 28.77H18.4801L24.8801 13.46H20.7301L16.6201 23.87L14.9401 15.05C14.7901 14.04 14.0101 13.46 13.0501 13.46H6.44011ZM26.5501 13.46L23.3001 28.77H27.2501L30.4901 13.46H26.5501ZM48.6101 13.46C47.6601 13.46 47.1501 13.97 46.7801 14.86L40.9901 28.76H45.1401L45.9401 26.44H50.9901L51.4801 28.76H55.1401L51.9501 13.45H48.6201L48.6101 13.46ZM49.1501 17.6L50.3801 23.34H47.0901L49.1501 17.6Z" fill="#1434CB"/>
</g>
<defs>
<clipPath id="clip0_2227_2428">
<rect width="205.66" height="42.24" fill="white"/>
</clipPath>
</defs>
</svg>
