<svg width="22" height="21" viewBox="0 0 22 21" fill="none" xmlns="http://www.w3.org/2000/svg">
<path d="M17.584 13.5945C17.421 13.9113 17.0699 14.0606 16.7337 13.9893L7.77626 12.0914L7.78298 13.115L15.9761 14.851C16.4347 14.9481 16.7044 15.4844 16.4849 15.9171L16.1766 16.6184C16.6991 17.0166 16.9735 17.6817 16.831 18.3543C16.6302 19.302 15.6734 19.8979 14.7563 19.7035C13.8086 19.5027 13.2062 18.5765 13.407 17.6288C13.5042 17.1702 13.7783 16.7811 14.1552 16.5096L7.76585 15.1558C8.00031 15.5569 8.12362 16.0302 8.02646 16.4888C7.82566 17.4365 6.86887 18.0323 5.95173 17.838C5.00402 17.6372 4.40167 16.711 4.60247 15.7633C4.73202 15.1519 5.1849 14.6728 5.76939 14.4772L5.82708 3.5008L3.71766 3.05386C3.28966 2.96317 3.04872 2.59268 3.13941 2.16469L3.24304 1.67555C3.32725 1.27812 3.70422 1.00661 4.13222 1.09729L7.25049 1.758C7.58677 1.82925 7.83419 2.16916 7.85465 2.52488L7.84478 3.92832L19.8287 6.46749C20.3179 6.57113 20.557 7.10095 20.3681 7.54009L17.584 13.5945Z" fill="white"/>
</svg>
