<svg width="23" height="21" viewBox="0 0 23 21" fill="currentColor" xmlns="http://www.w3.org/2000/svg">
<path d="M20.2166 15.5378C20.4612 15.5897 20.654 15.8861 20.6021 16.1306L20.3949 17.1089C20.3366 17.384 20.0467 17.5462 19.8021 17.4944L18.3347 17.1835C17.9914 18.8038 16.3983 19.8398 14.778 19.4965C13.1577 19.1532 12.1217 17.5601 12.465 15.9398L8.55185 15.1107C8.20854 16.731 6.61544 17.767 4.99516 17.4237C3.37488 17.0804 2.33885 15.4873 2.68216 13.867L2.19302 13.7634C1.36759 13.5885 0.86162 12.8105 1.03651 11.985L3.1093 2.20222C3.27772 1.40737 4.06222 0.870826 4.88764 1.04572L14.6705 3.11851C15.4653 3.28692 15.9954 4.102 15.827 4.89685L15.516 6.36427L16.8612 6.64928C17.228 6.72701 17.5866 6.99465 17.8034 7.32809L20.1887 10.9959C20.4056 11.3294 20.5048 11.7656 20.4271 12.1325L19.7275 15.4342L20.2166 15.5378ZM5.30608 15.9563C6.10094 16.1247 6.90953 15.6252 7.08442 14.7998C7.25284 14.0049 6.72277 13.1899 5.92792 13.0214C5.1025 12.8465 4.31799 13.3831 4.14958 14.1779C3.97469 15.0034 4.48066 15.7814 5.30608 15.9563ZM15.0889 18.0291C15.8838 18.1975 16.6924 17.698 16.8672 16.8726C17.0357 16.0777 16.5056 15.2626 15.7107 15.0942C14.8853 14.9193 14.1008 15.4559 13.9324 16.2507C13.7575 17.0762 14.2635 17.8542 15.0889 18.0291ZM18.8819 12.1884L18.9596 11.8216L16.5503 8.11671L15.2051 7.8317L14.4797 11.2557L18.8819 12.1884Z"/>
</svg>
