<svg width="28" height="24" viewBox="0 0 28 24" fill="none" xmlns="http://www.w3.org/2000/svg">
<path d="M16.0099 1.14C16.9299 2.07 19.0899 4.26 22.1299 8.81C24.8299 12.69 26.4599 16.14 27.3699 18.55C27.8999 19.82 27.9999 22.3 25.6299 22.76C25.6299 22.76 19.8099 23.96 13.8699 23.96C7.53993 23.96 3.65993 22.96 2.42993 22.67C1.42993 22.43 -0.490066 21.34 0.119934 18.71C1.08993 15.34 3.61993 11.55 5.18993 9.06C6.86993 6.7 9.98993 2.56 11.3799 1.18C12.6599 -0.0800002 14.1799 -0.66 16.0099 1.13V1.14Z" fill="#0D943F"/>
<path d="M2.79994 22L2.61994 21.96C2.37994 21.9 0.259944 21.33 0.839944 18.86C1.67994 15.94 3.80994 12.6 5.35994 10.16L5.81994 9.43C7.52994 7.03 10.5699 3.01 11.9099 1.68C13.2099 0.389999 14.2599 0.379999 15.5399 1.64H15.5599C16.4699 2.58 18.5999 4.73 21.5699 9.19C24.3599 13.21 25.9199 16.63 26.7299 18.79C27.0099 19.47 27.1299 20.51 26.7499 21.22C26.5199 21.66 26.1099 21.93 25.5199 22.04C25.4599 22.06 19.6899 23.23 13.8899 23.23C8.08994 23.23 4.19994 22.34 2.79994 22Z" fill="#0D943F"/>
<path d="M11.5899 14.85H15.8799C16.1699 14.85 16.3899 15.08 16.3899 15.36V19.65C16.3899 19.93 16.1599 20.16 15.8799 20.16H11.5899C11.3099 20.16 11.0699 19.93 11.0699 19.65V15.36C11.0699 15.08 11.2999 14.85 11.5899 14.85Z" fill="white"/>
<path d="M17.2999 14.85H21.5899C21.8799 14.85 22.0999 15.08 22.0999 15.36V19.65C22.0999 19.93 21.8699 20.16 21.5899 20.16H17.2999C17.0099 20.16 16.7899 19.93 16.7899 19.65V15.36C16.7899 15.08 17.0199 14.85 17.2999 14.85Z" fill="white"/>
<path d="M5.87987 14.85H10.1699C10.4499 14.85 10.6799 15.08 10.6799 15.36V19.65C10.6799 19.93 10.4499 20.16 10.1699 20.16H5.87987C5.58987 20.16 5.36987 19.93 5.36987 19.65V15.36C5.36987 15.08 5.59987 14.85 5.87987 14.85Z" fill="white"/>
<path d="M23.5699 20.94H4.06988C3.35988 20.94 2.72988 20.57 2.40988 19.99C2.05988 19.34 2.14988 18.52 2.66988 17.74L12.1499 3.5C12.5299 2.94 13.0999 2.61 13.7399 2.61C14.3799 2.61 14.9499 2.93 15.3299 3.5L24.8799 17.8C25.3899 18.56 25.4799 19.41 25.1299 20.06C24.8299 20.62 24.2599 20.94 23.5699 20.94ZM13.7399 2.92C13.2099 2.92 12.7299 3.19 12.4099 3.67L2.92988 17.91C2.47988 18.58 2.38988 19.29 2.68988 19.84C2.94988 20.33 3.47988 20.63 4.07988 20.63H23.5799C24.1599 20.63 24.6299 20.37 24.8699 19.92C25.1699 19.37 25.0799 18.64 24.6299 17.97L15.0699 3.67C14.7499 3.19 14.2599 2.92 13.7299 2.92H13.7399Z" fill="white"/>
<path d="M14.8099 5.18C14.8099 5.18 14.1699 4.8 13.6299 5.04C13.6299 5.04 13.5599 5.04 12.9499 5.07C12.9499 5.07 11.8499 5.13 11.7599 6.35C11.7599 6.35 11.6699 6.65 11.6099 6.68C11.6099 6.68 11.4299 7.01 11.8499 7.4C11.8499 7.4 12.7299 8.53 12.8899 8.22C12.8899 8.22 13.0899 8.34 13.2399 8.17C13.2399 8.17 13.5399 8.14 13.5899 7.69C13.5899 7.69 13.7499 7.42 13.8899 7.64C13.8899 7.64 13.8999 7.79 13.9999 7.56C13.9999 7.56 14.1099 7.46 14.0499 7.09C14.0499 7.09 14.1599 6.83 14.3799 6.7C14.3799 6.7 15.2899 6.31 15.1999 5.89C15.1999 5.89 15.2599 5.57 14.8999 5.22L14.8299 5.16L14.8099 5.18Z" fill="white"/>
<path d="M15.18 6.4C15.18 6.4 14.7 6.76 14.47 6.91C14.47 6.91 14.18 7.08 14.2 7.59C14.2 7.59 14.15 7.95 14 7.86C14 7.86 13.73 7.74 13.79 8.01C13.79 8.01 13.81 8.22 13.99 8.11L14.1 8.32C14.1 8.32 13.81 8.38 13.75 8.35L13.54 8.23C13.54 8.23 13.3 8.4 13.24 8.43C13.24 8.43 13.53 8.38 14.12 9.08C14.12 9.08 14.1 8.1 14.68 8.1C14.68 8.1 15.44 7.87 15.44 7.54C15.44 7.54 15.53 7.19 15.42 6.84C15.42 6.84 15.59 6.66 15.33 6.54L15.19 6.39L15.18 6.4Z" fill="white"/>
<path d="M13.9299 11.95C13.9299 11.95 14.1999 11.33 14.1399 11.06C14.1399 11.06 14.0799 10.74 14.2299 10.17C14.2299 10.17 14.4299 9.58 13.6199 8.94C13.6199 8.94 13.0499 8.43 12.5799 8.73C12.5799 8.73 11.0399 9.73 10.8899 12.46C10.8899 12.46 11.3699 12.6 11.5899 11.63C11.5899 11.63 11.7399 10.94 11.9399 10.74C11.9399 10.74 12.2099 10.41 12.1499 10.1C12.1499 10.1 12.5399 8.88 13.2299 9.09C13.2299 9.09 14.2599 9.22 13.9699 10.27C13.9699 10.27 13.7899 10.77 13.6799 10.88C13.6799 11.07 13.6799 11.24 13.0299 12.07C13.0299 12.07 13.4499 11.9 13.7699 11.95H13.9299Z" fill="white"/>
<path d="M14.43 11.89C14.43 11.89 14.16 12.28 14.2 11.72C14.2 11.72 14.35 11.61 14.32 11.25C14.32 11.25 14.19 9.66 15 10C15 10 15.7 9.9 15.81 11.99C15.87 12.52 15.82 13.07 16.29 13.44C16.29 13.44 16.56 13.75 16.75 13.79C16.75 13.79 17.21 14.09 16.83 14.05C16.83 14.05 16.39 13.81 16.06 13.72C16.06 13.72 15.17 13.33 15.19 13C15.19 13 14.59 12.08 14.85 11.65C14.85 11.65 14.76 11.35 14.59 11.68L14.42 11.89H14.43Z" fill="white"/>
<path d="M12.54 12.63C12.54 12.63 13.25 11.81 14.16 12.22C14.16 12.22 14.66 12.73 15.16 13.3C15.16 13.3 15.72 13.83 15.97 13.89C15.97 13.89 16.94 14.18 17.02 14.29C17.02 14.29 17.55 14.11 17.29 14.47C17.29 14.47 17.14 15.13 16.69 14.97C16.6 14.98 16.55 14.83 15.82 14.85C15.82 14.85 15.56 14.93 15.26 14.4C15.26 14.4 14.19 14.5 13.49 13.88C13.49 13.88 13.02 14.8 12.84 14.6C12.84 14.6 12.4 14.54 12.22 13.34L12.51 12.89L12.54 12.62V12.63Z" fill="white"/>
<path d="M12.0399 13.68C12.0399 13.68 12.2199 14.44 12.5099 14.63C12.5099 14.63 11.5699 14.78 11.3699 14.47L12.0399 13.68Z" fill="white"/>
<path fill-rule="evenodd" clip-rule="evenodd" d="M20.7599 16.62L20.7899 16.07C20.4599 15.84 20.0999 15.72 19.6999 15.72C19.1999 15.72 18.7599 15.89 18.4199 16.23C18.0799 16.56 17.8999 17.01 17.8999 17.5C17.8999 17.99 18.0799 18.45 18.4099 18.77C18.7399 19.1 19.1899 19.27 19.7099 19.27C20.1199 19.27 20.4599 19.16 20.7599 18.95V18.33C20.4299 18.62 20.0699 18.76 19.6699 18.76C18.9899 18.76 18.4799 18.25 18.4799 17.5C18.4799 16.75 18.9899 16.22 19.7299 16.22C20.1099 16.22 20.4599 16.35 20.7699 16.62H20.7599Z" fill="#0D943F"/>
<path fill-rule="evenodd" clip-rule="evenodd" d="M12.7999 19.18H14.5799V18.69H13.3499V15.8H12.7999V19.18Z" fill="#0D943F"/>
<path fill-rule="evenodd" clip-rule="evenodd" d="M6.98999 19.25H8.87999V18.75H7.53999V17.66H8.87999V17.18H7.53999V16.33H8.87999V15.86H6.98999V19.25Z" fill="#0D943F"/>
<path fill-rule="evenodd" clip-rule="evenodd" d="M16.7299 15L16.7 15.15C17.14 15.22 17.3299 14.86 17.3799 14.66L17.2299 14.63C17.2299 14.63 17.1199 15.06 16.7299 15Z" fill="#0D943F"/>
<path d="M13.4599 10.77C13.4599 10.77 14.3699 9.65 13.2299 9.27C13.2299 9.27 12.4599 9.19 12.3699 10.36C12.3699 10.36 12.3399 10.56 12.2499 10.6C12.2499 10.6 11.7599 11.3 11.6899 12.03C11.6899 12.03 11.5099 12.44 11.3999 12.48C11.3999 12.48 10.5499 13.78 10.5399 14.13C10.5399 14.13 10.0399 14.48 9.91992 14.87C9.91992 14.87 10.0099 15.37 10.2199 15.43C10.2199 15.43 10.5299 15.7 10.9199 15.56C10.9199 15.56 10.7799 14.86 11.1299 14.94C11.1299 14.94 11.6399 15.26 11.4499 14.81C11.4099 14.8 11.1199 14.65 11.0599 14.5C11.0599 14.5 12.3799 13.2 12.3099 12.49C12.3099 12.49 13.1999 11.66 13.4299 11.01L13.4599 10.77Z" fill="white"/>
<path fill-rule="evenodd" clip-rule="evenodd" d="M9.76992 14.65L9.97991 14.75C9.92991 14.88 9.88992 14.96 9.88992 14.96C9.88992 15.06 10.0499 14.93 10.0499 14.93C10.0499 15.19 10.1599 15.14 10.2499 15.13C10.2499 15.32 10.4799 15.33 10.5299 15.29C10.5999 15.44 10.7899 15.63 10.8499 15.59C10.9399 15.5 10.7399 15.22 10.9099 15.02C10.9499 14.96 11.0399 14.95 11.0399 14.95C11.1299 14.95 11.2099 14.97 11.2099 14.97C11.2699 14.98 11.3899 14.98 11.4199 14.93C11.4499 14.89 11.4199 14.81 11.4199 14.81L11.5599 14.77L11.5399 14.87C11.5099 15.25 11.1099 15.13 11.0899 15.14C11.0199 15.18 11.0499 15.22 11.0499 15.26C11.0499 15.4 11.0299 15.71 10.9899 15.75C10.9499 15.79 10.8299 15.81 10.7999 15.81C10.7199 15.79 10.5099 15.59 10.4899 15.52C10.2699 15.56 10.2099 15.35 10.2099 15.35C9.99992 15.4 9.95992 15.15 9.95992 15.15C9.88992 15.18 9.77992 15.14 9.75992 15.09C9.72992 15.01 9.79992 14.86 9.79992 14.86L9.76992 14.67V14.65Z" fill="#0D943F"/>
<path fill-rule="evenodd" clip-rule="evenodd" d="M15.4499 14.74C15.6399 14.86 16.2899 14.89 16.2899 14.89L16.5299 15.08C16.5299 15.08 15.9599 15.12 15.5099 15C15.3699 14.97 15.1599 14.74 15.1599 14.74H15.4499Z" fill="#0D943F"/>
<path d="M21.3499 16.13C21.0999 16.13 20.8899 15.93 20.8899 15.67C20.8899 15.41 21.0999 15.21 21.3499 15.21C21.5999 15.21 21.8099 15.41 21.8099 15.67C21.8099 15.93 21.5999 16.13 21.3499 16.13ZM21.3499 16.21C21.6499 16.21 21.8899 15.97 21.8899 15.67C21.8899 15.37 21.6499 15.13 21.3499 15.13C21.0499 15.13 20.8099 15.37 20.8099 15.67C20.8099 15.97 21.0499 16.21 21.3499 16.21ZM21.4299 15.69C21.5399 15.69 21.6199 15.64 21.6199 15.53C21.6199 15.4 21.5199 15.37 21.4099 15.37H21.1499V15.96H21.2299V15.69H21.3299L21.5099 15.96H21.6099L21.4299 15.69ZM21.2299 15.61V15.46H21.3899C21.4499 15.46 21.5299 15.47 21.5299 15.53C21.5299 15.62 21.3999 15.61 21.3299 15.61H21.2299Z" fill="#0D943F"/>
</svg>
