<svg width="125" height="48" viewBox="0 0 125 48" fill="none" xmlns="http://www.w3.org/2000/svg">
<g clip-path="url(#clip0_2087_24)">
<path d="M32.08 2.28C33.92 4.14 38.25 8.52 44.34 17.64C49.75 25.42 53.01 32.32 54.83 37.16C55.88 39.7 56.08 44.67 51.34 45.6C51.34 45.6 39.68 48.01 27.78 48.01C15.1 48.01 7.32 46.01 4.87 45.43C2.87 44.95 -0.99 42.77 0.23 37.49C2.17 30.74 7.25 23.14 10.39 18.16C13.76 13.43 20 5.14 22.8 2.37C25.36 -0.16 28.41 -1.32 32.08 2.28Z" fill="#0D943F"/>
<path d="M5.62003 44.07L5.25003 43.98C4.76003 43.87 0.530026 42.71 1.68003 37.76C3.37003 31.91 7.63003 25.21 10.74 20.33L11.66 18.87C15.08 14.06 21.17 6 23.86 3.34C26.46 0.76 28.56 0.74 31.13 3.25L31.16 3.28C32.98 5.13 37.24 9.45 43.2 18.39C48.79 26.43 51.91 33.28 53.54 37.62C54.11 38.99 54.35 41.07 53.58 42.5C53.11 43.38 52.31 43.91 51.13 44.14C51 44.17 39.45 46.53 27.84 46.53C16.23 46.53 8.43003 44.74 5.62003 44.07Z" fill="#0D943F"/>
<path d="M23.2199 29.75H31.8199C32.3899 29.75 32.8499 30.21 32.8499 30.78V39.38C32.8499 39.94 32.3899 40.41 31.8199 40.41H23.2199C22.6499 40.41 22.1899 39.95 22.1899 39.38V30.78C22.1899 30.21 22.6499 29.75 23.2199 29.75Z" fill="white"/>
<path d="M34.65 29.75H43.25C43.82 29.75 44.28 30.21 44.28 30.78V39.38C44.28 39.94 43.82 40.41 43.25 40.41H34.65C34.08 40.41 33.62 39.95 33.62 39.38V30.78C33.62 30.21 34.08 29.75 34.65 29.75Z" fill="white"/>
<path d="M11.79 29.75H20.39C20.96 29.75 21.42 30.21 21.42 30.78V39.38C21.42 39.94 20.96 40.41 20.39 40.41H11.79C11.22 40.41 10.76 39.95 10.76 39.38V30.78C10.76 30.21 11.22 29.75 11.79 29.75Z" fill="white"/>
<path d="M47.2201 41.95H8.16005C6.74005 41.95 5.47005 41.22 4.84005 40.04C4.14005 38.73 4.32005 37.09 5.35005 35.54L24.3401 7.01C25.0901 5.88 26.2501 5.23 27.5201 5.23C28.7901 5.23 29.9501 5.88 30.7101 7.01L49.8501 35.67C50.8701 37.2 51.0601 38.9 50.3601 40.21C49.7601 41.32 48.6201 41.96 47.2301 41.96L47.2201 41.95ZM27.5201 5.85C26.4601 5.85 25.4901 6.4 24.8601 7.35L5.86005 35.88C4.96005 37.23 4.78005 38.64 5.38005 39.74C5.90005 40.72 6.97005 41.33 8.16005 41.33H47.2301C48.3901 41.33 49.3301 40.81 49.8201 39.9C50.4101 38.79 50.2301 37.33 49.3401 36L30.2001 7.35C29.5601 6.39 28.5901 5.85 27.5201 5.85Z" fill="white"/>
<path d="M29.66 10.37C29.66 10.37 28.39 9.61 27.29 10.1C27.29 10.1 27.14 10.1 25.92 10.16C25.92 10.16 23.71 10.28 23.53 12.73C23.53 12.73 23.35 13.34 23.23 13.4C23.23 13.4 22.87 14.07 23.72 14.85C23.72 14.85 25.48 17.12 25.81 16.49C25.81 16.49 26.2 16.74 26.5 16.4C26.5 16.4 27.11 16.34 27.2 15.43C27.2 15.43 27.53 14.88 27.81 15.34C27.81 15.34 27.84 15.64 28.02 15.19C28.02 15.19 28.23 14.98 28.11 14.25C28.11 14.25 28.32 13.73 28.77 13.46C28.77 13.46 30.58 12.68 30.41 11.83C30.41 11.83 30.53 11.19 29.8 10.5L29.65 10.38L29.66 10.37Z" fill="white"/>
<path d="M30.41 12.82C30.41 12.82 29.44 13.54 28.99 13.85C28.99 13.85 28.41 14.18 28.45 15.21C28.45 15.21 28.36 15.94 28.05 15.75C28.05 15.75 27.51 15.51 27.63 16.05C27.63 16.05 27.66 16.47 28.02 16.26L28.23 16.69C28.23 16.69 27.66 16.81 27.53 16.75L27.11 16.51C27.11 16.51 26.62 16.85 26.5 16.9C26.5 16.9 27.08 16.81 28.26 18.2C28.26 18.2 28.23 16.23 29.38 16.23C29.38 16.23 30.9 15.78 30.9 15.11C30.9 15.11 31.08 14.41 30.87 13.72C30.87 13.72 31.21 13.36 30.69 13.11L30.42 12.81L30.41 12.82Z" fill="white"/>
<path d="M27.8999 23.93C27.8999 23.93 28.4499 22.69 28.3299 22.14C28.3299 22.14 28.2099 21.5 28.5099 20.35C28.5099 20.35 28.8999 19.17 27.2999 17.9C27.2999 17.9 26.1499 16.87 25.2099 17.48C25.2099 17.48 22.1199 19.47 21.8199 24.96C21.8199 24.96 22.7899 25.23 23.2199 23.29C23.2199 23.29 23.5199 21.9 23.9099 21.5C23.9099 21.5 24.4499 20.83 24.3299 20.23C24.3299 20.23 25.1199 17.78 26.4799 18.2C26.4799 18.2 28.5399 18.47 27.9599 20.56C27.9599 20.56 27.5999 21.56 27.3799 21.78C27.3599 22.15 27.3799 22.51 26.0799 24.16C26.0799 24.16 26.9299 23.83 27.5599 23.92H27.8899L27.8999 23.93Z" fill="white"/>
<path d="M28.9001 23.81C28.9001 23.81 28.3601 24.59 28.4501 23.47C28.4501 23.47 28.7501 23.26 28.6901 22.53C28.6901 22.53 28.4201 19.35 30.0601 20.02C30.0601 20.02 31.4601 19.82 31.6801 24.01C31.8001 25.08 31.7001 26.17 32.6401 26.92C32.6401 26.92 33.1801 27.53 33.5701 27.61C33.5701 27.61 34.4801 28.22 33.7301 28.13C33.7301 28.13 32.8601 27.64 32.1801 27.48C32.1801 27.48 30.4101 26.7 30.4301 26.03C30.4301 26.03 29.2301 24.19 29.7501 23.32C29.7501 23.32 29.5701 22.71 29.2401 23.38L28.9101 23.8L28.9001 23.81Z" fill="white"/>
<path d="M25.11 25.3C25.11 25.3 26.53 23.66 28.35 24.48C28.35 24.48 29.35 25.5 30.36 26.65C30.36 26.65 31.48 27.71 31.99 27.83C31.99 27.83 33.93 28.42 34.08 28.63C34.08 28.63 35.14 28.27 34.62 28.99C34.62 28.99 34.33 30.31 33.41 29.98C33.23 30 33.13 29.7 31.67 29.74C31.67 29.74 31.16 29.91 30.55 28.84C30.55 28.84 28.41 29.04 27.01 27.8C27.01 27.8 26.07 29.64 25.71 29.25C25.71 29.25 24.83 29.13 24.47 26.73L25.05 25.82L25.11 25.28V25.3Z" fill="white"/>
<path d="M24.11 27.41C24.11 27.41 24.47 28.93 25.05 29.32C25.05 29.32 23.17 29.63 22.77 29L24.11 27.41Z" fill="white"/>
<path fill-rule="evenodd" clip-rule="evenodd" d="M41.59 33.29L41.64 32.18C40.98 31.72 40.26 31.48 39.45 31.48C38.44 31.48 37.56 31.83 36.89 32.49C36.22 33.15 35.86 34.05 35.86 35.04C35.86 36.03 36.22 36.94 36.88 37.59C37.54 38.24 38.44 38.59 39.48 38.59C40.29 38.59 40.98 38.38 41.59 37.95V36.71C40.93 37.28 40.2 37.56 39.4 37.56C38.04 37.56 37.01 36.53 37.01 35.04C37.01 33.55 38.03 32.48 39.52 32.48C40.29 32.48 40.98 32.75 41.61 33.28L41.59 33.29Z" fill="#0D943F"/>
<path fill-rule="evenodd" clip-rule="evenodd" d="M25.64 38.42H29.21V37.44H26.74V31.65H25.64V38.42Z" fill="#0D943F"/>
<path fill-rule="evenodd" clip-rule="evenodd" d="M14.01 38.55H17.79V37.57H15.11V35.38H17.79V34.41H15.11V32.71H17.79V31.77H14.01V38.55Z" fill="#0D943F"/>
<path fill-rule="evenodd" clip-rule="evenodd" d="M33.52 30.05L33.47 30.36C34.34 30.5 34.74 29.78 34.82 29.38L34.52 29.31C34.52 29.31 34.31 30.18 33.52 30.05Z" fill="#0D943F"/>
<path d="M26.96 21.57C26.96 21.57 28.77 19.33 26.5 18.57C26.5 18.57 24.96 18.42 24.77 20.75C24.77 20.75 24.71 21.14 24.53 21.24C24.53 21.24 23.56 22.63 23.41 24.11C23.41 24.11 23.04 24.93 22.83 25.02C22.83 25.02 21.13 27.63 21.1 28.32C21.1 28.32 20.1 29.02 19.86 29.81C19.86 29.81 20.04 30.81 20.46 30.92C20.46 30.92 21.08 31.45 21.85 31.19C21.85 31.19 21.58 29.8 22.26 29.95C22.26 29.95 23.28 30.59 22.91 29.68C22.82 29.66 22.25 29.35 22.12 29.05C22.12 29.05 24.76 26.45 24.63 25.02C24.63 25.02 26.42 23.36 26.87 22.06L26.93 21.57H26.96Z" fill="white"/>
<path fill-rule="evenodd" clip-rule="evenodd" d="M19.57 29.34L19.99 29.54C19.88 29.8 19.82 29.96 19.82 29.96C19.84 30.16 20.14 29.9 20.14 29.9C20.16 30.41 20.37 30.32 20.54 30.29C20.53 30.68 21.01 30.68 21.1 30.6C21.23 30.91 21.62 31.28 21.74 31.19C21.91 31.02 21.52 30.45 21.86 30.05C21.94 29.93 22.11 29.9 22.11 29.9C22.28 29.89 22.45 29.94 22.45 29.94C22.56 29.97 22.8 29.96 22.88 29.86C22.93 29.78 22.89 29.62 22.89 29.62L23.18 29.54L23.13 29.73C23.07 30.49 22.28 30.24 22.23 30.27C22.09 30.35 22.14 30.44 22.16 30.52C22.16 30.8 22.12 31.42 22.04 31.51C21.96 31.59 21.72 31.64 21.66 31.62C21.5 31.57 21.08 31.17 21.04 31.04C20.59 31.12 20.47 30.7 20.47 30.7C20.05 30.81 19.96 30.31 19.96 30.31C19.81 30.37 19.59 30.29 19.55 30.19C19.49 30.03 19.63 29.73 19.63 29.73L19.56 29.35L19.57 29.34Z" fill="#0D943F"/>
<path fill-rule="evenodd" clip-rule="evenodd" d="M30.94 29.53C31.32 29.78 32.63 29.83 32.63 29.83L33.11 30.21C33.11 30.21 31.97 30.3 31.07 30.05C30.79 29.99 30.37 29.53 30.37 29.53H30.95H30.94Z" fill="#0D943F"/>
<path d="M42.7701 32.31C42.2701 32.31 41.8501 31.9 41.8501 31.39C41.8501 30.88 42.2801 30.47 42.7701 30.47C43.2601 30.47 43.6901 30.88 43.6901 31.39C43.6901 31.9 43.2601 32.31 42.7701 32.31ZM42.7701 32.47C43.3801 32.47 43.8601 31.99 43.8601 31.39C43.8601 30.79 43.3801 30.31 42.7701 30.31C42.1601 30.31 41.6801 30.79 41.6801 31.39C41.6801 31.99 42.1601 32.47 42.7701 32.47ZM42.9301 31.43C43.1401 31.43 43.3001 31.34 43.3001 31.1C43.3001 30.84 43.1001 30.79 42.8801 30.79H42.3601V31.97H42.5301V31.43H42.7301L43.0801 31.97H43.2801L42.9201 31.43H42.9301ZM42.5301 31.26V30.95H42.8501C42.9801 30.95 43.1401 30.97 43.1401 31.09C43.1401 31.28 42.8801 31.25 42.7301 31.25H42.5301V31.26Z" fill="#00AB4E"/>
<path d="M63.47 10.59C63.47 10.72 63.5 10.88 63.56 11.05C63.62 11.22 63.73 11.38 63.89 11.53C64.05 11.68 64.26 11.8 64.53 11.9C64.8 12 65.14 12.05 65.57 12.05C65.89 12.05 66.19 12.01 66.45 11.92C66.71 11.84 66.95 11.74 67.17 11.63C67.39 11.52 67.58 11.43 67.76 11.35C67.93 11.27 68.1 11.22 68.25 11.22C68.54 11.22 68.8 11.32 69.01 11.53C69.22 11.74 69.34 12.01 69.34 12.34C69.34 12.67 69.22 12.95 68.98 13.21C68.74 13.47 68.42 13.69 68.03 13.87C67.64 14.05 67.2 14.2 66.71 14.3C66.22 14.4 65.73 14.45 65.24 14.45C64.54 14.45 63.9 14.33 63.34 14.08C62.78 13.83 62.3 13.5 61.9 13.07C61.5 12.64 61.2 12.15 60.99 11.57C60.78 10.99 60.67 10.38 60.67 9.72C60.67 9.06 60.78 8.5 61.01 7.93C61.23 7.36 61.55 6.86 61.96 6.42C62.37 5.98 62.85 5.64 63.41 5.38C63.97 5.12 64.58 4.99 65.25 4.99C65.92 4.99 66.48 5.12 67 5.37C67.52 5.62 67.96 5.95 68.33 6.36C68.7 6.77 68.98 7.24 69.19 7.78C69.39 8.32 69.49 8.87 69.49 9.44C69.49 9.9 69.38 10.2 69.16 10.35C68.94 10.5 68.63 10.58 68.21 10.58H63.48L63.47 10.59ZM66.86 8.8C66.86 8.65 66.82 8.49 66.74 8.31C66.66 8.13 66.55 7.96 66.4 7.8C66.25 7.64 66.07 7.51 65.86 7.4C65.65 7.29 65.42 7.23 65.16 7.23C64.9 7.23 64.67 7.29 64.47 7.4C64.26 7.51 64.08 7.65 63.93 7.8C63.78 7.96 63.66 8.13 63.59 8.31C63.51 8.49 63.47 8.66 63.47 8.8H66.86Z" fill="#0D943F"/>
<path d="M79.19 12.94C79.19 13.32 79.07 13.64 78.83 13.9C78.59 14.16 78.27 14.29 77.88 14.29C77.55 14.29 77.29 14.2 77.09 14.02C76.89 13.84 76.74 13.65 76.65 13.45C76.36 13.81 76.04 14.06 75.69 14.22C75.34 14.38 74.91 14.45 74.41 14.45C73.84 14.45 73.31 14.33 72.82 14.08C72.33 13.83 71.9 13.5 71.54 13.07C71.18 12.64 70.89 12.15 70.69 11.57C70.48 10.99 70.38 10.38 70.38 9.72C70.38 9.06 70.48 8.44 70.69 7.87C70.9 7.29 71.18 6.79 71.54 6.37C71.9 5.95 72.33 5.61 72.82 5.36C73.31 5.11 73.84 4.99 74.41 4.99C74.91 4.99 75.34 5.07 75.69 5.22C76.04 5.38 76.36 5.63 76.65 5.99C76.74 5.79 76.88 5.6 77.09 5.42C77.29 5.24 77.55 5.15 77.88 5.15C78.27 5.15 78.59 5.28 78.83 5.54C79.07 5.8 79.19 6.12 79.19 6.5V12.9V12.94ZM74.78 7.53C74.49 7.53 74.23 7.59 74.01 7.71C73.79 7.83 73.6 7.99 73.45 8.19C73.3 8.39 73.19 8.63 73.11 8.89C73.03 9.16 72.99 9.44 72.99 9.75C72.99 10.06 73.03 10.34 73.11 10.6C73.19 10.87 73.3 11.1 73.45 11.3C73.6 11.5 73.79 11.66 74.01 11.78C74.23 11.9 74.49 11.96 74.78 11.96C75.07 11.96 75.33 11.9 75.55 11.78C75.77 11.66 75.96 11.5 76.11 11.3C76.26 11.1 76.38 10.86 76.45 10.6C76.52 10.34 76.57 10.05 76.57 9.75C76.57 9.45 76.53 9.16 76.45 8.89C76.37 8.62 76.26 8.39 76.11 8.19C75.96 7.99 75.77 7.83 75.55 7.71C75.33 7.59 75.07 7.53 74.78 7.53Z" fill="#0D943F"/>
<path d="M80.86 6.53C80.86 6.15 80.98 5.83 81.22 5.57C81.46 5.31 81.77 5.18 82.17 5.18C82.53 5.18 82.81 5.27 83.03 5.46C83.24 5.64 83.39 5.83 83.48 6.02C83.7 5.76 83.97 5.53 84.28 5.32C84.59 5.11 84.93 5.01 85.29 5.01C85.63 5.01 85.93 5.13 86.21 5.38C86.49 5.63 86.63 5.96 86.63 6.37C86.63 6.59 86.59 6.78 86.51 6.93C86.43 7.08 86.31 7.21 86.17 7.31C86.02 7.41 85.85 7.5 85.65 7.57C85.45 7.64 85.23 7.71 85 7.78C84.71 7.87 84.47 7.96 84.28 8.05C84.09 8.14 83.94 8.25 83.82 8.39C83.7 8.53 83.62 8.71 83.57 8.93C83.52 9.15 83.49 9.42 83.49 9.76V12.95C83.49 13.33 83.37 13.65 83.13 13.91C82.89 14.17 82.57 14.3 82.18 14.3C81.79 14.3 81.47 14.17 81.23 13.91C80.99 13.65 80.87 13.33 80.87 12.95V6.55L80.86 6.53Z" fill="#0D943F"/>
<path d="M90.45 12.35C90.76 12.5 90.97 12.64 91.06 12.79C91.15 12.94 91.2 13.17 91.2 13.47C91.2 13.74 91.1 13.98 90.9 14.18C90.7 14.39 90.36 14.49 89.89 14.49C89.07 14.49 88.44 14.22 87.98 13.68C87.52 13.14 87.29 12.39 87.29 11.42V2.63C87.29 2.26 87.41 1.95 87.66 1.68C87.91 1.42 88.22 1.29 88.6 1.29C88.98 1.29 89.28 1.42 89.52 1.68C89.76 1.94 89.89 2.26 89.89 2.63V11.2C89.89 11.56 89.95 11.83 90.07 12C90.19 12.18 90.32 12.3 90.44 12.35H90.45Z" fill="#0D943F"/>
<path d="M96.55 14.02C96.35 14.5 96.12 14.97 95.85 15.44C95.59 15.9 95.28 16.32 94.93 16.69C94.58 17.06 94.18 17.36 93.74 17.59C93.3 17.82 92.8 17.93 92.24 17.93C91.68 17.93 91.23 17.81 90.94 17.56C90.65 17.31 90.51 17 90.51 16.62C90.51 16.45 90.54 16.3 90.61 16.16C90.68 16.02 90.77 15.9 90.88 15.8C90.99 15.7 91.11 15.62 91.24 15.57C91.37 15.52 91.5 15.49 91.63 15.49C92.31 15.49 92.85 15.29 93.25 14.89C93.65 14.49 93.89 13.97 93.98 13.32L91.75 8.02C91.62 7.66 91.5 7.34 91.39 7.04C91.28 6.74 91.23 6.52 91.23 6.38C91.23 5.99 91.36 5.69 91.61 5.47C91.86 5.26 92.15 5.15 92.47 5.15C93.13 5.15 93.58 5.48 93.83 6.14L95.39 10.13L96.82 6.58C97 6.19 97.19 5.85 97.41 5.57C97.63 5.29 97.91 5.15 98.27 5.15C98.67 5.15 99 5.27 99.25 5.5C99.5 5.73 99.63 6.05 99.63 6.46C99.63 6.66 99.59 6.86 99.51 7.07C99.43 7.28 99.36 7.46 99.31 7.61L96.56 14L96.55 14.02Z" fill="#0D943F"/>
<path d="M64.1001 26.52C64.4101 26.67 64.6201 26.81 64.7101 26.96C64.8001 27.11 64.8501 27.34 64.8501 27.64C64.8501 27.91 64.7501 28.15 64.5501 28.35C64.3501 28.56 64.0101 28.66 63.5401 28.66C62.7301 28.66 62.0901 28.39 61.6301 27.85C61.1701 27.31 60.9401 26.56 60.9401 25.59V16.79C60.9401 16.42 61.0601 16.11 61.3101 15.84C61.5601 15.58 61.8701 15.45 62.2501 15.45C62.6301 15.45 62.9301 15.58 63.1701 15.84C63.4201 16.1 63.5401 16.42 63.5401 16.79V25.36C63.5401 25.72 63.6001 25.99 63.7301 26.16C63.8501 26.34 63.9701 26.46 64.1001 26.51V26.52Z" fill="#0D943F"/>
<path d="M68.08 24.76C68.08 24.89 68.11 25.05 68.17 25.22C68.23 25.39 68.34 25.55 68.5 25.7C68.66 25.85 68.87 25.97 69.14 26.07C69.41 26.17 69.75 26.22 70.18 26.22C70.51 26.22 70.8 26.18 71.06 26.09C71.32 26.01 71.56 25.91 71.78 25.8C72 25.69 72.19 25.6 72.37 25.52C72.54 25.44 72.71 25.39 72.86 25.39C73.15 25.39 73.41 25.49 73.62 25.7C73.84 25.91 73.95 26.18 73.95 26.51C73.95 26.84 73.83 27.12 73.59 27.38C73.35 27.64 73.04 27.86 72.64 28.04C72.25 28.22 71.81 28.37 71.32 28.47C70.83 28.57 70.34 28.62 69.84 28.62C69.14 28.62 68.5 28.5 67.94 28.25C67.38 28 66.89 27.67 66.5 27.24C66.1 26.82 65.8 26.32 65.59 25.74C65.38 25.16 65.27 24.55 65.27 23.89C65.27 23.23 65.38 22.67 65.6 22.1C65.82 21.53 66.14 21.03 66.55 20.59C66.96 20.15 67.44 19.81 68 19.55C68.56 19.29 69.17 19.16 69.84 19.16C70.51 19.16 71.07 19.29 71.59 19.54C72.11 19.79 72.55 20.12 72.92 20.53C73.29 20.94 73.57 21.41 73.77 21.95C73.97 22.49 74.07 23.04 74.07 23.61C74.07 24.07 73.96 24.37 73.74 24.52C73.52 24.67 73.21 24.75 72.79 24.75H68.06L68.08 24.76ZM71.47 22.97C71.47 22.82 71.43 22.66 71.35 22.48C71.27 22.3 71.16 22.13 71.01 21.97C70.86 21.81 70.68 21.68 70.47 21.57C70.26 21.46 70.03 21.4 69.77 21.4C69.51 21.4 69.28 21.46 69.07 21.57C68.86 21.68 68.68 21.82 68.53 21.97C68.38 22.13 68.26 22.3 68.19 22.48C68.11 22.66 68.07 22.83 68.07 22.97H71.46H71.47Z" fill="#0D943F"/>
<path d="M83.81 27.11C83.81 27.49 83.69 27.81 83.45 28.07C83.21 28.33 82.9 28.46 82.5 28.46C82.18 28.46 81.91 28.37 81.71 28.19C81.51 28.01 81.36 27.82 81.27 27.62C80.98 27.98 80.66 28.23 80.31 28.39C79.96 28.55 79.53 28.62 79.03 28.62C78.46 28.62 77.93 28.5 77.44 28.25C76.95 28 76.52 27.67 76.16 27.24C75.8 26.82 75.51 26.32 75.3 25.74C75.09 25.16 74.99 24.55 74.99 23.89C74.99 23.23 75.09 22.61 75.3 22.04C75.51 21.46 75.79 20.96 76.16 20.54C76.52 20.12 76.95 19.78 77.44 19.53C77.93 19.28 78.46 19.16 79.03 19.16C79.53 19.16 79.96 19.24 80.31 19.39C80.66 19.55 80.98 19.8 81.27 20.16C81.36 19.96 81.5 19.77 81.71 19.59C81.91 19.41 82.17 19.32 82.5 19.32C82.89 19.32 83.21 19.45 83.45 19.71C83.69 19.97 83.81 20.29 83.81 20.67V27.07V27.11ZM79.4 21.7C79.11 21.7 78.85 21.76 78.63 21.88C78.41 22 78.22 22.16 78.07 22.36C77.92 22.56 77.8 22.8 77.73 23.06C77.65 23.33 77.61 23.61 77.61 23.92C77.61 24.23 77.65 24.51 77.73 24.77C77.81 25.04 77.92 25.27 78.07 25.47C78.22 25.67 78.41 25.83 78.63 25.95C78.85 26.07 79.11 26.13 79.4 26.13C79.69 26.13 79.95 26.07 80.17 25.95C80.39 25.83 80.58 25.67 80.73 25.47C80.88 25.27 81 25.03 81.07 24.77C81.15 24.5 81.19 24.22 81.19 23.92C81.19 23.62 81.15 23.33 81.07 23.06C80.99 22.79 80.88 22.56 80.73 22.36C80.58 22.16 80.39 22 80.17 21.88C79.95 21.76 79.69 21.7 79.4 21.7Z" fill="#0D943F"/>
<path d="M85.48 20.71C85.48 20.33 85.6 20.01 85.84 19.75C86.08 19.49 86.4 19.36 86.79 19.36C87.15 19.36 87.43 19.45 87.65 19.64C87.86 19.82 88.01 20.01 88.1 20.2C88.32 19.94 88.59 19.71 88.9 19.5C89.21 19.29 89.55 19.19 89.91 19.19C90.24 19.19 90.55 19.31 90.83 19.56C91.11 19.81 91.25 20.14 91.25 20.55C91.25 20.77 91.21 20.96 91.12 21.11C91.03 21.26 90.92 21.39 90.78 21.49C90.64 21.59 90.46 21.68 90.26 21.75C90.06 21.82 89.84 21.89 89.61 21.96C89.32 22.05 89.08 22.14 88.89 22.23C88.7 22.32 88.55 22.43 88.43 22.57C88.31 22.71 88.23 22.89 88.18 23.11C88.13 23.33 88.1 23.6 88.1 23.94V27.13C88.1 27.51 87.98 27.83 87.74 28.09C87.5 28.35 87.18 28.48 86.79 28.48C86.4 28.48 86.08 28.35 85.84 28.09C85.6 27.83 85.48 27.51 85.48 27.13V20.73V20.71Z" fill="#0D943F"/>
<path d="M91.9401 20.71C91.9401 20.33 92.0601 20.01 92.3001 19.75C92.5401 19.49 92.8601 19.36 93.2501 19.36C93.6101 19.36 93.8901 19.45 94.1101 19.64C94.3201 19.82 94.4701 20.01 94.5601 20.2C94.7701 19.88 95.0601 19.63 95.4201 19.45C95.7801 19.28 96.2401 19.19 96.8101 19.19C97.2601 19.19 97.6801 19.25 98.0801 19.37C98.4801 19.49 98.8201 19.68 99.1201 19.93C99.4201 20.18 99.6501 20.5 99.8201 20.89C99.9901 21.28 100.07 21.74 100.07 22.27V27.11C100.07 27.49 99.9501 27.81 99.7101 28.07C99.4701 28.33 99.1501 28.46 98.7601 28.46C98.3701 28.46 98.0501 28.33 97.8101 28.07C97.5701 27.81 97.4501 27.49 97.4501 27.11V22.97C97.4501 22.51 97.3201 22.13 97.0701 21.84C96.8201 21.54 96.4601 21.4 96.0101 21.4C95.5601 21.4 95.2001 21.55 94.9401 21.84C94.6901 22.14 94.5601 22.51 94.5601 22.97V27.11C94.5601 27.49 94.4401 27.81 94.2001 28.07C93.9601 28.33 93.6401 28.46 93.2501 28.46C92.8601 28.46 92.5401 28.33 92.3001 28.07C92.0601 27.81 91.9401 27.49 91.9401 27.11V20.71Z" fill="#0D943F"/>
<path d="M102.95 18.56C102.74 18.56 102.54 18.52 102.35 18.44C102.17 18.36 102 18.25 101.86 18.11C101.72 17.97 101.61 17.81 101.53 17.62C101.45 17.43 101.4 17.23 101.4 17.02C101.4 16.56 101.55 16.19 101.85 15.89C102.15 15.59 102.51 15.45 102.94 15.45C103.37 15.45 103.75 15.6 104.05 15.89C104.36 16.19 104.51 16.56 104.51 17.02C104.51 17.23 104.47 17.43 104.38 17.62C104.3 17.81 104.18 17.97 104.05 18.11C103.91 18.25 103.74 18.36 103.55 18.44C103.35 18.52 103.15 18.56 102.94 18.56H102.95ZM104.79 26.49C105.1 26.65 105.31 26.8 105.42 26.95C105.53 27.1 105.58 27.33 105.58 27.63C105.58 27.89 105.47 28.12 105.26 28.33C105.05 28.54 104.71 28.65 104.24 28.65C103.42 28.65 102.79 28.38 102.33 27.84C101.87 27.3 101.64 26.55 101.64 25.58V20.63C101.64 20.27 101.77 19.97 102.02 19.71C102.27 19.45 102.58 19.32 102.95 19.32C103.32 19.32 103.63 19.45 103.89 19.71C104.15 19.97 104.28 20.27 104.28 20.63V25.36C104.28 25.72 104.34 25.98 104.45 26.15C104.56 26.32 104.68 26.43 104.8 26.48L104.79 26.49Z" fill="#0D943F"/>
<path d="M106.49 20.71C106.49 20.33 106.61 20.01 106.85 19.75C107.09 19.49 107.4 19.36 107.8 19.36C108.16 19.36 108.44 19.45 108.66 19.64C108.87 19.82 109.02 20.01 109.11 20.2C109.32 19.88 109.61 19.63 109.96 19.45C110.32 19.28 110.78 19.19 111.35 19.19C111.8 19.19 112.22 19.25 112.62 19.37C113.02 19.49 113.36 19.68 113.66 19.93C113.96 20.18 114.19 20.5 114.36 20.89C114.53 21.28 114.61 21.74 114.61 22.27V27.11C114.61 27.49 114.49 27.81 114.25 28.07C114.01 28.33 113.69 28.46 113.3 28.46C112.91 28.46 112.59 28.33 112.35 28.07C112.11 27.81 111.99 27.49 111.99 27.11V22.97C111.99 22.51 111.87 22.13 111.61 21.84C111.36 21.54 111 21.4 110.55 21.4C110.1 21.4 109.74 21.55 109.49 21.84C109.24 22.14 109.11 22.51 109.11 22.97V27.11C109.11 27.49 108.99 27.81 108.75 28.07C108.51 28.33 108.19 28.46 107.8 28.46C107.41 28.46 107.09 28.33 106.85 28.07C106.61 27.81 106.49 27.49 106.49 27.11V20.71Z" fill="#0D943F"/>
<path d="M124.68 27.5C124.68 28.34 124.55 29.05 124.3 29.63C124.05 30.21 123.71 30.68 123.27 31.05C122.83 31.41 122.33 31.68 121.75 31.85C121.17 32.02 120.57 32.1 119.93 32.1C119.6 32.1 119.2 32.07 118.75 32C118.3 31.93 117.87 31.82 117.47 31.66C117.07 31.5 116.73 31.3 116.45 31.06C116.17 30.82 116.03 30.51 116.03 30.15C116.03 30 116.06 29.86 116.13 29.72C116.2 29.58 116.28 29.46 116.38 29.35C116.48 29.24 116.6 29.16 116.72 29.1C116.85 29.04 116.98 29.01 117.11 29.01C117.3 29.01 117.48 29.05 117.65 29.13C117.82 29.21 118 29.3 118.2 29.4C118.4 29.5 118.64 29.59 118.9 29.67C119.17 29.75 119.49 29.79 119.87 29.79C120.69 29.79 121.25 29.59 121.57 29.19C121.89 28.79 122.05 28.22 122.05 27.48H122.02C121.73 27.88 121.37 28.15 120.94 28.28C120.51 28.41 120.08 28.48 119.64 28.48C119 28.48 118.45 28.35 117.98 28.1C117.51 27.85 117.12 27.51 116.8 27.09C116.48 26.67 116.24 26.18 116.09 25.63C115.93 25.08 115.86 24.51 115.86 23.92C115.86 23.26 115.96 22.64 116.17 22.07C116.38 21.49 116.66 20.99 117.02 20.57C117.38 20.15 117.81 19.81 118.3 19.56C118.79 19.31 119.32 19.19 119.89 19.19C120.39 19.19 120.82 19.27 121.17 19.42C121.52 19.58 121.84 19.83 122.13 20.19C122.22 19.99 122.36 19.8 122.57 19.62C122.78 19.44 123.03 19.35 123.36 19.35C123.75 19.35 124.07 19.48 124.31 19.74C124.55 20 124.67 20.32 124.67 20.7V27.49L124.68 27.5ZM122.06 23.91C122.06 23.61 122.02 23.32 121.94 23.05C121.86 22.78 121.75 22.55 121.6 22.35C121.45 22.15 121.26 21.99 121.04 21.87C120.82 21.75 120.56 21.69 120.27 21.69C119.98 21.69 119.72 21.75 119.5 21.87C119.28 21.99 119.09 22.15 118.94 22.35C118.79 22.55 118.68 22.79 118.6 23.05C118.52 23.32 118.48 23.6 118.48 23.91C118.48 24.55 118.63 25.08 118.94 25.51C119.25 25.94 119.69 26.16 120.27 26.16C120.85 26.16 121.29 25.94 121.6 25.51C121.91 25.08 122.06 24.55 122.06 23.91Z" fill="#0D943F"/>
<path d="M60.65 37.46C60.65 36.8 60.76 36.18 60.97 35.61C61.18 35.03 61.48 34.53 61.87 34.11C62.26 33.69 62.72 33.35 63.26 33.1C63.8 32.85 64.4 32.73 65.06 32.73C65.35 32.73 65.68 32.75 66.04 32.81C66.4 32.86 66.74 32.95 67.05 33.08C67.36 33.21 67.63 33.38 67.84 33.61C68.05 33.83 68.16 34.12 68.16 34.46C68.16 34.8 68.06 35.11 67.85 35.34C67.64 35.57 67.39 35.68 67.09 35.68C66.92 35.68 66.78 35.66 66.65 35.61C66.53 35.57 66.4 35.52 66.27 35.46C66.14 35.4 66 35.35 65.83 35.31C65.66 35.27 65.46 35.24 65.2 35.24C64.87 35.24 64.58 35.3 64.34 35.42C64.1 35.54 63.9 35.7 63.74 35.9C63.58 36.1 63.46 36.34 63.38 36.6C63.3 36.87 63.26 37.15 63.26 37.46C63.26 37.77 63.3 38.05 63.38 38.31C63.46 38.58 63.57 38.81 63.72 39.01C63.87 39.21 64.06 39.37 64.28 39.49C64.5 39.61 64.76 39.67 65.05 39.67C65.34 39.67 65.58 39.65 65.79 39.6C66 39.55 66.19 39.5 66.34 39.44C66.5 39.38 66.63 39.33 66.75 39.28C66.87 39.24 66.98 39.21 67.08 39.21C67.23 39.21 67.37 39.24 67.5 39.31C67.63 39.38 67.75 39.47 67.84 39.58C67.93 39.69 68.01 39.82 68.07 39.96C68.13 40.1 68.15 40.24 68.15 40.37C68.15 40.69 68.04 40.97 67.82 41.2C67.6 41.43 67.32 41.62 67 41.76C66.68 41.9 66.34 42.01 65.98 42.08C65.62 42.15 65.32 42.18 65.06 42.18C64.4 42.18 63.8 42.06 63.26 41.81C62.72 41.56 62.26 41.23 61.87 40.8C61.48 40.38 61.19 39.88 60.97 39.3C60.76 38.72 60.65 38.11 60.65 37.45V37.46Z" fill="#0D943F"/>
<path d="M71.55 38.32C71.55 38.45 71.58 38.61 71.64 38.78C71.7 38.95 71.81 39.11 71.97 39.26C72.13 39.41 72.34 39.53 72.61 39.63C72.88 39.73 73.22 39.78 73.65 39.78C73.98 39.78 74.27 39.74 74.53 39.65C74.79 39.57 75.03 39.47 75.25 39.36C75.47 39.25 75.66 39.16 75.84 39.08C76.01 39 76.18 38.95 76.33 38.95C76.62 38.95 76.88 39.05 77.09 39.26C77.31 39.47 77.42 39.74 77.42 40.07C77.42 40.4 77.3 40.68 77.06 40.94C76.82 41.2 76.51 41.42 76.11 41.6C75.72 41.78 75.28 41.93 74.79 42.03C74.3 42.13 73.81 42.18 73.31 42.18C72.61 42.18 71.97 42.06 71.41 41.81C70.85 41.56 70.36 41.23 69.97 40.8C69.57 40.38 69.27 39.88 69.06 39.3C68.85 38.72 68.74 38.11 68.74 37.45C68.74 36.79 68.85 36.23 69.07 35.66C69.29 35.09 69.61 34.59 70.02 34.15C70.43 33.71 70.91 33.37 71.47 33.11C72.03 32.85 72.64 32.72 73.31 32.72C73.98 32.72 74.54 32.85 75.06 33.1C75.58 33.35 76.02 33.68 76.39 34.09C76.76 34.5 77.04 34.97 77.24 35.51C77.44 36.05 77.54 36.6 77.54 37.17C77.54 37.63 77.43 37.93 77.21 38.08C76.99 38.23 76.68 38.31 76.26 38.31H71.53L71.55 38.32ZM74.94 36.53C74.94 36.38 74.9 36.22 74.82 36.04C74.74 35.86 74.63 35.69 74.48 35.53C74.33 35.37 74.15 35.24 73.94 35.13C73.73 35.02 73.5 34.96 73.24 34.96C72.98 34.96 72.75 35.02 72.54 35.13C72.33 35.24 72.15 35.38 72 35.53C71.85 35.69 71.73 35.86 71.66 36.04C71.58 36.22 71.54 36.39 71.54 36.53H74.93H74.94Z" fill="#0D943F"/>
<path d="M78.86 34.26C78.86 33.88 78.98 33.56 79.22 33.3C79.46 33.04 79.78 32.91 80.17 32.91C80.53 32.91 80.81 33 81.03 33.19C81.24 33.37 81.39 33.56 81.48 33.75C81.69 33.43 81.98 33.18 82.34 33C82.7 32.83 83.16 32.74 83.73 32.74C84.18 32.74 84.6 32.8 85 32.92C85.4 33.04 85.74 33.23 86.04 33.48C86.34 33.73 86.57 34.05 86.74 34.44C86.91 34.83 86.99 35.29 86.99 35.82V40.66C86.99 41.04 86.87 41.36 86.63 41.62C86.39 41.88 86.07 42.01 85.68 42.01C85.29 42.01 84.97 41.88 84.73 41.62C84.49 41.36 84.37 41.04 84.37 40.66V36.52C84.37 36.06 84.24 35.68 83.99 35.39C83.74 35.09 83.38 34.95 82.93 34.95C82.48 34.95 82.12 35.1 81.86 35.39C81.61 35.69 81.48 36.06 81.48 36.52V40.66C81.48 41.04 81.36 41.36 81.12 41.62C80.88 41.88 80.56 42.01 80.17 42.01C79.78 42.01 79.46 41.88 79.22 41.62C78.98 41.36 78.86 41.04 78.86 40.66V34.26Z" fill="#0D943F"/>
<path d="M89.31 35.4H89.03C88.6 35.4 88.27 35.31 88.02 35.12C87.77 34.94 87.64 34.63 87.64 34.21C87.64 33.79 87.77 33.48 88.02 33.3C88.27 33.12 88.61 33.02 89.03 33.02H89.31V31.29C89.31 30.91 89.43 30.59 89.68 30.33C89.93 30.07 90.24 29.94 90.62 29.94C91 29.94 91.33 30.07 91.58 30.33C91.83 30.59 91.95 30.91 91.95 31.29V33.02H92.67C93.1 33.02 93.43 33.11 93.67 33.3C93.91 33.48 94.03 33.79 94.03 34.21C94.03 34.63 93.91 34.94 93.67 35.12C93.43 35.3 93.1 35.4 92.67 35.4H91.95V38.84C91.95 39.19 92 39.45 92.1 39.62C92.2 39.79 92.33 39.92 92.48 40C92.63 40.08 92.8 40.13 92.97 40.15C93.14 40.17 93.32 40.21 93.48 40.25C93.64 40.29 93.78 40.37 93.89 40.48C94 40.59 94.07 40.76 94.09 41.01C94.11 41.29 94.07 41.51 93.96 41.66C93.85 41.81 93.72 41.93 93.55 42.01C93.38 42.09 93.2 42.14 92.99 42.16C92.78 42.18 92.59 42.19 92.41 42.19C92.01 42.19 91.62 42.14 91.24 42.04C90.86 41.94 90.54 41.77 90.25 41.53C89.96 41.29 89.74 40.97 89.56 40.58C89.39 40.19 89.3 39.7 89.3 39.12V35.4H89.31Z" fill="#0D943F"/>
<path d="M95.1 34.26C95.1 33.88 95.22 33.56 95.46 33.3C95.7 33.04 96.01 32.91 96.41 32.91C96.77 32.91 97.05 33 97.27 33.19C97.48 33.37 97.63 33.56 97.72 33.75C97.94 33.49 98.21 33.26 98.52 33.05C98.83 32.84 99.17 32.74 99.53 32.74C99.87 32.74 100.17 32.86 100.45 33.11C100.73 33.36 100.87 33.69 100.87 34.1C100.87 34.32 100.83 34.51 100.75 34.66C100.67 34.81 100.55 34.94 100.41 35.04C100.26 35.14 100.09 35.23 99.89 35.3C99.69 35.37 99.47 35.44 99.24 35.51C98.95 35.6 98.71 35.69 98.52 35.78C98.33 35.87 98.18 35.98 98.06 36.12C97.94 36.26 97.86 36.44 97.81 36.66C97.76 36.88 97.73 37.15 97.73 37.49V40.68C97.73 41.06 97.61 41.38 97.37 41.64C97.13 41.9 96.81 42.03 96.42 42.03C96.03 42.03 95.71 41.9 95.47 41.64C95.23 41.38 95.11 41.06 95.11 40.68V34.28L95.1 34.26Z" fill="#0D943F"/>
<path d="M103.8 38.32C103.8 38.45 103.83 38.61 103.89 38.78C103.95 38.95 104.06 39.11 104.22 39.26C104.38 39.41 104.59 39.53 104.86 39.63C105.13 39.73 105.47 39.78 105.9 39.78C106.22 39.78 106.52 39.74 106.78 39.65C107.04 39.57 107.28 39.47 107.5 39.36C107.72 39.25 107.91 39.16 108.09 39.08C108.26 39 108.43 38.95 108.58 38.95C108.87 38.95 109.13 39.05 109.34 39.26C109.55 39.47 109.67 39.74 109.67 40.07C109.67 40.4 109.55 40.68 109.31 40.94C109.07 41.2 108.75 41.42 108.36 41.6C107.97 41.78 107.53 41.93 107.04 42.03C106.55 42.13 106.06 42.18 105.57 42.18C104.87 42.18 104.23 42.06 103.67 41.81C103.11 41.56 102.63 41.23 102.23 40.8C101.83 40.37 101.53 39.88 101.32 39.3C101.11 38.72 101 38.11 101 37.45C101 36.79 101.11 36.23 101.33 35.66C101.55 35.09 101.87 34.59 102.28 34.15C102.69 33.71 103.17 33.37 103.73 33.11C104.29 32.85 104.9 32.72 105.57 32.72C106.24 32.72 106.8 32.85 107.32 33.1C107.84 33.35 108.28 33.68 108.65 34.09C109.02 34.5 109.3 34.97 109.51 35.51C109.71 36.05 109.81 36.6 109.81 37.17C109.81 37.63 109.7 37.93 109.48 38.08C109.26 38.23 108.95 38.31 108.53 38.31H103.8V38.32ZM107.19 36.53C107.19 36.38 107.15 36.22 107.07 36.04C106.99 35.86 106.88 35.69 106.73 35.53C106.58 35.37 106.4 35.24 106.19 35.13C105.98 35.02 105.75 34.96 105.49 34.96C105.23 34.96 105 35.02 104.8 35.13C104.59 35.24 104.41 35.38 104.26 35.53C104.11 35.69 103.99 35.86 103.92 36.04C103.84 36.22 103.8 36.39 103.8 36.53H107.19Z" fill="#0D943F"/>
</g>
<defs>
<clipPath id="clip0_2087_24">
<rect width="124.68" height="48" fill="white"/>
</clipPath>
</defs>
</svg>
