<svg width="198" height="56" viewBox="0 0 198 56" fill="none" xmlns="http://www.w3.org/2000/svg">
<mask id="mask0_2147_924" style="mask-type:luminance" maskUnits="userSpaceOnUse" x="0" y="0" width="198" height="56">
<path d="M198 0.797859H0V55.1439H198V0.797859Z" fill="white"/>
</mask>
<g mask="url(#mask0_2147_924)">
<path d="M71.6573 3.16351C72.6779 3.16351 73.4516 3.32335 73.9619 3.65902C74.4722 3.9787 74.7356 4.49019 74.7356 5.14554C74.7356 5.80089 74.4887 6.28041 73.9784 6.6001C73.4681 6.91978 72.6944 7.07962 71.6573 7.07962H68.1345V10.3883H71.1799C72.217 10.3883 72.9907 10.5482 73.501 10.8679C74.0113 11.1875 74.2582 11.683 74.2582 12.3384C74.2582 12.9937 74.0113 13.4893 73.501 13.8089C72.9907 14.1286 72.217 14.2885 71.1799 14.2885H68.1345V17.757H71.789C72.8261 17.757 73.5998 17.9169 74.1101 18.2365C74.6204 18.5562 74.8673 19.0517 74.8673 19.6911C74.8673 20.3305 74.6204 20.8419 74.1101 21.1616C73.5998 21.4813 72.8261 21.6412 71.789 21.6412H66.7353C65.6159 21.6412 64.8422 21.4493 64.4307 21.0817C64.0191 20.7141 63.8051 20.0108 63.8051 18.9878V6.12057C63.8051 4.9857 64.0191 4.21846 64.4636 3.78689C64.908 3.35532 65.6817 3.14753 66.7847 3.14753H71.6573V3.16351Z" fill="white"/>
<path d="M75.9867 18.8599V10.6121C75.9867 9.60511 76.1513 8.85386 76.497 8.37433C76.8427 7.89481 77.3695 7.63906 78.0773 7.63906C78.5053 7.63906 78.884 7.75095 79.2132 7.95875C79.5424 8.18252 79.8387 8.50221 80.0857 8.94976C80.5301 8.47024 81.0569 8.11859 81.6495 7.89481C82.2421 7.67103 82.9664 7.55914 83.806 7.55914C85.4686 7.55914 86.7361 8.02268 87.6086 8.94976C88.4811 9.87684 88.9255 11.2195 88.9255 12.9778V18.8599C88.9255 19.8669 88.7445 20.6182 88.3988 21.1137C88.0531 21.6092 87.5263 21.849 86.802 21.849C86.0777 21.849 85.5509 21.6092 85.2052 21.1137C84.8595 20.6182 84.6784 19.8669 84.6784 18.8599V14.2245C84.6784 13.0737 84.4974 12.2585 84.1517 11.779C83.806 11.2994 83.2134 11.0437 82.4067 11.0437C81.633 11.0437 81.0733 11.2994 80.7112 11.7949C80.349 12.3064 80.168 13.0896 80.168 14.1606V18.8599C80.168 19.8669 79.9869 20.6182 79.6412 21.1137C79.2955 21.6092 78.7687 21.849 78.0444 21.849C77.3201 21.849 76.8098 21.6092 76.4641 21.1137C76.1184 20.6182 75.9538 19.8669 75.9538 18.8599H75.9867Z" fill="white"/>
<path d="M92.58 11.5871H92.4154C91.6746 11.5871 91.0985 11.4273 90.6705 11.1076C90.2425 10.7879 90.0449 10.3564 90.0449 9.81291C90.0449 9.26945 90.2589 8.82189 90.6705 8.51819C91.0985 8.21449 91.724 8.03867 92.5635 7.99072V6.18451C92.5635 5.17751 92.7446 4.42626 93.0903 3.93075C93.436 3.43524 93.9628 3.19548 94.6871 3.19548C95.4114 3.19548 95.9217 3.43524 96.2674 3.93075C96.6131 4.42626 96.7777 5.17751 96.7777 6.18451V7.99072H97.1399C97.9794 7.99072 98.6214 8.15056 99.0823 8.47024C99.5433 8.78992 99.7737 9.23748 99.7737 9.81291C99.7737 10.3883 99.5433 10.8359 99.0988 11.1396C98.6543 11.4433 97.9794 11.5871 97.0905 11.5871H96.7448V18.8599C96.7448 19.8829 96.5802 20.6342 96.2345 21.1137C95.8888 21.5932 95.362 21.849 94.6542 21.849C93.9463 21.849 93.4031 21.6092 93.0574 21.1137C92.7117 20.6182 92.5306 19.8669 92.5306 18.8599V11.5871H92.58Z" fill="white"/>
<path d="M104.12 15.8869C104.218 16.6541 104.548 17.2615 105.091 17.6931C105.651 18.1246 106.375 18.3484 107.297 18.3484C108.087 18.3484 108.976 18.1246 109.947 17.6771C110.918 17.2295 111.511 17.0058 111.741 17.0058C112.235 17.0058 112.647 17.1496 112.959 17.4533C113.272 17.757 113.437 18.1246 113.437 18.6042C113.437 19.4833 112.811 20.2825 111.544 20.9858C110.276 21.6891 108.795 22.0408 107.099 22.0408C105.025 22.0408 103.28 21.3534 101.897 19.9628C100.498 18.5882 99.8066 16.8459 99.8066 14.768C99.8066 12.69 100.482 10.9318 101.831 9.52519C103.181 8.13457 104.877 7.43127 106.885 7.43127C108.893 7.43127 110.457 8.08662 111.774 9.39732C113.091 10.708 113.75 12.3224 113.75 14.2085C113.75 14.8319 113.601 15.2635 113.322 15.5033C113.042 15.743 112.482 15.8709 111.659 15.8709H104.136L104.12 15.8869ZM104.07 13.2015H109.634C109.585 12.5142 109.289 11.9228 108.778 11.4593C108.251 10.9957 107.642 10.756 106.918 10.756C106.194 10.756 105.585 10.9797 105.074 11.4113C104.564 11.8589 104.235 12.4503 104.087 13.1856L104.07 13.2015Z" fill="white"/>
<path d="M115.149 18.8599V10.6121C115.149 9.60511 115.313 8.85386 115.659 8.37433C116.005 7.89481 116.532 7.63906 117.239 7.63906C117.667 7.63906 118.046 7.75095 118.375 7.95875C118.705 8.18252 119.001 8.50221 119.248 8.94976C119.676 8.48622 120.137 8.15056 120.631 7.91079C121.124 7.67103 121.602 7.55914 122.112 7.55914C122.688 7.55914 123.199 7.76694 123.627 8.16654C124.055 8.56614 124.252 9.04567 124.252 9.58913C124.252 10.4043 123.478 11.0916 121.931 11.6511C121.371 11.8429 120.96 12.0027 120.68 12.1306C120.153 12.3704 119.791 12.6581 119.626 12.9458C119.445 13.2495 119.363 13.793 119.363 14.5762V18.8439C119.363 19.8509 119.182 20.6022 118.836 21.0977C118.491 21.5932 117.964 21.833 117.239 21.833C116.515 21.833 116.005 21.5932 115.659 21.0977C115.313 20.6022 115.149 19.8509 115.149 18.8439V18.8599Z" fill="white"/>
<path d="M127.281 11.5871H127.116C126.376 11.5871 125.799 11.4273 125.371 11.1076C124.943 10.7879 124.746 10.3564 124.746 9.81291C124.746 9.26945 124.96 8.82189 125.371 8.51819C125.799 8.21449 126.425 8.03867 127.265 7.99072V6.18451C127.265 5.17751 127.446 4.42626 127.791 3.93075C128.137 3.43524 128.664 3.19548 129.388 3.19548C130.112 3.19548 130.623 3.43524 130.968 3.93075C131.314 4.42626 131.479 5.17751 131.479 6.18451V7.99072H131.841C132.68 7.99072 133.322 8.15056 133.8 8.47024C134.261 8.78992 134.491 9.23748 134.491 9.81291C134.491 10.3883 134.261 10.8359 133.816 11.1396C133.372 11.4433 132.697 11.5871 131.808 11.5871H131.462V18.8599C131.462 19.8829 131.298 20.6342 130.952 21.1137C130.606 21.5932 130.079 21.849 129.372 21.849C128.664 21.849 128.121 21.6092 127.775 21.1137C127.429 20.6182 127.248 19.8669 127.248 18.8599V11.5871H127.281Z" fill="white"/>
<path d="M144.401 20.4264C143.973 20.9379 143.463 21.3215 142.854 21.5932C142.245 21.8649 141.586 21.9928 140.878 21.9928C139.084 21.9928 137.569 21.3055 136.335 19.9149C135.1 18.5402 134.491 16.814 134.491 14.736C134.491 12.6581 135.133 10.9797 136.401 9.57314C137.668 8.18252 139.216 7.47922 141.043 7.47922C141.751 7.47922 142.393 7.59111 142.936 7.83087C143.496 8.07063 143.973 8.43827 144.401 8.93378C144.648 8.50221 144.928 8.18252 145.273 7.95875C145.619 7.73497 145.998 7.62308 146.409 7.62308C147.117 7.62308 147.644 7.86284 147.973 8.34236C148.319 8.82189 148.484 9.57314 148.484 10.5961V18.8439C148.484 19.8509 148.319 20.6022 147.973 21.0977C147.628 21.5932 147.117 21.833 146.409 21.833C145.932 21.833 145.537 21.7211 145.224 21.4973C144.895 21.2735 144.631 20.9059 144.401 20.4104V20.4264ZM138.837 14.6881C138.837 15.6951 139.084 16.5103 139.594 17.1176C140.105 17.725 140.763 18.0447 141.57 18.0447C142.376 18.0447 143.002 17.741 143.512 17.1176C144.022 16.4943 144.269 15.6791 144.269 14.6881C144.269 13.697 144.022 12.9298 143.512 12.3224C143.002 11.715 142.36 11.4113 141.57 11.4113C140.779 11.4113 140.121 11.715 139.611 12.3224C139.1 12.9298 138.853 13.713 138.853 14.6881H138.837Z" fill="white"/>
<path d="M150.656 4.18649C150.656 3.53114 150.903 2.9717 151.381 2.50816C151.858 2.04462 152.434 1.80486 153.109 1.80486C153.784 1.80486 154.344 2.04462 154.805 2.50816C155.282 2.9717 155.513 3.53114 155.513 4.18649C155.513 4.84184 155.282 5.40129 154.821 5.86483C154.36 6.32837 153.784 6.55214 153.126 6.55214C152.467 6.55214 151.858 6.32837 151.397 5.86483C150.92 5.40129 150.689 4.84184 150.689 4.18649H150.656ZM155.167 18.8759C155.167 19.8989 155.002 20.6501 154.657 21.1297C154.311 21.6092 153.801 21.8649 153.093 21.8649C152.385 21.8649 151.842 21.6252 151.496 21.1297C151.15 20.6342 150.969 19.8829 150.969 18.8759V10.6281C150.969 9.6211 151.134 8.86984 151.48 8.39032C151.825 7.91079 152.352 7.65505 153.076 7.65505C153.801 7.65505 154.311 7.89481 154.64 8.39032C154.986 8.86984 155.151 9.6211 155.151 10.6281V18.8759H155.167Z" fill="white"/>
<path d="M157.504 18.8599V10.6121C157.504 9.60511 157.669 8.85386 158.015 8.37433C158.36 7.89481 158.887 7.63906 159.595 7.63906C160.023 7.63906 160.402 7.75095 160.731 7.95875C161.06 8.16654 161.356 8.50221 161.603 8.94976C162.048 8.47024 162.575 8.11859 163.167 7.89481C163.76 7.67103 164.484 7.55914 165.324 7.55914C166.986 7.55914 168.254 8.02268 169.126 8.94976C169.999 9.87684 170.443 11.2195 170.443 12.9778V18.8599C170.443 19.8669 170.262 20.6182 169.917 21.1137C169.571 21.6092 169.044 21.849 168.32 21.849C167.595 21.849 167.069 21.6092 166.723 21.1137C166.377 20.6182 166.196 19.8669 166.196 18.8599V14.2245C166.196 13.0737 166.015 12.2585 165.669 11.779C165.324 11.2994 164.731 11.0437 163.924 11.0437C163.151 11.0437 162.591 11.2994 162.229 11.7949C161.867 12.3064 161.686 13.0896 161.686 14.1606V18.8599C161.686 19.8669 161.505 20.6182 161.159 21.1137C160.813 21.6092 160.286 21.849 159.562 21.849C158.838 21.849 158.328 21.6092 157.982 21.1137C157.636 20.6182 157.472 19.8669 157.472 18.8599H157.504Z" fill="white"/>
<path d="M176.732 15.8869C176.83 16.6541 177.16 17.2615 177.703 17.6931C178.263 18.1246 178.987 18.3484 179.909 18.3484C180.699 18.3484 181.588 18.1246 182.559 17.6771C183.53 17.2295 184.123 17.0058 184.353 17.0058C184.847 17.0058 185.259 17.1496 185.572 17.4533C185.884 17.757 186.049 18.1246 186.049 18.6042C186.049 19.4833 185.423 20.2825 184.156 20.9858C182.888 21.6891 181.407 22.0408 179.711 22.0408C177.637 22.0408 175.892 21.3534 174.509 19.9628C173.11 18.5882 172.419 16.8459 172.419 14.768C172.419 12.69 173.094 10.9318 174.443 9.52519C175.793 8.13457 177.489 7.43127 179.497 7.43127C181.506 7.43127 183.069 8.08662 184.386 9.39732C185.703 10.708 186.362 12.3224 186.362 14.2085C186.362 14.8319 186.214 15.2635 185.934 15.5033C185.654 15.743 185.094 15.8709 184.271 15.8709H176.748L176.732 15.8869ZM176.682 13.2015H182.246C182.197 12.5142 181.901 11.9228 181.39 11.4593C180.864 10.9957 180.238 10.756 179.53 10.756C178.822 10.756 178.197 10.9797 177.686 11.4113C177.176 11.8589 176.847 12.4503 176.699 13.1856L176.682 13.2015Z" fill="white"/>
<path d="M188.205 18.8599V10.6121C188.205 9.60511 188.37 8.85386 188.716 8.37433C189.061 7.89481 189.588 7.63906 190.296 7.63906C190.724 7.63906 191.103 7.75095 191.432 7.95875C191.761 8.16654 192.057 8.50221 192.304 8.94976C192.732 8.48622 193.193 8.15056 193.687 7.91079C194.181 7.67103 194.658 7.55914 195.169 7.55914C195.745 7.55914 196.255 7.76694 196.683 8.16654C197.111 8.56614 197.309 9.04567 197.309 9.58913C197.309 10.4043 196.535 11.0916 194.987 11.6511C194.428 11.8429 194.016 12.0027 193.736 12.1306C193.21 12.3704 192.847 12.6581 192.683 12.9458C192.518 13.2335 192.419 13.793 192.419 14.5762V18.8439C192.419 19.8509 192.238 20.6022 191.893 21.0977C191.547 21.5932 191.02 21.833 190.296 21.833C189.572 21.833 189.061 21.5932 188.716 21.0977C188.37 20.6022 188.205 19.8509 188.205 18.8439V18.8599Z" fill="white"/>
<path d="M54.8007 19.8829V20.5702C54.8007 21.0178 54.7348 21.3534 54.5867 21.5772C54.4385 21.801 54.2245 21.8969 53.9117 21.8969C53.599 21.8969 53.385 21.785 53.2368 21.5612C53.0887 21.3375 53.0063 21.0018 53.0063 20.5542V17.3095C53.0063 16.8619 53.0887 16.5262 53.2368 16.3184C53.385 16.0947 53.6154 15.9828 53.9117 15.9828C54.208 15.9828 54.4385 16.0947 54.5867 16.3184C54.7348 16.5422 54.8007 16.8779 54.8007 17.3254V18.0128H60.2001C60.661 18.0128 61.0067 18.0927 61.2207 18.2365C61.4511 18.3964 61.5499 18.6202 61.5499 18.9398C61.5499 19.2595 61.4347 19.4833 61.2207 19.6431C60.9902 19.803 60.661 19.8669 60.2001 19.8669H54.8007V19.8829Z" fill="white"/>
<path d="M55.6073 13.777C55.3933 13.5852 55.2451 13.3614 55.1463 13.1216C55.0476 12.8819 55.0147 12.5782 55.0147 12.2105C55.0147 11.4912 55.2287 10.9478 55.6402 10.5642C56.0682 10.1805 56.6773 9.98873 57.4839 9.98873H60.1671C60.6281 9.98873 60.9737 10.0687 61.1877 10.2125C61.4182 10.3564 61.517 10.5961 61.517 10.8998C61.517 11.2035 61.4017 11.4433 61.1877 11.5871C60.9573 11.731 60.6281 11.8109 60.1671 11.8109H58.0436C57.5168 11.8109 57.1547 11.8908 56.9242 12.0347C56.6937 12.1945 56.595 12.4343 56.595 12.786C56.595 13.1216 56.7102 13.3614 56.9407 13.5212C57.1711 13.6811 57.5333 13.761 58.0271 13.761H60.1671C60.6281 13.761 60.9737 13.8409 61.1877 13.9848C61.4182 14.1286 61.517 14.3684 61.517 14.6721C61.517 14.9758 61.4017 15.2155 61.1877 15.3594C60.9573 15.5033 60.6281 15.5832 60.1671 15.5832H53.7471C53.2862 15.5832 52.9405 15.5033 52.71 15.3594C52.4796 15.2155 52.3808 14.9758 52.3808 14.6721C52.3808 14.3684 52.496 14.1286 52.7265 13.9848C52.957 13.8409 53.3027 13.761 53.7471 13.761H55.6073V13.777Z" fill="white"/>
<path d="M58.8173 7.28741C59.163 7.23946 59.4428 7.11159 59.6403 6.87183C59.8379 6.63207 59.9367 6.31238 59.9367 5.91278C59.9367 5.57711 59.8379 5.19349 59.6239 4.77791C59.4263 4.36232 59.3111 4.10657 59.3111 4.01067C59.3111 3.80288 59.377 3.62705 59.5087 3.48319C59.6403 3.35532 59.8214 3.2754 60.0354 3.2754C60.4305 3.2754 60.7927 3.54713 61.1219 4.09059C61.4511 4.63405 61.5993 5.27341 61.5993 6.00868C61.5993 6.9038 61.2865 7.65505 60.661 8.26245C60.0354 8.86984 59.2453 9.15756 58.2905 9.15756C57.3357 9.15756 56.5456 8.86984 55.9036 8.27843C55.2616 7.68702 54.9488 6.96773 54.9488 6.0886C54.9488 5.20948 55.2451 4.53815 55.8542 3.9787C56.4468 3.40327 57.1876 3.13154 58.06 3.13154C58.3399 3.13154 58.5374 3.19548 58.6526 3.32335C58.7679 3.45122 58.8173 3.69099 58.8173 4.04264V7.28741ZM57.5991 7.3034V4.90578C57.2863 4.92176 57.0229 5.04964 56.8089 5.27341C56.5949 5.49719 56.4962 5.76892 56.4962 6.07262C56.4962 6.37632 56.5949 6.64805 56.7925 6.87183C56.99 7.0956 57.2699 7.23946 57.5991 7.3034Z" fill="white"/>
<path d="M65.5501 37.2896C64.8752 37.2896 64.4142 37.1777 64.1673 36.9539C63.9204 36.7302 63.7887 36.3146 63.7887 35.7072V28.0348C63.7887 27.3635 63.9204 26.8999 64.1838 26.6442C64.4472 26.3884 64.9081 26.2606 65.5666 26.2606H67.6901C68.8095 26.2606 69.6819 26.5003 70.3075 26.9798C70.933 27.4594 71.2293 28.1307 71.2293 28.9938C71.2293 29.5373 71.1141 29.9849 70.8836 30.3365C70.6532 30.6882 70.3075 30.9599 69.8301 31.1677C70.5709 31.3435 71.147 31.6792 71.5421 32.1587C71.9372 32.6382 72.1347 33.2456 72.1347 33.9649C72.1347 35.0039 71.7726 35.8191 71.0647 36.4105C70.3569 37.0019 69.3692 37.2896 68.0852 37.2896H65.5336H65.5501ZM66.3896 30.5603H67.4761C67.8547 30.5603 68.1675 30.4644 68.3979 30.2726C68.6284 30.0808 68.7436 29.825 68.7436 29.5053C68.7436 29.1857 68.6284 28.9139 68.3815 28.7061C68.1346 28.4983 67.8218 28.4184 67.4267 28.4184H66.3732V30.5763L66.3896 30.5603ZM66.3896 35.1318H67.6901C68.2662 35.1318 68.6942 35.0199 68.9906 34.8121C69.2869 34.6043 69.435 34.2846 69.435 33.885C69.435 33.4854 69.2869 33.1497 68.9906 32.9579C68.6942 32.7501 68.2498 32.6542 67.6242 32.6542H66.3732V35.1318H66.3896Z" fill="white"/>
<path d="M73.501 35.6113V30.7041C73.501 30.0968 73.5998 29.6652 73.8138 29.3615C74.0113 29.0738 74.3406 28.9299 74.7686 28.9299C75.0155 28.9299 75.246 28.9938 75.4435 29.1217C75.641 29.2496 75.8221 29.4414 75.9703 29.7131C76.2337 29.4414 76.5135 29.2336 76.7934 29.0898C77.0897 28.9459 77.386 28.882 77.6823 28.882C78.028 28.882 78.3243 28.9938 78.5877 29.2336C78.8346 29.4734 78.9663 29.7611 78.9663 30.0808C78.9663 30.5763 78.5054 30.9759 77.5835 31.3115C77.2543 31.4234 77.0074 31.5193 76.8427 31.5993C76.53 31.7431 76.316 31.903 76.2172 32.0948C76.1184 32.2706 76.069 32.6063 76.069 33.0698V35.6113C76.069 36.2187 75.9703 36.6662 75.7563 36.9539C75.5423 37.2417 75.2295 37.3855 74.8015 37.3855C74.3735 37.3855 74.0607 37.2417 73.8467 36.9539C73.6492 36.6662 73.534 36.2187 73.534 35.6113H73.501Z" fill="white"/>
<path d="M79.4437 26.868C79.4437 26.4843 79.5918 26.1487 79.8717 25.861C80.1515 25.5732 80.4972 25.4454 80.9088 25.4454C81.3203 25.4454 81.6495 25.5892 81.9294 25.861C82.2092 26.1327 82.3574 26.4684 82.3574 26.868C82.3574 27.2676 82.2257 27.5872 81.9458 27.875C81.666 28.1467 81.3203 28.2905 80.9252 28.2905C80.5301 28.2905 80.168 28.1467 79.8881 27.875C79.6083 27.6032 79.4601 27.2676 79.4601 26.868H79.4437ZM82.1434 35.6113C82.1434 36.2187 82.0446 36.6662 81.8471 36.9539C81.6495 37.2417 81.3368 37.3855 80.9088 37.3855C80.4808 37.3855 80.168 37.2417 79.954 36.9539C79.74 36.6662 79.6412 36.2187 79.6412 35.6113V30.7041C79.6412 30.0968 79.74 29.6652 79.954 29.3615C80.1515 29.0738 80.4808 28.9299 80.9088 28.9299C81.3368 28.9299 81.6495 29.0738 81.8471 29.3615C82.0446 29.6492 82.1434 30.0968 82.1434 30.7041V35.6113Z" fill="white"/>
<path d="M84.4645 31.2796H84.3657C83.9212 31.2796 83.5756 31.1837 83.3286 30.9919C83.0817 30.8001 82.95 30.5443 82.95 30.2246C82.95 29.9049 83.0817 29.6332 83.3286 29.4574C83.5756 29.2816 83.9542 29.1697 84.4645 29.1537V28.0828C84.4645 27.4754 84.5632 27.0278 84.7772 26.7401C84.9913 26.4524 85.304 26.3085 85.732 26.3085C86.16 26.3085 86.4728 26.4524 86.6703 26.7401C86.8679 27.0278 86.9831 27.4754 86.9831 28.0828V29.1537H87.1971C87.691 29.1537 88.086 29.2496 88.3659 29.4414C88.6457 29.6332 88.7774 29.9049 88.7774 30.2406C88.7774 30.5763 88.6457 30.848 88.3823 31.0238C88.119 31.1997 87.7074 31.2956 87.1806 31.2956H86.9831V35.6273C86.9831 36.2347 86.8843 36.6822 86.6868 36.9699C86.4893 37.2576 86.1765 37.4015 85.7485 37.4015C85.3205 37.4015 85.0077 37.2576 84.7937 36.9699C84.5797 36.6822 84.4809 36.2347 84.4809 35.6273V31.2956L84.4645 31.2796Z" fill="white"/>
<path d="M94.7036 36.5384C94.4567 36.8421 94.1439 37.0658 93.7817 37.2257C93.4196 37.3855 93.0245 37.4654 92.5965 37.4654C91.5265 37.4654 90.6211 37.0498 89.8803 36.2347C89.1396 35.4195 88.7774 34.3805 88.7774 33.1497C88.7774 31.9189 89.156 30.9119 89.9133 30.0808C90.6705 29.2496 91.5923 28.834 92.6953 28.834C93.1233 28.834 93.5019 28.8979 93.8311 29.0418C94.1603 29.1857 94.4567 29.4094 94.7036 29.6972C94.8517 29.4414 95.0163 29.2496 95.2303 29.1217C95.4279 28.9938 95.6583 28.9299 95.9053 28.9299C96.3333 28.9299 96.646 29.0738 96.8436 29.3615C97.0411 29.6492 97.1399 30.0968 97.1399 30.7042V35.6113C97.1399 36.2187 97.0411 36.6662 96.8271 36.9539C96.6296 37.2417 96.3168 37.3855 95.8888 37.3855C95.609 37.3855 95.3785 37.3216 95.181 37.1777C94.9834 37.0339 94.8188 36.8261 94.6871 36.5384H94.7036ZM91.3783 33.1178C91.3783 33.7251 91.5265 34.2047 91.8228 34.5723C92.1191 34.9399 92.5142 35.1158 93.008 35.1158C93.5019 35.1158 93.864 34.924 94.1768 34.5563C94.4731 34.1887 94.6213 33.7092 94.6213 33.1178C94.6213 32.5263 94.4731 32.0788 94.1603 31.7112C93.8476 31.3435 93.469 31.1677 93.008 31.1677C92.5471 31.1677 92.1356 31.3435 91.8393 31.7112C91.543 32.0788 91.3783 32.5423 91.3783 33.1178Z" fill="white"/>
<path d="M98.786 26.868C98.786 26.4843 98.9342 26.1487 99.214 25.861C99.4939 25.5732 99.8396 25.4454 100.251 25.4454C100.663 25.4454 100.992 25.5892 101.272 25.861C101.552 26.1327 101.7 26.4684 101.7 26.868C101.7 27.2676 101.568 27.5872 101.288 27.875C101.008 28.1467 100.663 28.2905 100.268 28.2905C99.8725 28.2905 99.5103 28.1467 99.2305 27.875C98.9506 27.6032 98.8025 27.2676 98.8025 26.868H98.786ZM101.486 35.6113C101.486 36.2187 101.387 36.6662 101.189 36.9539C100.992 37.2417 100.679 37.3855 100.251 37.3855C99.8231 37.3855 99.5103 37.2417 99.2963 36.9539C99.0823 36.6662 98.9836 36.2187 98.9836 35.6113V30.7041C98.9836 30.0968 99.0823 29.6652 99.2963 29.3615C99.4939 29.0738 99.8231 28.9299 100.251 28.9299C100.679 28.9299 100.992 29.0738 101.189 29.3615C101.387 29.6492 101.486 30.0968 101.486 30.7041V35.6113Z" fill="white"/>
<path d="M103.28 35.6113V30.7041C103.28 30.0968 103.379 29.6652 103.593 29.3615C103.79 29.0738 104.12 28.9299 104.548 28.9299C104.795 28.9299 105.025 28.9938 105.223 29.1217C105.42 29.2496 105.601 29.4414 105.749 29.7131C106.013 29.4254 106.325 29.2176 106.688 29.0898C107.033 28.9619 107.478 28.8979 107.972 28.8979C108.959 28.8979 109.717 29.1697 110.243 29.7291C110.77 30.2726 111.033 31.0878 111.033 32.1267V35.6273C111.033 36.2347 110.935 36.6822 110.721 36.9699C110.507 37.2576 110.194 37.4015 109.766 37.4015C109.338 37.4015 109.025 37.2576 108.811 36.9699C108.597 36.6822 108.498 36.2347 108.498 35.6273V32.862C108.498 32.1747 108.4 31.6952 108.186 31.4075C107.972 31.1197 107.626 30.9759 107.149 30.9759C106.688 30.9759 106.358 31.1197 106.128 31.4234C105.914 31.7271 105.799 32.1907 105.799 32.83V35.6273C105.799 36.2347 105.7 36.6822 105.486 36.9699C105.272 37.2576 104.959 37.4015 104.531 37.4015C104.103 37.4015 103.79 37.2576 103.576 36.9699C103.379 36.6822 103.264 36.2347 103.264 35.6273L103.28 35.6113Z" fill="white"/>
<path d="M114.029 28.2426C113.931 28.2746 113.848 28.3065 113.75 28.3225C113.651 28.3385 113.552 28.3545 113.47 28.3545C113.124 28.3545 112.844 28.2586 112.63 28.0508C112.416 27.843 112.317 27.5713 112.317 27.2356C112.317 26.868 112.449 26.5643 112.696 26.3245C112.943 26.0847 113.272 25.9729 113.651 25.9729C114.112 25.9729 114.49 26.1487 114.77 26.5003C115.067 26.852 115.215 27.2995 115.215 27.859C115.215 28.5623 114.968 29.2016 114.457 29.7611C113.964 30.3205 113.42 30.6082 112.844 30.6082C112.713 30.6082 112.614 30.5603 112.515 30.4804C112.416 30.4005 112.367 30.3045 112.367 30.1927C112.367 30.0008 112.564 29.809 112.959 29.6172C113.075 29.5693 113.157 29.5213 113.223 29.4894C113.503 29.3455 113.7 29.1697 113.832 28.9779C113.964 28.7861 114.029 28.5463 114.029 28.2746V28.2426Z" fill="white"/>
<path d="M118.787 37.5294C117.881 37.5294 117.141 37.3535 116.548 37.0019C115.955 36.6502 115.659 36.2187 115.659 35.7072C115.659 35.4035 115.758 35.1318 115.939 34.924C116.12 34.7162 116.351 34.6043 116.614 34.6043C116.877 34.6043 117.272 34.7162 117.783 34.9559C118.293 35.1957 118.688 35.3076 118.951 35.3076C119.165 35.3076 119.33 35.2596 119.462 35.1637C119.593 35.0678 119.659 34.9559 119.659 34.8121C119.659 34.5723 119.264 34.2846 118.458 33.9809C118.392 33.9489 118.326 33.9329 118.309 33.917C117.388 33.5493 116.746 33.1657 116.416 32.8141C116.071 32.4464 115.906 31.9829 115.906 31.4234C115.906 30.6722 116.202 30.0488 116.795 29.5373C117.388 29.0418 118.145 28.7861 119.05 28.7861C119.873 28.7861 120.565 28.9619 121.141 29.2975C121.717 29.6332 121.997 30.0328 121.997 30.4964C121.997 30.7841 121.898 31.0238 121.701 31.2156C121.503 31.4075 121.256 31.5034 120.96 31.5034C120.762 31.5034 120.433 31.4075 119.989 31.2156C119.528 31.0238 119.182 30.9279 118.935 30.9279C118.77 30.9279 118.622 30.9599 118.523 31.0398C118.425 31.1197 118.375 31.2156 118.375 31.3435C118.375 31.5673 118.705 31.8071 119.379 32.0628C119.692 32.1747 119.939 32.2706 120.12 32.3505C120.878 32.6862 121.404 33.0218 121.733 33.3895C122.046 33.7571 122.211 34.2047 122.211 34.7162C122.211 35.5154 121.882 36.1867 121.24 36.7142C120.598 37.2417 119.791 37.5134 118.803 37.5134L118.787 37.5294Z" fill="white"/>
<path d="M130.112 28.5942H129.158C128.532 28.5942 128.071 28.4983 127.775 28.3065C127.479 28.1147 127.33 27.827 127.33 27.4434C127.33 27.0598 127.479 26.7401 127.791 26.5483C128.088 26.3565 128.565 26.2606 129.174 26.2606H133.668C134.277 26.2606 134.738 26.3565 135.051 26.5483C135.364 26.7401 135.512 27.0438 135.512 27.4434C135.512 27.843 135.364 28.1147 135.051 28.3065C134.755 28.4983 134.277 28.5942 133.668 28.5942H132.713V35.6432C132.713 36.2506 132.615 36.6982 132.401 36.9859C132.187 37.2736 131.857 37.4175 131.429 37.4175C131.001 37.4175 130.672 37.2736 130.458 36.9859C130.244 36.6982 130.145 36.2506 130.145 35.6432V28.5942H130.112Z" fill="white"/>
<path d="M134.31 33.1657C134.31 31.887 134.705 30.848 135.512 30.0328C136.319 29.2176 137.339 28.802 138.574 28.802C139.808 28.802 140.829 29.2176 141.636 30.0328C142.426 30.848 142.821 31.903 142.821 33.1817C142.821 34.4604 142.426 35.5154 141.636 36.3306C140.845 37.1457 139.825 37.5613 138.574 37.5613C137.323 37.5613 136.319 37.1457 135.512 36.3306C134.705 35.5154 134.31 34.4604 134.31 33.1817V33.1657ZM136.911 33.1337C136.911 33.7571 137.059 34.2686 137.372 34.6522C137.685 35.0358 138.08 35.2277 138.574 35.2277C139.068 35.2277 139.463 35.0358 139.775 34.6522C140.088 34.2686 140.236 33.7731 140.236 33.1497C140.236 32.5263 140.072 32.0628 139.759 31.6792C139.446 31.2956 139.051 31.1038 138.574 31.1038C138.096 31.1038 137.685 31.2956 137.372 31.6792C137.059 32.0628 136.911 32.5423 136.911 33.1497V33.1337Z" fill="white"/>
<path d="M148.698 29.9049C148.829 29.5693 148.977 29.3135 149.158 29.1697C149.34 29.0098 149.554 28.9299 149.817 28.9299C150.196 28.9299 150.492 29.0418 150.706 29.2496C150.936 29.4574 151.035 29.7451 151.035 30.0968C151.035 30.2086 151.019 30.3365 150.986 30.4804C150.953 30.6242 150.903 30.7681 150.838 30.9439L147.002 39.7831C146.837 40.1508 146.673 40.4225 146.508 40.5664C146.344 40.7102 146.146 40.7901 145.899 40.7901C145.52 40.7901 145.208 40.6782 144.994 40.4704C144.763 40.2627 144.664 39.9749 144.664 39.6073C144.664 39.4634 144.681 39.3356 144.714 39.1917C144.747 39.0479 144.796 38.904 144.862 38.7601L145.899 36.5863L143.364 30.832C143.315 30.7361 143.298 30.6402 143.265 30.5283C143.249 30.4164 143.232 30.2886 143.232 30.1447C143.232 29.809 143.348 29.5213 143.578 29.2816C143.808 29.0418 144.105 28.9299 144.45 28.9299C144.747 28.9299 144.994 29.0098 145.191 29.1857C145.389 29.3455 145.553 29.6652 145.734 30.1127L147.15 33.8051L148.698 29.9049Z" fill="white"/>
<path d="M164.55 33.869C164.55 34.9719 164.139 35.867 163.332 36.5543C162.525 37.2417 161.455 37.5773 160.138 37.5773C159.118 37.5773 158.262 37.4015 157.537 37.0498C156.813 36.6982 156.467 36.2826 156.467 35.8031C156.467 35.4674 156.583 35.1957 156.813 34.9879C157.044 34.7801 157.356 34.6842 157.751 34.6842C157.949 34.6842 158.344 34.7801 158.953 34.9719C159.562 35.1637 160.089 35.2596 160.501 35.2596C160.863 35.2596 161.175 35.1477 161.406 34.9399C161.653 34.7162 161.768 34.4604 161.768 34.1248C161.768 33.7731 161.636 33.5014 161.389 33.2776C161.143 33.0698 160.599 32.846 159.776 32.5903C158.591 32.2546 157.751 31.839 157.274 31.3595C156.797 30.88 156.566 30.2566 156.566 29.4574C156.566 28.4344 156.945 27.5872 157.702 26.9479C158.459 26.2925 159.463 25.9729 160.682 25.9729C161.587 25.9729 162.328 26.1327 162.904 26.4364C163.48 26.7401 163.776 27.1397 163.776 27.6032C163.776 27.9389 163.678 28.1946 163.464 28.3865C163.266 28.5783 162.97 28.6742 162.608 28.6742C162.41 28.6742 162.081 28.6102 161.62 28.4824C161.159 28.3545 160.813 28.2905 160.583 28.2905C160.204 28.2905 159.891 28.3705 159.661 28.5463C159.431 28.7221 159.315 28.9459 159.315 29.2336C159.315 29.6812 159.826 30.0648 160.83 30.3685C161.06 30.4324 161.241 30.4964 161.373 30.5283C162.459 30.88 163.25 31.3275 163.76 31.871C164.254 32.4145 164.501 33.0858 164.501 33.885L164.55 33.869Z" fill="white"/>
<path d="M168.254 29.6494C168.517 29.3777 168.83 29.1859 169.159 29.058C169.489 28.9301 169.917 28.8822 170.41 28.8822C171.398 28.8822 172.155 29.1539 172.682 29.7133C173.209 30.2568 173.472 31.072 173.472 32.111V35.6115C173.472 36.2189 173.373 36.6664 173.159 36.9541C172.945 37.2419 172.633 37.3857 172.205 37.3857C171.777 37.3857 171.464 37.2419 171.25 36.9541C171.036 36.6664 170.937 36.2189 170.937 35.6115V32.8462C170.937 32.1589 170.838 31.6794 170.624 31.3917C170.41 31.104 170.065 30.9601 169.587 30.9601C169.126 30.9601 168.797 31.104 168.567 31.4077C168.353 31.7113 168.237 32.1749 168.237 32.8143V35.6115C168.237 36.2189 168.139 36.6664 167.925 36.9541C167.711 37.2419 167.398 37.3857 166.97 37.3857C166.542 37.3857 166.229 37.2419 166.015 36.9541C165.818 36.6664 165.702 36.2189 165.702 35.6115V27.2358C165.702 26.6284 165.801 26.1808 166.015 25.8931C166.213 25.6054 166.542 25.4616 166.97 25.4616C167.398 25.4616 167.711 25.6054 167.925 25.9091C168.139 26.2128 168.237 26.6604 168.237 27.2518V29.6654L168.254 29.6494Z" fill="white"/>
<path d="M174.641 33.1657C174.641 31.887 175.036 30.848 175.843 30.0328C176.649 29.2176 177.67 28.802 178.905 28.802C180.139 28.802 181.16 29.2176 181.966 30.0328C182.757 30.848 183.152 31.903 183.152 33.1817C183.152 34.4604 182.757 35.5154 181.966 36.3306C181.176 37.1457 180.156 37.5613 178.905 37.5613C177.653 37.5613 176.649 37.1457 175.843 36.3306C175.036 35.5154 174.641 34.4604 174.641 33.1817V33.1657ZM177.242 33.1337C177.242 33.7571 177.39 34.2686 177.703 34.6522C178.016 35.0358 178.411 35.2277 178.905 35.2277C179.398 35.2277 179.793 35.0358 180.106 34.6522C180.419 34.2686 180.567 33.7731 180.567 33.1497C180.567 32.5263 180.403 32.0628 180.09 31.6792C179.777 31.2956 179.382 31.1038 178.905 31.1038C178.427 31.1038 178.016 31.2956 177.703 31.6792C177.39 32.0628 177.242 32.5423 177.242 33.1497V33.1337Z" fill="white"/>
<path d="M186.938 38.92C186.938 39.5274 186.839 39.9749 186.625 40.2627C186.411 40.5504 186.098 40.6942 185.67 40.6942C185.242 40.6942 184.93 40.5504 184.716 40.2627C184.518 39.9749 184.403 39.5274 184.403 38.92V30.7041C184.403 30.0968 184.502 29.6652 184.716 29.3615C184.913 29.0738 185.242 28.9299 185.67 28.9299C185.917 28.9299 186.148 28.9938 186.345 29.1217C186.543 29.2496 186.724 29.4414 186.872 29.7131C187.135 29.4414 187.432 29.2336 187.794 29.0898C188.14 28.9459 188.535 28.882 188.946 28.882C190.033 28.882 190.938 29.2975 191.679 30.1127C192.42 30.9279 192.782 31.9509 192.782 33.1817C192.782 34.4125 192.403 35.4354 191.646 36.2986C190.889 37.1617 189.983 37.5773 188.913 37.5773C188.535 37.5773 188.189 37.5134 187.86 37.4015C187.531 37.2896 187.234 37.0978 186.938 36.874V38.952V38.92ZM186.889 33.1977C186.889 33.8211 187.037 34.3325 187.349 34.7162C187.662 35.0998 188.057 35.2916 188.551 35.2916C189.045 35.2916 189.44 35.0998 189.753 34.7162C190.066 34.3325 190.214 33.837 190.214 33.2137C190.214 32.5903 190.049 32.1267 189.736 31.7431C189.424 31.3595 189.029 31.1677 188.551 31.1677C188.074 31.1677 187.662 31.3595 187.366 31.7431C187.07 32.1267 186.905 32.6063 186.905 33.2137L186.889 33.1977Z" fill="white"/>
<path d="M8.83984 35.7551L9.79462 50.1249L24.0997 59.8272L38.6189 51.1958L39.2115 35.8031L33.2359 32.5423L24.215 28.2106" fill="#F79366"/>
<path d="M23.4742 28.834L8.83986 35.7551L0.60907 21.5133L16.2805 15.4553L23.4742 28.834Z" fill="#E12726"/>
<path d="M0.60907 21.5133L16.297 15.3594L23.4742 28.834L8.83986 35.7551L0.60907 21.5133Z" fill="url(#paint0_linear_2147_924)"/>
<path d="M38.6189 51.1958L24.0998 59.8272L24.0833 43.4755L39.2115 35.8031L38.6189 51.1958Z" fill="url(#paint1_linear_2147_924)"/>
<path d="M8.83984 35.7551L24.0833 43.4755L24.0997 59.8272L9.79462 50.1249L8.83984 35.7551Z" fill="url(#paint2_linear_2147_924)"/>
<path d="M9.5642 35.851L24.0833 43.1718L38.586 35.8031L33.1537 32.7501L24.2809 28.7061L9.38312 35.7392" fill="url(#paint3_linear_2147_924)"/>
<path d="M14.8319 40.9819C14.8319 42.2926 13.7783 43.0918 12.4778 42.7881C11.1774 42.4844 10.1238 41.2057 10.1238 39.943C10.1238 38.6802 11.1774 37.865 12.4778 38.1368C13.7783 38.4085 14.8319 39.6872 14.8319 40.9819Z" fill="url(#paint4_linear_2147_924)"/>
<path d="M22.6841 52.011C22.6841 54.4566 20.8239 55.8312 18.5193 55.0959C16.2147 54.3607 14.3545 51.8991 14.3545 49.5814C14.3545 47.2637 16.2147 45.8891 18.5193 46.4965C20.8239 47.0879 22.6841 49.5654 22.6841 52.011Z" fill="url(#paint5_linear_2147_924)"/>
<path d="M19.7868 44.1468C19.7868 44.7702 19.3094 45.1538 18.7168 45.0099C18.1242 44.8661 17.6468 44.2427 17.6468 43.6353C17.6468 43.0279 18.1242 42.6443 18.7168 42.7722C19.3094 42.916 19.7868 43.5234 19.7868 44.1468Z" fill="url(#paint6_linear_2147_924)"/>
<path d="M29.565 53.7213C29.565 54.9041 28.5773 56.2308 27.3427 56.7103C26.1245 57.1739 25.1368 56.5984 25.1368 55.4156C25.1368 54.2328 26.1245 52.8901 27.3427 52.4266C28.5609 51.963 29.565 52.5545 29.565 53.7213Z" fill="url(#paint7_linear_2147_924)"/>
<path d="M38.125 41.7971C38.125 44.0988 36.1825 46.6883 33.7792 47.5834C31.3758 48.4785 29.4333 47.3276 29.4333 45.0099C29.4333 42.6922 31.3758 40.1028 33.7792 39.2237C36.1825 38.3446 38.125 39.4954 38.125 41.7971Z" fill="url(#paint8_linear_2147_924)"/>
<path d="M36.0015 49.0859C36.0015 49.6134 35.5571 50.2048 35.0138 50.3966C34.4706 50.5884 34.0261 50.3486 34.0261 49.8212C34.0261 49.2937 34.4706 48.7023 35.0138 48.5105C35.5571 48.3187 36.0015 48.5584 36.0015 49.0859Z" fill="url(#paint9_linear_2147_924)"/>
<path d="M22.5524 19.7071L21.647 20.0427C21.4988 20.1227 21.3507 20.1866 21.2025 20.2505C20.4947 20.5542 19.8033 20.8579 19.0954 21.1616C18.8156 21.2895 18.0748 21.5612 17.5974 21.753C17.3505 21.8489 17.1694 21.9129 17.1694 21.9129L18.3217 24.7421L18.7662 24.5343V24.5662L19.8033 24.3425C20.3136 24.2306 20.8404 24.1347 21.3507 24.0068L22.0256 23.8789L22.4865 21.6252L22.8322 19.739L22.5853 19.6911L22.5524 19.7071Z" fill="url(#paint10_linear_2147_924)"/>
<path d="M40.3803 28.2586L35.129 25.1896L37.9933 22.5363L38.0921 22.4084L38.2567 22.1207L42.4215 25.4454" fill="url(#paint11_linear_2147_924)"/>
<path d="M32.9725 38.6483L32.5445 37.1777L34.0261 35.4355L33.4664 33.3415L34.915 31.4874L34.3553 29.4254L22.1902 27.6672L20.9556 29.4574L21.5482 31.6152L20.0337 33.3895L20.6428 35.6912L19.2436 37.2097L19.7045 39.2077L19.2271 40.7422C19.8856 41.0619 24.0997 43.1878 24.0997 43.1878C24.0997 43.1878 32.9396 38.6802 32.9725 38.6642V38.6483Z" fill="url(#paint12_linear_2147_924)"/>
<path d="M20.972 29.4414L34.915 31.4714L33.4664 33.3415L21.5482 31.5993" fill="url(#paint13_linear_2147_924)"/>
<path d="M20.0338 33.3575L34.0261 35.4355L32.5446 37.1777L20.6593 35.6752" fill="url(#paint14_linear_2147_924)"/>
<path d="M19.2601 37.2417L32.4623 38.92L29.565 40.3905L19.721 39.2397" fill="url(#paint15_linear_2147_924)"/>
<path d="M43.9195 33.7092C43.3104 33.3735 43.1129 32.7022 42.9483 32.1427V32.0948C42.7837 31.6153 42.6191 31.1038 42.2734 30.6562C42.0264 30.3205 41.5984 29.7291 41.368 29.3935C41.368 29.3935 41.368 29.3775 41.3515 29.3615C40.9071 29.5853 40.5449 29.4894 40.298 29.3455C39.6889 28.9779 40.0181 28.2746 40.1663 27.9389C40.5614 27.0917 41.2034 26.1647 41.9112 25.4454C42.2404 25.1097 42.7343 24.5982 43.3269 24.9978C43.6397 25.2056 43.7714 25.4614 43.7384 25.781C43.8208 25.781 43.8866 25.797 43.9689 25.813C44.3146 25.861 44.6768 25.8929 45.0224 25.9089C45.4834 25.9409 45.9608 25.877 46.4875 25.7171L46.6192 25.6851C47.1295 25.5413 47.6892 25.3655 48.2654 25.5573C48.8909 25.7651 49.3354 26.3565 49.3025 26.9799C49.2695 27.4913 48.9238 27.795 48.5946 27.9549C48.8086 28.0348 49.0391 28.1307 49.2531 28.2426C49.8457 28.5463 50.2243 28.9459 50.356 29.3935C50.5206 29.9369 50.2902 30.4964 49.8128 30.8001C49.4012 31.0558 48.8415 31.0878 48.1995 30.88C48.1502 30.88 48.1008 30.848 48.0678 30.832C48.43 31.2636 48.5946 31.6952 48.5617 32.1108C48.5123 32.6382 48.1337 33.0698 47.6234 33.1977C47.1625 33.3096 46.6851 33.1657 46.1912 32.7661C46.076 32.6702 45.9772 32.5903 45.8785 32.4944C45.8785 32.7661 45.8455 33.0219 45.6809 33.2776C45.3846 33.7411 44.792 33.9489 44.2817 33.837C44.1664 33.8051 44.0512 33.7731 43.936 33.7092H43.9195ZM45.4998 31.3275C45.4998 31.3275 45.5328 31.3595 45.5492 31.3755C45.5657 31.3915 45.5821 31.4075 45.5986 31.4394C45.6809 31.5193 45.7468 31.5993 45.8291 31.6792C46.0595 31.9189 46.2735 32.1587 46.5205 32.3505C46.8826 32.6382 47.1954 32.7501 47.4752 32.6862C47.7551 32.6223 47.9855 32.3505 48.0185 32.0468C48.0514 31.7591 47.9197 31.4554 47.6069 31.1038C47.4917 30.9759 47.36 30.848 47.2283 30.7201L47.146 30.6402C47.146 30.6402 47.0308 30.5443 46.9814 30.4964C46.8497 30.3845 46.718 30.2726 46.6028 30.1287L45.9114 29.2336L46.932 29.7451C46.932 29.7451 47.0472 29.7931 47.0801 29.825L47.2283 29.9049C47.5905 30.0968 47.9691 30.2886 48.3477 30.4005C48.6769 30.5123 49.1543 30.5923 49.5 30.3685C49.7798 30.1927 49.9115 29.857 49.8128 29.5373C49.714 29.2176 49.4342 28.9459 48.9732 28.7061C48.6111 28.5303 48.216 28.3865 47.8374 28.2586L46.8497 27.9229L47.7057 27.7151C47.7057 27.7151 47.8374 27.6832 47.9032 27.6672C48.4629 27.5073 48.7263 27.2995 48.7428 26.9639C48.7592 26.5803 48.4794 26.1966 48.0678 26.0688C47.6563 25.9409 47.1954 26.0688 46.7509 26.2126L46.6192 26.2446C46.0266 26.4204 45.4998 26.4843 44.9731 26.4524C44.6109 26.4364 44.2488 26.3884 43.8866 26.3405C43.7055 26.3245 43.5409 26.2925 43.3598 26.2766L42.9977 26.2446L43.1294 25.9249C43.2117 25.7171 43.2281 25.5892 42.9977 25.4454C42.8166 25.3175 42.6355 25.4454 42.2569 25.829C41.5984 26.5003 40.9729 27.3795 40.6107 28.1787C40.3144 28.802 40.4461 28.882 40.5284 28.9299C40.7589 29.0578 40.9564 29.0418 41.2034 28.834L41.4174 28.6582L41.582 28.882C41.582 28.882 41.6643 28.9939 41.7466 29.1217C41.9771 29.4414 42.4051 30.0488 42.6355 30.3685C43.0141 30.88 43.2117 31.4394 43.3763 31.9669V32.0149C43.5244 32.4944 43.6891 33.0378 44.1006 33.2616C44.4463 33.4534 44.9237 33.3256 45.1377 33.0059C45.3846 32.6382 45.2035 32.1587 44.9731 31.6312L44.3804 30.3046L45.4011 31.3435L45.4998 31.3275Z" fill="black"/>
<path d="M43.4257 26.0048C43.9525 26.0528 44.4957 26.1327 45.0225 26.1647C45.5657 26.1966 46.0595 26.1167 46.5863 25.9729C47.0966 25.829 47.6563 25.6212 48.1995 25.797C48.6934 25.9569 49.072 26.4364 49.0555 26.9639C49.0226 27.5233 48.5123 27.7631 48.0185 27.8909C47.9526 27.9069 47.8868 27.9229 47.8209 27.9389C48.2654 28.0987 48.7263 28.2426 49.1379 28.4504C49.5494 28.6742 49.9774 28.9779 50.1091 29.4414C50.2243 29.873 50.0597 30.3205 49.6811 30.5603C49.2695 30.816 48.7428 30.7521 48.2983 30.6242C47.8374 30.4804 47.4094 30.2406 46.9814 30.0328C46.932 30.0009 46.8826 29.9849 46.8332 29.9529C46.9814 30.1447 47.1789 30.2726 47.3435 30.4484C47.5082 30.6082 47.6728 30.7681 47.8209 30.9279C48.1008 31.2476 48.3477 31.6312 48.2983 32.0628C48.2654 32.4624 47.9691 32.83 47.5575 32.9259C47.1131 33.0378 46.6851 32.8141 46.3558 32.5423C46.0102 32.2546 45.7138 31.9189 45.4011 31.5993C45.3682 31.5673 45.3352 31.5193 45.3023 31.4874C45.5163 31.9829 45.7797 32.5903 45.4505 33.1018C45.1542 33.5333 44.5286 33.7092 44.0512 33.4534C43.5245 33.1657 43.3434 32.5104 43.1952 31.9829C43.0306 31.4394 42.8495 30.9279 42.5038 30.4644C42.1581 30.0168 41.4832 29.0258 41.4338 28.9779C41.2363 29.1377 40.8741 29.3455 40.4461 29.0898C40.1334 28.8979 40.1663 28.5623 40.4132 28.0188C40.7424 27.2995 41.3351 26.3884 42.1088 25.6052C42.438 25.2696 42.7837 24.9179 43.1788 25.1896C43.5738 25.4614 43.4915 25.7651 43.4092 25.9888L43.4257 26.0048Z" fill="url(#paint16_linear_2147_924)"/>
<path d="M19.9844 41.1098L26.5032 41.957L24.0998 43.1718L19.9844 41.1098Z" fill="url(#paint17_linear_2147_924)"/>
<path d="M21.3013 25.4134L35.8369 27.5553L34.3553 29.4094L22.1902 27.6512" fill="url(#paint18_linear_2147_924)"/>
<g style="mix-blend-mode:multiply" opacity="0.56">
<path d="M22.8322 21.5133L21.9268 21.8489C21.7786 21.9289 21.6305 21.9928 21.4823 22.0567C20.7745 22.3604 20.0831 22.6641 19.3753 22.9678C19.1283 23.0797 18.5522 23.3035 18.0913 23.4793C17.8443 23.0797 17.4657 22.5043 16.8237 22.776C16.478 22.9199 16.2805 23.1437 16.2476 23.4633C16.1652 23.4633 16.0994 23.4633 16.0171 23.4474C15.6714 23.4154 15.3092 23.3834 14.9635 23.3355C14.5026 23.2715 14.0582 23.1117 13.5643 22.8559L13.4491 22.792C12.9882 22.5363 12.4778 22.2645 11.8688 22.3125C11.2103 22.3764 10.6506 22.8719 10.5518 23.4793C10.4695 23.9908 10.7329 24.3425 11.0292 24.5822C10.7988 24.6142 10.5683 24.6622 10.3378 24.7261C9.67938 24.9019 9.23491 25.2056 9.00445 25.6212C8.72461 26.1167 8.82338 26.7241 9.23492 27.1077C9.58061 27.4434 10.1238 27.5872 10.7823 27.5233C10.8317 27.5233 10.8811 27.5233 10.9305 27.5073C10.4695 27.859 10.2226 28.2266 10.1732 28.6422C10.1074 29.1697 10.3872 29.6812 10.8482 29.9049C11.2762 30.1127 11.77 30.0648 12.3462 29.7771C12.4778 29.7131 12.5931 29.6492 12.7083 29.5693C12.6425 29.825 12.626 30.0968 12.7412 30.3845C12.9388 30.896 13.4491 31.2156 13.9923 31.2156C14.1075 31.2156 14.2392 31.1997 14.3545 31.1677C15.0294 30.9759 15.3751 30.3525 15.6385 29.841L15.6714 29.7931C15.9183 29.3455 16.1982 28.8979 16.6262 28.5143C16.9389 28.2426 17.4822 27.7471 17.7785 27.4754C17.7785 27.4754 17.7785 27.4754 17.7949 27.4594C18.1736 27.7791 18.5522 27.7471 18.832 27.6512C19.4905 27.4274 19.3588 26.7081 19.2765 26.3405L20.0831 26.1647C20.5934 26.0528 21.1202 25.9569 21.6305 25.829L22.3054 25.7011L22.7663 23.4474L23.112 21.5612L22.8651 21.5133H22.8322Z" fill="#4D4E4E"/>
</g>
<path d="M21.3177 25.4294L22.1738 24.1507L34.8656 25.3175L35.4912 25.3974L35.8369 27.5553" fill="black"/>
<path d="M13.6961 29.3935C13.1528 29.3935 12.6425 29.0578 12.445 28.5623C12.3297 28.2746 12.3462 28.0028 12.412 27.7471C12.2968 27.827 12.1651 27.8909 12.0499 27.9549C11.4737 28.2426 10.9799 28.2905 10.5519 28.0828C10.0745 27.859 9.81112 27.3475 9.87696 26.82C9.92635 26.4044 10.1733 26.0368 10.6342 25.6851C10.5848 25.6851 10.5354 25.6851 10.486 25.7011C9.82758 25.7651 9.28435 25.6212 8.93865 25.2855C8.52711 24.9019 8.44481 24.2945 8.70819 23.799C8.93865 23.3834 9.38312 23.0797 10.0416 22.9039C10.272 22.84 10.5025 22.792 10.733 22.76C10.4367 22.5203 10.1733 22.1686 10.2556 21.6571C10.3544 21.0497 10.914 20.5542 11.5725 20.4903C12.1651 20.4264 12.6919 20.7141 13.1528 20.9698L13.2681 21.0338C13.7619 21.2895 14.2064 21.4493 14.6673 21.5133C15.013 21.5612 15.3751 21.5932 15.7208 21.6252C15.8031 21.6252 15.869 21.6252 15.9513 21.6412C15.9842 21.3215 16.1818 21.0977 16.5274 20.9538C17.2024 20.6981 17.5645 21.2895 17.8115 21.6891C18.3382 22.5363 18.7827 23.5752 18.9638 24.4863C19.0461 24.854 19.2107 25.6052 18.5193 25.829C18.2395 25.9249 17.8608 25.9409 17.4822 25.6372C17.4822 25.6372 17.4822 25.6372 17.4658 25.6532C17.1694 25.9249 16.6262 26.4204 16.3134 26.6921C15.8854 27.0598 15.6056 27.5233 15.3587 27.9709L15.3258 28.0188C15.0459 28.5303 14.7002 29.1537 14.0417 29.3455C13.9265 29.3775 13.8113 29.3935 13.6796 29.3935H13.6961ZM14.2722 25.8929L13.3997 27.0598C13.0541 27.5393 12.7742 27.9549 12.9388 28.3705C13.087 28.7381 13.515 28.9459 13.8936 28.85C14.3545 28.7221 14.6179 28.2106 14.8648 27.7791L14.8977 27.7311C15.1611 27.2516 15.4739 26.7401 15.9678 26.3245C16.2805 26.0528 16.8238 25.5573 17.1201 25.2855C17.2353 25.1736 17.3341 25.0937 17.3341 25.0777L17.5481 24.9019L17.7291 25.1097C17.9267 25.3495 18.1242 25.4294 18.3711 25.3495C18.4699 25.3175 18.6016 25.2696 18.4535 24.5982C18.2724 23.7511 17.8608 22.76 17.367 21.9608C17.0871 21.4973 16.939 21.3534 16.7414 21.4334C16.4945 21.5293 16.4616 21.6571 16.511 21.8809L16.5768 22.2166L16.2147 22.1846C16.0336 22.1686 15.869 22.1526 15.6879 22.1367C15.3422 22.1047 14.9636 22.0727 14.6014 22.0088C14.0747 21.9289 13.5808 21.753 13.0376 21.4653L12.9224 21.4014C12.5108 21.1776 12.0993 20.9538 11.6548 20.9858C11.2433 21.0338 10.8647 21.3534 10.7988 21.7211C10.7494 22.0408 10.947 22.2965 11.4573 22.5682C11.5231 22.6002 11.5725 22.6322 11.6384 22.6641L12.4285 23.0478L11.3914 23.1756C10.9964 23.2236 10.5684 23.2715 10.1897 23.3834C9.67943 23.5273 9.35019 23.7351 9.18558 24.0228C9.02096 24.3105 9.07035 24.6622 9.31727 24.9019C9.61358 25.1896 10.091 25.2056 10.4367 25.1736C10.8317 25.1417 11.2433 25.0298 11.6384 24.9179L11.803 24.8699C11.803 24.8699 11.9182 24.838 11.9676 24.822L13.087 24.5343L12.2145 25.2696C12.0664 25.3974 11.9182 25.4773 11.77 25.5573C11.7042 25.5892 11.6384 25.6372 11.5725 25.6692L11.4737 25.7331C11.3091 25.829 11.161 25.9249 11.0128 26.0368C10.6342 26.3245 10.4367 26.5802 10.4037 26.868C10.3708 27.1717 10.519 27.4754 10.7824 27.6032C11.0457 27.7311 11.375 27.6832 11.7865 27.4754C12.0664 27.3315 12.3297 27.1557 12.6096 26.9639C12.7084 26.8999 12.7907 26.836 12.8894 26.7721C12.9224 26.7561 12.9388 26.7401 12.9553 26.7241C12.9717 26.7241 12.9882 26.6921 13.0211 26.6762L14.2557 25.861L14.2722 25.8929Z" fill="black"/>
<path d="M16.2311 21.9289C15.7043 21.8649 15.1611 21.833 14.6343 21.753C14.1076 21.6731 13.6302 21.4973 13.1528 21.2416C12.6919 20.9858 12.1816 20.6821 11.6219 20.7301C11.1116 20.778 10.6177 21.1776 10.5354 21.6891C10.4366 22.2326 10.8976 22.5842 11.342 22.808C11.4079 22.84 11.4737 22.8719 11.5231 22.9039C11.0457 22.9678 10.5848 23.0158 10.1239 23.1277C9.66294 23.2556 9.18555 23.4793 8.95509 23.8949C8.74109 24.2785 8.80694 24.7581 9.13617 25.0777C9.48186 25.4134 10.0086 25.4614 10.4696 25.4134C10.9469 25.3655 11.4243 25.2376 11.8853 25.1097C11.9346 25.0937 12.0005 25.0777 12.0499 25.0618C11.8688 25.2216 11.6383 25.3175 11.4408 25.4454C11.2433 25.5732 11.0457 25.6851 10.8646 25.813C10.5189 26.0688 10.2062 26.3884 10.1403 26.82C10.0909 27.2196 10.2885 27.6352 10.6671 27.811C11.0786 28.0028 11.5396 27.875 11.9182 27.6832C12.3297 27.4754 12.6754 27.2036 13.054 26.9639C13.1034 26.9319 13.1363 26.8999 13.1857 26.8839C12.8565 27.3315 12.4779 27.875 12.6919 28.4344C12.873 28.9299 13.4491 29.2176 13.9759 29.0578C14.5685 28.882 14.8648 28.2905 15.1282 27.811C15.408 27.3155 15.7043 26.852 16.1488 26.4684C16.5768 26.1007 17.4657 25.2855 17.5151 25.2376C17.6797 25.4294 17.976 25.7171 18.4534 25.5573C18.7991 25.4454 18.8485 25.1097 18.7168 24.5183C18.5522 23.7511 18.1736 22.7281 17.5974 21.801C17.3505 21.4014 17.0871 20.9858 16.6427 21.1776C16.1982 21.3694 16.1982 21.6731 16.2476 21.9129L16.2311 21.9289Z" fill="url(#paint19_linear_2147_924)"/>
<path style="mix-blend-mode:multiply" opacity="0.8" d="M36.3801 36.922L24.1162 43.1878L15.7537 38.9679L36.3801 36.922Z" fill="url(#paint20_linear_2147_924)"/>
<mask id="mask1_2147_924" style="mask-type:luminance" maskUnits="userSpaceOnUse" x="21" y="23" width="15" height="7">
<path d="M35.1455 23.7031L35.8368 27.5713L34.3224 29.4094L22.2066 27.6512L21.4659 25.8929L21.3506 25.4454L22.256 23.8789L35.1455 23.7031Z" fill="white"/>
</mask>
<g mask="url(#mask1_2147_924)">
<g style="mix-blend-mode:multiply" opacity="0.92">
<path d="M21.3506 24.8859C21.433 25.7651 21.8774 26.5323 22.8157 26.836C24.5277 27.2516 26.2562 26.0048 27.9682 26.6282C29.2522 27.0438 30.3222 28.0828 31.6227 28.7061C32.2647 29.1217 33.1207 29.1217 33.9767 28.9139C35.129 28.5942 35.2772 27.2835 35.9685 26.5003L35.8368 24.838L22.3877 24.2146L21.3506 24.8859Z" fill="#4D4E4E"/>
</g>
</g>
<path d="M32.9396 28.4184C32.561 28.4184 32.1495 28.3385 31.705 28.1307C30.9972 27.795 30.5527 27.4754 30.1411 27.1557C29.7131 26.836 29.3181 26.5323 28.6431 26.2606C27.3262 25.7011 26.569 25.813 25.8447 26.0048C25.7953 26.0048 25.7294 26.0368 25.6636 26.0528C24.7747 26.2766 23.1285 26.7081 22.2231 25.6851C20.8897 24.1666 21.5317 22.76 22.3054 21.4653C22.5853 21.0018 22.3054 20.2505 21.7128 19.9309C21.4824 19.803 21.1696 19.819 20.8074 19.8349C20.1819 19.8669 19.4247 19.9149 18.7991 19.1316C18.3711 18.6042 18.19 18.0287 18.2723 17.4693C18.3547 16.8939 18.651 16.5422 18.7497 16.4463C18.9473 16.2385 19.26 16.0467 19.5893 15.8229C19.9679 15.5832 20.4124 15.2955 20.5111 15.0877C20.6922 14.704 20.363 14.2245 20.0008 13.777C19.721 13.4413 19.5399 12.9618 19.507 12.5302C19.4576 11.9228 19.6716 11.3793 20.149 10.9797C21.2848 9.97275 22.6017 10.5162 23.1614 10.756C23.9516 11.0757 25.0051 12.0347 25.0381 12.0827C25.6142 12.6101 25.3673 13.6331 24.9887 14.3524C24.8241 14.6561 23.5071 17.3095 25.6965 19.7231C27.8859 22.1047 30.8819 22.5842 32.8902 21.9928C35.0796 21.3534 36.6929 19.8349 37.4007 17.741C38.1086 15.6631 37.7793 14.2085 37.7793 14.1926C37.7629 14.0967 37.8123 14.0167 37.911 13.9848C38.0427 13.9528 40.9893 13.2015 42.438 14.3844C43.8701 15.5672 43.2117 16.4463 42.8166 16.9738L42.7507 17.0537C42.5696 17.2935 42.2075 17.5972 41.8124 17.9328C41.3844 18.3005 40.8412 18.764 40.7589 18.9718C40.6272 19.3554 40.8083 19.7231 41.1704 20.4583C41.4996 21.1137 41.977 22.808 41.368 23.8789C40.8247 24.838 40.2156 25.1896 38.981 25.2536C38.6518 25.2696 38.339 25.2536 38.0427 25.2536C37.3184 25.2376 36.6929 25.2056 36.2155 25.5573C35.8039 25.861 35.6064 26.2925 35.4089 26.6921C35.2772 26.9639 35.1455 27.2516 34.9479 27.5073C34.6022 27.9229 33.8779 28.4504 32.9396 28.4504V28.4184ZM26.8982 25.5093C27.4085 25.5093 28.0176 25.6212 28.7913 25.9409C29.4991 26.2446 29.9107 26.5483 30.3552 26.8839C30.7667 27.1876 31.1782 27.5073 31.8532 27.811C33.203 28.4344 34.273 27.7631 34.6845 27.2516C34.8492 27.0438 34.9809 26.788 35.0961 26.5163C35.2936 26.0847 35.5241 25.6052 36.0015 25.2536C36.5776 24.822 37.2855 24.854 38.0427 24.8699C38.339 24.8699 38.6518 24.8859 38.9646 24.8699C40.0675 24.806 40.5778 24.5183 41.0552 23.6711C41.335 23.1596 41.4667 21.817 40.8412 20.5542C40.479 19.8349 40.2486 19.3554 40.4132 18.8279C40.5119 18.5402 40.9235 18.1726 41.5655 17.6291C41.9276 17.3254 42.2898 17.0058 42.4544 16.798L42.5203 16.718C42.8989 16.2066 43.3763 15.5832 42.191 14.5922C41.0716 13.6651 38.7506 14.0807 38.1415 14.2245C38.2073 14.6721 38.339 15.9988 37.7299 17.789C36.9727 19.9948 35.2936 21.5772 32.989 22.2486C30.8819 22.8719 27.7213 22.3764 25.4331 19.8829C23.0791 17.3095 24.4948 14.4483 24.6759 14.1286C25.0216 13.4893 25.2027 12.6421 24.8076 12.2745C24.8076 12.2745 23.7541 11.3154 23.0297 11.0117C22.2067 10.676 21.2354 10.4203 20.3794 11.1875C19.4247 12.0347 19.9843 13.1696 20.2807 13.5372C20.7087 14.0807 21.0873 14.6561 20.8404 15.1996C20.7087 15.5033 20.2642 15.791 19.7868 16.0787C19.4905 16.2705 19.1777 16.4623 19.0131 16.6381C18.9802 16.6861 18.0913 17.6291 19.0954 18.8919C19.6057 19.5312 20.2148 19.4993 20.8074 19.4673C21.2025 19.4513 21.5811 19.4194 21.9104 19.6112C22.6676 20.0268 23.0133 20.9858 22.6347 21.6092C21.8939 22.8559 21.3342 24.0867 22.5194 25.4454C23.2767 26.3085 24.7911 25.9249 25.5978 25.7011C25.6636 25.6851 25.7294 25.6692 25.7788 25.6532C26.141 25.5573 26.5031 25.4933 26.9147 25.4933L26.8982 25.5093Z" fill="url(#paint21_linear_2147_924)"/>
<path d="M42.2734 14.5282C41.121 13.5692 38.8 13.9848 38.125 14.1286H38.0263V14.2565C38.1086 14.736 38.2073 16.0307 37.6147 17.773C36.8739 19.9309 35.2113 21.4973 32.9396 22.1686C30.8655 22.776 27.7542 22.2965 25.499 19.8349C23.1944 17.3095 24.5936 14.5282 24.7582 14.2085C25.1368 13.5052 25.3015 12.6261 24.857 12.2105L24.8241 12.1786C24.643 12.0027 23.7211 11.2035 23.0462 10.9318C22.1902 10.5801 21.1861 10.3244 20.2807 11.1236C19.26 12.0187 19.8527 13.2335 20.1654 13.6331C20.577 14.1446 20.9227 14.6881 20.7087 15.1836C20.577 15.4553 20.149 15.727 19.7045 16.0147C19.3917 16.2066 19.079 16.4143 18.8979 16.5902C18.865 16.6381 17.9102 17.6611 18.9637 18.9878C19.507 19.6751 20.1819 19.6431 20.7745 19.5952C21.1531 19.5792 21.5153 19.5472 21.8116 19.7231C22.503 20.1067 22.8322 21.0018 22.4865 21.5772C21.7293 22.8559 21.1531 24.1187 22.3713 25.5413C23.1779 26.4684 24.7253 26.0528 25.5648 25.845C25.6307 25.829 25.6965 25.813 25.7459 25.797C26.1245 25.7011 26.4702 25.6372 26.8653 25.6372C27.425 25.6372 28.0176 25.781 28.709 26.0688C29.4004 26.3565 29.8119 26.6762 30.2564 26.9958C30.6679 27.2995 31.0959 27.6192 31.7873 27.9389C32.1989 28.1307 32.5775 28.2106 32.9232 28.2106C33.7956 28.2106 34.4541 27.7311 34.7504 27.3635C34.9315 27.1397 35.0467 26.8839 35.1784 26.5962C35.3759 26.1806 35.5899 25.7171 36.0509 25.3655C36.5941 24.9659 37.2855 24.9818 38.0263 25.0138C38.3226 25.0138 38.6353 25.0298 38.9481 25.0138C40.1004 24.9499 40.6437 24.6302 41.1375 23.7511C41.4338 23.2236 41.5655 21.833 40.9235 20.5383C40.5778 19.835 40.3473 19.3874 40.512 18.8919C40.5943 18.6361 41.0223 18.2525 41.6313 17.741C41.9935 17.4373 42.3721 17.1176 42.5367 16.8939L42.6026 16.814C42.9977 16.3025 43.5244 15.5832 42.2569 14.5442L42.2734 14.5282Z" fill="url(#paint22_linear_2147_924)"/>
<g style="mix-blend-mode:multiply">
<path d="M38.8987 16.1266C38.8987 20.2505 35.4089 23.6072 31.0959 23.6072C26.783 23.6072 23.2932 20.2665 23.2932 16.1266C23.2932 11.9867 26.783 8.64606 31.0959 8.64606C35.4089 8.64606 38.8987 11.9867 38.8987 16.1266Z" fill="#58595B"/>
</g>
<path d="M38.6683 15.2795C38.6683 19.2755 35.2936 22.5043 31.1124 22.5043C26.9311 22.5043 23.5565 19.2755 23.5565 15.2795C23.5565 11.2834 27.2275 7.86284 31.3922 8.05465C36.6435 8.29441 38.6683 11.2834 38.6683 15.2795Z" fill="white"/>
<path d="M38.6683 15.2795C38.6683 19.2755 35.2936 22.5043 31.1124 22.5043C26.9311 22.5043 23.5565 19.2755 23.5565 15.2795C23.5565 11.2834 27.2275 7.86284 31.3922 8.05465C36.6435 8.29441 38.6683 11.2834 38.6683 15.2795Z" fill="url(#paint23_radial_2147_924)"/>
<path d="M29.8613 13.9528C29.7461 14.9598 29.0547 15.727 28.314 15.6631C27.5732 15.5832 27.0629 14.704 27.1781 13.697C27.2933 12.69 27.9847 11.9228 28.7255 11.9867C29.4663 12.0507 29.9766 12.9458 29.8613 13.9528Z" fill="black"/>
<path d="M29.7626 13.9528C29.6967 14.9118 29.0877 15.6471 28.3963 15.5992C27.7049 15.5672 27.1946 14.752 27.2604 13.8089C27.3263 12.8659 27.9353 12.1146 28.6432 12.1626C29.3346 12.1945 29.8449 13.0097 29.779 13.9528H29.7626Z" fill="white"/>
<path d="M29.4004 14.736C29.3346 15.2955 28.8901 15.6951 28.3963 15.6471C27.9024 15.5992 27.5567 15.1036 27.6061 14.5442C27.672 13.9848 28.1164 13.5852 28.6103 13.6331C29.1041 13.6811 29.4498 14.1766 29.4004 14.736Z" fill="black"/>
<path d="M26.4373 17.2136C26.4373 17.2136 26.5526 17.2775 26.5855 17.3095C26.6184 17.3574 26.6349 17.4213 26.6678 17.4693C26.7336 17.5812 26.783 17.6771 26.8653 17.789C27.6226 18.764 28.4621 19.6911 29.7461 19.8989C30.9478 20.0907 32.38 19.8669 33.8615 18.7001C33.9438 18.6361 34.1414 18.5243 34.2237 18.5882C34.3718 18.7001 34.2237 18.812 34.0261 18.9558C33.1207 19.6751 31.6886 20.826 29.565 20.4743C28.1493 20.2346 27.3921 19.0837 27.0958 18.732C27.0135 18.6202 26.9147 18.5083 26.8324 18.4124C26.569 18.0927 26.2892 17.5173 26.2892 17.3734C26.2892 17.3095 26.3221 17.2455 26.4044 17.2295H26.4373V17.2136Z" fill="black"/>
<path d="M34.7339 15.1036C34.4212 16.0787 33.5981 16.7021 32.8738 16.4943C32.1659 16.2865 31.8367 15.3274 32.1495 14.3524C32.4622 13.3774 33.2853 12.754 34.0096 12.9618C34.7175 13.1696 35.0467 14.1286 34.7339 15.1036Z" fill="black"/>
<path d="M34.6352 15.0717C34.3883 15.9988 33.631 16.6062 32.9726 16.4463C32.2976 16.2865 31.9519 15.3914 32.1989 14.4803C32.4458 13.5532 33.203 12.9458 33.878 13.1216C34.5529 13.2815 34.8986 14.1606 34.6352 15.0877V15.0717Z" fill="white"/>
<path d="M34.1578 15.775C33.9931 16.3025 33.4664 16.6221 32.989 16.4783C32.5116 16.3344 32.2647 15.791 32.4293 15.2635C32.5939 14.736 33.1207 14.4163 33.5981 14.5602C34.0755 14.704 34.3224 15.2475 34.1578 15.775Z" fill="black"/>
<g style="mix-blend-mode:multiply" opacity="0.69">
<path d="M38.6847 16.3184C38.2074 20.6022 34.4541 23.6871 30.3058 23.2236C26.1575 22.76 23.1615 18.9079 23.6389 14.6401C24.1162 10.3723 28.281 7.27143 32.4458 7.73497C36.6106 8.19851 39.1621 12.0507 38.7012 16.3184H38.6847Z" fill="url(#paint24_radial_2147_924)"/>
</g>
<g style="mix-blend-mode:multiply">
<path d="M32.6433 18.0927C32.4293 18.9079 31.3264 19.3394 30.1741 19.0517C29.0218 18.764 28.2481 17.8849 28.4621 17.0697C28.6761 16.2545 29.779 15.8229 30.9313 16.1106C32.0837 16.3984 32.8573 17.2775 32.6433 18.0927Z" fill="#58595B"/>
</g>
<path d="M32.5281 17.789C32.3306 18.5882 31.2606 19.0198 30.1412 18.732C29.0218 18.4603 28.281 17.5812 28.495 16.782C28.6926 15.9828 29.7626 15.5512 30.882 15.8389C32.0013 16.1106 32.7421 16.9898 32.5281 17.789Z" fill="url(#paint25_radial_2147_924)"/>
<path d="M30.1082 16.4943C30.1082 16.6541 29.9272 16.782 29.6967 16.782C29.4662 16.782 29.2852 16.6541 29.2852 16.4943C29.2852 16.3344 29.4662 16.2066 29.6967 16.2066C29.9272 16.2066 30.1082 16.3344 30.1082 16.4943Z" fill="white"/>
<path d="M40.6601 11.683C40.4626 11.4753 40.1663 11.3314 39.8864 11.2355C39.7712 11.2035 39.656 11.1716 39.5243 11.1396C39.3761 11.0757 39.2115 11.0437 39.0633 10.9478C38.9481 10.8838 38.8987 10.772 38.8658 10.6441C38.8658 10.5801 38.8658 10.5162 38.8658 10.4523C38.8493 10.1166 38.8329 9.78094 38.8 9.46125C38.767 9.14157 38.7341 8.8059 38.6847 8.48622C38.6353 8.16654 38.553 7.84686 38.4707 7.54316C38.3884 7.23946 38.2732 6.93576 38.1415 6.63206C38.0098 6.34435 37.8616 6.05664 37.6806 5.78491C37.4995 5.51318 37.302 5.25743 37.088 5.01767C36.8575 4.77791 36.6106 4.53814 36.3472 4.33035C36.0838 4.12256 35.7875 3.93075 35.5076 3.75492C35.2113 3.5791 34.8986 3.43524 34.5693 3.30737C34.2401 3.17949 33.9109 3.0676 33.5816 3.00367C33.2524 2.92375 32.9067 2.8758 32.561 2.84383C32.2318 2.81186 31.8861 2.81186 31.5569 2.84383C31.2276 2.8758 30.8984 2.92375 30.5856 3.00367C30.2729 3.08359 29.9766 3.19548 29.6967 3.32335C29.4169 3.45122 29.137 3.61107 28.8901 3.78689C28.6432 3.96272 28.3962 4.17051 28.1822 4.39429C27.9518 4.61806 27.7542 4.87381 27.5567 5.12956C27.3592 5.40129 27.1781 5.67302 27.0135 5.94475C26.8324 6.23246 26.6842 6.53616 26.5196 6.82387C26.3715 7.12757 26.2068 7.43127 26.0587 7.75095L25.9435 8.03867C25.9435 8.03867 25.8941 8.13457 25.8776 8.16654C25.8282 8.23048 25.8118 8.23048 25.7459 8.24646C25.5648 8.3104 25.4496 8.3104 25.2521 8.32638C25.0545 8.32638 24.8735 8.32638 24.6759 8.32638C24.6759 8.34237 24.1162 8.29441 23.8693 8.32638C23.7047 8.32638 23.5071 8.39032 23.5401 8.58213C23.6882 9.17354 24.6595 9.66905 25.1533 9.94078C25.8612 10.3404 26.6184 10.6601 27.3592 10.9797C29.3181 11.8269 31.4746 12.2425 33.6146 12.3863C34.0096 12.4183 34.4212 12.4183 34.8163 12.4183C35.1619 12.4183 35.4912 12.4183 35.8369 12.3863C36.4789 12.3863 37.1209 12.3863 37.7629 12.3384C38.0098 12.3384 38.2567 12.3064 38.4872 12.2904C38.7835 12.2745 39.4913 12.2585 39.5737 12.2425C39.9029 12.2425 40.265 12.2425 40.5778 12.1146C40.8412 12.0187 40.8577 11.8269 40.6766 11.6351L40.6601 11.683Z" fill="black"/>
<mask id="mask2_2147_924" style="mask-type:luminance" maskUnits="userSpaceOnUse" x="23" y="2" width="18" height="11">
<path d="M40.6601 11.683C40.4626 11.4753 40.1663 11.3314 39.8864 11.2355C39.7712 11.2035 39.656 11.1716 39.5243 11.1396C39.3761 11.0757 39.2115 11.0437 39.0633 10.9478C38.9481 10.8838 38.8987 10.772 38.8658 10.6441C38.8658 10.5801 38.8658 10.5162 38.8658 10.4523C38.8493 10.1166 38.8329 9.78094 38.8 9.46125C38.767 9.14157 38.7341 8.8059 38.6847 8.48622C38.6353 8.16654 38.553 7.84686 38.4707 7.54316C38.3884 7.23946 38.2732 6.93576 38.1415 6.63206C38.0098 6.34435 37.8616 6.05664 37.6806 5.78491C37.4995 5.51318 37.302 5.25743 37.088 5.01767C36.8575 4.77791 36.6106 4.53814 36.3472 4.33035C36.0838 4.12256 35.7875 3.93075 35.5076 3.75492C35.2113 3.5791 34.8986 3.43524 34.5693 3.30737C34.2401 3.17949 33.9109 3.0676 33.5816 3.00367C33.2524 2.92375 32.9067 2.8758 32.561 2.84383C32.2318 2.81186 31.8861 2.81186 31.5569 2.84383C31.2276 2.8758 30.8984 2.92375 30.5856 3.00367C30.2729 3.08359 29.9766 3.19548 29.6967 3.32335C29.4169 3.45122 29.137 3.61107 28.8901 3.78689C28.6432 3.96272 28.3962 4.17051 28.1822 4.39429C27.9518 4.61806 27.7542 4.87381 27.5567 5.12956C27.3592 5.40129 27.1781 5.67302 27.0135 5.94475C26.8324 6.23246 26.6842 6.53616 26.5196 6.82387C26.3715 7.12757 26.2068 7.43127 26.0587 7.75095L25.9435 8.03867C25.9435 8.03867 25.8941 8.13457 25.8776 8.16654C25.8282 8.23048 25.8118 8.23048 25.7459 8.24646C25.5648 8.3104 25.4496 8.3104 25.2521 8.32638C25.0545 8.32638 24.8735 8.32638 24.6759 8.32638C24.6759 8.34237 24.1162 8.29441 23.8693 8.32638C23.7047 8.32638 23.5071 8.39032 23.5401 8.58213C23.6882 9.17354 24.6595 9.66905 25.1533 9.94078C25.8612 10.3404 26.6184 10.6601 27.3592 10.9797C29.3181 11.8269 31.4746 12.2425 33.6146 12.3863C34.0096 12.4183 34.4212 12.4183 34.8163 12.4183C35.1619 12.4183 35.4912 12.4183 35.8369 12.3863C36.4789 12.3863 37.1209 12.3863 37.7629 12.3384C38.0098 12.3384 38.2567 12.3064 38.4872 12.2904C38.7835 12.2745 39.4913 12.2585 39.5737 12.2425C39.9029 12.2425 40.265 12.2425 40.5778 12.1146C40.8412 12.0187 40.8577 11.8269 40.6766 11.6351L40.6601 11.683Z" fill="white"/>
</mask>
<g mask="url(#mask2_2147_924)">
<g opacity="0.3">
<path d="M23.4578 7.54316C24.6266 7.46324 25.7295 7.87883 25.8118 8.02268C25.8941 8.16654 26.2398 9.23748 28.5115 10.0047C30.7832 10.772 32.347 10.9478 33.9438 11.0277C35.5406 11.1076 37.3678 11.5392 36.446 11.731C35.5241 11.9228 32.2812 12.3224 29.9601 11.9867C28.923 11.8269 24.4126 9.8129 23.7212 9.07763C23.0298 8.34236 23.4742 7.54316 23.4742 7.54316H23.4578Z" fill="white"/>
</g>
<path opacity="0.5" d="M30.668 7.06363C32.3681 7.06363 33.7463 5.7254 33.7463 4.0746C33.7463 2.42381 32.3681 1.08557 30.668 1.08557C28.9679 1.08557 27.5897 2.42381 27.5897 4.0746C27.5897 5.7254 28.9679 7.06363 30.668 7.06363Z" fill="url(#paint26_radial_2147_924)"/>
</g>
<path d="M28.6761 14.3044C28.6596 14.4483 28.5444 14.5602 28.4127 14.5442C28.281 14.5442 28.1987 14.4004 28.2152 14.2565C28.2152 14.1126 28.3469 14.0007 28.4785 14.0167C28.6102 14.0167 28.6925 14.1606 28.6761 14.3044Z" fill="white"/>
<path d="M33.3347 15.2155C33.2853 15.3594 33.1537 15.4393 33.0384 15.4073C32.9232 15.3754 32.8573 15.2315 32.9067 15.0877C32.9561 14.9438 33.0878 14.8639 33.203 14.8959C33.3183 14.9278 33.3841 15.0717 33.3347 15.2155Z" fill="white"/>
</g>
<defs>
<linearGradient id="paint0_linear_2147_924" x1="18.3547" y1="31.9989" x2="6.68986" y2="18.232" gradientUnits="userSpaceOnUse">
<stop offset="0.07" stop-color="#E53528"/>
<stop offset="0.19" stop-color="#E8412F"/>
<stop offset="0.4" stop-color="#EC5039"/>
<stop offset="0.64" stop-color="#EF593F"/>
<stop offset="1" stop-color="#F05C41"/>
</linearGradient>
<linearGradient id="paint1_linear_2147_924" x1="43.1129" y1="43.2996" x2="23.967" y2="51.2843" gradientUnits="userSpaceOnUse">
<stop offset="0.12" stop-color="#E53528"/>
<stop offset="0.14" stop-color="#E53628"/>
<stop offset="0.43" stop-color="#EB4B36"/>
<stop offset="0.72" stop-color="#EE573E"/>
<stop offset="1" stop-color="#F05C41"/>
</linearGradient>
<linearGradient id="paint2_linear_2147_924" x1="24.857" y1="51.995" x2="10.0333" y2="44.1107" gradientUnits="userSpaceOnUse">
<stop stop-color="#95171A"/>
<stop offset="1" stop-color="#AE1F23"/>
</linearGradient>
<linearGradient id="paint3_linear_2147_924" x1="10.6177" y1="30.1927" x2="28.9106" y2="38.4034" gradientUnits="userSpaceOnUse">
<stop stop-color="#676767"/>
<stop offset="0.06" stop-color="#595959"/>
<stop offset="0.23" stop-color="#393939"/>
<stop offset="0.41" stop-color="#202020"/>
<stop offset="0.59" stop-color="#0E0E0E"/>
<stop offset="0.78" stop-color="#030303"/>
<stop offset="1"/>
</linearGradient>
<linearGradient id="paint4_linear_2147_924" x1="24.5113" y1="42.9" x2="6.76136" y2="39.0783" gradientUnits="userSpaceOnUse">
<stop offset="0.04" stop-color="#8B999B"/>
<stop offset="1" stop-color="#D2D9DA"/>
</linearGradient>
<linearGradient id="paint5_linear_2147_924" x1="22.8981" y1="51.7073" x2="4.86918" y2="47.8179" gradientUnits="userSpaceOnUse">
<stop offset="0.04" stop-color="#8B999B"/>
<stop offset="1" stop-color="#D2D9DA"/>
</linearGradient>
<linearGradient id="paint6_linear_2147_924" x1="24.1985" y1="45.0099" x2="6.36686" y2="41.1545" gradientUnits="userSpaceOnUse">
<stop offset="0.04" stop-color="#8B999B"/>
<stop offset="1" stop-color="#D2D9DA"/>
</linearGradient>
<linearGradient id="paint7_linear_2147_924" x1="43.3104" y1="47.7272" x2="26.8465" y2="55.1978" gradientUnits="userSpaceOnUse">
<stop stop-color="#E1E5E5"/>
<stop offset="0.06" stop-color="#E6E9E9"/>
<stop offset="0.28" stop-color="#F4F5F5"/>
<stop offset="0.54" stop-color="#FCFCFC"/>
<stop offset="1" stop-color="white"/>
</linearGradient>
<linearGradient id="paint8_linear_2147_924" x1="39.8041" y1="40.8381" x2="23.4052" y2="48.2752" gradientUnits="userSpaceOnUse">
<stop stop-color="#E1E5E5"/>
<stop offset="0.06" stop-color="#E6E9E9"/>
<stop offset="0.28" stop-color="#F4F5F5"/>
<stop offset="0.54" stop-color="#FCFCFC"/>
<stop offset="1" stop-color="white"/>
</linearGradient>
<linearGradient id="paint9_linear_2147_924" x1="42.6355" y1="46.1928" x2="26.2041" y2="53.6466" gradientUnits="userSpaceOnUse">
<stop stop-color="#E1E5E5"/>
<stop offset="0.06" stop-color="#E6E9E9"/>
<stop offset="0.28" stop-color="#F4F5F5"/>
<stop offset="0.54" stop-color="#FCFCFC"/>
<stop offset="1" stop-color="white"/>
</linearGradient>
<linearGradient id="paint10_linear_2147_924" x1="22.717" y1="23.9748" x2="19.2304" y2="21.0129" gradientUnits="userSpaceOnUse">
<stop/>
<stop offset="0.22" stop-color="#030303"/>
<stop offset="0.41" stop-color="#0E0E0E"/>
<stop offset="0.59" stop-color="#202020"/>
<stop offset="0.77" stop-color="#393939"/>
<stop offset="0.94" stop-color="#595959"/>
<stop offset="1" stop-color="#676767"/>
</linearGradient>
<linearGradient id="paint11_linear_2147_924" x1="37.7793" y1="26.0048" x2="41.5949" y2="23.8645" gradientUnits="userSpaceOnUse">
<stop/>
<stop offset="0.22" stop-color="#030303"/>
<stop offset="0.41" stop-color="#0E0E0E"/>
<stop offset="0.59" stop-color="#202020"/>
<stop offset="0.77" stop-color="#393939"/>
<stop offset="0.94" stop-color="#595959"/>
<stop offset="1" stop-color="#676767"/>
</linearGradient>
<linearGradient id="paint12_linear_2147_924" x1="27.6884" y1="42.8681" x2="26.3686" y2="27.2928" gradientUnits="userSpaceOnUse">
<stop stop-color="#EE442F"/>
<stop offset="0.33" stop-color="#DC392B"/>
<stop offset="1" stop-color="#AE1F23"/>
</linearGradient>
<linearGradient id="paint13_linear_2147_924" x1="27.9682" y1="30.2886" x2="27.5796" y2="32.6261" gradientUnits="userSpaceOnUse">
<stop stop-color="#BFBFBF"/>
<stop offset="0.08" stop-color="#CCCCCC"/>
<stop offset="0.24" stop-color="#E3E3E3"/>
<stop offset="0.41" stop-color="#F2F2F2"/>
<stop offset="0.61" stop-color="#FCFCFC"/>
<stop offset="0.89" stop-color="white"/>
</linearGradient>
<linearGradient id="paint14_linear_2147_924" x1="27.0629" y1="34.2366" x2="26.6431" y2="36.7024" gradientUnits="userSpaceOnUse">
<stop stop-color="#BFBFBF"/>
<stop offset="0.08" stop-color="#CCCCCC"/>
<stop offset="0.24" stop-color="#E3E3E3"/>
<stop offset="0.42" stop-color="#F2F2F2"/>
<stop offset="0.62" stop-color="#FCFCFC"/>
<stop offset="0.9" stop-color="white"/>
</linearGradient>
<linearGradient id="paint15_linear_2147_924" x1="25.9106" y1="37.8011" x2="25.4908" y2="40.2349" gradientUnits="userSpaceOnUse">
<stop stop-color="#BFBFBF"/>
<stop offset="0.08" stop-color="#CCCCCC"/>
<stop offset="0.23" stop-color="#E3E3E3"/>
<stop offset="0.4" stop-color="#F2F2F2"/>
<stop offset="0.6" stop-color="#FCFCFC"/>
<stop offset="0.86" stop-color="white"/>
</linearGradient>
<linearGradient id="paint16_linear_2147_924" x1="43.449" y1="37.0976" x2="45.491" y2="28.3172" gradientUnits="userSpaceOnUse">
<stop offset="0.05" stop-color="#AAACAF"/>
<stop offset="0.07" stop-color="#B5B7B9"/>
<stop offset="0.15" stop-color="#D0D1D2"/>
<stop offset="0.22" stop-color="#E4E5E6"/>
<stop offset="0.31" stop-color="#F3F3F4"/>
<stop offset="0.41" stop-color="#FCFCFC"/>
<stop offset="0.58" stop-color="white"/>
</linearGradient>
<linearGradient id="paint17_linear_2147_924" x1="23.3096" y1="41.1897" x2="22.5633" y2="45.529" gradientUnits="userSpaceOnUse">
<stop stop-color="#BFBFBF"/>
<stop offset="0.09" stop-color="#CCCCCC"/>
<stop offset="0.27" stop-color="#E3E3E3"/>
<stop offset="0.47" stop-color="#F2F2F2"/>
<stop offset="0.69" stop-color="#FCFCFC"/>
<stop offset="1" stop-color="white"/>
</linearGradient>
<linearGradient id="paint18_linear_2147_924" x1="28.5938" y1="26.3085" x2="28.1895" y2="28.6782" gradientUnits="userSpaceOnUse">
<stop offset="0.04" stop-color="#A4A7A9"/>
<stop offset="0.12" stop-color="#B1B4B5"/>
<stop offset="0.43" stop-color="#DBDCDD"/>
<stop offset="0.66" stop-color="#F5F5F5"/>
<stop offset="0.8" stop-color="white"/>
</linearGradient>
<linearGradient id="paint19_linear_2147_924" x1="13.943" y1="31.3275" x2="13.7722" y2="22.3283" gradientUnits="userSpaceOnUse">
<stop offset="0.14" stop-color="#A9ACAE"/>
<stop offset="0.19" stop-color="#C3C5C7"/>
<stop offset="0.24" stop-color="#D9DADB"/>
<stop offset="0.3" stop-color="#EAEBEB"/>
<stop offset="0.38" stop-color="#F6F6F6"/>
<stop offset="0.48" stop-color="#FDFDFD"/>
<stop offset="0.78" stop-color="white"/>
</linearGradient>
<linearGradient id="paint20_linear_2147_924" x1="26.6019" y1="42.1328" x2="26.1359" y2="38.2773" gradientUnits="userSpaceOnUse">
<stop stop-color="#4D4E4E"/>
<stop offset="1" stop-color="#676767" stop-opacity="0"/>
</linearGradient>
<linearGradient id="paint21_linear_2147_924" x1="18.2394" y1="19.4034" x2="43.294" y2="19.4034" gradientUnits="userSpaceOnUse">
<stop stop-color="#C9DBDB"/>
<stop offset="0.08" stop-color="#CFDFDF"/>
<stop offset="0.43" stop-color="#E9F0F0"/>
<stop offset="0.75" stop-color="#F9FBFB"/>
<stop offset="1" stop-color="white"/>
</linearGradient>
<linearGradient id="paint22_linear_2147_924" x1="41.5984" y1="12.6421" x2="20.9327" y2="23.0155" gradientUnits="userSpaceOnUse">
<stop stop-color="#F05E4E"/>
<stop offset="0.26" stop-color="#E8423A"/>
<stop offset="0.52" stop-color="#E32E2B"/>
<stop offset="0.7" stop-color="#E12726"/>
<stop offset="0.82" stop-color="#DE2625"/>
<stop offset="0.9" stop-color="#D52425"/>
<stop offset="0.97" stop-color="#C62023"/>
<stop offset="1" stop-color="#BC1E23"/>
</linearGradient>
<radialGradient id="paint23_radial_2147_924" cx="0" cy="0" r="1" gradientUnits="userSpaceOnUse" gradientTransform="translate(31.1124 15.2715) scale(7.50648 6.55988)">
<stop offset="0.31" stop-color="white" stop-opacity="0"/>
<stop offset="0.61" stop-color="#FEFEFE" stop-opacity="0"/>
<stop offset="0.74" stop-color="#FDFDFD" stop-opacity="0.04"/>
<stop offset="0.82" stop-color="#FCFCFC" stop-opacity="0.08"/>
<stop offset="0.87" stop-color="#F3F3F3" stop-opacity="0.11"/>
<stop offset="0.92" stop-color="#D9DADA" stop-opacity="0.21"/>
<stop offset="0.97" stop-color="#AEB0B1" stop-opacity="0.37"/>
<stop offset="1" stop-color="#8D8F91" stop-opacity="0.5"/>
</radialGradient>
<radialGradient id="paint24_radial_2147_924" cx="0" cy="0" r="1" gradientUnits="userSpaceOnUse" gradientTransform="translate(-29.6539 13.8477) rotate(10.8246) scale(13.5446 6.08302)">
<stop offset="0.14" stop-color="#231F20"/>
<stop offset="0.45" stop-color="#8D8F91"/>
<stop offset="0.49" stop-color="#909294" stop-opacity="0.97"/>
<stop offset="0.53" stop-color="#9A9B9D" stop-opacity="0.88"/>
<stop offset="0.57" stop-color="#AAACAD" stop-opacity="0.74"/>
<stop offset="0.61" stop-color="#C1C2C3" stop-opacity="0.54"/>
<stop offset="0.65" stop-color="#DFDFE0" stop-opacity="0.28"/>
<stop offset="0.69" stop-color="white" stop-opacity="0"/>
</radialGradient>
<radialGradient id="paint25_radial_2147_924" cx="0" cy="0" r="1" gradientUnits="userSpaceOnUse" gradientTransform="translate(28.3681 14.9192) rotate(12.1289) scale(2.46495 1.76461)">
<stop offset="0.58" stop-color="#EE442F"/>
<stop offset="1" stop-color="#AE1F23"/>
</radialGradient>
<radialGradient id="paint26_radial_2147_924" cx="0" cy="0" r="1" gradientUnits="userSpaceOnUse" gradientTransform="translate(52.3422 -3.35865) rotate(19.8258) scale(3.04533 2.97762)">
<stop offset="0.12" stop-color="white"/>
<stop offset="0.24" stop-color="white" stop-opacity="0.89"/>
<stop offset="0.49" stop-color="white" stop-opacity="0.62"/>
<stop offset="0.85" stop-color="white" stop-opacity="0.18"/>
<stop offset="1" stop-color="white" stop-opacity="0"/>
</radialGradient>
</defs>
</svg>
