<svg width="1080" height="124" viewBox="0 0 1080 124" fill="none" xmlns="http://www.w3.org/2000/svg">
<path d="M522.2 8.63C525.6 8.63 528.46 9.86 530.85 12.31C533.24 14.76 534.44 17.69 534.44 21.12C534.44 24.55 533.24 27.54 530.88 29.93C528.49 32.32 525.59 33.55 522.2 33.55C518.81 33.55 515.75 32.35 513.33 29.93C510.94 27.54 509.74 24.58 509.74 21.12H509.77C509.77 17.69 511 14.73 513.42 12.31C515.87 9.86 518.8 8.63 522.2 8.63ZM37.16 15.68C38.61 15.68 39.61 15.99 40.18 16.66C40.75 17.32 41.03 18.58 41.03 20.44V37.49C41.03 37.49 41.01 37.49 41 37.49L41.03 37.55V37.48C42.81 37.26 44.21 36.53 45.21 35.25C46.22 33.99 46.72 32.32 46.72 30.25C46.72 28.46 46.19 26.44 45.15 24.24C44.11 22.04 43.61 20.68 43.61 20.18C43.61 19.05 43.96 18.14 44.65 17.41C45.34 16.69 46.22 16.34 47.32 16.34C49.37 16.34 51.22 17.79 52.89 20.65C54.53 23.51 55.38 26.88 55.38 30.75C55.38 35.47 53.78 39.4 50.53 42.58C47.32 45.73 43.26 47.33 38.42 47.33C33.58 47.33 29.49 45.79 26.21 42.74C22.94 39.66 21.33 35.85 21.33 31.26C21.33 26.67 22.87 23.14 25.92 20.15C28.97 17.16 32.72 15.68 37.15 15.68M34.73 37.64V24.99C33.13 25.12 31.77 25.78 30.67 26.94C29.57 28.14 29.03 29.55 29.03 31.19C29.03 32.83 29.53 34.21 30.57 35.37C31.61 36.53 32.99 37.29 34.72 37.64M106.45 15.77C111.67 15.77 115.61 16.62 118.25 18.35C120.86 20.08 122.18 22.69 122.18 26.22C122.18 29.75 120.89 32.2 118.28 33.9C115.67 35.6 111.74 36.45 106.45 36.45H88.45V53.82H103.96C109.25 53.82 113.18 54.67 115.79 56.37C118.4 58.07 119.69 60.65 119.69 64.11C119.69 67.57 118.4 70.15 115.79 71.82C113.18 73.49 109.25 74.34 103.96 74.34H88.45V92.59H107.11C112.43 92.59 116.39 93.44 118.97 95.14C121.55 96.84 122.84 99.39 122.84 102.82C122.84 106.25 121.55 108.89 118.97 110.56C116.39 112.26 112.46 113.11 107.11 113.11H81.34C75.61 113.11 71.68 112.13 69.54 110.18C67.4 108.23 66.33 104.55 66.33 99.14V31.37C66.33 25.46 67.46 21.37 69.73 19.13C72 16.9 75.96 15.8 81.59 15.8H106.44M401.17 16.05C404.82 16.05 407.43 17.34 409.19 19.92C410.95 22.5 411.83 26.43 411.83 31.75V41.25H413.69C417.97 41.25 421.27 42.1 423.66 43.8C426.02 45.5 427.22 47.83 427.22 50.82C427.22 53.81 426.09 56.2 423.79 57.77C421.49 59.34 418.1 60.1 413.57 60.1H411.84V98.33C411.84 103.68 410.96 107.64 409.23 110.19C407.5 112.74 404.83 114.03 401.18 114.03C397.53 114.03 394.82 112.74 393.06 110.16C391.27 107.58 390.39 103.65 390.39 98.33V60.1V60.13H389.6C385.82 60.13 382.87 59.31 380.7 57.61C378.56 55.94 377.46 53.68 377.46 50.81C377.46 47.94 378.53 45.59 380.7 43.98C382.84 42.38 386.08 41.46 390.39 41.24V31.74C390.39 26.42 391.27 22.49 393.06 19.91C394.82 17.33 397.53 16.04 401.18 16.04M224.05 16.04C227.67 16.04 230.31 17.33 232.07 19.91C233.83 22.49 234.71 26.42 234.71 31.74V41.24H236.57C240.82 41.24 244.15 42.09 246.51 43.79C248.87 45.49 250.07 47.82 250.07 50.81C250.07 53.8 248.94 56.19 246.64 57.76C244.34 59.33 240.95 60.09 236.42 60.09H234.69V98.32C234.69 103.67 233.81 107.63 232.08 110.18C230.35 112.73 227.68 114.02 224.03 114.02C220.38 114.02 217.67 112.73 215.91 110.15C214.15 107.57 213.24 103.64 213.24 98.32V60.13H213.27L213.24 60.1V60.13H212.48C208.7 60.13 205.75 59.31 203.58 57.61C201.44 55.94 200.34 53.68 200.34 50.81C200.34 47.94 201.41 45.59 203.58 43.98C205.72 42.38 208.96 41.46 213.27 41.24V31.74C213.27 26.42 214.15 22.49 215.94 19.91C217.7 17.33 220.44 16.04 224.06 16.04M656.87 38.22C667.16 38.22 675.15 41.68 681.85 48.57C688.55 55.49 691.92 63.92 691.92 73.9C691.92 77.14 691.2 79.44 689.72 80.73C688.24 82.02 685.44 82.68 681.26 82.68H642.85V82.71C643.32 86.77 644.99 89.91 647.85 92.21C650.68 94.48 654.43 95.61 659.11 95.61C663.14 95.61 667.64 94.45 672.61 92.12C677.55 89.79 680.6 88.6 681.77 88.6C684.29 88.6 686.36 89.39 687.97 90.93C689.57 92.5 690.36 94.49 690.36 96.94C690.36 101.56 687.15 105.75 680.7 109.46C674.25 113.17 666.7 115.03 657.98 115.03C647.38 115.03 638.51 111.41 631.4 104.14C624.29 96.87 620.73 87.78 620.73 76.8C620.73 65.82 624.19 56.6 631.08 49.27C638 41.91 646.59 38.23 656.88 38.23M642.57 68.62H670.95C670.7 64.97 669.22 61.92 666.55 59.46C663.88 57.01 660.7 55.78 657.02 55.78C653.34 55.78 650.26 56.94 647.64 59.24C645.03 61.57 643.33 64.68 642.57 68.58V68.61M286.24 38.22C296.53 38.22 304.52 41.68 311.22 48.57C317.92 55.49 321.29 63.92 321.29 73.9C321.29 77.14 320.57 79.44 319.09 80.73C317.64 82.02 314.81 82.68 310.63 82.68H272.22V82.71C272.72 86.77 274.36 89.91 277.22 92.21C280.05 94.48 283.83 95.61 288.48 95.61C292.51 95.61 297.01 94.45 301.98 92.12C306.92 89.79 309.97 88.6 311.14 88.6C313.66 88.6 315.73 89.39 317.34 90.93C318.94 92.5 319.73 94.49 319.73 96.94C319.73 101.56 316.52 105.75 310.07 109.46C303.62 113.17 296.07 115.03 287.35 115.03C276.75 115.03 267.88 111.41 260.77 104.14C253.66 96.87 250.1 87.78 250.1 76.8C250.1 65.82 253.56 56.6 260.45 49.27C267.34 41.91 275.96 38.23 286.25 38.23M271.97 68.62H300.35C300.1 64.97 298.62 61.92 295.95 59.46C293.28 57.01 290.1 55.78 286.42 55.78C282.74 55.78 279.66 56.94 277.04 59.24C274.43 61.57 272.73 64.68 271.97 68.58V68.61M460.68 38.47C464.33 38.47 467.54 39.1 470.37 40.33C473.2 41.59 475.69 43.51 477.86 46.15C479.12 43.88 480.6 42.15 482.33 40.99C484.06 39.83 485.98 39.26 488.12 39.26C491.71 39.26 494.38 40.52 496.11 43.07C497.84 45.62 498.72 49.55 498.72 54.9V98.29C498.72 103.61 497.84 107.54 496.08 110.12C494.32 112.7 491.68 113.99 488.12 113.99C485.73 113.99 483.72 113.39 482.05 112.2C480.43 111.01 479.02 109.15 477.89 106.57L477.86 106.51C477.86 106.51 477.88 106.55 477.89 106.58C475.72 109.25 473.08 111.3 470 112.68C466.92 114.1 463.55 114.79 459.9 114.79C450.71 114.79 442.97 111.17 436.68 103.9C430.39 96.63 427.24 87.57 427.24 76.69C427.24 65.81 430.48 56.9 436.96 49.54C443.44 42.18 451.34 38.5 460.68 38.5M463.45 94.09C467.57 94.09 470.81 92.45 473.36 89.18C475.94 85.91 477.23 81.66 477.23 76.44C477.23 71.22 475.94 67.22 473.33 64.01C470.72 60.8 467.45 59.2 463.45 59.2C459.45 59.2 456.03 60.8 453.41 63.98C450.8 67.16 449.51 71.31 449.51 76.44C449.51 81.57 450.8 86 453.38 89.24C455.96 92.48 459.33 94.09 463.45 94.09ZM736.98 38.97C739.94 38.97 742.52 40.04 744.66 42.15C746.8 44.26 747.9 46.77 747.9 49.67C747.9 53.98 743.94 57.6 736.04 60.49C733.21 61.53 731.07 62.35 729.65 63.04C726.94 64.33 725.15 65.78 724.24 67.35C723.36 68.92 722.92 71.79 722.92 75.94V98.4C722.92 103.72 722.04 107.65 720.25 110.23C718.49 112.81 715.78 114.1 712.13 114.1C708.48 114.1 705.77 112.81 704.04 110.23C702.28 107.65 701.4 103.72 701.4 98.4L701.43 98.37V54.98C701.43 49.66 702.31 45.76 704.07 43.18C705.83 40.63 708.51 39.34 712.16 39.34C714.33 39.34 716.25 39.91 717.95 41.04C719.65 42.17 721.13 43.9 722.42 46.23C724.65 43.84 726.98 42.01 729.47 40.79C731.96 39.57 734.47 38.97 736.99 38.97M584.69 38.97C593.18 38.97 599.67 41.39 604.13 46.27C608.6 51.12 610.86 58.19 610.86 67.44V98.4C610.86 103.72 609.98 107.65 608.19 110.23C606.43 112.81 603.72 114.1 600.07 114.1C596.42 114.1 593.71 112.81 591.95 110.23C590.19 107.65 589.28 103.72 589.28 98.4V74.02C589.28 68.01 588.37 63.73 586.57 61.15C584.78 58.6 581.82 57.31 577.67 57.31C573.77 57.31 570.87 58.63 569.02 61.27C567.16 63.91 566.22 68.07 566.22 73.73V98.4C566.22 103.72 565.34 107.65 563.55 110.23C561.79 112.81 559.08 114.1 555.43 114.1C551.78 114.1 549.07 112.81 547.34 110.23C545.58 107.65 544.7 103.72 544.7 98.4L544.73 98.37V54.98C544.73 49.66 545.61 45.76 547.37 43.18C549.13 40.63 551.81 39.34 555.46 39.34C557.63 39.34 559.55 39.91 561.25 41.04C562.95 42.17 564.43 43.9 565.72 46.23C568.02 43.68 570.69 41.86 573.71 40.69C576.73 39.53 580.38 38.96 584.69 38.96M364.05 38.96C367.04 38.96 369.59 40.03 371.76 42.14C373.9 44.25 375 46.76 375 49.66C375 53.97 371.04 57.59 363.14 60.48C360.31 61.52 358.17 62.34 356.75 63.03C354.04 64.32 352.25 65.77 351.37 67.34C350.49 68.91 350.05 71.78 350.05 75.93V98.39C350.05 103.71 349.17 107.64 347.38 110.22C345.59 112.8 342.88 114.09 339.26 114.09C335.64 114.09 332.94 112.8 331.17 110.22C329.41 107.64 328.53 103.71 328.53 98.39L328.5 98.36V54.97C328.5 49.65 329.38 45.75 331.14 43.17C332.9 40.62 335.58 39.33 339.23 39.33C341.4 39.33 343.35 39.9 345.02 41.03C346.72 42.16 348.2 43.89 349.49 46.22C351.72 43.83 354.05 42 356.54 40.78C359.03 39.55 361.54 38.96 364.06 38.96M168.62 38.96C177.11 38.96 183.6 41.38 188.06 46.26C192.53 51.11 194.79 58.18 194.79 67.43V98.39C194.79 103.71 193.91 107.64 192.12 110.22C190.36 112.8 187.62 114.09 184 114.09C180.38 114.09 177.64 112.8 175.88 110.22C174.12 107.64 173.21 103.71 173.21 98.39V74.01C173.21 68 172.3 63.72 170.5 61.14C168.71 58.59 165.75 57.3 161.6 57.3C157.7 57.3 154.8 58.62 152.95 61.26C151.09 63.9 150.15 68.06 150.15 73.72V98.39C150.15 103.71 149.27 107.64 147.48 110.22C145.72 112.8 143.01 114.09 139.36 114.09C135.71 114.09 133 112.8 131.27 110.22C129.51 107.64 128.63 103.71 128.63 98.39L128.66 98.36V54.97C128.66 49.65 129.54 45.75 131.3 43.17C133.06 40.62 135.74 39.33 139.39 39.33C141.56 39.33 143.48 39.9 145.18 41.03C146.88 42.16 148.36 43.89 149.65 46.22C151.95 43.67 154.62 41.85 157.64 40.68C160.66 39.52 164.31 38.95 168.62 38.95M522.28 39.33C525.96 39.33 528.54 40.62 530.27 43.17C532 45.72 532.88 49.65 532.88 54.97V98.36C532.88 103.71 532 107.67 530.27 110.22C528.54 112.77 525.87 114.06 522.28 114.06C518.69 114.06 515.92 112.77 514.16 110.19C512.37 107.61 511.49 103.68 511.49 98.36V54.97C511.49 49.65 512.37 45.75 514.13 43.17C515.89 40.59 518.6 39.33 522.28 39.33ZM47.97 51.76C50.33 51.76 52.06 52.17 53.22 52.96C54.35 53.75 54.95 54.94 54.95 56.58C54.95 58.22 54.38 59.41 53.22 60.2C52.09 60.99 50.33 61.4 47.97 61.4H37.15C34.48 61.4 32.59 61.81 31.46 62.6C30.33 63.39 29.76 64.71 29.76 66.56C29.76 68.29 30.36 69.58 31.52 70.4C32.68 71.22 34.54 71.66 37.06 71.66H47.98C50.34 71.66 52.07 72.07 53.23 72.86C54.36 73.65 54.96 74.84 54.96 76.48C54.96 78.12 54.39 79.31 53.23 80.07C52.1 80.86 50.34 81.23 47.98 81.23H15.2C12.84 81.23 11.08 80.85 9.91 80.07C8.78 79.28 8.17999 78.09 8.17999 76.48C8.17999 74.87 8.78 73.65 9.94 72.86C11.1 72.07 12.87 71.66 15.19 71.66H24.63L24.66 71.63C23.59 70.59 22.84 69.46 22.33 68.2C21.86 66.94 21.61 65.34 21.61 63.42C21.61 59.64 22.68 56.75 24.85 54.77C26.99 52.79 30.14 51.78 34.26 51.78H47.98M16.02 83.27C17.59 83.27 18.66 83.84 19.42 85C20.18 86.16 20.55 87.89 20.55 90.25V93.9H48.11C50.47 93.9 52.2 94.31 53.36 95.13C54.49 95.95 55.09 97.18 55.09 98.84C55.09 100.5 54.52 101.73 53.36 102.55C52.23 103.37 50.47 103.78 48.11 103.78H20.55V103.75V107.37C20.55 109.73 20.17 111.49 19.42 112.66C18.66 113.79 17.53 114.39 16.02 114.39C14.51 114.39 13.28 113.82 12.53 112.66C11.77 111.5 11.4 109.77 11.4 107.41V90.29C11.4 87.96 11.78 86.2 12.53 85.04C13.28 83.88 14.45 83.28 16.02 83.28M522.26 0.68C516.76 0.68 511.77 2.76 507.83 6.7C504.12 10.41 502.07 15.09 501.86 20.28C501.83 20.57 501.81 20.87 501.81 21.17C501.81 26.75 503.86 31.76 507.74 35.64C508.15 36.05 508.58 36.45 509.02 36.82C508.45 37.45 507.96 38.08 507.55 38.69C506.58 40.11 505.78 41.71 505.17 43.5C504.55 41.68 503.76 40.06 502.78 38.62C499.58 33.9 494.39 31.31 488.17 31.31C484.42 31.31 480.97 32.35 477.92 34.4C477.67 34.57 477.41 34.75 477.17 34.93C476.05 34.22 474.89 33.6 473.68 33.06C473.66 33.05 473.63 33.04 473.61 33.03C469.76 31.36 465.43 30.51 460.74 30.51C449.98 30.51 440.65 34.43 432.97 42.17C431.84 40.32 430.32 38.68 428.45 37.33C428.44 37.33 428.42 37.31 428.41 37.3C426.04 35.61 423.2 34.45 419.95 33.82V31.77C419.95 24.75 418.63 19.41 415.91 15.43C413.62 12.07 409.22 8.07001 401.28 8.07001C395.04 8.07001 389.81 10.68 386.57 15.41C383.82 19.38 382.49 24.73 382.49 31.77V34.46C380.65 34.99 379.01 35.69 377.54 36.57C377.5 36.53 377.46 36.49 377.42 36.45C377.41 36.44 377.39 36.42 377.38 36.41C373.72 32.85 369.12 30.97 364.1 30.97C360.32 30.97 356.6 31.86 353.04 33.62C352.16 34.05 351.3 34.54 350.46 35.07C350.16 34.84 349.85 34.62 349.54 34.41C346.58 32.41 343.03 31.35 339.28 31.35C331.32 31.35 326.91 35.31 324.61 38.64C322.89 41.16 321.73 44.19 321.11 47.82C319.89 46.16 318.54 44.56 317.06 43.03C308.69 34.42 298.64 30.24 286.33 30.24C274.02 30.24 264.22 34.35 256.01 42.46C254.86 40.48 253.28 38.74 251.3 37.31C248.94 35.61 246.1 34.44 242.83 33.81V31.76C242.83 24.74 241.51 19.4 238.79 15.42C236.5 12.06 232.1 8.06 224.16 8.06C217.92 8.06 212.69 10.67 209.45 15.4C206.7 19.37 205.37 24.72 205.37 31.76V34.45C202.88 35.17 200.74 36.21 198.91 37.57C197.28 38.78 195.94 40.23 194.9 41.88C194.6 41.52 194.3 41.18 193.98 40.84C187.98 34.29 179.46 30.96 168.66 30.96C163.29 30.96 158.76 31.7 154.8 33.23C153.39 33.77 152.04 34.42 150.74 35.17C150.38 34.89 150.02 34.63 149.65 34.38C146.62 32.36 143.18 31.34 139.42 31.34C134.31 31.34 130.67 32.97 128.1 35.02C129.39 32.76 130.27 29.88 130.27 26.25C130.27 20.09 127.6 14.93 122.76 11.72C118.73 9.08 113.44 7.81 106.54 7.81H81.69C73.78 7.81 68.06 9.65 64.21 13.45C62.81 14.83 61.67 16.47 60.78 18.39C60.51 17.82 60.22 17.26 59.9 16.72C59.89 16.7 59.88 16.68 59.87 16.66C55.88 9.81 50.88 8.38 47.39 8.38C45.96 8.38 44.57 8.62 43.29 9.09C41.77 8.3 39.79 7.72 37.23 7.72C30.73 7.72 24.91 10.05 20.4 14.47C15.76 19.02 13.4 24.68 13.4 31.29C13.4 37.9 15.78 43.63 20.31 48.13C20.02 48.37 19.73 48.62 19.45 48.87C16.79 51.31 13.62 55.81 13.62 63.41C13.62 63.51 13.62 63.6 13.62 63.7C10.38 63.9 7.64 64.75 5.47 66.22C2.11 68.49 0.190002 72.22 0.190002 76.47C0.190002 79.97 1.52 83.14 3.88 85.42C3.56 86.89 3.39999 88.5 3.39999 90.28V107.4C3.39999 111.35 4.19001 114.5 5.82001 117.01C8.04001 120.43 11.76 122.39 16.02 122.39C20.28 122.39 23.83 120.46 26.07 117.1C26.09 117.07 26.11 117.04 26.13 117.02C27.1 115.52 27.78 113.79 28.16 111.79H48.11C52.23 111.79 55.47 110.9 58.02 109.07C58.53 108.71 59.01 108.31 59.45 107.89C60.39 111.34 61.98 114.06 64.24 116.12C67.94 119.49 73.56 121.13 81.43 121.13H107.2C114.17 121.13 119.48 119.87 123.43 117.28C124.15 116.82 124.81 116.31 125.43 115.76C128.67 119.86 133.57 122.1 139.38 122.1C145.63 122.1 150.85 119.49 154.09 114.76C156.84 110.79 158.17 105.44 158.17 98.4V73.73C158.17 68.07 159.29 66.19 159.52 65.87C159.62 65.73 159.92 65.31 161.63 65.31C163.18 65.31 163.89 65.61 163.99 65.75C164.09 65.9 165.24 67.73 165.24 74.01V98.39C165.24 105.38 166.57 110.72 169.31 114.73C172.55 119.47 177.78 122.09 184.03 122.09C190.28 122.09 195.5 119.48 198.74 114.75C201.49 110.78 202.82 105.43 202.82 98.39V67.43C202.82 67.06 202.82 66.69 202.82 66.32C203.62 66.66 204.46 66.96 205.33 67.2V98.33C205.33 105.32 206.66 110.66 209.4 114.67C212.64 119.41 217.87 122.03 224.12 122.03C230.37 122.03 235.58 119.42 238.79 114.69C241.48 110.73 242.78 105.38 242.78 98.33V85.05C244.26 94.59 248.39 102.87 255.11 109.75C263.74 118.57 274.61 123.04 287.41 123.04C297.48 123.04 306.47 120.81 314.12 116.4C317.64 114.37 320.29 112.24 322.28 110.09C322.89 111.81 323.66 113.35 324.6 114.73C327.84 119.47 333.06 122.09 339.29 122.09C345.52 122.09 350.7 119.5 353.98 114.79C356.74 110.82 358.09 105.45 358.09 98.39V75.93C358.09 73.23 358.31 71.88 358.43 71.31C358.69 71.1 359.24 70.72 360.23 70.25C360.25 70.24 360.28 70.23 360.3 70.22C361.46 69.65 363.69 68.82 365.93 68C369.59 66.66 372.67 65.11 375.17 63.35C375.4 63.55 375.64 63.75 375.88 63.94C377.78 65.43 379.99 66.52 382.49 67.22V98.34C382.49 105.38 383.83 110.73 386.57 114.7C389.81 119.43 395.03 122.04 401.28 122.04C407.53 122.04 412.74 119.43 415.95 114.7C418.64 110.74 419.94 105.39 419.94 98.35V85.5C421.32 94.57 424.92 102.5 430.68 109.15C438.52 118.21 448.37 122.8 459.95 122.8C464.75 122.8 469.26 121.85 473.35 119.98C474.53 119.45 475.66 118.85 476.74 118.18C476.95 118.35 477.17 118.52 477.38 118.67C477.4 118.68 477.42 118.7 477.44 118.71C480.49 120.89 484.1 122 488.17 122C494.32 122 499.5 119.39 502.74 114.64C503.72 113.2 504.52 111.59 505.14 109.78C505.77 111.62 506.59 113.27 507.59 114.72C510.83 119.45 516.06 122.06 522.3 122.06C528.54 122.06 533.69 119.45 536.91 114.72C537.65 113.62 538.29 112.42 538.83 111.1C539.37 112.42 540.01 113.62 540.76 114.72C543.97 119.48 549.19 122.09 555.46 122.09C561.73 122.09 566.93 119.48 570.17 114.75C572.92 110.78 574.25 105.43 574.25 98.39V73.72C574.25 68.06 575.37 66.18 575.6 65.86C575.7 65.72 576 65.3 577.71 65.3C579.26 65.3 579.97 65.6 580.07 65.74C580.17 65.89 581.32 67.72 581.32 74V98.38C581.32 105.37 582.65 110.71 585.39 114.72C588.63 119.47 593.86 122.08 600.11 122.08C606.36 122.08 611.58 119.47 614.82 114.74C617.26 111.21 618.59 106.59 618.85 100.67C620.72 103.92 623.03 106.94 625.76 109.73C634.39 118.55 645.26 123.02 658.06 123.02C668.13 123.02 677.12 120.79 684.77 116.38C689.36 113.74 692.48 110.9 694.56 108.11C695.23 110.63 696.2 112.81 697.48 114.69C700.69 119.45 705.91 122.06 712.18 122.06C718.45 122.06 723.65 119.45 726.89 114.72C729.64 110.75 730.97 105.4 730.97 98.36V75.9C730.97 73.24 731.18 71.89 731.31 71.31C731.58 71.09 732.13 70.71 733.15 70.22C733.17 70.21 733.2 70.2 733.22 70.19C734.38 69.62 736.61 68.79 738.85 67.97C750.2 63.81 755.96 57.64 755.96 49.64C755.96 44.62 754.01 40.05 750.33 36.42C746.69 32.84 742.1 30.94 737.04 30.94C733.26 30.94 729.54 31.83 725.98 33.59C725.1 34.02 724.24 34.51 723.4 35.04C723.09 34.8 722.77 34.57 722.45 34.36C719.42 32.34 715.98 31.32 712.22 31.32C704.26 31.32 699.85 35.28 697.55 38.61C695.4 41.76 694.13 45.71 693.67 50.65C692 47.95 690.01 45.4 687.69 43.01C679.32 34.4 669.27 30.22 656.96 30.22C644.65 30.22 633.79 34.78 625.33 43.78C622.1 47.22 619.48 51 617.5 55.11C616.08 49.44 613.59 44.66 610.05 40.82C604.05 34.27 595.53 30.94 584.73 30.94C579.36 30.94 574.83 31.68 570.87 33.21C569.46 33.75 568.11 34.4 566.81 35.15C566.45 34.87 566.09 34.61 565.72 34.36C562.69 32.34 559.25 31.32 555.49 31.32C547.53 31.32 543.12 35.28 540.82 38.61C540.05 39.74 539.39 40.98 538.84 42.32C538.3 40.99 537.66 39.77 536.9 38.66C536.47 38.03 535.97 37.37 535.38 36.73C535.8 36.37 536.2 36 536.6 35.6C536.61 35.59 536.62 35.57 536.64 35.56C540.47 31.67 542.5 26.69 542.5 21.13C542.5 15.57 540.47 10.67 536.64 6.74001C532.75 2.75001 527.78 0.639999 522.26 0.639999V0.68ZM96.53 44.49H106.53C113.45 44.49 118.75 43.23 122.72 40.65C123.17 40.36 123.63 40.03 124.09 39.67C122.4 42.52 121.35 45.99 120.91 50.17C120.69 50.01 120.46 49.86 120.23 49.71C116.26 47.12 110.96 45.87 104.04 45.87H96.53V44.5V44.49ZM57.9 46.48C58.07 46.27 58.25 46.06 58.41 45.84V46.86C58.24 46.73 58.07 46.6 57.9 46.48ZM58.14 66.54C58.23 66.47 58.32 66.4 58.41 66.33V66.75C58.32 66.68 58.23 66.61 58.14 66.54ZM463.49 86.1C461.8 86.1 460.73 85.59 459.68 84.27C458.25 82.47 457.55 79.91 457.55 76.45C457.55 73.19 458.23 70.78 459.63 69.07C460.7 67.77 461.86 67.21 463.49 67.21C464.82 67.21 465.9 67.52 467.16 69.07C468.14 70.28 469.27 72.2 469.27 76.45C469.27 79.85 468.57 82.4 467.12 84.24C466.04 85.62 465.1 86.1 463.49 86.1ZM242.77 67.64C242.77 67.64 242.86 67.62 242.91 67.62C242.86 67.9 242.82 68.18 242.77 68.47V67.65V67.64ZM419.93 67.64C419.93 67.64 419.98 67.64 420 67.63C419.97 67.78 419.95 67.94 419.93 68.09V67.64ZM96.54 82.38H104.05C110.93 82.38 116.21 81.15 120.18 78.61C120.35 78.5 120.52 78.39 120.68 78.28V86.99C117.11 85.41 112.66 84.63 107.19 84.63H96.53V82.38H96.54ZM57.7 86.72C57.95 86.55 58.19 86.38 58.42 86.2V88.94C58.3 88.84 58.17 88.75 58.05 88.66C58.02 88.64 57.99 88.62 57.97 88.6C57.42 88.22 56.85 87.87 56.24 87.57C56.75 87.31 57.24 87.03 57.7 86.71V86.72Z" fill="#0000FF"/>
<path d="M106.47 15.77C111.69 15.77 115.63 16.62 118.27 18.35C120.88 20.08 122.2 22.69 122.2 26.22C122.2 29.75 120.91 32.2 118.3 33.9C115.69 35.6 111.76 36.45 106.47 36.45H88.47V53.82H103.98C109.27 53.82 113.2 54.67 115.81 56.37C118.42 58.07 119.71 60.65 119.71 64.11C119.71 67.57 118.42 70.15 115.81 71.82C113.2 73.49 109.27 74.34 103.98 74.34H88.47V92.59H107.13C112.45 92.59 116.41 93.44 118.99 95.14C121.57 96.84 122.86 99.39 122.86 102.82C122.86 106.25 121.57 108.89 118.99 110.56C116.41 112.26 112.48 113.11 107.13 113.11H81.36C75.63 113.11 71.7 112.13 69.56 110.18C67.42 108.23 66.35 104.55 66.35 99.14V31.37C66.35 25.46 67.48 21.37 69.75 19.13C72.02 16.89 75.98 15.8 81.61 15.8H106.46L106.47 15.77ZM128.62 98.32V54.93C128.62 49.61 129.5 45.71 131.26 43.13C133.02 40.58 135.7 39.29 139.35 39.29C141.52 39.29 143.44 39.86 145.14 40.99C146.84 42.12 148.32 43.85 149.61 46.18C151.91 43.63 154.58 41.81 157.6 40.64C160.62 39.48 164.27 38.91 168.58 38.91C177.07 38.91 183.56 41.33 188.02 46.21C192.49 51.06 194.75 58.13 194.75 67.38V98.34C194.75 103.66 193.87 107.59 192.08 110.17C190.32 112.75 187.58 114.04 183.96 114.04C180.34 114.04 177.6 112.75 175.84 110.17C174.08 107.59 173.17 103.66 173.17 98.34V73.96C173.17 67.95 172.26 63.67 170.46 61.09C168.67 58.54 165.71 57.25 161.56 57.25C157.66 57.25 154.76 58.57 152.91 61.21C151.05 63.85 150.11 68.01 150.11 73.67V98.34C150.11 103.66 149.23 107.59 147.44 110.17C145.68 112.75 142.97 114.04 139.32 114.04C135.67 114.04 132.96 112.75 131.23 110.17C129.47 107.59 128.59 103.66 128.59 98.34L128.62 98.31V98.32ZM213.28 60.09H212.49C208.71 60.09 205.76 59.27 203.59 57.57C201.45 55.9 200.35 53.64 200.35 50.77C200.35 47.9 201.42 45.55 203.59 43.94C205.73 42.34 208.97 41.42 213.28 41.2V31.7C213.28 26.38 214.16 22.45 215.95 19.87C217.71 17.29 220.45 16 224.07 16C227.69 16 230.33 17.29 232.09 19.87C233.85 22.45 234.73 26.38 234.73 31.7V41.2H236.59C240.84 41.2 244.17 42.05 246.53 43.75C248.89 45.45 250.09 47.78 250.09 50.77C250.09 53.76 248.96 56.15 246.66 57.72C244.36 59.29 240.97 60.05 236.44 60.05H234.71V98.28C234.71 103.63 233.83 107.59 232.1 110.14C230.37 112.69 227.7 113.98 224.05 113.98C220.4 113.98 217.69 112.69 215.93 110.11C214.17 107.53 213.26 103.6 213.26 98.28V60.05L213.29 60.08L213.28 60.09ZM272.21 82.68C272.71 86.74 274.35 89.88 277.21 92.18C280.04 94.45 283.82 95.58 288.47 95.58C292.5 95.58 297 94.42 301.97 92.09C306.91 89.76 309.96 88.57 311.13 88.57C313.65 88.57 315.72 89.36 317.33 90.9C318.93 92.47 319.72 94.46 319.72 96.91C319.72 101.53 316.51 105.72 310.06 109.43C303.61 113.14 296.06 115 287.34 115C276.74 115 267.87 111.38 260.76 104.11C253.65 96.84 250.09 87.75 250.09 76.77C250.09 65.79 253.55 56.57 260.44 49.24C267.33 41.88 275.95 38.2 286.24 38.2C296.53 38.2 304.52 41.66 311.22 48.55C317.92 55.47 321.29 63.9 321.29 73.88C321.29 77.12 320.57 79.42 319.09 80.71C317.64 82 314.81 82.66 310.63 82.66H272.22V82.69L272.21 82.68ZM271.96 68.59H300.34C300.09 64.94 298.61 61.89 295.94 59.43C293.27 56.98 290.09 55.75 286.41 55.75C282.73 55.75 279.65 56.91 277.03 59.21C274.42 61.54 272.72 64.65 271.96 68.55V68.58V68.59ZM328.46 98.32V54.93C328.46 49.61 329.34 45.71 331.1 43.13C332.86 40.58 335.54 39.29 339.19 39.29C341.36 39.29 343.31 39.86 344.98 40.99C346.68 42.12 348.16 43.85 349.45 46.18C351.68 43.79 354.01 41.96 356.5 40.74C358.99 39.52 361.5 38.92 364.02 38.92C367.01 38.92 369.56 39.99 371.73 42.1C373.87 44.21 374.97 46.72 374.97 49.62C374.97 53.93 371.01 57.55 363.11 60.44C360.28 61.48 358.14 62.3 356.72 62.99C354.01 64.28 352.22 65.73 351.34 67.3C350.46 68.87 350.02 71.74 350.02 75.89V98.35C350.02 103.67 349.14 107.6 347.35 110.18C345.56 112.76 342.85 114.05 339.23 114.05C335.61 114.05 332.91 112.76 331.14 110.18C329.38 107.6 328.5 103.67 328.5 98.35L328.47 98.32H328.46ZM390.41 60.09H389.62C385.84 60.09 382.89 59.27 380.72 57.57C378.58 55.9 377.48 53.64 377.48 50.77C377.48 47.9 378.55 45.55 380.72 43.94C382.86 42.34 386.1 41.42 390.41 41.2V31.7C390.41 26.38 391.29 22.45 393.08 19.87C394.84 17.29 397.55 16 401.2 16C404.85 16 407.46 17.29 409.22 19.87C410.98 22.45 411.86 26.38 411.86 31.7V41.2H413.72C418 41.2 421.3 42.05 423.69 43.75C426.05 45.45 427.25 47.78 427.25 50.77C427.25 53.76 426.12 56.15 423.82 57.72C421.52 59.29 418.13 60.05 413.6 60.05H411.87V98.28C411.87 103.63 410.99 107.59 409.26 110.14C407.53 112.69 404.86 113.98 401.21 113.98C397.56 113.98 394.85 112.69 393.09 110.11C391.3 107.53 390.42 103.6 390.42 98.28V60.05V60.08L390.41 60.09ZM477.87 106.53C475.7 109.2 473.06 111.25 469.97 112.63C466.89 114.05 463.52 114.74 459.87 114.74C450.68 114.74 442.94 111.12 436.65 103.85C430.36 96.58 427.21 87.52 427.21 76.64C427.21 65.76 430.45 56.85 436.93 49.49C443.41 42.13 451.31 38.45 460.65 38.45C464.3 38.45 467.51 39.08 470.34 40.31C473.17 41.57 475.66 43.49 477.83 46.13C479.09 43.86 480.57 42.13 482.3 40.97C484.03 39.81 485.95 39.24 488.09 39.24C491.68 39.24 494.35 40.5 496.08 43.05C497.81 45.6 498.69 49.53 498.69 54.88V98.27C498.69 103.59 497.81 107.52 496.05 110.1C494.29 112.68 491.65 113.97 488.09 113.97C485.7 113.97 483.69 113.37 482.02 112.18C480.38 110.98 478.97 109.1 477.84 106.49L477.87 106.55V106.53ZM449.49 76.39C449.49 81.71 450.78 85.95 453.36 89.19C455.94 92.43 459.31 94.04 463.43 94.04C467.55 94.04 470.79 92.4 473.34 89.13C475.92 85.86 477.21 81.61 477.21 76.39C477.21 71.17 475.92 67.17 473.31 63.96C470.7 60.75 467.43 59.15 463.43 59.15C459.43 59.15 456.01 60.75 453.39 63.93C450.78 67.11 449.49 71.26 449.49 76.39ZM509.77 21.11C509.77 17.68 511 14.72 513.42 12.3C515.87 9.85 518.8 8.62 522.2 8.62C525.6 8.62 528.46 9.85 530.85 12.3C533.24 14.75 534.44 17.68 534.44 21.11C534.44 24.54 533.24 27.53 530.88 29.92C528.49 32.31 525.59 33.54 522.2 33.54C518.81 33.54 515.75 32.34 513.33 29.92C510.94 27.53 509.74 24.57 509.74 21.11H509.77ZM532.83 98.32C532.83 103.67 531.95 107.63 530.22 110.18C528.49 112.73 525.82 114.02 522.23 114.02C518.64 114.02 515.87 112.73 514.11 110.15C512.32 107.57 511.44 103.64 511.44 98.32V54.93C511.44 49.61 512.32 45.71 514.08 43.13C515.84 40.55 518.55 39.29 522.23 39.29C525.91 39.29 528.49 40.58 530.22 43.13C531.95 45.68 532.83 49.61 532.83 54.93V98.32ZM544.69 98.32V54.93C544.69 49.61 545.57 45.71 547.33 43.13C549.09 40.58 551.77 39.29 555.42 39.29C557.59 39.29 559.51 39.86 561.21 40.99C562.91 42.12 564.39 43.85 565.68 46.18C567.98 43.63 570.65 41.81 573.67 40.64C576.69 39.48 580.34 38.91 584.65 38.91C593.14 38.91 599.63 41.33 604.09 46.21C608.56 51.06 610.82 58.13 610.82 67.38V98.34C610.82 103.66 609.94 107.59 608.15 110.17C606.39 112.75 603.68 114.04 600.03 114.04C596.38 114.04 593.67 112.75 591.91 110.17C590.15 107.59 589.24 103.66 589.24 98.34V73.96C589.24 67.95 588.33 63.67 586.53 61.09C584.74 58.54 581.78 57.25 577.63 57.25C573.73 57.25 570.83 58.57 568.98 61.21C567.12 63.85 566.18 68.01 566.18 73.67V98.34C566.18 103.66 565.3 107.59 563.51 110.17C561.75 112.75 559.04 114.04 555.39 114.04C551.74 114.04 549.03 112.75 547.3 110.17C545.54 107.59 544.66 103.66 544.66 98.34L544.69 98.31V98.32ZM642.85 82.68C643.32 86.74 644.99 89.88 647.85 92.18C650.68 94.45 654.43 95.58 659.11 95.58C663.14 95.58 667.64 94.42 672.61 92.09C677.55 89.76 680.6 88.57 681.77 88.57C684.29 88.57 686.36 89.36 687.97 90.9C689.57 92.47 690.36 94.46 690.36 96.91C690.36 101.53 687.15 105.72 680.7 109.43C674.25 113.14 666.7 115 657.98 115C647.38 115 638.51 111.38 631.4 104.11C624.29 96.84 620.73 87.75 620.73 76.77C620.73 65.79 624.19 56.57 631.08 49.24C638 41.88 646.59 38.2 656.88 38.2C667.17 38.2 675.16 41.66 681.86 48.55C688.56 55.47 691.93 63.9 691.93 73.88C691.93 77.12 691.21 79.42 689.73 80.71C688.25 82 685.45 82.66 681.27 82.66H642.86V82.69L642.85 82.68ZM642.57 68.59H670.95C670.7 64.94 669.22 61.89 666.55 59.43C663.88 56.98 660.7 55.75 657.02 55.75C653.34 55.75 650.26 56.91 647.64 59.21C645.03 61.54 643.33 64.65 642.57 68.55V68.58V68.59ZM701.4 98.32V54.93C701.4 49.61 702.28 45.71 704.04 43.13C705.8 40.58 708.48 39.29 712.13 39.29C714.3 39.29 716.22 39.86 717.92 40.99C719.62 42.12 721.1 43.85 722.39 46.18C724.62 43.79 726.95 41.96 729.44 40.74C731.93 39.51 734.44 38.92 736.96 38.92C739.92 38.92 742.5 39.99 744.64 42.1C746.78 44.21 747.88 46.72 747.88 49.62C747.88 53.93 743.92 57.55 736.02 60.44C733.19 61.48 731.05 62.3 729.63 62.99C726.92 64.28 725.13 65.73 724.22 67.3C723.34 68.87 722.9 71.74 722.9 75.89V98.35C722.9 103.67 722.02 107.6 720.23 110.18C718.47 112.76 715.76 114.05 712.11 114.05C708.46 114.05 705.75 112.76 704.02 110.18C702.26 107.6 701.38 103.67 701.38 98.35L701.41 98.32H701.4ZM20.48 103.7V107.32C20.48 109.68 20.1 111.44 19.35 112.61C18.59 113.74 17.46 114.34 15.95 114.34C14.44 114.34 13.21 113.77 12.46 112.61C11.7 111.45 11.33 109.72 11.33 107.36V90.25C11.33 87.92 11.71 86.16 12.46 85C13.22 83.84 14.38 83.24 15.95 83.24C17.52 83.24 18.59 83.81 19.35 84.97C20.11 86.13 20.48 87.86 20.48 90.22V93.87H48.04C50.4 93.87 52.13 94.28 53.29 95.1C54.42 95.92 55.02 97.14 55.02 98.81C55.02 100.48 54.45 101.7 53.29 102.52C52.16 103.34 50.4 103.75 48.04 103.75H20.48V103.72V103.7ZM24.6 71.58C23.53 70.54 22.78 69.41 22.27 68.15C21.8 66.89 21.55 65.29 21.55 63.37C21.55 59.59 22.62 56.7 24.79 54.72C26.93 52.74 30.08 51.73 34.2 51.73H47.92C50.28 51.73 52.01 52.14 53.17 52.93C54.3 53.72 54.9 54.91 54.9 56.55C54.9 58.19 54.33 59.38 53.17 60.17C52.04 60.96 50.28 61.37 47.92 61.37H37.1C34.43 61.37 32.54 61.78 31.41 62.57C30.28 63.36 29.71 64.68 29.71 66.53C29.71 68.26 30.31 69.55 31.47 70.37C32.63 71.19 34.49 71.63 37.01 71.63H47.93C50.29 71.63 52.02 72.04 53.18 72.83C54.31 73.62 54.91 74.81 54.91 76.45C54.91 78.09 54.34 79.28 53.18 80.04C52.05 80.83 50.29 81.2 47.93 81.2H15.15C12.79 81.2 11.03 80.82 9.85999 80.04C8.72999 79.25 8.13 78.06 8.13 76.45C8.13 74.84 8.73001 73.62 9.89001 72.83C11.05 72.04 12.82 71.63 15.14 71.63H24.58L24.61 71.6L24.6 71.58ZM40.99 37.48C42.78 37.26 44.2 36.54 45.21 35.25C46.22 33.99 46.72 32.32 46.72 30.25C46.72 28.46 46.19 26.44 45.15 24.24C44.11 22.04 43.61 20.68 43.61 20.18C43.61 19.05 43.96 18.14 44.65 17.41C45.34 16.69 46.22 16.34 47.32 16.34C49.36 16.34 51.22 17.79 52.89 20.65C54.53 23.51 55.38 26.88 55.38 30.75C55.38 35.47 53.78 39.4 50.53 42.58C47.32 45.73 43.26 47.33 38.42 47.33C33.58 47.33 29.48 45.79 26.21 42.74C22.94 39.66 21.33 35.85 21.33 31.26C21.33 26.67 22.87 23.14 25.92 20.15C28.97 17.16 32.72 15.68 37.15 15.68C38.6 15.68 39.6 15.99 40.17 16.66C40.74 17.32 41.02 18.58 41.02 20.44V37.55L40.99 37.49V37.48ZM34.73 37.61V24.99C33.13 25.12 31.77 25.78 30.67 26.94C29.57 28.14 29.03 29.55 29.03 31.19C29.03 32.83 29.53 34.21 30.57 35.37C31.61 36.53 32.99 37.29 34.72 37.64V37.61H34.73Z" fill="white"/>
<path d="M812.78 8.63C815.83 8.63 818.71 9.31 820.91 11L865.12 43.86L896.96 19.81C900.18 17.27 904.24 14.73 909.16 14.73C916.1 14.73 921.86 20.49 921.86 29.13C921.86 33.7 919.49 37.6 914.75 40.99L887.99 60.47L913.23 78.59C918.65 82.49 921.87 86.38 921.87 91.97C921.87 100.61 915.94 106.2 909.17 106.2C904.09 106.2 900.19 103.49 896.97 101.12L865.13 77.07L826.85 105.7C822.78 108.58 819.06 112.31 812.79 112.31C804.66 112.31 799.24 106.38 799.24 98.93C799.24 93.34 801.61 89.78 807.03 85.89L841.58 60.48L807.87 35.75C801.6 31.18 799.23 27.62 799.23 22.03C799.23 14.41 805.16 8.64999 812.78 8.64999M812.78 0.650002C800.7 0.650002 791.23 10.04 791.23 22.03C791.23 32.12 796.96 37.69 803.15 42.21L828.06 60.49L802.31 79.42C797.14 83.14 791.23 88.72 791.23 98.93C791.23 111.12 800.49 120.31 812.78 120.31C820.7 120.31 825.88 116.41 829.67 113.56C830.3 113.09 830.89 112.64 831.46 112.24C831.52 112.2 831.57 112.16 831.63 112.12L865.1 87.09L892.15 107.52C892.15 107.52 892.2 107.56 892.23 107.58C895.6 110.06 901.24 114.22 909.17 114.22C920.78 114.22 929.87 104.46 929.87 91.99C929.87 81.88 923.04 75.81 917.9 72.11L901.65 60.44L919.44 47.49C928.06 41.32 929.87 34.11 929.87 29.14C929.87 16.37 920.97 6.74001 909.17 6.74001C901.57 6.74001 895.79 10.57 892.09 13.49L865.1 33.88L825.75 4.63C822.33 2.02 817.86 0.650002 812.8 0.650002H812.78Z" fill="#FF00FF"/>
<path d="M1037.04 9.06C1054.08 9.06 1071.69 21.04 1071.69 42.99C1071.69 64.94 1058.41 78.8 1037.76 78.8L972.72 77.36V100.75C972.72 108.26 967.96 112.73 961.03 112.73C954.1 112.73 949.34 108.25 949.34 100.75V25.29C949.34 18.79 954.54 13.88 960.75 13.88L1037.05 9.06M1037.05 1.06C1036.88 1.06 1036.71 1.06 1036.55 1.08L960.47 5.88C949.9 6.03 941.35 14.68 941.35 25.28V100.74C941.35 112.51 949.45 120.72 961.04 120.72C972.63 120.72 980.73 112.5 980.73 100.74V85.53L1037.59 86.79C1037.65 86.79 1037.71 86.79 1037.77 86.79C1063.24 86.79 1079.7 69.6 1079.7 42.98C1079.7 30.59 1074.85 19.51 1066.04 11.78C1058.28 4.96 1047.71 1.06 1037.05 1.06Z" fill="#FF00FF"/>
</svg>
