<svg width="290" height="40" viewBox="0 0 290 40" fill="none" xmlns="http://www.w3.org/2000/svg">
<rect width="290" height="40" rx="20" fill="black"/>
<path d="M81.7699 19.86V25.77H79.8999V11.18H84.8599C86.1199 11.18 87.1899 11.6 88.0599 12.44C88.9599 13.28 89.3999 14.3 89.3999 15.52C89.3999 16.74 88.9499 17.78 88.0599 18.61C87.1899 19.44 86.1199 19.85 84.8599 19.85H81.7699V19.86ZM81.7699 12.98V18.07H84.8999C85.6399 18.07 86.2599 17.82 86.7499 17.32C87.2499 16.82 87.4999 16.22 87.4999 15.53C87.4999 14.84 87.2499 14.26 86.7499 13.76C86.2599 13.24 85.6499 12.99 84.8999 12.99H81.7699V12.98ZM94.2899 15.46C95.6699 15.46 96.7599 15.83 97.5599 16.57C98.3599 17.31 98.7599 18.33 98.7599 19.62V25.77H96.9799V24.38H96.8999C96.1299 25.52 95.0999 26.09 93.8099 26.09C92.7099 26.09 91.7899 25.77 91.0499 25.11C90.3099 24.46 89.9399 23.65 89.9399 22.67C89.9399 21.64 90.3299 20.82 91.1099 20.21C91.8899 19.59 92.9299 19.29 94.2299 19.29C95.3399 19.29 96.2599 19.5 96.9699 19.91V19.48C96.9699 18.83 96.7199 18.28 96.1999 17.82C95.6799 17.36 95.0799 17.14 94.3899 17.14C93.3499 17.14 92.5199 17.58 91.9199 18.47L90.2699 17.44C91.1799 16.12 92.5199 15.47 94.2899 15.47V15.46ZM91.8799 22.7C91.8799 23.19 92.0799 23.6 92.4999 23.92C92.9099 24.24 93.3999 24.41 93.9499 24.41C94.7399 24.41 95.4399 24.12 96.0499 23.53C96.6599 22.94 96.9699 22.26 96.9699 21.47C96.3899 21.01 95.5799 20.78 94.5399 20.78C93.7799 20.78 93.1499 20.97 92.6399 21.33C92.1199 21.71 91.8699 22.17 91.8699 22.71L91.8799 22.7ZM108.93 15.78L102.7 30.15H100.77L103.09 25.12L98.9799 15.78H101.01L103.97 22.95H104.01L106.89 15.78H108.92H108.93Z" fill="white"/>
<path d="M74.3301 18.67C74.3301 18.06 74.2801 17.47 74.1701 16.91H66.3301V20.13H70.8401C70.6701 21.19 70.0601 22.13 69.1701 22.73V24.82H71.8601C73.4301 23.36 74.3301 21.21 74.3301 18.67Z" fill="#4285F4"/>
<path d="M69.1799 22.73C68.4299 23.24 67.4699 23.53 66.3399 23.53C64.1599 23.53 62.3199 22.06 61.6599 20.08H58.8899V22.24C60.2599 24.97 63.0799 26.85 66.3399 26.85C68.5899 26.85 70.4899 26.11 71.8599 24.83L69.1699 22.74L69.1799 22.73Z" fill="#34A853"/>
<path d="M61.4 18.48C61.4 17.92 61.49 17.39 61.66 16.88V14.72H58.89C58.3 15.89 58 17.17 58 18.48C58 19.83 58.32 21.1 58.89 22.23L61.66 20.07C61.49 19.55 61.4 19.01 61.4 18.47V18.48Z" fill="#FABB05"/>
<path d="M66.3399 13.43C67.5699 13.43 68.6699 13.85 69.5399 14.68L71.9199 12.3C70.4699 10.95 68.5899 10.12 66.3399 10.12C63.0799 10.12 60.2599 11.99 58.8899 14.72L61.6599 16.88C62.3199 14.9 64.1699 13.43 66.3399 13.43Z" fill="#E94235"/>
<path fill-rule="evenodd" clip-rule="evenodd" d="M145.76 23.66H150.37V15.33H145.76V23.66Z" fill="#FF5F00"/>
<path fill-rule="evenodd" clip-rule="evenodd" d="M146.05 19.5C146.05 17.81 146.84 16.3 148.06 15.34C147.16 14.63 146.03 14.21 144.8 14.21C141.89 14.21 139.53 16.58 139.53 19.51C139.53 22.44 141.89 24.81 144.8 24.81C146.03 24.81 147.16 24.39 148.06 23.68C146.83 22.71 146.05 21.21 146.05 19.52" fill="#EB001B"/>
<path fill-rule="evenodd" clip-rule="evenodd" d="M156.43 22.78V22.57H156.38L156.32 22.71L156.26 22.57H156.21V22.78H156.25V22.62L156.31 22.75H156.35L156.41 22.62V22.78H156.45H156.43ZM156.09 22.78V22.61H156.16V22.58H155.99V22.61H156.06V22.78H156.1H156.09ZM156.59 19.5C156.59 22.43 154.23 24.8 151.32 24.8C150.09 24.8 148.96 24.38 148.06 23.67C149.29 22.7 150.07 21.2 150.07 19.51C150.07 17.82 149.28 16.32 148.06 15.35C148.96 14.64 150.09 14.22 151.32 14.22C154.23 14.22 156.59 16.59 156.59 19.52V19.5Z" fill="#F79E1B"/>
<path d="M161.09 30.96H135.05C132.96 30.96 131.25 29.26 131.25 27.16V12.8C131.25 10.71 132.95 9 135.05 9H161.09C163.18 9 164.89 10.7 164.89 12.8V27.16C164.89 29.25 163.19 30.96 161.09 30.96ZM135.05 10C133.51 10 132.25 11.25 132.25 12.8V27.16C132.25 28.7 133.5 29.96 135.05 29.96H161.09C162.63 29.96 163.89 28.71 163.89 27.16V12.8C163.89 11.26 162.64 10 161.09 10H135.05Z" fill="white"/>
<path d="M118.95 30.96C118.67 30.96 118.45 30.74 118.45 30.46V9.5C118.45 9.22 118.67 9 118.95 9C119.23 9 119.45 9.22 119.45 9.5V30.46C119.45 30.74 119.23 30.96 118.95 30.96Z" fill="white"/>
<path d="M176.57 21.62C176.46 21.88 176.3 22.11 176.11 22.31C175.92 22.51 175.68 22.66 175.42 22.77C175.16 22.88 174.88 22.94 174.58 22.94C174.28 22.94 174 22.88 173.74 22.77C173.48 22.66 173.25 22.5 173.05 22.31C172.85 22.12 172.7 21.88 172.59 21.62C172.48 21.36 172.42 21.08 172.42 20.78C172.42 20.48 172.48 20.21 172.59 19.94C172.7 19.68 172.86 19.45 173.05 19.25C173.24 19.05 173.48 18.9 173.74 18.79C174 18.68 174.28 18.62 174.58 18.62C174.88 18.62 175.16 18.68 175.42 18.79C175.68 18.9 175.91 19.06 176.11 19.25C176.31 19.44 176.46 19.68 176.57 19.94C176.68 20.2 176.74 20.48 176.74 20.78C176.74 21.08 176.68 21.36 176.57 21.62Z" fill="white"/>
<path d="M182.71 21.62C182.6 21.88 182.44 22.11 182.25 22.31C182.06 22.51 181.82 22.66 181.56 22.77C181.3 22.88 181.02 22.94 180.73 22.94C180.44 22.94 180.15 22.88 179.89 22.77C179.63 22.66 179.4 22.5 179.2 22.31C179 22.12 178.85 21.88 178.74 21.62C178.63 21.36 178.57 21.08 178.57 20.78C178.57 20.48 178.63 20.21 178.74 19.94C178.85 19.68 179.01 19.45 179.2 19.25C179.39 19.05 179.63 18.9 179.89 18.79C180.15 18.68 180.43 18.62 180.73 18.62C181.03 18.62 181.3 18.68 181.56 18.79C181.82 18.9 182.05 19.06 182.25 19.25C182.45 19.44 182.6 19.68 182.71 19.94C182.82 20.2 182.88 20.48 182.88 20.78C182.88 21.08 182.82 21.36 182.71 21.62Z" fill="white"/>
<path d="M188.84 21.62C188.73 21.88 188.57 22.11 188.38 22.31C188.19 22.51 187.95 22.66 187.69 22.77C187.43 22.88 187.15 22.94 186.85 22.94C186.55 22.94 186.27 22.88 186.01 22.77C185.75 22.66 185.52 22.5 185.32 22.31C185.12 22.12 184.97 21.88 184.86 21.62C184.75 21.36 184.69 21.08 184.69 20.78C184.69 20.48 184.75 20.21 184.86 19.94C184.97 19.68 185.13 19.45 185.32 19.25C185.51 19.05 185.75 18.9 186.01 18.79C186.27 18.68 186.55 18.62 186.85 18.62C187.15 18.62 187.43 18.68 187.69 18.79C187.95 18.9 188.18 19.06 188.38 19.25C188.58 19.44 188.73 19.68 188.84 19.94C188.95 20.2 189.01 20.48 189.01 20.78C189.01 21.08 188.95 21.36 188.84 21.62Z" fill="white"/>
<path d="M194.98 21.62C194.87 21.88 194.71 22.11 194.52 22.31C194.33 22.51 194.09 22.66 193.83 22.77C193.57 22.88 193.29 22.94 193 22.94C192.71 22.94 192.42 22.88 192.16 22.77C191.9 22.66 191.67 22.5 191.47 22.31C191.27 22.12 191.12 21.88 191.01 21.62C190.9 21.36 190.84 21.08 190.84 20.78C190.84 20.48 190.9 20.21 191.01 19.94C191.12 19.68 191.28 19.45 191.47 19.25C191.66 19.05 191.9 18.9 192.16 18.79C192.42 18.68 192.7 18.62 193 18.62C193.3 18.62 193.57 18.68 193.83 18.79C194.09 18.9 194.32 19.06 194.52 19.25C194.72 19.44 194.87 19.68 194.98 19.94C195.09 20.2 195.15 20.48 195.15 20.78C195.15 21.08 195.09 21.36 194.98 21.62Z" fill="white"/>
<path d="M206.58 25.98C203.66 25.98 202.94 23.89 202.94 20.18C202.94 15.94 203.9 14.38 206.86 14.38C207.35 14.38 208.26 14.53 208.92 14.96C209.13 15.09 209.45 15.34 209.45 15.67C209.45 16.03 209.07 16.54 208.64 16.54C208.47 16.54 208.33 16.46 208.1 16.31C207.66 16.03 207.06 15.95 206.83 15.95C205.15 15.95 204.75 16.89 204.64 19C204.64 19.08 204.64 19.15 204.69 19.15C204.77 19.15 204.86 19.05 205.02 18.95C205.42 18.7 206.01 18.51 206.72 18.51C209.09 18.51 210.05 20.36 210.05 22.27C210.05 24.18 209.14 25.99 206.59 25.99L206.58 25.98ZM204.75 22.24C204.75 23.06 205.05 24.42 206.58 24.42C208.11 24.42 208.41 23.07 208.41 22.24C208.41 21.41 208.18 20.06 206.58 20.06C204.98 20.06 204.75 21.41 204.75 22.24Z" fill="white"/>
<path d="M213.57 14.74C213.87 14.46 214.11 14.38 214.34 14.38C214.69 14.38 215.1 14.59 215.1 15.22V25.24C215.1 25.78 214.69 25.98 214.28 25.98C213.87 25.98 213.46 25.78 213.46 25.24V17.45C213.46 17.45 213.46 17.3 213.38 17.3C213.33 17.3 213.3 17.33 213.28 17.35L212.19 18.34C211.99 18.5 211.81 18.57 211.65 18.57C211.24 18.57 210.81 18.19 210.81 17.75C210.81 17.57 210.88 17.37 211.07 17.19L213.57 14.75V14.74Z" fill="white"/>
<path d="M222.26 22.11C222.26 20.84 222.03 19.79 220.46 19.79C219.39 19.79 219.06 20.89 218.28 20.89C217.74 20.89 217.31 20.66 217.31 20.08V15.19C217.31 14.73 217.61 14.45 218.02 14.45H222.55C223.09 14.45 223.29 14.83 223.29 15.24C223.29 15.65 223.09 16.01 222.55 16.01H219.11C218.99 16.01 218.96 16.04 218.96 16.16V18.68C218.96 18.75 218.99 18.8 219.08 18.8C219.15 18.8 219.18 18.77 219.18 18.77C219.66 18.41 220.2 18.23 220.84 18.23C223.16 18.23 223.95 19.89 223.95 22.12C223.95 24.74 222.55 25.99 220.55 25.99C218.69 25.99 217.77 25.03 217.4 24.64C217.3 24.52 217.15 24.31 217.15 24.11C217.15 23.78 217.58 23.27 218.04 23.27C218.21 23.27 218.37 23.3 218.57 23.53C218.87 23.88 219.51 24.42 220.45 24.42C221.47 24.42 222.25 23.84 222.25 22.11H222.26Z" fill="white"/>
<path d="M226.06 25.92C225.24 25.92 225.14 25.56 225.14 25.15C225.14 24.21 225.93 22.76 227.28 21.44L229.19 19.58C229.93 18.87 230.15 18.26 230.15 17.7C230.15 16.65 229.61 15.95 228.5 15.95C227.68 15.95 227.31 16.26 226.72 16.79C226.6 16.91 226.47 17 226.21 17C225.81 17 225.35 16.67 225.35 16.19C225.35 15.94 225.53 15.73 225.75 15.5C226.36 14.87 227.27 14.38 228.5 14.38C230.66 14.38 231.86 15.8 231.86 17.66C231.86 18.55 231.6 19.57 230.41 20.73L228.61 22.46C228.15 22.9 227.52 23.58 227.32 24.12C227.32 24.12 227.29 24.22 227.29 24.27C227.29 24.35 227.39 24.35 227.44 24.35H231.1C231.64 24.35 231.84 24.73 231.84 25.14C231.84 25.55 231.64 25.91 231.1 25.91H226.06V25.92Z" fill="white"/>
</svg>
