<svg width="12" height="18" viewBox="0 0 12 18" fill="none" xmlns="http://www.w3.org/2000/svg">
<path d="M9.77894 9.38609L7.458 9.71228L8.43221 16.6442L5.33762 17.0791L4.36341 10.1472L1.85679 10.4995L1.45232 7.62151L3.95894 7.26923L3.6545 5.10301C3.48053 3.86518 3.68756 2.86833 4.27559 2.11247C4.86072 1.33598 5.72062 0.868001 6.8553 0.708532C7.18539 0.662141 7.53901 0.633481 7.91616 0.622552C8.29041 0.590993 8.58359 0.581346 8.79569 0.593613L9.1095 0.581067L9.45308 3.02579L8.21525 3.19976C7.63759 3.28094 7.23641 3.49511 7.01171 3.84226C6.80473 4.16588 6.73169 4.54431 6.79258 4.97756L7.05353 6.83431L9.80771 6.44723L9.77894 9.38609Z" fill="#00548B"/>
</svg>
