<svg width="34" height="59" viewBox="0 0 34 59" fill="none" xmlns="http://www.w3.org/2000/svg">
<path d="M28.2182 59H32.413L32.413 28.7581H28.2182L28.2182 59Z" fill="#407EC9"/>
<path d="M16.6919 5.38451C18.9625 4.61705 20.8771 4.22846 22.4262 4.22846C23.9752 4.22846 25.4761 4.49076 26.9097 5.02506C26.7365 4.5879 26.6499 4.14103 26.6499 3.70386V3.44157C26.698 2.51867 27.054 1.72206 27.7275 1.06146C28.401 0.400864 29.2284 0.0511341 30.1809 0.00256059C31.2296 -0.0362982 32.1244 0.303716 32.8652 1.03232C33.606 1.76092 33.9813 2.65468 33.9813 3.71358C33.9813 4.99592 33.4617 6.00625 32.413 6.75428V32.2845C32.413 32.7217 32.2591 33.1006 31.9512 33.4114C31.6433 33.7223 31.2777 33.8777 30.8351 33.8777H29.7864C29.3535 33.8777 28.9782 33.7223 28.6704 33.4114C28.3625 33.1006 28.2085 32.7314 28.2085 32.2845V26.0671C25.9379 25.0568 23.446 24.5419 20.7425 24.5419C19.6071 24.5419 17.9042 24.9305 15.6336 25.698C13.363 26.4654 11.4387 26.854 9.87045 26.854C7.11877 26.854 4.45369 25.9505 1.8752 24.1436C1.25944 23.7453 0.961182 23.1721 0.961182 22.4241V6.35598C0.961182 5.55937 1.2883 4.96678 1.94255 4.56847C2.59679 4.17017 3.25104 4.13131 3.90528 4.43247C6.91673 5.8411 9.47598 6.55027 11.5638 6.55027C12.6991 6.55027 14.4021 6.16168 16.6727 5.39422L16.6919 5.38451Z" fill="#407EC9"/>
<path d="M11.4483 15.4101L16.1531 19.8109C16.5476 20.18 17.1826 19.8983 17.1826 19.3543V10.951C17.1826 10.4264 16.5668 10.135 16.1723 10.475L11.4676 14.4872C11.1885 14.7301 11.1789 15.1672 11.4483 15.4198V15.4101Z" fill="white"/>
</svg>
