<svg width="236" height="34" viewBox="0 0 236 34" fill="none" xmlns="http://www.w3.org/2000/svg">
<path d="M31.25 2.27002C32.91 2.27002 34.16 2.54002 35 3.09002C35.83 3.64002 36.25 4.47002 36.25 5.59002C36.25 6.71002 35.84 7.49002 35.01 8.03002C34.18 8.57002 32.93 8.84002 31.25 8.84002H25.53V14.36H30.46C32.14 14.36 33.39 14.63 34.22 15.17C35.05 15.71 35.46 16.53 35.46 17.63C35.46 18.73 35.05 19.55 34.22 20.08C33.39 20.61 32.14 20.88 30.46 20.88H25.53V26.68H31.46C33.15 26.68 34.41 26.95 35.23 27.49C36.05 28.03 36.46 28.84 36.46 29.93C36.46 31.02 36.05 31.86 35.23 32.39C34.41 32.93 33.16 33.2 31.46 33.2H23.27C21.45 33.2 20.2 32.89 19.52 32.27C18.84 31.65 18.5 30.48 18.5 28.76V7.22002C18.5 5.34002 18.86 4.04002 19.58 3.33002C20.3 2.62002 21.56 2.27002 23.35 2.27002H31.25Z" fill="#00548B"/>
<path d="M38.29 28.5099V14.7199C38.29 13.0299 38.57 11.7899 39.13 10.9699C39.69 10.1599 40.54 9.74988 41.7 9.74988C42.39 9.74988 43 9.92988 43.54 10.2899C44.08 10.6499 44.55 11.1999 44.96 11.9399C45.69 11.1299 46.54 10.5499 47.5 10.1799C48.46 9.80988 49.62 9.62988 50.99 9.62988C53.69 9.62988 55.75 10.3999 57.17 11.9499C58.59 13.4899 59.31 15.7399 59.31 18.6799V28.5199C59.31 30.2099 59.03 31.4599 58.46 32.2799C57.9 33.0999 57.03 33.5099 55.88 33.5099C54.73 33.5099 53.86 33.0999 53.3 32.2799C52.74 31.4599 52.45 30.2099 52.45 28.5199V20.7699C52.45 18.8599 52.16 17.4999 51.59 16.6799C51.02 15.8699 50.08 15.4599 48.76 15.4599C47.52 15.4599 46.6 15.8799 46.01 16.7199C45.42 17.5599 45.12 18.8799 45.12 20.6799V28.5199C45.12 30.2099 44.84 31.4599 44.27 32.2799C43.71 33.0999 42.85 33.5099 41.69 33.5099C40.53 33.5099 39.67 33.0999 39.12 32.2799C38.56 31.4599 38.28 30.2099 38.28 28.5199L38.29 28.5099Z" fill="#00548B"/>
<path d="M65.2 16.3599H64.95C63.75 16.3599 62.81 16.0999 62.12 15.5599C61.44 15.0299 61.09 14.3099 61.09 13.3999C61.09 12.4899 61.43 11.7399 62.12 11.2299C62.8 10.7199 63.83 10.4299 65.2 10.3599V7.33985C65.2 5.64985 65.48 4.39985 66.05 3.57985C66.61 2.75985 67.48 2.34985 68.63 2.34985C69.78 2.34985 70.62 2.75985 71.18 3.57985C71.74 4.39985 72.02 5.64985 72.02 7.33985V10.3599H72.61C73.96 10.3599 75.02 10.6299 75.77 11.1699C76.52 11.7099 76.9 12.4499 76.9 13.3999C76.9 14.3499 76.54 15.1099 75.81 15.6099C75.08 16.1099 74 16.3499 72.56 16.3499H72.01V28.4999C72.01 30.1999 71.73 31.4599 71.18 32.2699C70.63 33.0799 69.78 33.4899 68.62 33.4899C67.46 33.4899 66.6 33.0799 66.04 32.2599C65.48 31.4399 65.19 30.1899 65.19 28.4999V16.3499L65.2 16.3599Z" fill="#00548B"/>
<path d="M83.93 23.5399C84.09 24.8299 84.61 25.8299 85.52 26.5599C86.42 27.2799 87.62 27.6399 89.1 27.6399C90.38 27.6399 91.81 27.2699 93.39 26.5299C94.96 25.7899 95.93 25.4099 96.3 25.4099C97.1 25.4099 97.76 25.6599 98.27 26.1499C98.78 26.6499 99.03 27.2799 99.03 28.0599C99.03 29.5299 98.01 30.8599 95.96 32.0399C93.91 33.2199 91.51 33.8099 88.74 33.8099C85.37 33.8099 82.55 32.6599 80.29 30.3499C78.03 28.0399 76.9 25.1499 76.9 21.6599C76.9 18.1699 78 15.2399 80.19 12.9099C82.38 10.5699 85.12 9.3999 88.39 9.3999C91.66 9.3999 94.2 10.4999 96.33 12.6899C98.46 14.8899 99.53 17.5699 99.53 20.7399C99.53 21.7699 99.3 22.4999 98.83 22.9099C98.37 23.3199 97.47 23.5299 96.14 23.5299H83.93V23.5399ZM83.85 19.0599H92.87C92.79 17.8999 92.32 16.9299 91.47 16.1499C90.62 15.3699 89.61 14.9799 88.44 14.9799C87.27 14.9799 86.29 15.3499 85.46 16.0799C84.63 16.8199 84.09 17.8099 83.85 19.0499V19.0599Z" fill="#00548B"/>
<path d="M101.81 28.5099V14.7199C101.81 13.0299 102.09 11.7899 102.65 10.9699C103.21 10.1599 104.06 9.74988 105.22 9.74988C105.91 9.74988 106.53 9.92988 107.06 10.2899C107.6 10.6499 108.07 11.1999 108.48 11.9399C109.19 11.1799 109.93 10.5999 110.72 10.2099C111.51 9.81988 112.31 9.62988 113.11 9.62988C114.06 9.62988 114.87 9.96988 115.56 10.6399C116.24 11.3099 116.59 12.1099 116.59 13.0299C116.59 14.3999 115.33 15.5499 112.82 16.4699C111.92 16.7999 111.24 17.0599 110.79 17.2799C109.93 17.6899 109.36 18.1499 109.08 18.6499C108.8 19.1499 108.66 20.0599 108.66 21.3799V28.5199C108.66 30.2099 108.38 31.4599 107.81 32.2799C107.24 33.0999 106.38 33.5099 105.23 33.5099C104.08 33.5099 103.22 33.0999 102.66 32.2799C102.1 31.4599 101.82 30.2099 101.82 28.5199L101.81 28.5099Z" fill="#00548B"/>
<path d="M121.5 16.3599H121.25C120.05 16.3599 119.11 16.0999 118.42 15.5599C117.74 15.0299 117.39 14.3099 117.39 13.3999C117.39 12.4899 117.73 11.7399 118.42 11.2299C119.1 10.7199 120.13 10.4299 121.5 10.3599V7.33985C121.5 5.64985 121.78 4.39985 122.35 3.57985C122.91 2.75985 123.77 2.34985 124.93 2.34985C126.09 2.34985 126.92 2.75985 127.48 3.57985C128.04 4.39985 128.32 5.64985 128.32 7.33985V10.3599H128.91C130.27 10.3599 131.32 10.6299 132.08 11.1699C132.83 11.7099 133.21 12.4499 133.21 13.3999C133.21 14.3499 132.85 15.1099 132.12 15.6099C131.39 16.1099 130.31 16.3499 128.87 16.3499H128.32V28.4999C128.32 30.1999 128.04 31.4599 127.49 32.2699C126.94 33.0799 126.09 33.4899 124.93 33.4899C123.77 33.4899 122.91 33.0799 122.35 32.2599C121.78 31.4399 121.5 30.1899 121.5 28.4999V16.3499V16.3599Z" fill="#00548B"/>
<path d="M149.3 31.12C148.61 31.97 147.77 32.62 146.79 33.06C145.81 33.51 144.74 33.73 143.58 33.73C140.66 33.73 138.2 32.58 136.2 30.27C134.2 27.96 133.2 25.08 133.2 21.62C133.2 18.16 134.23 15.33 136.29 12.99C138.35 10.65 140.86 9.47998 143.83 9.47998C144.99 9.47998 146.01 9.67998 146.91 10.07C147.81 10.47 148.6 11.08 149.29 11.92C149.69 11.2 150.16 10.65 150.71 10.28C151.26 9.90998 151.87 9.72998 152.55 9.72998C153.69 9.72998 154.54 10.13 155.09 10.94C155.64 11.75 155.92 13 155.92 14.7V28.49C155.92 30.18 155.64 31.43 155.08 32.25C154.52 33.07 153.68 33.48 152.55 33.48C151.79 33.48 151.15 33.29 150.62 32.91C150.1 32.53 149.65 31.93 149.29 31.1L149.3 31.12ZM140.28 21.54C140.28 23.23 140.69 24.58 141.51 25.61C142.33 26.64 143.4 27.15 144.71 27.15C146.02 27.15 147.05 26.63 147.86 25.59C148.68 24.55 149.09 23.2 149.09 21.54C149.09 19.88 148.68 18.61 147.85 17.59C147.02 16.57 145.98 16.06 144.71 16.06C143.44 16.06 142.35 16.57 141.52 17.58C140.69 18.59 140.28 19.91 140.28 21.54Z" fill="#00548B"/>
<path d="M159.44 3.97C159.44 2.88 159.83 1.94 160.6 1.17C161.38 0.39 162.31 0 163.39 0C164.47 0 165.38 0.39 166.14 1.17C166.9 1.95 167.28 2.88 167.28 3.97C167.28 5.06 166.9 6.01 166.15 6.77C165.39 7.53 164.47 7.92 163.39 7.92C162.31 7.92 161.34 7.54 160.57 6.77C159.81 6.01 159.43 5.07 159.43 3.97H159.44ZM166.77 28.51C166.77 30.21 166.49 31.47 165.94 32.28C165.39 33.09 164.54 33.5 163.4 33.5C162.26 33.5 161.38 33.09 160.82 32.27C160.25 31.45 159.97 30.2 159.97 28.51V14.72C159.97 13.03 160.25 11.79 160.81 10.97C161.37 10.15 162.23 9.75 163.4 9.75C164.57 9.75 165.39 10.16 165.94 10.97C166.49 11.78 166.77 13.03 166.77 14.72V28.51Z" fill="#00548B"/>
<path d="M170.54 28.5099V14.7199C170.54 13.0299 170.82 11.7899 171.38 10.9699C171.94 10.1599 172.79 9.74988 173.95 9.74988C174.64 9.74988 175.25 9.92988 175.79 10.2899C176.33 10.6499 176.8 11.1999 177.21 11.9399C177.94 11.1299 178.79 10.5499 179.75 10.1799C180.71 9.80988 181.87 9.62988 183.24 9.62988C185.94 9.62988 188 10.3999 189.42 11.9499C190.84 13.4899 191.56 15.7399 191.56 18.6799V28.5199C191.56 30.2099 191.28 31.4599 190.71 32.2799C190.15 33.0999 189.29 33.5099 188.13 33.5099C186.97 33.5099 186.11 33.0999 185.55 32.2799C184.99 31.4599 184.7 30.2099 184.7 28.5199V20.7699C184.7 18.8599 184.41 17.4999 183.84 16.6799C183.27 15.8699 182.33 15.4599 181.01 15.4599C179.77 15.4599 178.85 15.8799 178.26 16.7199C177.67 17.5599 177.37 18.8799 177.37 20.6799V28.5199C177.37 30.2099 177.09 31.4599 176.52 32.2799C175.96 33.0999 175.1 33.5099 173.94 33.5099C172.78 33.5099 171.92 33.0999 171.37 32.2799C170.81 31.4599 170.53 30.2099 170.53 28.5199L170.54 28.5099Z" fill="#00548B"/>
<path d="M201.74 23.5399C201.89 24.8299 202.42 25.8299 203.33 26.5599C204.23 27.2799 205.42 27.6399 206.91 27.6399C208.19 27.6399 209.62 27.2699 211.2 26.5299C212.77 25.7899 213.74 25.4099 214.11 25.4099C214.91 25.4099 215.57 25.6599 216.08 26.1499C216.59 26.6499 216.84 27.2799 216.84 28.0599C216.84 29.5299 215.82 30.8599 213.77 32.0399C211.72 33.2199 209.32 33.8099 206.55 33.8099C203.18 33.8099 200.36 32.6599 198.1 30.3499C195.84 28.0399 194.71 25.1499 194.71 21.6599C194.71 18.1699 195.81 15.2399 198 12.9099C200.2 10.5699 202.93 9.3999 206.2 9.3999C209.47 9.3999 212.01 10.4999 214.14 12.6899C216.27 14.8899 217.34 17.5699 217.34 20.7399C217.34 21.7699 217.11 22.4999 216.64 22.9099C216.17 23.3199 215.28 23.5299 213.95 23.5299H201.74V23.5399ZM201.65 19.0599H210.67C210.59 17.8999 210.12 16.9299 209.27 16.1499C208.42 15.3699 207.41 14.9799 206.24 14.9799C205.07 14.9799 204.09 15.3499 203.26 16.0799C202.43 16.8199 201.89 17.8099 201.65 19.0499V19.0599Z" fill="#00548B"/>
<path d="M220.35 28.5099V14.7199C220.35 13.0299 220.63 11.7899 221.19 10.9699C221.75 10.1599 222.6 9.74988 223.76 9.74988C224.45 9.74988 225.06 9.92988 225.6 10.2899C226.14 10.6499 226.61 11.1999 227.02 11.9399C227.73 11.1799 228.47 10.5999 229.26 10.2099C230.05 9.81988 230.85 9.62988 231.65 9.62988C232.59 9.62988 233.41 9.96988 234.09 10.6399C234.77 11.3099 235.12 12.1099 235.12 13.0299C235.12 14.3999 233.86 15.5499 231.35 16.4699C230.45 16.7999 229.77 17.0599 229.32 17.2799C228.46 17.6899 227.89 18.1499 227.6 18.6499C227.32 19.1499 227.18 20.0599 227.18 21.3799V28.5199C227.18 30.2099 226.9 31.4599 226.33 32.2799C225.77 33.0999 224.91 33.5099 223.75 33.5099C222.59 33.5099 221.73 33.0999 221.18 32.2799C220.62 31.4599 220.34 30.2099 220.34 28.5199L220.35 28.5099Z" fill="#00548B"/>
<path d="M3.91998 30.2201V31.3701C3.91998 32.1201 3.79998 32.6801 3.55998 33.0501C3.31998 33.4101 2.95998 33.6001 2.47998 33.6001C1.99998 33.6001 1.60998 33.4201 1.36998 33.0501C1.12998 32.6801 1.00998 32.1301 1.00998 31.3801V25.9401C1.00998 25.2001 1.12998 24.6401 1.36998 24.2701C1.60998 23.9001 1.97998 23.7101 2.47998 23.7101C2.97998 23.7101 3.31998 23.8901 3.55998 24.2601C3.79998 24.6301 3.91998 25.1801 3.91998 25.9301V27.0901H12.68C13.43 27.0901 13.98 27.2201 14.35 27.4801C14.71 27.7401 14.9 28.1301 14.9 28.6601C14.9 29.1901 14.72 29.5801 14.35 29.8401C13.99 30.1001 13.43 30.2301 12.68 30.2301H3.91998V30.2201Z" fill="#00548B"/>
<path d="M5.22999 20.0101C4.88999 19.6801 4.64999 19.3201 4.48999 18.9201C4.33999 18.5201 4.25999 18.0101 4.25999 17.4001C4.25999 16.2001 4.59999 15.2801 5.28999 14.6501C5.96999 14.0201 6.96999 13.7001 8.27999 13.7001H12.64C13.39 13.7001 13.94 13.8301 14.31 14.0801C14.67 14.3301 14.86 14.7101 14.86 15.2301C14.86 15.7501 14.68 16.1301 14.31 16.3801C13.95 16.6301 13.39 16.7601 12.64 16.7601H9.19999C8.34999 16.7601 7.74999 16.8901 7.38999 17.1401C7.02999 17.3901 6.84999 17.8101 6.84999 18.4001C6.84999 18.9501 7.03999 19.3601 7.40999 19.6201C7.77999 19.8801 8.36999 20.0201 9.16999 20.0201H12.64C13.39 20.0201 13.94 20.1501 14.31 20.4001C14.67 20.6501 14.86 21.0301 14.86 21.5501C14.86 22.0701 14.68 22.4501 14.31 22.6901C13.95 22.9401 13.39 23.0601 12.64 23.0601H2.21999C1.46999 23.0601 0.90999 22.9401 0.53999 22.6901C0.17999 22.4401 -0.0100098 22.0601 -0.0100098 21.5501C-0.0100098 21.0401 0.17999 20.6501 0.54999 20.4001C0.91999 20.1501 1.47999 20.0201 2.21999 20.0201H5.21999L5.22999 20.0101Z" fill="#00548B"/>
<path d="M10.44 9.16999C11.01 9.09999 11.46 8.86999 11.78 8.45999C12.1 8.05999 12.26 7.52999 12.26 6.86999C12.26 6.29999 12.09 5.65999 11.76 4.95999C11.43 4.25999 11.27 3.82999 11.27 3.66999C11.27 3.30999 11.38 3.01999 11.6 2.78999C11.82 2.55999 12.1 2.44999 12.45 2.44999C13.1 2.44999 13.69 2.90999 14.22 3.81999C14.74 4.72999 15.01 5.79999 15.01 7.02999C15.01 8.52999 14.5 9.77999 13.47 10.79C12.45 11.79 11.16 12.3 9.62 12.3C8.08 12.3 6.78 11.81 5.74 10.84C4.7 9.85999 4.19 8.64999 4.19 7.18999C4.19 5.72999 4.68 4.60999 5.65 3.65999C6.62 2.70999 7.81 2.23999 9.22 2.23999C9.68 2.23999 10 2.33999 10.18 2.54999C10.36 2.75999 10.45 3.15999 10.45 3.74999V9.18999L10.44 9.16999ZM8.45 9.20999V5.19999C7.94 5.23999 7.51 5.44999 7.16 5.81999C6.81 6.19999 6.64 6.64999 6.64 7.16999C6.64 7.68999 6.8 8.12999 7.13 8.49999C7.46 8.86999 7.9 9.10999 8.45 9.21999V9.20999Z" fill="#00548B"/>
</svg>
