<svg width="35" height="24" viewBox="0 0 35 24" fill="none" xmlns="http://www.w3.org/2000/svg">
<path d="M30.0901 0.5H4.09009C2.15709 0.5 0.590088 2.067 0.590088 4V20C0.590088 21.933 2.15709 23.5 4.09009 23.5H30.0901C32.0231 23.5 33.5901 21.933 33.5901 20V4C33.5901 2.067 32.0231 0.5 30.0901 0.5Z" fill="white"/>
<path d="M30.0901 0.5H4.09009C2.15709 0.5 0.590088 2.067 0.590088 4V20C0.590088 21.933 2.15709 23.5 4.09009 23.5H30.0901C32.0231 23.5 33.5901 21.933 33.5901 20V4C33.5901 2.067 32.0231 0.5 30.0901 0.5Z" stroke="#DFE3E6"/>
<path fill-rule="evenodd" clip-rule="evenodd" d="M16.15 15.53V12.6H17.66C18.28 12.6 18.8 12.39 19.23 11.98L19.33 11.88C20.11 11.03 20.06 9.71 19.23 8.92C18.81 8.5 18.25 8.28 17.66 8.29H15.23V15.53H16.15ZM16.15 11.71V9.18H17.69C18.02 9.18 18.33 9.31 18.57 9.54C19.07 10.03 19.08 10.83 18.6 11.34C18.37 11.59 18.04 11.73 17.69 11.72H16.15V11.71ZM23.61 10.96C23.22 10.6 22.68 10.41 22 10.41C21.13 10.41 20.47 10.73 20.04 11.37L20.85 11.88C21.15 11.44 21.55 11.22 22.06 11.22C22.38 11.22 22.7 11.34 22.94 11.56C23.18 11.77 23.32 12.07 23.32 12.39V12.6C22.97 12.4 22.52 12.3 21.98 12.3C21.34 12.3 20.83 12.45 20.45 12.76C20.07 13.07 19.87 13.47 19.87 13.98C19.86 14.45 20.06 14.89 20.41 15.19C20.77 15.51 21.22 15.68 21.76 15.68C22.39 15.68 22.89 15.4 23.27 14.83H23.31V15.52H24.19V12.46C24.19 11.82 24 11.31 23.6 10.95L23.61 10.96ZM21.12 14.62C20.93 14.48 20.82 14.26 20.82 14.01C20.82 13.74 20.95 13.51 21.19 13.33C21.44 13.15 21.75 13.06 22.12 13.06C22.63 13.06 23.03 13.17 23.32 13.4C23.32 13.79 23.17 14.13 22.86 14.42C22.59 14.7 22.22 14.85 21.83 14.85C21.57 14.85 21.32 14.77 21.12 14.61V14.62ZM26.16 17.71L29.22 10.58H28.22L26.8 14.14H26.78L25.33 10.58H24.33L26.34 15.22L25.2 17.72H26.15L26.16 17.71Z" fill="#3C4043"/>
<path d="M12.9901 11.96C12.9901 11.68 12.97 11.39 12.92 11.12H9.05005V12.72H11.2701C11.1801 13.23 10.8801 13.7 10.4501 13.99V15.03H11.7701C12.5401 14.31 12.9901 13.24 12.9901 11.97V11.96Z" fill="#4285F4"/>
<path d="M9.05014 16.02C10.1501 16.02 11.0901 15.65 11.7701 15.01L10.4501 13.97C10.0801 14.22 9.61014 14.37 9.05014 14.37C7.98014 14.37 7.07014 13.64 6.75014 12.65H5.39014V13.72C6.08014 15.12 7.50014 16.01 9.05014 16.01V16.02Z" fill="#34A853"/>
<path d="M6.75001 12.66C6.58001 12.15 6.58001 11.59 6.75001 11.07V10H5.39001C4.80001 11.17 4.80001 12.56 5.39001 13.73L6.75001 12.66Z" fill="#FBBC04"/>
<path d="M9.05014 9.35002C9.64014 9.34002 10.2001 9.56002 10.6201 9.97002L11.7901 8.78002C11.0401 8.08002 10.0601 7.69002 9.05014 7.70002C7.50014 7.70002 6.08014 8.59002 5.39014 9.99002L6.75014 11.06C7.07014 10.07 7.98014 9.34002 9.05014 9.34002V9.35002Z" fill="#EA4335"/>
</svg>
