<svg width="30" height="35" viewBox="0 0 30 35" fill="none" xmlns="http://www.w3.org/2000/svg">
<path d="M4.86365 19.999L5.42783 28.7246L13.8809 34.616L22.4603 29.3749L22.8105 20.0281L19.2795 18.0481L13.9489 15.4178" fill="#F79366"/>
<path d="M13.5112 15.7963L4.86365 19.999L0 11.351L9.26039 7.6725L13.5112 15.7963Z" fill="#E12726"/>
<path d="M0 11.351L9.27012 7.61427L13.5112 15.7963L4.86365 19.999L0 11.351Z" fill="url(#paint0_linear_2296_143)"/>
<path d="M22.4603 29.3749L13.8809 34.616L13.8711 24.6869L22.8105 20.0281L22.4603 29.3749Z" fill="url(#paint1_linear_2296_143)"/>
<path d="M4.86365 19.999L13.8711 24.6869L13.8809 34.616L5.42783 28.7246L4.86365 19.999Z" fill="url(#paint2_linear_2296_143)"/>
<path d="M5.29166 20.0572L13.8711 24.5025L22.4409 20.0281L19.2309 18.1743L13.9879 15.7187L5.18466 19.9893" fill="url(#paint3_linear_2296_143)"/>
<path d="M8.40438 23.1728C8.40438 23.9687 7.78184 24.454 7.01338 24.2696C6.24492 24.0851 5.62238 23.3087 5.62238 22.5419C5.62238 21.7751 6.24492 21.2801 7.01338 21.4451C7.78184 21.6101 8.40438 22.3866 8.40438 23.1728Z" fill="url(#paint4_linear_2296_143)"/>
<path d="M13.0443 29.8699C13.0443 31.3549 11.9451 32.1896 10.5833 31.7431C9.22147 31.2966 8.12228 29.8019 8.12228 28.3946C8.12228 26.9872 9.22147 26.1525 10.5833 26.5213C11.9451 26.8804 13.0443 28.3849 13.0443 29.8699Z" fill="url(#paint5_linear_2296_143)"/>
<path d="M11.3323 25.0946C11.3323 25.4731 11.0502 25.706 10.7 25.6187C10.3498 25.5313 10.0677 25.1528 10.0677 24.784C10.0677 24.4151 10.3498 24.1822 10.7 24.2599C11.0502 24.3472 11.3323 24.716 11.3323 25.0946Z" fill="url(#paint6_linear_2296_143)"/>
<path d="M17.1103 30.9084C17.1103 31.6266 16.5267 32.4322 15.7971 32.7234C15.0773 33.0049 14.4937 32.6554 14.4937 31.9372C14.4937 31.219 15.0773 30.4037 15.7971 30.1222C16.5169 29.8407 17.1103 30.1999 17.1103 30.9084Z" fill="url(#paint7_linear_2296_143)"/>
<path d="M22.1685 23.6678C22.1685 25.0654 21.0207 26.6378 19.6005 27.1813C18.1803 27.7249 17.0325 27.026 17.0325 25.6187C17.0325 24.2113 18.1803 22.639 19.6005 22.1051C21.0207 21.5713 22.1685 22.2701 22.1685 23.6678Z" fill="url(#paint8_linear_2296_143)"/>
<path d="M20.9137 28.0937C20.9137 28.414 20.651 28.7731 20.33 28.8896C20.009 29.006 19.7464 28.8604 19.7464 28.5401C19.7464 28.2198 20.009 27.8607 20.33 27.7443C20.651 27.6278 20.9137 27.7734 20.9137 28.0937Z" fill="url(#paint9_linear_2296_143)"/>
<path d="M12.9665 10.2543L12.4315 10.4581C12.344 10.5066 12.2564 10.5454 12.1689 10.5843C11.7506 10.7687 11.342 10.9531 10.9238 11.1375C10.7584 11.2151 10.3207 11.3801 10.0386 11.4966C9.89267 11.5549 9.78568 11.5937 9.78568 11.5937L10.4666 13.3116L10.7292 13.1854V13.2049L11.342 13.069C11.6436 13.001 11.9549 12.9428 12.2564 12.8651L12.6552 12.7875L12.9276 11.419L13.1319 10.2737L12.986 10.2446L12.9665 10.2543Z" fill="url(#paint10_linear_2296_143)"/>
<path d="M23.5011 15.4469L20.3981 13.5834L22.0907 11.9722L22.149 11.8946L22.2463 11.7198L24.7073 13.7387" fill="url(#paint11_linear_2296_143)"/>
<path d="M19.1239 21.7557L18.871 20.8628L19.7464 19.8049L19.4157 18.5334L20.2717 17.4075L19.941 16.1554L12.7525 15.0878L12.023 16.1749L12.3731 17.4851L11.4782 18.5625L11.8381 19.9601L11.0113 20.8822L11.2837 22.0954L11.0016 23.0272C11.3907 23.2213 13.8809 24.5122 13.8809 24.5122C13.8809 24.5122 19.1044 21.7751 19.1239 21.7654V21.7557Z" fill="url(#paint12_linear_2296_143)"/>
<path d="M12.0327 16.1651L20.2717 17.3978L19.4157 18.5334L12.3731 17.4754" fill="url(#paint13_linear_2296_143)"/>
<path d="M11.4782 18.5431L19.7464 19.8049L18.871 20.8628L11.8478 19.9504" fill="url(#paint14_linear_2296_143)"/>
<path d="M11.021 20.9016L18.8223 21.9207L17.1103 22.8137L11.2934 22.1149" fill="url(#paint15_linear_2296_143)"/>
<path d="M25.5925 18.7566C25.2326 18.5528 25.1159 18.1451 25.0186 17.8054V17.7763C24.9213 17.4851 24.8241 17.1746 24.6198 16.9028C24.4739 16.699 24.221 16.3399 24.0848 16.136C24.0848 16.136 24.0848 16.1263 24.0751 16.1166C23.8124 16.2525 23.5984 16.1943 23.4525 16.1069C23.0926 15.8837 23.2871 15.4566 23.3747 15.2528C23.6081 14.7384 23.9875 14.1754 24.4058 13.7387C24.6003 13.5349 24.8921 13.2243 25.2423 13.4669C25.4271 13.5931 25.505 13.7484 25.4855 13.9425C25.5341 13.9425 25.5731 13.9522 25.6217 13.9619C25.826 13.991 26.04 14.0104 26.2442 14.0201C26.5166 14.0396 26.7987 14.0007 27.11 13.9037L27.1878 13.8843C27.4893 13.7969 27.8201 13.6901 28.1605 13.8066C28.5302 13.9328 28.7928 14.2919 28.7733 14.6704C28.7539 14.981 28.5496 15.1654 28.3551 15.2625C28.4815 15.311 28.6177 15.3693 28.7442 15.4372C29.0943 15.6216 29.3181 15.8643 29.3959 16.136C29.4932 16.466 29.357 16.8057 29.0749 16.9901C28.8317 17.1454 28.501 17.1649 28.1216 17.0387C28.0924 17.0387 28.0632 17.0193 28.0438 17.0096C28.2578 17.2716 28.3551 17.5337 28.3356 17.786C28.3064 18.1063 28.0827 18.3684 27.7812 18.446C27.5088 18.514 27.2267 18.4266 26.9349 18.184C26.8668 18.1257 26.8084 18.0772 26.7501 18.019C26.7501 18.184 26.7306 18.3393 26.6333 18.4946C26.4582 18.776 26.1081 18.9022 25.8065 18.8343C25.7384 18.8149 25.6703 18.7954 25.6022 18.7566H25.5925ZM26.5263 17.3104C26.5263 17.3104 26.5458 17.3299 26.5555 17.3396C26.5652 17.3493 26.575 17.359 26.5847 17.3784C26.6333 17.4269 26.6722 17.4754 26.7209 17.524C26.8571 17.6696 26.9835 17.8151 27.1294 17.9316C27.3434 18.1063 27.5282 18.1743 27.6936 18.1354C27.859 18.0966 27.9952 17.9316 28.0146 17.7472C28.0341 17.5725 27.9562 17.3881 27.7714 17.1746C27.7033 17.0969 27.6255 17.0193 27.5477 16.9416L27.4991 16.8931C27.4991 16.8931 27.431 16.8349 27.4018 16.8057C27.324 16.7378 27.2461 16.6699 27.1781 16.5825L26.7695 16.039L27.3726 16.3496C27.3726 16.3496 27.4407 16.3787 27.4602 16.3981L27.5477 16.4466C27.7617 16.5631 27.9854 16.6796 28.2092 16.7475C28.4037 16.8154 28.6858 16.864 28.8901 16.7281C29.0554 16.6213 29.1332 16.4175 29.0749 16.2234C29.0165 16.0293 28.8512 15.8643 28.5788 15.7187C28.3648 15.6119 28.1313 15.5246 27.9076 15.4469L27.324 15.2431L27.8298 15.1169C27.8298 15.1169 27.9076 15.0975 27.9465 15.0878C28.2772 14.9907 28.4329 14.8646 28.4426 14.6607C28.4523 14.4278 28.287 14.1949 28.0438 14.1172C27.8006 14.0396 27.5282 14.1172 27.2656 14.2046L27.1878 14.224C26.8376 14.3307 26.5263 14.3696 26.2151 14.3501C26.0011 14.3404 25.7871 14.3113 25.5731 14.2822C25.4661 14.2725 25.3688 14.2531 25.2618 14.2434L25.0478 14.224L25.1256 14.0299C25.1742 13.9037 25.184 13.826 25.0478 13.7387C24.9408 13.661 24.8338 13.7387 24.6101 13.9716C24.221 14.3793 23.8513 14.9131 23.6373 15.3984C23.4622 15.7769 23.54 15.8254 23.5887 15.8546C23.7249 15.9322 23.8416 15.9225 23.9875 15.7963L24.114 15.6896L24.2112 15.8254C24.2112 15.8254 24.2599 15.8934 24.3085 15.971C24.4447 16.1651 24.6976 16.534 24.8338 16.7281C25.0575 17.0387 25.1742 17.3784 25.2715 17.6987V17.7278C25.3591 18.019 25.4563 18.349 25.6995 18.4849C25.9038 18.6013 26.1859 18.5237 26.3123 18.3296C26.4582 18.1063 26.3512 17.8151 26.2151 17.4949L25.8649 16.6893L26.468 17.3201L26.5263 17.3104Z" fill="black"/>
<path d="M25.3007 14.0784C25.612 14.1075 25.933 14.156 26.2443 14.1754C26.5653 14.1949 26.8571 14.1463 27.1683 14.059C27.4699 13.9716 27.8006 13.8454 28.1216 13.9522C28.4134 14.0493 28.6372 14.3404 28.6274 14.6607C28.608 15.0004 28.3064 15.146 28.0146 15.2237C27.9757 15.2334 27.9368 15.2431 27.8979 15.2528C28.1605 15.3499 28.4329 15.4372 28.6761 15.5634C28.9193 15.6993 29.1722 15.8837 29.25 16.1652C29.3181 16.4272 29.2208 16.699 28.9971 16.8446C28.7539 16.9999 28.4426 16.961 28.18 16.8834C27.9076 16.796 27.6547 16.6504 27.4018 16.5243C27.3726 16.5049 27.3434 16.4951 27.3143 16.4757C27.4018 16.5922 27.5185 16.6699 27.6158 16.7766C27.7131 16.8737 27.8103 16.9707 27.8979 17.0678C28.0633 17.2619 28.2092 17.4949 28.18 17.7569C28.1605 17.9996 27.9854 18.2228 27.7423 18.281C27.4796 18.349 27.2267 18.2131 27.0322 18.0481C26.8279 17.8734 26.6528 17.6696 26.468 17.4754C26.4485 17.456 26.4291 17.4269 26.4096 17.4075C26.5361 17.7084 26.6917 18.0772 26.4972 18.3878C26.3221 18.6499 25.9524 18.7566 25.6703 18.6013C25.3591 18.4266 25.2521 18.0287 25.1645 17.7084C25.0672 17.3784 24.9602 17.0678 24.756 16.7863C24.5517 16.5146 24.1529 15.9128 24.1237 15.8837C24.007 15.9807 23.793 16.1069 23.5401 15.9516C23.3552 15.8352 23.3747 15.6313 23.5206 15.3013C23.7152 14.8646 24.0653 14.3113 24.5225 13.8357C24.7171 13.6319 24.9213 13.4184 25.1548 13.5834C25.3882 13.7484 25.3396 13.9328 25.291 14.0687L25.3007 14.0784Z" fill="url(#paint16_linear_2296_143)"/>
<path d="M11.449 23.2504L15.301 23.7649L13.8809 24.5025L11.449 23.2504Z" fill="url(#paint17_linear_2296_143)"/>
<path d="M12.2272 13.7193L20.8164 15.0198L19.941 16.1457L12.7525 15.0781" fill="url(#paint18_linear_2296_143)"/>
<g style="mix-blend-mode:multiply" opacity="0.56">
<path d="M13.1319 11.351L12.5969 11.5549C12.5093 11.6034 12.4218 11.6422 12.3342 11.681C11.9159 11.8654 11.5074 12.0499 11.0891 12.2343C10.9432 12.3022 10.6028 12.4381 10.3304 12.5449C10.1845 12.3022 9.96076 11.9528 9.58139 12.1178C9.37712 12.2051 9.26039 12.341 9.24094 12.5351C9.1923 12.5351 9.15339 12.5351 9.10475 12.5254C8.90048 12.506 8.68648 12.4866 8.48221 12.4575C8.20984 12.4187 7.9472 12.3216 7.65538 12.1663L7.58729 12.1275C7.31493 11.9722 7.01338 11.8072 6.65347 11.8363C6.26438 11.8751 5.93365 12.176 5.87529 12.5449C5.82665 12.8554 5.98229 13.069 6.15738 13.2146C6.0212 13.234 5.88502 13.2631 5.74883 13.3019C5.35974 13.4087 5.0971 13.5931 4.96092 13.8454C4.79556 14.1463 4.85392 14.5151 5.0971 14.7481C5.30138 14.9519 5.62238 15.0393 6.01147 15.0004C6.04065 15.0004 6.06983 15.0004 6.09902 14.9907C5.82665 15.2043 5.68074 15.4275 5.65156 15.6799C5.61265 16.0001 5.77802 16.3107 6.05038 16.4466C6.30329 16.5728 6.59511 16.5437 6.93556 16.369C7.01338 16.3301 7.08147 16.2913 7.14956 16.2428C7.11066 16.3981 7.10093 16.5631 7.16902 16.7378C7.28575 17.0484 7.58729 17.2425 7.90829 17.2425C7.97639 17.2425 8.0542 17.2328 8.1223 17.2134C8.52112 17.0969 8.72539 16.7184 8.88103 16.4078L8.90048 16.3787C9.04639 16.1069 9.21175 15.8351 9.46466 15.6022C9.64948 15.4372 9.97048 15.1363 10.1456 14.9713C10.1456 14.9713 10.1456 14.9713 10.1553 14.9616C10.379 15.1557 10.6028 15.1363 10.7681 15.0781C11.1572 14.9422 11.0794 14.5054 11.0308 14.2822L11.5074 14.1754C11.8089 14.1075 12.1202 14.0493 12.4218 13.9716L12.8206 13.894L13.0929 12.5254L13.2972 11.3801L13.1513 11.351H13.1319Z" fill="#4D4E4E"/>
</g>
<path d="M12.2369 13.729L12.7428 12.9525L20.2425 13.661L20.6121 13.7096L20.8164 15.0199" fill="black"/>
<path d="M7.7332 16.136C7.4122 16.136 7.11066 15.9322 6.99393 15.6313C6.92584 15.4566 6.93556 15.2916 6.97447 15.1363C6.90638 15.1848 6.82856 15.2237 6.76047 15.2625C6.42002 15.4372 6.1282 15.4663 5.87529 15.3401C5.5932 15.2043 5.43756 14.8937 5.47647 14.5734C5.50565 14.321 5.65156 14.0978 5.92393 13.8843C5.89474 13.8843 5.86556 13.8843 5.83638 13.894C5.44729 13.9328 5.12629 13.8454 4.92201 13.6416C4.67883 13.4087 4.63019 13.0398 4.78583 12.739C4.92201 12.4866 5.18465 12.3022 5.57374 12.1954C5.70992 12.1566 5.84611 12.1275 5.98229 12.1081C5.8072 11.9625 5.65156 11.749 5.7002 11.4384C5.75856 11.0696 6.08929 10.7687 6.47838 10.7298C6.82856 10.691 7.13984 10.8657 7.4122 11.021L7.48029 11.0598C7.77211 11.2151 8.03475 11.3122 8.30711 11.351C8.51139 11.3801 8.72539 11.3996 8.92966 11.419C8.9783 11.419 9.01721 11.419 9.06584 11.4287C9.0853 11.2346 9.20203 11.0987 9.4063 11.0113C9.80512 10.856 10.0191 11.2151 10.165 11.4578C10.4763 11.9722 10.7389 12.6031 10.8459 13.1563C10.8946 13.3796 10.9919 13.8357 10.5833 13.9716C10.4179 14.0298 10.1942 14.0396 9.97048 13.8551C9.97048 13.8551 9.97048 13.8551 9.96076 13.8648C9.78566 14.0298 9.46466 14.3307 9.27984 14.4957C9.02693 14.719 8.86157 15.0004 8.71566 15.2722L8.69621 15.3013C8.53084 15.6119 8.32657 15.9904 7.93748 16.1069C7.86939 16.1263 7.8013 16.136 7.72348 16.136H7.7332ZM8.07366 14.0104L7.55811 14.719C7.35384 15.0101 7.18847 15.2625 7.28575 15.5148C7.37329 15.7381 7.6262 15.8643 7.84993 15.806C8.1223 15.7284 8.27793 15.4178 8.42384 15.1557L8.4433 15.1266C8.59893 14.8354 8.78375 14.5248 9.07557 14.2725C9.26039 14.1075 9.58139 13.8066 9.75648 13.6416C9.82457 13.5737 9.88294 13.5251 9.88294 13.5154L10.0094 13.4087L10.1164 13.5348C10.2331 13.6804 10.3498 13.729 10.4958 13.6804C10.5541 13.661 10.6319 13.6319 10.5444 13.2243C10.4374 12.7098 10.1942 12.1081 9.90239 11.6228C9.73703 11.3413 9.64948 11.254 9.53275 11.3025C9.38685 11.3607 9.36739 11.4384 9.39657 11.5743L9.43548 11.7781L9.22148 11.7587C9.11448 11.749 9.01721 11.7393 8.91021 11.7296C8.70593 11.7101 8.48221 11.6907 8.26821 11.6519C7.95693 11.6034 7.66511 11.4966 7.34411 11.3219L7.27602 11.2831C7.03284 11.1472 6.78966 11.0113 6.52702 11.0307C6.28384 11.0598 6.06011 11.254 6.0212 11.4772C5.99202 11.6713 6.10874 11.8266 6.41029 11.9916C6.4492 12.011 6.47838 12.0304 6.51729 12.0498L6.9842 12.2828L6.37138 12.3604C6.13793 12.3896 5.88502 12.4187 5.66129 12.4866C5.35974 12.574 5.1652 12.7001 5.06792 12.8748C4.97065 13.0496 4.99983 13.2631 5.14574 13.4087C5.32083 13.5834 5.60292 13.5931 5.8072 13.5737C6.04065 13.5543 6.28384 13.4863 6.51729 13.4184L6.61456 13.3893C6.61456 13.3893 6.68265 13.3698 6.71184 13.3601L7.37329 13.1854L6.85775 13.6319C6.7702 13.7096 6.68266 13.7581 6.59511 13.8066C6.5562 13.826 6.51729 13.8551 6.47838 13.8746L6.42002 13.9134C6.32274 13.9716 6.2352 14.0298 6.14765 14.0978C5.92393 14.2725 5.8072 14.4278 5.78774 14.6025C5.76829 14.7869 5.85583 14.9713 6.01147 15.049C6.16711 15.1266 6.36165 15.0975 6.60484 14.9713C6.7702 14.884 6.92584 14.7772 7.0912 14.6607C7.14957 14.6219 7.1982 14.5831 7.25657 14.5443C7.27602 14.5346 7.28575 14.5248 7.29547 14.5151C7.3052 14.5151 7.31493 14.4957 7.33438 14.486L8.06393 13.991L8.07366 14.0104Z" fill="black"/>
<path d="M9.23122 11.6034C8.91995 11.5646 8.59895 11.5451 8.28767 11.4966C7.9764 11.4481 7.69431 11.3413 7.41221 11.186C7.13985 11.0307 6.8383 10.8463 6.50757 10.8754C6.20603 10.9046 5.91421 11.1472 5.86557 11.4578C5.80721 11.7878 6.07957 12.0013 6.34221 12.1372C6.38112 12.1566 6.42003 12.176 6.44921 12.1954C6.16712 12.2343 5.89475 12.2634 5.62239 12.3313C5.35003 12.409 5.06793 12.5448 4.93175 12.7972C4.8053 13.0301 4.84421 13.3213 5.03875 13.5154C5.24303 13.7193 5.5543 13.7484 5.82666 13.7193C6.10876 13.6901 6.39085 13.6125 6.66321 13.5348C6.69239 13.5251 6.7313 13.5154 6.76048 13.5057C6.65348 13.6028 6.5173 13.661 6.40057 13.7387C6.28385 13.8163 6.16712 13.8843 6.06012 13.9619C5.85585 14.1172 5.67103 14.3113 5.63212 14.5734C5.60294 14.816 5.71966 15.0684 5.94339 15.1751C6.18657 15.2916 6.45894 15.214 6.68267 15.0975C6.92585 14.9713 7.13012 14.8063 7.35385 14.6607C7.38303 14.6413 7.40249 14.6219 7.43167 14.6122C7.23712 14.884 7.01339 15.214 7.13985 15.5537C7.24685 15.8546 7.58731 16.0293 7.89858 15.9322C8.24876 15.8254 8.42385 15.4663 8.57949 15.1751C8.74485 14.8743 8.91995 14.5928 9.18258 14.3598C9.43549 14.1366 9.96077 13.6416 9.98995 13.6125C10.0872 13.729 10.2623 13.9037 10.5444 13.8066C10.7487 13.7387 10.7779 13.5348 10.7 13.1757C10.6028 12.7098 10.379 12.0887 10.0386 11.5257C9.89268 11.2831 9.73704 11.0307 9.4744 11.1472C9.21176 11.2637 9.21177 11.4481 9.24095 11.5937L9.23122 11.6034Z" fill="url(#paint19_linear_2296_143)"/>
<path style="mix-blend-mode:multiply" opacity="0.8" d="M21.1374 20.7075L13.8906 24.5122L8.94913 21.9499L21.1374 20.7075Z" fill="url(#paint20_linear_2296_143)"/>
<mask id="mask0_2296_143" style="mask-type:luminance" maskUnits="userSpaceOnUse" x="12" y="12" width="9" height="5">
<path d="M20.4079 12.6807L20.8164 15.0296L19.9215 16.1457L12.7622 15.0781L12.3245 14.0104L12.2564 13.7387L12.7914 12.7875L20.4079 12.6807Z" fill="white"/>
</mask>
<g mask="url(#mask0_2296_143)">
<g style="mix-blend-mode:multiply" opacity="0.92">
<path d="M12.2564 13.399C12.305 13.9328 12.5677 14.3987 13.1221 14.5831C14.1338 14.8354 15.1551 14.0784 16.1668 14.4569C16.9255 14.7093 17.5578 15.3401 18.3262 15.7187C18.7056 15.971 19.2114 15.971 19.7172 15.8448C20.3982 15.6507 20.4857 14.8548 20.8943 14.3793L20.8164 13.3698L12.8692 12.9913L12.2564 13.399Z" fill="#4D4E4E"/>
</g>
</g>
<path d="M19.1044 15.544C18.8807 15.544 18.6375 15.4954 18.3749 15.3693C17.9566 15.1654 17.694 14.9713 17.4508 14.7772C17.1979 14.5831 16.9644 14.3987 16.5656 14.2337C15.7874 13.894 15.34 13.9619 14.912 14.0784C14.8828 14.0784 14.8439 14.0978 14.805 14.1075C14.2797 14.2434 13.307 14.5054 12.772 13.8843C11.984 12.9622 12.3634 12.1081 12.8206 11.3219C12.986 11.0404 12.8206 10.5843 12.4704 10.3901C12.3342 10.3125 12.1494 10.3222 11.9354 10.3319C11.5658 10.3513 11.1183 10.3804 10.7487 9.90485C10.4958 9.58456 10.3888 9.23515 10.4374 8.89544C10.486 8.54603 10.6611 8.3325 10.7195 8.27427C10.8362 8.14809 11.021 8.03162 11.2156 7.89574C11.4393 7.75015 11.702 7.57544 11.7603 7.44927C11.8673 7.21632 11.6728 6.92515 11.4588 6.65338C11.2934 6.44956 11.1864 6.15838 11.1669 5.89632C11.1378 5.5275 11.2642 5.1975 11.5463 4.95485C12.2175 4.34338 12.9957 4.67338 13.3264 4.81897C13.7933 5.01309 14.4159 5.59544 14.4353 5.62456C14.7758 5.94485 14.6299 6.56603 14.4061 7.00279C14.3089 7.18721 13.5307 8.79838 14.8244 10.264C16.1181 11.7101 17.8885 12.0013 19.0752 11.6422C20.369 11.254 21.3223 10.3319 21.7405 9.06044C22.1588 7.79868 21.9643 6.91544 21.9643 6.90574C21.9545 6.8475 21.9837 6.79897 22.0421 6.77956C22.1199 6.76015 23.8611 6.30397 24.7171 7.02221C25.5634 7.74044 25.1743 8.27427 24.9408 8.59456L24.9019 8.64309C24.7949 8.78868 24.5809 8.97309 24.3474 9.17691C24.0945 9.40015 23.7735 9.68162 23.7249 9.80779C23.6471 10.0407 23.7541 10.264 23.9681 10.7104C24.1626 11.1084 24.4447 12.1372 24.0848 12.7875C23.7638 13.3699 23.4039 13.5834 22.6743 13.6222C22.4798 13.6319 22.295 13.6222 22.1199 13.6222C21.6919 13.6125 21.3223 13.5931 21.0402 13.8066C20.797 13.991 20.6803 14.2531 20.5635 14.4957C20.4857 14.6607 20.4079 14.8354 20.2912 14.9907C20.0869 15.2431 19.6589 15.5634 19.1044 15.5634V15.544ZM15.5345 13.7775C15.8361 13.7775 16.196 13.8454 16.6531 14.0396C17.0714 14.224 17.3146 14.4084 17.5772 14.6122C17.8204 14.7966 18.0636 14.9907 18.4624 15.1751C19.2601 15.5537 19.8923 15.146 20.1355 14.8354C20.2328 14.7093 20.3106 14.554 20.3787 14.389C20.4954 14.1269 20.6316 13.8357 20.9137 13.6222C21.2542 13.3601 21.6724 13.3796 22.1199 13.3893C22.295 13.3893 22.4798 13.399 22.6646 13.3893C23.3163 13.3504 23.6179 13.1757 23.9 12.6613C24.0654 12.3507 24.1432 11.5354 23.7735 10.7687C23.5595 10.3319 23.4233 10.0407 23.5206 9.72044C23.579 9.54574 23.8222 9.3225 24.2015 8.9925C24.4155 8.80809 24.6295 8.61397 24.7268 8.48779L24.7657 8.43927C24.9894 8.12868 25.2715 7.75015 24.5712 7.14838C23.9097 6.58544 22.5382 6.83779 22.1783 6.92515C22.2172 7.19691 22.295 8.0025 21.9351 9.08956C21.4876 10.429 20.4954 11.3899 19.1336 11.7975C17.8885 12.176 16.0209 11.8751 14.6688 10.361C13.2778 8.79838 14.1143 7.06103 14.2213 6.86691C14.4256 6.47868 14.5326 5.96427 14.2991 5.74103C14.2991 5.74103 13.6766 5.15868 13.2486 4.97427C12.7622 4.77044 12.1883 4.61515 11.6825 5.08103C11.1183 5.59544 11.449 6.28456 11.6241 6.50779C11.877 6.83779 12.1008 7.18721 11.9549 7.51721C11.877 7.70162 11.6144 7.87632 11.3323 8.05103C11.1572 8.1675 10.9724 8.28397 10.8751 8.39074C10.8557 8.41985 10.3304 8.9925 10.9238 9.75926C11.2253 10.1475 11.5852 10.1281 11.9354 10.1087C12.1689 10.099 12.3926 10.0796 12.5871 10.196C13.0346 10.4484 13.2389 11.0307 13.0151 11.4093C12.5774 12.1663 12.2467 12.9137 12.947 13.7387C13.3945 14.2628 14.2894 14.0299 14.7661 13.894C14.805 13.8843 14.8439 13.8746 14.8731 13.8649C15.0871 13.8066 15.3011 13.7678 15.5442 13.7678L15.5345 13.7775Z" fill="url(#paint21_linear_2296_143)"/>
<path d="M24.6198 7.10956C23.9389 6.52721 22.5673 6.77956 22.1685 6.86691H22.1102V6.94456C22.1588 7.23573 22.2172 8.02191 21.867 9.07985C21.4293 10.3901 20.4468 11.3413 19.1044 11.749C17.8788 12.1178 16.0403 11.8266 14.7077 10.3319C13.3459 8.79838 14.1727 7.10956 14.27 6.91544C14.4937 6.48838 14.591 5.95456 14.3283 5.7022L14.3089 5.68279C14.2019 5.57603 13.6571 5.09073 13.2583 4.92573C12.7525 4.71221 12.1591 4.55691 11.6241 5.0422C11.021 5.58573 11.3712 6.32338 11.556 6.56603C11.7992 6.87662 12.0035 7.20662 11.877 7.5075C11.7992 7.6725 11.5463 7.8375 11.2837 8.01221C11.0989 8.12868 10.914 8.25485 10.807 8.36162C10.7876 8.39073 10.2234 9.01191 10.8459 9.8175C11.1669 10.2349 11.5658 10.2154 11.9159 10.1863C12.1397 10.1766 12.3537 10.1572 12.5288 10.264C12.9373 10.4969 13.1319 11.0404 12.9276 11.3899C12.4801 12.1663 12.1397 12.9331 12.8595 13.7969C13.3361 14.3599 14.2505 14.1075 14.7466 13.9813C14.7855 13.9716 14.8244 13.9619 14.8536 13.9522C15.0773 13.894 15.2816 13.8551 15.5151 13.8551C15.8458 13.8551 16.196 13.9425 16.6045 14.1172C17.0131 14.2919 17.2562 14.486 17.5189 14.6801C17.7621 14.8646 18.015 15.0587 18.4235 15.2528C18.6667 15.3693 18.8904 15.4178 19.0947 15.4178C19.6102 15.4178 19.9993 15.1266 20.1744 14.9034C20.2814 14.7675 20.3495 14.6122 20.4273 14.4375C20.5441 14.1851 20.6705 13.9037 20.9429 13.6901C21.2639 13.4475 21.6724 13.4572 22.1102 13.4766C22.2853 13.4766 22.4701 13.4863 22.6549 13.4766C23.3358 13.4378 23.6568 13.2437 23.9486 12.7099C24.1237 12.3896 24.2015 11.5451 23.8222 10.759C23.6179 10.3319 23.4817 10.0601 23.579 9.75926C23.6276 9.60397 23.8805 9.37103 24.2404 9.06044C24.4544 8.87603 24.6782 8.68191 24.7754 8.54603L24.8144 8.4975C25.0478 8.18691 25.3591 7.75015 24.6101 7.11926L24.6198 7.10956Z" fill="url(#paint22_linear_2296_143)"/>
<g style="mix-blend-mode:multiply">
<path d="M22.6257 8.08015C22.6257 10.5843 20.5635 12.6225 18.015 12.6225C15.4664 12.6225 13.4042 10.594 13.4042 8.08015C13.4042 5.56633 15.4664 3.5378 18.015 3.5378C20.5635 3.5378 22.6257 5.56633 22.6257 8.08015Z" fill="#58595B"/>
</g>
<path d="M22.4895 7.56574C22.4895 9.99221 20.4954 11.9528 18.0247 11.9528C15.554 11.9528 13.5599 9.99221 13.5599 7.56574C13.5599 5.13927 15.7291 3.06221 18.1901 3.17868C21.2931 3.32427 22.4895 5.13927 22.4895 7.56574Z" fill="white"/>
<path d="M22.4895 7.56574C22.4895 9.99221 20.4954 11.9528 18.0247 11.9528C15.554 11.9528 13.5599 9.99221 13.5599 7.56574C13.5599 5.13927 15.7291 3.06221 18.1901 3.17868C21.2931 3.32427 22.4895 5.13927 22.4895 7.56574Z" fill="url(#paint23_radial_2296_143)"/>
<path d="M17.2855 6.76015C17.2174 7.37162 16.8088 7.8375 16.3711 7.79868C15.9334 7.75015 15.6318 7.21632 15.6999 6.60485C15.768 5.99338 16.1765 5.5275 16.6143 5.56632C17.052 5.60515 17.3535 6.14868 17.2855 6.76015Z" fill="black"/>
<path d="M17.2271 6.76015C17.1882 7.3425 16.8283 7.78897 16.4197 7.75985C16.0112 7.74044 15.7096 7.24544 15.7486 6.67279C15.7875 6.10015 16.1474 5.64397 16.5657 5.67309C16.9742 5.6925 17.2757 6.1875 17.2368 6.76015H17.2271Z" fill="white"/>
<path d="M17.0131 7.23573C16.9742 7.57544 16.7116 7.81809 16.4198 7.78897C16.1279 7.75985 15.9237 7.45897 15.9528 7.11926C15.9918 6.77956 16.2544 6.53691 16.5462 6.56603C16.838 6.59514 17.0423 6.89603 17.0131 7.23573Z" fill="black"/>
<path d="M15.2622 8.74015C15.2622 8.74015 15.3303 8.77897 15.3497 8.79839C15.3692 8.8275 15.3789 8.86633 15.3984 8.89544C15.4373 8.96339 15.4664 9.02162 15.5151 9.08956C15.9625 9.68162 16.4586 10.2446 17.2174 10.3707C17.9274 10.4872 18.7737 10.3513 19.6492 9.6428C19.6978 9.60397 19.8145 9.53603 19.8632 9.57486C19.9507 9.6428 19.8632 9.71074 19.7465 9.79809C19.2115 10.2349 18.3652 10.9337 17.1104 10.7202C16.2738 10.5746 15.8263 9.87574 15.6513 9.66221C15.6026 9.59427 15.5443 9.52633 15.4956 9.46809C15.34 9.27397 15.1746 8.92456 15.1746 8.83721C15.1746 8.79839 15.1941 8.75956 15.2427 8.74986H15.2622V8.74015Z" fill="black"/>
<path d="M20.1647 7.45897C19.9799 8.05103 19.4935 8.42956 19.0655 8.30338C18.6473 8.17721 18.4527 7.59485 18.6375 7.0028C18.8224 6.41074 19.3087 6.03221 19.7367 6.15838C20.155 6.28456 20.3495 6.86691 20.1647 7.45897Z" fill="black"/>
<path d="M20.1064 7.43956C19.9605 8.0025 19.513 8.37132 19.1239 8.27426C18.7251 8.1772 18.5208 7.63368 18.6667 7.08044C18.8127 6.5175 19.2601 6.14868 19.6589 6.25544C20.0577 6.3525 20.262 6.88632 20.1064 7.44926V7.43956Z" fill="white"/>
<path d="M19.8243 7.86662C19.727 8.18691 19.4157 8.38103 19.1337 8.29368C18.8516 8.20632 18.7057 7.87632 18.8029 7.55603C18.9002 7.23574 19.2115 7.04162 19.4936 7.12897C19.7757 7.21632 19.9216 7.54632 19.8243 7.86662Z" fill="black"/>
<g style="mix-blend-mode:multiply" opacity="0.69">
<path d="M22.4993 8.19662C22.2172 10.7978 19.9994 12.671 17.5481 12.3896C15.0968 12.1081 13.3264 9.76897 13.6085 7.1775C13.8906 4.58603 16.3516 2.70309 18.8126 2.98456C21.2736 3.26603 22.7814 5.60515 22.509 8.19662H22.4993Z" fill="url(#paint24_radial_2296_143)"/>
</g>
<g style="mix-blend-mode:multiply">
<path d="M18.9293 9.27397C18.8029 9.76897 18.1511 10.031 17.4702 9.85632C16.7893 9.68162 16.3321 9.1478 16.4586 8.6528C16.585 8.1578 17.2368 7.89574 17.9177 8.07044C18.5986 8.24515 19.0558 8.77897 18.9293 9.27397Z" fill="#58595B"/>
</g>
<path d="M18.8613 9.08956C18.7445 9.57485 18.1122 9.83691 17.4508 9.66221C16.7893 9.49721 16.3516 8.96338 16.4781 8.47809C16.5948 7.99279 17.2271 7.73073 17.8885 7.90544C18.55 8.07044 18.9877 8.60426 18.8613 9.08956Z" fill="url(#paint25_radial_2296_143)"/>
<path d="M17.4313 8.30338C17.4313 8.40044 17.3243 8.47809 17.1881 8.47809C17.0519 8.47809 16.9449 8.40044 16.9449 8.30338C16.9449 8.20632 17.0519 8.12868 17.1881 8.12868C17.3243 8.12868 17.4313 8.20632 17.4313 8.30338Z" fill="white"/>
<path d="M23.6665 5.38191C23.5498 5.25574 23.3747 5.16838 23.2094 5.11015C23.1413 5.09074 23.0732 5.07132 22.9954 5.05191C22.9078 5.01309 22.8105 4.99368 22.723 4.93544C22.6549 4.89662 22.6257 4.82868 22.6063 4.75103C22.6063 4.71221 22.6063 4.67338 22.6063 4.63456C22.5965 4.43074 22.5868 4.22691 22.5674 4.03279C22.5479 3.83868 22.5284 3.63485 22.4993 3.44074C22.4701 3.24662 22.4215 3.0525 22.3728 2.86809C22.3242 2.68368 22.2561 2.49927 22.1783 2.31485C22.1004 2.14015 22.0129 1.96544 21.9059 1.80044C21.7989 1.63544 21.6822 1.48015 21.5557 1.33456C21.4195 1.18897 21.2736 1.04338 21.118 0.917206C20.9624 0.791029 20.7873 0.674559 20.6219 0.567794C20.4468 0.461029 20.262 0.373677 20.0674 0.296029C19.8729 0.218382 19.6783 0.150441 19.4838 0.111618C19.2893 0.0630883 19.085 0.0339706 18.8807 0.0145588C18.6862 -0.00485294 18.4819 -0.00485294 18.2873 0.0145588C18.0928 0.0339706 17.8983 0.0630883 17.7134 0.111618C17.5286 0.160147 17.3535 0.228088 17.1882 0.305735C17.0228 0.383382 16.8574 0.480441 16.7115 0.587206C16.5656 0.693971 16.4197 0.820147 16.2932 0.956029C16.1571 1.09191 16.0403 1.24721 15.9236 1.4025C15.8069 1.5675 15.6999 1.7325 15.6026 1.8975C15.4956 2.07221 15.4081 2.25662 15.3108 2.43132C15.2232 2.61574 15.126 2.80015 15.0384 2.99426L14.9703 3.16897C14.9703 3.16897 14.9412 3.22721 14.9314 3.24662C14.9022 3.28544 14.8925 3.28544 14.8536 3.29515C14.7466 3.33397 14.6785 3.33397 14.5618 3.34368C14.4451 3.34368 14.3381 3.34368 14.2213 3.34368C14.2213 3.35338 13.8906 3.32426 13.7447 3.34368C13.6474 3.34368 13.5307 3.3825 13.5501 3.49897C13.6377 3.85809 14.2116 4.15897 14.5034 4.32397C14.9217 4.56662 15.3692 4.76074 15.8069 4.95485C16.9644 5.46926 18.2387 5.72162 19.5033 5.80897C19.7367 5.82838 19.9799 5.82838 20.2134 5.82838C20.4176 5.82838 20.6122 5.82838 20.8164 5.80897C21.1958 5.80897 21.5752 5.80897 21.9545 5.77985C22.1004 5.77985 22.2464 5.76044 22.3825 5.75074C22.5576 5.74103 22.9759 5.73132 23.0245 5.72162C23.2191 5.72162 23.4331 5.72162 23.6179 5.64397C23.7735 5.58574 23.7833 5.46927 23.6763 5.35279L23.6665 5.38191Z" fill="black"/>
<mask id="mask1_2296_143" style="mask-type:luminance" maskUnits="userSpaceOnUse" x="13" y="0" width="11" height="6">
<path d="M23.6665 5.38191C23.5498 5.25574 23.3747 5.16838 23.2094 5.11015C23.1413 5.09074 23.0732 5.07132 22.9954 5.05191C22.9078 5.01309 22.8105 4.99368 22.723 4.93544C22.6549 4.89662 22.6257 4.82868 22.6063 4.75103C22.6063 4.71221 22.6063 4.67338 22.6063 4.63456C22.5965 4.43074 22.5868 4.22691 22.5674 4.03279C22.5479 3.83868 22.5284 3.63485 22.4993 3.44074C22.4701 3.24662 22.4215 3.0525 22.3728 2.86809C22.3242 2.68368 22.2561 2.49927 22.1783 2.31485C22.1004 2.14015 22.0129 1.96544 21.9059 1.80044C21.7989 1.63544 21.6822 1.48015 21.5557 1.33456C21.4195 1.18897 21.2736 1.04338 21.118 0.917206C20.9624 0.791029 20.7873 0.674559 20.6219 0.567794C20.4468 0.461029 20.262 0.373677 20.0674 0.296029C19.8729 0.218382 19.6783 0.150441 19.4838 0.111618C19.2893 0.0630883 19.085 0.0339706 18.8807 0.0145588C18.6862 -0.00485294 18.4819 -0.00485294 18.2873 0.0145588C18.0928 0.0339706 17.8983 0.0630883 17.7134 0.111618C17.5286 0.160147 17.3535 0.228088 17.1882 0.305735C17.0228 0.383382 16.8574 0.480441 16.7115 0.587206C16.5656 0.693971 16.4197 0.820147 16.2932 0.956029C16.1571 1.09191 16.0403 1.24721 15.9236 1.4025C15.8069 1.5675 15.6999 1.7325 15.6026 1.8975C15.4956 2.07221 15.4081 2.25662 15.3108 2.43132C15.2232 2.61574 15.126 2.80015 15.0384 2.99426L14.9703 3.16897C14.9703 3.16897 14.9412 3.22721 14.9314 3.24662C14.9022 3.28544 14.8925 3.28544 14.8536 3.29515C14.7466 3.33397 14.6785 3.33397 14.5618 3.34368C14.4451 3.34368 14.3381 3.34368 14.2213 3.34368C14.2213 3.35338 13.8906 3.32426 13.7447 3.34368C13.6474 3.34368 13.5307 3.3825 13.5501 3.49897C13.6377 3.85809 14.2116 4.15897 14.5034 4.32397C14.9217 4.56662 15.3692 4.76074 15.8069 4.95485C16.9644 5.46926 18.2387 5.72162 19.5033 5.80897C19.7367 5.82838 19.9799 5.82838 20.2134 5.82838C20.4176 5.82838 20.6122 5.82838 20.8164 5.80897C21.1958 5.80897 21.5752 5.80897 21.9545 5.77985C22.1004 5.77985 22.2464 5.76044 22.3825 5.75074C22.5576 5.74103 22.9759 5.73132 23.0245 5.72162C23.2191 5.72162 23.4331 5.72162 23.6179 5.64397C23.7735 5.58574 23.7833 5.46927 23.6763 5.35279L23.6665 5.38191Z" fill="white"/>
</mask>
<g mask="url(#mask1_2296_143)">
<g opacity="0.3">
<path d="M13.5015 2.86809C14.1921 2.81957 14.8439 3.07192 14.8925 3.15927C14.9411 3.24662 15.1454 3.89692 16.4878 4.3628C17.8302 4.82868 18.7542 4.93545 19.6978 4.98398C20.6413 5.03251 21.7211 5.29457 21.1763 5.41104C20.6316 5.52751 18.7153 5.77015 17.3438 5.56633C16.731 5.46927 14.0657 4.24633 13.6571 3.79986C13.2486 3.35339 13.5112 2.86809 13.5112 2.86809H13.5015Z" fill="white"/>
</g>
<path opacity="0.5" d="M17.7621 2.57691C18.7667 2.57691 19.5811 1.76431 19.5811 0.761915C19.5811 -0.240482 18.7667 -1.05309 17.7621 -1.05309C16.7574 -1.05309 15.9431 -0.240482 15.9431 0.761915C15.9431 1.76431 16.7574 2.57691 17.7621 2.57691Z" fill="url(#paint26_radial_2296_143)"/>
</g>
<path d="M16.5851 6.97368C16.5753 7.06103 16.5072 7.12897 16.4294 7.11927C16.3516 7.11927 16.303 7.03192 16.3127 6.94456C16.3127 6.85721 16.3905 6.78927 16.4683 6.79897C16.5462 6.79897 16.5948 6.88633 16.5851 6.97368Z" fill="white"/>
<path d="M19.3379 7.52692C19.3087 7.61427 19.2309 7.6628 19.1628 7.64339C19.0947 7.62398 19.0558 7.53662 19.085 7.44927C19.1142 7.36192 19.192 7.31339 19.2601 7.3328C19.3282 7.35221 19.3671 7.43957 19.3379 7.52692Z" fill="white"/>
<defs>
<linearGradient id="paint0_linear_2296_143" x1="10.486" y1="17.7181" x2="3.37376" y2="9.54961" gradientUnits="userSpaceOnUse">
<stop offset="0.07" stop-color="#E53528"/>
<stop offset="0.19" stop-color="#E8412F"/>
<stop offset="0.4" stop-color="#EC5039"/>
<stop offset="0.64" stop-color="#EF593F"/>
<stop offset="1" stop-color="#F05C41"/>
</linearGradient>
<linearGradient id="paint1_linear_2296_143" x1="25.1159" y1="24.5802" x2="13.7129" y2="29.2079" gradientUnits="userSpaceOnUse">
<stop offset="0.12" stop-color="#E53528"/>
<stop offset="0.14" stop-color="#E53628"/>
<stop offset="0.43" stop-color="#EB4B36"/>
<stop offset="0.72" stop-color="#EE573E"/>
<stop offset="1" stop-color="#F05C41"/>
</linearGradient>
<linearGradient id="paint2_linear_2296_143" x1="14.3283" y1="29.8601" x2="5.46526" y2="25.2727" gradientUnits="userSpaceOnUse">
<stop stop-color="#95171A"/>
<stop offset="1" stop-color="#AE1F23"/>
</linearGradient>
<linearGradient id="paint3_linear_2296_143" x1="5.91421" y1="16.6213" x2="16.8206" y2="21.3851" gradientUnits="userSpaceOnUse">
<stop stop-color="#676767"/>
<stop offset="0.06" stop-color="#595959"/>
<stop offset="0.23" stop-color="#393939"/>
<stop offset="0.41" stop-color="#202020"/>
<stop offset="0.59" stop-color="#0E0E0E"/>
<stop offset="0.78" stop-color="#030303"/>
<stop offset="1"/>
</linearGradient>
<linearGradient id="paint4_linear_2296_143" x1="14.124" y1="24.3375" x2="3.61077" y2="22.1347" gradientUnits="userSpaceOnUse">
<stop offset="0.04" stop-color="#8B999B"/>
<stop offset="1" stop-color="#D2D9DA"/>
</linearGradient>
<linearGradient id="paint5_linear_2296_143" x1="13.1708" y1="29.6854" x2="2.49216" y2="27.4436" gradientUnits="userSpaceOnUse">
<stop offset="0.04" stop-color="#8B999B"/>
<stop offset="1" stop-color="#D2D9DA"/>
</linearGradient>
<linearGradient id="paint6_linear_2296_143" x1="13.9392" y1="25.6187" x2="3.37733" y2="23.3964" gradientUnits="userSpaceOnUse">
<stop offset="0.04" stop-color="#8B999B"/>
<stop offset="1" stop-color="#D2D9DA"/>
</linearGradient>
<linearGradient id="paint7_linear_2296_143" x1="25.2326" y1="27.2687" x2="15.4151" y2="31.6038" gradientUnits="userSpaceOnUse">
<stop stop-color="#E1E5E5"/>
<stop offset="0.06" stop-color="#E6E9E9"/>
<stop offset="0.28" stop-color="#F4F5F5"/>
<stop offset="0.54" stop-color="#FCFCFC"/>
<stop offset="1" stop-color="white"/>
</linearGradient>
<linearGradient id="paint8_linear_2296_143" x1="23.1607" y1="23.0854" x2="13.382" y2="27.4011" gradientUnits="userSpaceOnUse">
<stop stop-color="#E1E5E5"/>
<stop offset="0.06" stop-color="#E6E9E9"/>
<stop offset="0.28" stop-color="#F4F5F5"/>
<stop offset="0.54" stop-color="#FCFCFC"/>
<stop offset="1" stop-color="white"/>
</linearGradient>
<linearGradient id="paint9_linear_2296_143" x1="24.8338" y1="26.3369" x2="15.0357" y2="30.6623" gradientUnits="userSpaceOnUse">
<stop stop-color="#E1E5E5"/>
<stop offset="0.06" stop-color="#E6E9E9"/>
<stop offset="0.28" stop-color="#F4F5F5"/>
<stop offset="0.54" stop-color="#FCFCFC"/>
<stop offset="1" stop-color="white"/>
</linearGradient>
<linearGradient id="paint10_linear_2296_143" x1="13.0638" y1="12.8457" x2="10.9567" y2="11.1038" gradientUnits="userSpaceOnUse">
<stop/>
<stop offset="0.22" stop-color="#030303"/>
<stop offset="0.41" stop-color="#0E0E0E"/>
<stop offset="0.59" stop-color="#202020"/>
<stop offset="0.77" stop-color="#393939"/>
<stop offset="0.94" stop-color="#595959"/>
<stop offset="1" stop-color="#676767"/>
</linearGradient>
<linearGradient id="paint11_linear_2296_143" x1="21.9642" y1="14.0784" x2="24.2478" y2="12.8318" gradientUnits="userSpaceOnUse">
<stop/>
<stop offset="0.22" stop-color="#030303"/>
<stop offset="0.41" stop-color="#0E0E0E"/>
<stop offset="0.59" stop-color="#202020"/>
<stop offset="0.77" stop-color="#393939"/>
<stop offset="0.94" stop-color="#595959"/>
<stop offset="1" stop-color="#676767"/>
</linearGradient>
<linearGradient id="paint12_linear_2296_143" x1="16.0014" y1="24.3181" x2="15.1782" y2="14.8642" gradientUnits="userSpaceOnUse">
<stop stop-color="#EE442F"/>
<stop offset="0.33" stop-color="#DC392B"/>
<stop offset="1" stop-color="#AE1F23"/>
</linearGradient>
<linearGradient id="paint13_linear_2296_143" x1="16.1668" y1="16.6796" x2="15.9246" y2="18.0968" gradientUnits="userSpaceOnUse">
<stop stop-color="#BFBFBF"/>
<stop offset="0.08" stop-color="#CCCCCC"/>
<stop offset="0.24" stop-color="#E3E3E3"/>
<stop offset="0.41" stop-color="#F2F2F2"/>
<stop offset="0.61" stop-color="#FCFCFC"/>
<stop offset="0.89" stop-color="white"/>
</linearGradient>
<linearGradient id="paint14_linear_2296_143" x1="15.6318" y1="19.0769" x2="15.3703" y2="20.5718" gradientUnits="userSpaceOnUse">
<stop stop-color="#BFBFBF"/>
<stop offset="0.08" stop-color="#CCCCCC"/>
<stop offset="0.24" stop-color="#E3E3E3"/>
<stop offset="0.42" stop-color="#F2F2F2"/>
<stop offset="0.62" stop-color="#FCFCFC"/>
<stop offset="0.9" stop-color="white"/>
</linearGradient>
<linearGradient id="paint15_linear_2296_143" x1="14.9509" y1="21.2413" x2="14.6893" y2="22.7168" gradientUnits="userSpaceOnUse">
<stop stop-color="#BFBFBF"/>
<stop offset="0.08" stop-color="#CCCCCC"/>
<stop offset="0.23" stop-color="#E3E3E3"/>
<stop offset="0.4" stop-color="#F2F2F2"/>
<stop offset="0.6" stop-color="#FCFCFC"/>
<stop offset="0.86" stop-color="white"/>
</linearGradient>
<linearGradient id="paint16_linear_2296_143" x1="25.3145" y1="20.8141" x2="26.585" y2="15.4978" gradientUnits="userSpaceOnUse">
<stop offset="0.05" stop-color="#AAACAF"/>
<stop offset="0.07" stop-color="#B5B7B9"/>
<stop offset="0.15" stop-color="#D0D1D2"/>
<stop offset="0.22" stop-color="#E4E5E6"/>
<stop offset="0.31" stop-color="#F3F3F4"/>
<stop offset="0.41" stop-color="#FCFCFC"/>
<stop offset="0.58" stop-color="white"/>
</linearGradient>
<linearGradient id="paint17_linear_2296_143" x1="13.414" y1="23.299" x2="12.949" y2="25.9296" gradientUnits="userSpaceOnUse">
<stop stop-color="#BFBFBF"/>
<stop offset="0.09" stop-color="#CCCCCC"/>
<stop offset="0.27" stop-color="#E3E3E3"/>
<stop offset="0.47" stop-color="#F2F2F2"/>
<stop offset="0.69" stop-color="#FCFCFC"/>
<stop offset="1" stop-color="white"/>
</linearGradient>
<linearGradient id="paint18_linear_2296_143" x1="16.5364" y1="14.2628" x2="16.2846" y2="15.6995" gradientUnits="userSpaceOnUse">
<stop offset="0.04" stop-color="#A4A7A9"/>
<stop offset="0.12" stop-color="#B1B4B5"/>
<stop offset="0.43" stop-color="#DBDCDD"/>
<stop offset="0.66" stop-color="#F5F5F5"/>
<stop offset="0.8" stop-color="white"/>
</linearGradient>
<linearGradient id="paint19_linear_2296_143" x1="7.87912" y1="17.3104" x2="7.77259" y2="11.846" gradientUnits="userSpaceOnUse">
<stop offset="0.14" stop-color="#A9ACAE"/>
<stop offset="0.19" stop-color="#C3C5C7"/>
<stop offset="0.24" stop-color="#D9DADB"/>
<stop offset="0.3" stop-color="#EAEBEB"/>
<stop offset="0.38" stop-color="#F6F6F6"/>
<stop offset="0.48" stop-color="#FDFDFD"/>
<stop offset="0.78" stop-color="white"/>
</linearGradient>
<linearGradient id="paint20_linear_2296_143" x1="15.3594" y1="23.8716" x2="15.0689" y2="21.5323" gradientUnits="userSpaceOnUse">
<stop stop-color="#4D4E4E"/>
<stop offset="1" stop-color="#676767" stop-opacity="0"/>
</linearGradient>
<linearGradient id="paint21_linear_2296_143" x1="10.4179" y1="10.0699" x2="25.2229" y2="10.0699" gradientUnits="userSpaceOnUse">
<stop stop-color="#C9DBDB"/>
<stop offset="0.08" stop-color="#CFDFDF"/>
<stop offset="0.43" stop-color="#E9F0F0"/>
<stop offset="0.75" stop-color="#F9FBFB"/>
<stop offset="1" stop-color="white"/>
</linearGradient>
<linearGradient id="paint22_linear_2296_143" x1="24.221" y1="5.96426" x2="11.8778" y2="11.9936" gradientUnits="userSpaceOnUse">
<stop stop-color="#F05E4E"/>
<stop offset="0.26" stop-color="#E8423A"/>
<stop offset="0.52" stop-color="#E32E2B"/>
<stop offset="0.7" stop-color="#E12726"/>
<stop offset="0.82" stop-color="#DE2625"/>
<stop offset="0.9" stop-color="#D52425"/>
<stop offset="0.97" stop-color="#C62023"/>
<stop offset="1" stop-color="#BC1E23"/>
</linearGradient>
<radialGradient id="paint23_radial_2296_143" cx="0" cy="0" r="1" gradientUnits="userSpaceOnUse" gradientTransform="translate(18.0247 7.56088) scale(4.43565 3.98329)">
<stop offset="0.31" stop-color="white" stop-opacity="0"/>
<stop offset="0.61" stop-color="#FEFEFE" stop-opacity="0"/>
<stop offset="0.74" stop-color="#FDFDFD" stop-opacity="0.04"/>
<stop offset="0.82" stop-color="#FCFCFC" stop-opacity="0.08"/>
<stop offset="0.87" stop-color="#F3F3F3" stop-opacity="0.11"/>
<stop offset="0.92" stop-color="#D9DADA" stop-opacity="0.21"/>
<stop offset="0.97" stop-color="#AEB0B1" stop-opacity="0.37"/>
<stop offset="1" stop-color="#8D8F91" stop-opacity="0.5"/>
</radialGradient>
<radialGradient id="paint24_radial_2296_143" cx="0" cy="0" r="1" gradientUnits="userSpaceOnUse" gradientTransform="translate(-17.8826 6.69633) rotate(11.1161) scale(8.01153 3.69009)">
<stop offset="0.14" stop-color="#231F20"/>
<stop offset="0.45" stop-color="#8D8F91"/>
<stop offset="0.49" stop-color="#909294" stop-opacity="0.97"/>
<stop offset="0.53" stop-color="#9A9B9D" stop-opacity="0.88"/>
<stop offset="0.57" stop-color="#AAACAD" stop-opacity="0.74"/>
<stop offset="0.61" stop-color="#C1C2C3" stop-opacity="0.54"/>
<stop offset="0.65" stop-color="#DFDFE0" stop-opacity="0.28"/>
<stop offset="0.69" stop-color="white" stop-opacity="0"/>
</radialGradient>
<radialGradient id="paint25_radial_2296_143" cx="0" cy="0" r="1" gradientUnits="userSpaceOnUse" gradientTransform="translate(16.4031 7.34699) rotate(12.4534) scale(1.45836 1.07018)">
<stop offset="0.58" stop-color="#EE442F"/>
<stop offset="1" stop-color="#AE1F23"/>
</radialGradient>
<radialGradient id="paint26_radial_2296_143" cx="0" cy="0" r="1" gradientUnits="userSpaceOnUse" gradientTransform="translate(30.5696 -3.75171) rotate(20.3288) scale(1.8053 1.80228)">
<stop offset="0.12" stop-color="white"/>
<stop offset="0.24" stop-color="white" stop-opacity="0.89"/>
<stop offset="0.49" stop-color="white" stop-opacity="0.62"/>
<stop offset="0.85" stop-color="white" stop-opacity="0.18"/>
<stop offset="1" stop-color="white" stop-opacity="0"/>
</radialGradient>
</defs>
</svg>
