<svg width="35" height="25" viewBox="0 0 35 25" fill="none" xmlns="http://www.w3.org/2000/svg">
<path d="M30.2 0.559998H4.19995C2.26695 0.559998 0.699951 2.127 0.699951 4.06V20.06C0.699951 21.993 2.26695 23.56 4.19995 23.56H30.2C32.1329 23.56 33.7 21.993 33.7 20.06V4.06C33.7 2.127 32.1329 0.559998 30.2 0.559998Z" fill="#FFA8CD"/>
<path d="M30.2 0.559998H4.19995C2.26695 0.559998 0.699951 2.127 0.699951 4.06V20.06C0.699951 21.993 2.26695 23.56 4.19995 23.56H30.2C32.1329 23.56 33.7 21.993 33.7 20.06V4.06C33.7 2.127 32.1329 0.559998 30.2 0.559998Z" stroke="#DFE3E6"/>
<path d="M27.29 13.95C26.72 13.95 26.28 13.48 26.28 12.91C26.28 12.34 26.72 11.87 27.29 11.87C27.86 11.87 28.3 12.34 28.3 12.91C28.3 13.48 27.86 13.95 27.29 13.95ZM27.01 15.05C27.49 15.05 28.11 14.87 28.45 14.15L28.48 14.17C28.33 14.56 28.33 14.8 28.33 14.86V14.95H29.55V10.9H28.33V10.99C28.33 11.05 28.33 11.28 28.48 11.68L28.45 11.7C28.11 10.98 27.49 10.8 27.01 10.8C25.85 10.8 25.04 11.72 25.04 12.93C25.04 14.14 25.86 15.06 27.01 15.06V15.05ZM22.92 10.79C22.37 10.79 21.94 10.98 21.59 11.69L21.56 11.67C21.71 11.28 21.71 11.04 21.71 10.98V10.89H20.49V14.94H21.74V12.81C21.74 12.25 22.06 11.9 22.59 11.9C23.12 11.9 23.37 12.2 23.37 12.8V14.94H24.62V12.36C24.62 11.44 23.9 10.78 22.92 10.78V10.79ZM18.68 11.69L18.65 11.67C18.8 11.28 18.8 11.04 18.8 10.98V10.89H17.58V14.94H18.83V12.99C18.83 12.42 19.14 12.08 19.63 12.08C19.76 12.08 19.87 12.1 20 12.13V10.89C19.45 10.77 18.96 10.98 18.68 11.68V11.69ZM14.71 13.96C14.14 13.96 13.7 13.49 13.7 12.92C13.7 12.35 14.14 11.88 14.71 11.88C15.28 11.88 15.72 12.35 15.72 12.92C15.72 13.49 15.28 13.96 14.71 13.96ZM14.43 15.06C14.91 15.06 15.53 14.88 15.87 14.16L15.9 14.18C15.75 14.57 15.75 14.81 15.75 14.87V14.96H16.97V10.91H15.75V11C15.75 11.06 15.75 11.29 15.9 11.69L15.87 11.71C15.53 10.99 14.91 10.81 14.43 10.81C13.27 10.81 12.46 11.73 12.46 12.94C12.46 14.15 13.28 15.07 14.43 15.07V15.06ZM10.72 14.95H11.97V9.09996H10.72V14.95ZM9.79996 9.09996H8.52996C8.52996 10.14 7.88996 11.08 6.90996 11.75L6.52996 12.02V9.09996H5.20996V14.95H6.52996V12.05L8.71996 14.95H10.34L8.22996 12.17C9.18996 11.48 9.80996 10.4 9.79996 9.08997V9.09996Z" fill="#0B051D"/>
</svg>
