<svg width="72" height="30" viewBox="0 0 72 30" fill="none" xmlns="http://www.w3.org/2000/svg">
<g clip-path="url(#clip0_2267_1391)">
<path d="M4.68977e-05 15C4.68977e-05 10.6654 4.68874e-05 8.49265 0.639753 6.76103C1.68755 3.92647 3.92652 1.6875 6.76108 0.639706C8.49269 0 10.6655 0 15 0H56.2942C60.6287 0 62.8015 0 64.5331 0.639706C67.3677 1.6875 69.6067 3.92647 70.6545 6.76103C71.2942 8.49265 71.2942 10.6654 71.2942 15C71.2942 19.3346 71.2942 21.5074 70.6545 23.239C69.6067 26.0735 67.3677 28.3125 64.5331 29.3603C62.8015 30 60.6287 30 56.2942 30H15C10.6655 30 8.49269 30 6.76108 29.3603C3.91549 28.3125 1.67652 26.0735 0.628723 23.239C-0.0109825 21.5074 -0.0109825 19.3346 -0.0109825 15H4.68977e-05Z" fill="#FFA8CD"/>
<path d="M57.7059 19.3456C56.4375 19.3456 55.4559 18.2978 55.4559 17.0294C55.4559 15.761 56.4375 14.7132 57.7059 14.7132C58.9743 14.7132 59.9559 15.761 59.9559 17.0294C59.9559 18.2978 58.9743 19.3456 57.7059 19.3456ZM57.0772 21.7941C58.1581 21.7941 59.5257 21.386 60.2978 19.7757L60.375 19.8088C60.0441 20.6912 60.0441 21.2096 60.0441 21.3419V21.5515H62.7574V12.5184H60.0441V12.728C60.0441 12.8603 60.0441 13.3787 60.375 14.261L60.2978 14.2941C59.5368 12.6838 58.1581 12.2757 57.0882 12.2757C54.5074 12.2757 52.6875 14.3272 52.6875 17.0405C52.6875 19.7537 54.5074 21.8052 57.0882 21.8052L57.0772 21.7941ZM47.9449 12.2757C46.7206 12.2757 45.75 12.7059 44.9669 14.2941L44.8897 14.261C45.2206 13.3787 45.2206 12.8603 45.2206 12.728V12.5184H42.5074V21.5515H45.2978V16.7868C45.2978 15.5405 46.0257 14.7574 47.1949 14.7574C48.364 14.7574 48.9375 15.4302 48.9375 16.7757V21.5515H51.7279V15.8052C51.7279 13.7537 50.1287 12.2757 47.9338 12.2757H47.9449ZM38.4816 14.2941L38.4044 14.261C38.7353 13.3787 38.7353 12.8603 38.7353 12.728V12.5184H36.0221V21.5515H38.8125L38.8346 17.2059C38.8346 15.9375 39.5074 15.1765 40.5993 15.1765C40.8971 15.1765 41.1397 15.2096 41.4154 15.2868V12.5294C40.1912 12.2647 39.0882 12.739 38.4816 14.3052V14.2941ZM29.614 19.3566C28.3456 19.3566 27.364 18.3088 27.364 17.0405C27.364 15.7721 28.3456 14.7243 29.614 14.7243C30.8824 14.7243 31.864 15.7721 31.864 17.0405C31.864 18.3088 30.8824 19.3566 29.614 19.3566ZM28.9853 21.8052C30.0662 21.8052 31.4338 21.3971 32.2059 19.7868L32.2831 19.8199C31.9522 20.7022 31.9522 21.2206 31.9522 21.353V21.5625H34.6654V12.5294H31.9522V12.739C31.9522 12.8713 31.9522 13.3897 32.2831 14.2721L32.2059 14.3052C31.4449 12.6949 30.0662 12.2868 28.9963 12.2868C26.4154 12.2868 24.5956 14.3382 24.5956 17.0515C24.5956 19.7647 26.4154 21.8162 28.9963 21.8162L28.9853 21.8052ZM20.6912 21.5625H23.4816V8.48163H20.6912V21.5405V21.5625ZM18.6507 8.50369H15.8051C15.8051 10.8309 14.3713 12.9265 12.1985 14.4155L11.3382 15.011V8.50369H8.38235V21.5625H11.3382V15.0882L16.2243 21.5625H19.8309L15.1324 15.364C17.2721 13.8199 18.6618 11.4044 18.6397 8.49266L18.6507 8.50369Z" fill="#0B051D"/>
</g>
<defs>
<clipPath id="clip0_2267_1391">
<rect width="71.2941" height="30" fill="white"/>
</clipPath>
</defs>
</svg>
