<svg width="35" height="24" viewBox="0 0 35 24" fill="none" xmlns="http://www.w3.org/2000/svg">
<path d="M30.21 0.5H4.20996C2.27696 0.5 0.709961 2.067 0.709961 4V20C0.709961 21.933 2.27696 23.5 4.20996 23.5H30.21C32.143 23.5 33.71 21.933 33.71 20V4C33.71 2.067 32.143 0.5 30.21 0.5Z" fill="white"/>
<path d="M30.21 0.5H4.20996C2.27696 0.5 0.709961 2.067 0.709961 4V20C0.709961 21.933 2.27696 23.5 4.20996 23.5H30.21C32.143 23.5 33.71 21.933 33.71 20V4C33.71 2.067 32.143 0.5 30.21 0.5Z" stroke="#DFE3E6"/>
<path fill-rule="evenodd" clip-rule="evenodd" d="M17.21 16.83C16.03 17.83 14.49 18.43 12.81 18.43C9.07003 18.43 6.03003 15.43 6.03003 11.73C6.03003 8.03003 9.07003 5.03003 12.81 5.03003C14.49 5.03003 16.02 5.63003 17.21 6.63003C18.39 5.63003 19.93 5.03003 21.61 5.03003C25.35 5.03003 28.39 8.03003 28.39 11.73C28.39 15.43 25.35 18.43 21.61 18.43C19.93 18.43 18.4 17.83 17.21 16.83Z" fill="#ED0006"/>
<path fill-rule="evenodd" clip-rule="evenodd" d="M17.21 16.83C18.67 15.6 19.59 13.77 19.59 11.73C19.59 9.69003 18.67 7.86003 17.21 6.63003C18.39 5.63003 19.93 5.03003 21.61 5.03003C25.35 5.03003 28.39 8.03003 28.39 11.73C28.39 15.43 25.35 18.43 21.61 18.43C19.93 18.43 18.4 17.83 17.21 16.83Z" fill="#F9A000"/>
<path fill-rule="evenodd" clip-rule="evenodd" d="M17.2101 16.83C18.6701 15.6 19.5901 13.77 19.5901 11.73C19.5901 9.69 18.6701 7.86 17.2101 6.63C15.7501 7.86 14.8301 9.69 14.8301 11.73C14.8301 13.77 15.7501 15.6 17.2101 16.83Z" fill="#FF5E00"/>
</svg>
