<svg width="35" height="25" viewBox="0 0 35 25" fill="none" xmlns="http://www.w3.org/2000/svg">
<path d="M30.29 0.559998H4.29004C2.35704 0.559998 0.790039 2.127 0.790039 4.06V20.06C0.790039 21.993 2.35704 23.56 4.29004 23.56H30.29C32.223 23.56 33.79 21.993 33.79 20.06V4.06C33.79 2.127 32.223 0.559998 30.29 0.559998Z" fill="white"/>
<path d="M30.29 0.559998H4.29004C2.35704 0.559998 0.790039 2.127 0.790039 4.06V20.06C0.790039 21.993 2.35704 23.56 4.29004 23.56H30.29C32.223 23.56 33.79 21.993 33.79 20.06V4.06C33.79 2.127 32.223 0.559998 30.29 0.559998Z" stroke="#DFE3E6"/>
<path fill-rule="evenodd" clip-rule="evenodd" d="M14.3701 18.59L14.6001 17.05H14.0801L11.5801 17.04L13.3201 5.66998C13.3201 5.66998 13.3401 5.59998 13.3701 5.57998C13.4001 5.55998 13.4301 5.53998 13.4601 5.53998H17.6701C19.0701 5.53998 20.0301 5.83998 20.5401 6.42998C20.7801 6.70998 20.9301 6.99998 21.0001 7.31998C21.0801 7.65998 21.0801 8.05998 21.0001 8.54998V8.58998V8.89998L21.2401 9.03998C21.4401 9.14998 21.6001 9.26998 21.7201 9.41998C21.9201 9.65998 22.0501 9.95998 22.1101 10.32C22.1701 10.69 22.1501 11.13 22.0501 11.62C21.9401 12.19 21.7701 12.69 21.5301 13.1C21.3101 13.48 21.0401 13.79 20.7101 14.03C20.4001 14.26 20.0301 14.43 19.6101 14.54C19.2001 14.65 18.7401 14.7 18.2301 14.7H17.9001C17.6701 14.7 17.4401 14.79 17.2601 14.94C17.0801 15.1 16.9601 15.32 16.9301 15.56L16.9101 15.7L16.5001 18.42L16.4801 18.52C16.4801 18.52 16.4701 18.57 16.4501 18.58C16.4401 18.58 16.4201 18.6 16.4101 18.6H14.3901L14.3701 18.59Z" fill="#28356A"/>
<path fill-rule="evenodd" clip-rule="evenodd" d="M21.4601 8.62006C21.4501 8.70006 21.4301 8.79006 21.4201 8.88006C20.8601 11.8301 18.9701 12.8401 16.5401 12.8401H15.3001C15.0001 12.8401 14.7501 13.0601 14.7101 13.3701L13.9001 18.6901C13.8701 18.8901 14.0201 19.0701 14.2101 19.0701H16.4001C16.6601 19.0701 16.8801 18.8801 16.9201 18.6101L16.9401 18.5001L17.3501 15.7901L17.3801 15.6401C17.4201 15.3701 17.6401 15.1801 17.9001 15.1801H18.2301C20.3501 15.1801 22.0101 14.2901 22.5001 11.7101C22.7001 10.6301 22.6001 9.73006 22.0601 9.10006C21.9001 8.91006 21.7001 8.75006 21.4601 8.62006Z" fill="#298FC2"/>
<path fill-rule="evenodd" clip-rule="evenodd" d="M20.8802 8.37999C20.8002 8.34999 20.7102 8.32999 20.6202 8.30999C20.5302 8.28999 20.4402 8.26999 20.3402 8.25999C20.0102 8.19999 19.6402 8.17999 19.2502 8.17999H15.9502C15.8702 8.17999 15.7902 8.19999 15.7202 8.22999C15.5702 8.30999 15.4502 8.44999 15.4302 8.63999L14.7302 13.24L14.7102 13.37C14.7602 13.07 15.0102 12.84 15.3002 12.84H16.5402C18.9702 12.84 20.8702 11.82 21.4202 8.87999C21.4402 8.78999 21.4502 8.70999 21.4602 8.61999C21.3202 8.53999 21.1702 8.47999 21.0002 8.41999C20.9602 8.40999 20.9202 8.38999 20.8802 8.37999Z" fill="#22284F"/>
<path fill-rule="evenodd" clip-rule="evenodd" d="M15.4301 8.64C15.4601 8.46 15.5702 8.31 15.7202 8.23C15.7902 8.2 15.8702 8.18 15.9502 8.18H19.2501C19.6401 8.18 20.0101 8.20999 20.3401 8.25999C20.4401 8.27999 20.5302 8.29 20.6202 8.31C20.7102 8.33 20.8001 8.35 20.8801 8.38C20.9201 8.39 20.9601 8.40999 21.0001 8.41999C21.1601 8.47999 21.3201 8.54 21.4601 8.62C21.6301 7.52999 21.4601 6.79 20.8901 6.12C20.2601 5.38 19.1301 5.06 17.6801 5.06H13.4702C13.1702 5.06 12.9202 5.28 12.8802 5.59L11.1302 17.08C11.1002 17.31 11.2702 17.51 11.4902 17.51H14.0901L15.4401 8.63L15.4301 8.64Z" fill="#28356A"/>
</svg>
