<svg width="14" height="8" viewBox="0 0 14 8" fill="none" xmlns="http://www.w3.org/2000/svg">
<g clip-path="url(#clip0_2253_349)">
<path d="M13.88 3.95C13.88 3.95 13.91 3.85 13.93 3.8H13.95V3.73V3.71V3.64H13.93C13.9 3.52 13.84 3.41 13.78 3.31C13.7 3.2 13.62 3.09 13.53 2.99C12.61 2.02 11.41 1.31 10.12 0.959998C9.67 0.839998 9.19 0.789998 8.72 0.789998C7.7 0.789998 6.68 0.939998 5.7 1.2C5.65 0.989998 5.58 0.779998 5.47 0.589998C4.89 -0.390002 3.55 -1.78814e-06 2.85 0.629998C2.82 0.659998 2.78 0.689998 2.75 0.719998C2.62 0.859998 2.72 1.09 2.91 1.1C3.41 1.14 3.63 1.48 3.71 1.95C3.62 2 3.53 2.06 3.44 2.11C3.3 2.2 3.23 2.3 3.2 2.41C3.08 2.35 2.96 2.32 2.83 2.3C2.07 2.22 1.28 2.6 0.660001 3.01C0.450001 3.18 -0.0299987 3.52 1.30245e-06 3.8C0.0600013 4.07 0.430001 4.33 0.650001 4.49C1.27 4.9 2.07 5.28 2.83 5.17C2.95 5.15 3.07 5.11 3.17 5.06C3.2 5.22 3.29 5.33 3.51 5.47C3.57 5.51 3.64 5.55 3.7 5.59C3.67 5.78 3.61 5.97 3.5 6.11C3.37 6.27 3.19 6.35 2.99 6.38C2.98 6.38 2.91 6.38 2.9 6.39C2.68 6.41 2.61 6.67 2.78 6.81C3.39 7.4 4.56 7.86 5.26 7.2C5.35 7.12 5.43 7.02 5.48 6.92C5.59 6.74 5.65 6.54 5.69 6.34C6.36 6.52 7.04 6.63 7.72 6.7C8.11 6.73 8.54 6.74 8.93 6.73C9.33 6.73 9.74 6.66 10.13 6.55C11.17 6.27 12.13 5.73 12.95 5.03C13.3 4.72 13.66 4.38 13.87 3.95H13.88ZM9.48 5.18C9.13 5.18 8.81 5.06 8.56 4.85C8.24 4.59 8.03 4.19 8.03 3.74C8.03 2.94 8.67 2.3 9.47 2.29C10.27 2.29 10.91 2.93 10.92 3.73C10.92 4.53 10.28 5.17 9.48 5.18Z" fill="#9B9B9B"/>
</g>
<defs>
<clipPath id="clip0_2253_349">
<rect width="13.95" height="7.52" fill="white"/>
</clipPath>
</defs>
</svg>
