<svg width="18" height="34" viewBox="0 0 18 34" fill="none" xmlns="http://www.w3.org/2000/svg">
<path d="M17.7539 23.8242C17.918 23.9883 18 24.1875 18 24.4219C18 24.6562 17.918 24.8555 17.7539 25.0195L16.7695 26.0039C16.6055 26.168 16.4062 26.25 16.1719 26.25C15.9375 26.25 15.7383 26.168 15.5742 26.0039L12.0586 22.4883C11.8945 22.3242 11.8125 22.125 11.8125 21.8906V21.3281C10.5 22.3594 9 22.875 7.3125 22.875C5.29688 22.875 3.57422 22.1602 2.14453 20.7305C0.714844 19.3008 0 17.5781 0 15.5625C0 13.5469 0.714844 11.8242 2.14453 10.3945C3.57422 8.96484 5.29688 8.25 7.3125 8.25C9.32812 8.25 11.0508 8.96484 12.4805 10.3945C13.9102 11.8242 14.625 13.5469 14.625 15.5625C14.625 17.25 14.1094 18.75 13.0781 20.0625H13.6406C13.875 20.0625 14.0742 20.1445 14.2383 20.3086L17.7539 23.8242ZM4.11328 18.7617C5.00391 19.6289 6.07031 20.0625 7.3125 20.0625C8.55469 20.0625 9.60938 19.6289 10.4766 18.7617C11.3672 17.8711 11.8125 16.8047 11.8125 15.5625C11.8125 14.3203 11.3672 13.2656 10.4766 12.3984C9.60938 11.5078 8.55469 11.0625 7.3125 11.0625C6.07031 11.0625 5.00391 11.5078 4.11328 12.3984C3.24609 13.2656 2.8125 14.3203 2.8125 15.5625C2.8125 16.8047 3.24609 17.8711 4.11328 18.7617Z" fill="#407EC9"/>
</svg>
