<svg width="68" height="28" viewBox="0 0 68 28" fill="none" xmlns="http://www.w3.org/2000/svg">
<path d="M1.12002 0.719971C1.12002 0.719971 1.06002 0.71998 1.03002 0.72998C1.00002 0.73998 0.970026 0.739969 0.940026 0.749969C0.910026 0.759969 0.890024 0.769968 0.860024 0.779968C0.830024 0.789968 0.810022 0.799967 0.780022 0.809967C0.730022 0.839967 0.680028 0.869963 0.630028 0.899963C0.580028 0.929963 0.540018 0.969958 0.510018 1.01996C0.480018 1.06996 0.440027 1.10997 0.410027 1.15997C0.380027 1.20997 0.36002 1.25998 0.34002 1.31998C0.32002 1.37998 0.310026 1.43998 0.300026 1.50998C0.290026 1.57998 0.290022 1.63996 0.280022 1.70996C0.270022 1.77996 0.280017 1.84998 0.290017 1.91998C0.300017 1.98998 0.310025 2.06998 0.330025 2.13998L2.38003 10.38L0.95002 12.63C0.91002 12.69 0.87002 12.76 0.84002 12.82C0.81002 12.88 0.780018 12.95 0.760018 13.01C0.740018 13.07 0.72003 13.14 0.71003 13.2C0.70003 13.26 0.690026 13.32 0.690026 13.39C0.690026 13.45 0.690026 13.52 0.690026 13.57C0.690026 13.62 0.710019 13.69 0.730019 13.74C0.750019 13.79 0.770026 13.85 0.800026 13.9C0.830026 13.95 0.860017 14 0.900017 14.04C0.940017 14.09 0.980028 14.13 1.02003 14.16C1.06003 14.19 1.11002 14.23 1.17002 14.26C1.23002 14.29 1.28002 14.31 1.34002 14.33C1.40002 14.35 1.47002 14.36 1.54002 14.38C1.58002 14.38 1.63002 14.39 1.67002 14.4C1.71002 14.41 1.75002 14.4 1.79002 14.4C1.83002 14.4 1.87002 14.4 1.90002 14.4C1.93002 14.4 1.97002 14.4 2.01002 14.39C2.04002 14.39 2.06002 14.39 2.09002 14.38C2.12002 14.37 2.14003 14.37 2.16003 14.36C2.18003 14.35 2.21002 14.34 2.23002 14.34C2.25002 14.34 2.28003 14.32 2.30003 14.31C2.35003 14.28 2.41003 14.25 2.46003 14.21C2.51003 14.17 2.57002 14.12 2.62002 14.07C2.67002 14.02 2.73002 13.95 2.78002 13.88C2.83002 13.81 2.89003 13.73 2.94003 13.65L8.91003 3.88998C8.95003 3.82998 8.98003 3.76996 9.01003 3.70996C9.04003 3.64996 9.06001 3.58997 9.08001 3.52997C9.10001 3.46997 9.11002 3.40998 9.12002 3.34998C9.13002 3.28998 9.14004 3.22998 9.14004 3.16998C9.14004 3.10998 9.14002 3.04997 9.12002 2.99997C9.10002 2.94997 9.10001 2.88997 9.08001 2.83997C9.06001 2.78997 9.04001 2.73997 9.02001 2.68997C9.00001 2.63997 8.97002 2.59996 8.93002 2.54996C8.90002 2.50996 8.86003 2.46996 8.82003 2.42996C8.78003 2.38996 8.73002 2.35996 8.68002 2.32996C8.63002 2.29996 8.58001 2.27997 8.52001 2.24997C8.46001 2.21997 8.40002 2.20998 8.34002 2.19998C8.30002 2.19998 8.26002 2.17996 8.22002 2.17996C8.18002 2.17996 8.14001 2.17998 8.11001 2.16998C8.08001 2.15998 8.04002 2.16998 8.00002 2.16998C7.96002 2.16998 7.93002 2.16998 7.90002 2.16998C7.87002 2.16998 7.85003 2.16996 7.82003 2.17996C7.79003 2.18996 7.77002 2.18998 7.75002 2.19998C7.73002 2.20998 7.70002 2.20997 7.68002 2.21997C7.66002 2.22997 7.64001 2.23997 7.61001 2.24997C7.56001 2.26997 7.51002 2.29997 7.46001 2.33997C7.41001 2.37997 7.36002 2.41997 7.31002 2.46997C7.26002 2.51997 7.22004 2.57996 7.17004 2.64996C7.12004 2.71996 7.08002 2.78996 7.03002 2.86996L3.95002 8.13998L2.59002 1.95996C2.57002 1.85996 2.55003 1.76996 2.52003 1.67996C2.49003 1.58996 2.47003 1.51998 2.44003 1.44998C2.41003 1.37998 2.38003 1.31998 2.35003 1.25998C2.32003 1.19998 2.28003 1.14995 2.24003 1.10995C2.20003 1.06995 2.16002 1.02996 2.11002 0.98996C2.06002 0.94996 2.01003 0.919984 1.96003 0.889984C1.91003 0.859984 1.85002 0.839967 1.78002 0.809967C1.71002 0.779967 1.65003 0.769969 1.58003 0.749969C1.53003 0.739969 1.49003 0.72998 1.44003 0.72998C1.39003 0.72998 1.35002 0.719971 1.31002 0.719971C1.27002 0.719971 1.23003 0.719971 1.19003 0.719971C1.15003 0.719971 1.11003 0.719971 1.07003 0.719971" fill="#C4D600"/>
<path d="M13.37 11.14C13.37 11.14 13.27 11.15 13.22 11.16C13.17 11.17 13.12 11.16 13.07 11.16C13.02 11.16 12.97 11.16 12.91 11.16C12.85 11.16 12.8 11.15 12.75 11.14C12.63 11.12 12.52 11.0899 12.42 11.0499C12.32 11.0099 12.22 10.97 12.13 10.92C12.04 10.87 11.96 10.81 11.89 10.75C11.82 10.69 11.75 10.62 11.7 10.54C11.64 10.46 11.59 10.3799 11.55 10.2999C11.51 10.2199 11.48 10.13 11.46 10.04C11.44 9.94997 11.43 9.85997 11.42 9.75997C11.41 9.65997 11.42 9.56995 11.44 9.45995C11.45 9.37995 11.47 9.29997 11.49 9.22997C11.51 9.15997 11.54 9.08997 11.57 9.03997C11.6 8.98997 11.64 8.92996 11.68 8.87996C11.72 8.82996 11.77 8.78997 11.82 8.75997C11.85 8.73997 11.89 8.70997 11.92 8.69997C11.95 8.68997 12 8.65995 12.04 8.64995C12.08 8.63995 12.13 8.61994 12.18 8.60994C12.23 8.59994 12.28 8.58995 12.34 8.57995C12.37 8.57995 12.41 8.57997 12.44 8.56997C12.47 8.55997 12.51 8.56997 12.55 8.56997C12.59 8.56997 12.62 8.56997 12.66 8.56997C12.7 8.56997 12.74 8.56997 12.78 8.56997C12.89 8.56997 13.01 8.56995 13.13 8.58995C13.25 8.60995 13.39 8.60996 13.53 8.62996C13.67 8.64996 13.82 8.66996 13.98 8.68996C14.14 8.70996 14.31 8.74996 14.48 8.77996L15.06 8.88997L15 9.28997C14.99 9.39997 14.97 9.49996 14.94 9.59996C14.91 9.69996 14.89 9.78997 14.85 9.88997C14.81 9.98997 14.78 10.07 14.73 10.15C14.68 10.23 14.64 10.31 14.58 10.39C14.53 10.46 14.47 10.53 14.41 10.6C14.35 10.67 14.29 10.73 14.22 10.78C14.15 10.83 14.08 10.89 14.01 10.93C13.94 10.97 13.86 11.0199 13.78 11.0499C13.75 11.0599 13.71 11.08 13.68 11.09C13.65 11.1 13.61 11.11 13.58 11.12C13.55 11.13 13.51 11.14 13.47 11.15C13.43 11.16 13.4 11.16 13.36 11.17M12.05 3.33995C11.99 3.33995 11.92 3.35994 11.86 3.35994C11.8 3.35994 11.73 3.37997 11.66 3.38997C11.59 3.39997 11.53 3.40995 11.46 3.42995C11.39 3.44995 11.32 3.45996 11.26 3.46996C11.2 3.46996 11.15 3.48997 11.1 3.50997C11.05 3.52997 11 3.54997 10.96 3.56997C10.92 3.58997 10.88 3.61996 10.84 3.65996C10.8 3.69996 10.77 3.72995 10.74 3.76995C10.71 3.80995 10.68 3.84997 10.66 3.88997C10.64 3.92997 10.61 3.96995 10.6 4.01995C10.59 4.06995 10.57 4.10995 10.55 4.14995C10.53 4.18995 10.53 4.23996 10.52 4.27996C10.52 4.32996 10.52 4.36997 10.52 4.41997C10.52 4.46997 10.52 4.50996 10.52 4.55996C10.52 4.60996 10.53 4.64996 10.55 4.68996C10.57 4.72996 10.58 4.77997 10.59 4.81997C10.61 4.85997 10.63 4.89996 10.65 4.93996C10.67 4.97996 10.7 5.00995 10.73 5.04995C10.76 5.08995 10.79 5.10997 10.83 5.13997C10.87 5.16997 10.9 5.18995 10.94 5.20995C10.97 5.22995 11 5.23996 11.03 5.24996C11.06 5.25996 11.09 5.26995 11.13 5.26995C11.17 5.26995 11.2 5.26995 11.23 5.26995C11.26 5.26995 11.3 5.26995 11.34 5.26995C11.35 5.26995 11.37 5.26995 11.39 5.26995C11.41 5.26995 11.42 5.26995 11.44 5.26995C11.46 5.26995 11.47 5.26997 11.49 5.25997C11.51 5.24997 11.52 5.25996 11.54 5.24996C11.61 5.22996 11.68 5.20997 11.75 5.19997C11.82 5.18997 11.89 5.16996 11.95 5.15996C12.01 5.14996 12.08 5.13995 12.15 5.11995C12.22 5.09995 12.28 5.09995 12.35 5.08995C12.39 5.08995 12.43 5.08994 12.47 5.07994C12.51 5.06994 12.55 5.07997 12.59 5.06997C12.63 5.05997 12.67 5.06997 12.71 5.06997C12.75 5.06997 12.79 5.06997 12.83 5.06997C12.93 5.06997 13.02 5.06997 13.12 5.06997C13.22 5.06997 13.31 5.06994 13.4 5.07994C13.49 5.08994 13.58 5.09994 13.67 5.10994C13.76 5.11994 13.84 5.13996 13.92 5.15996C14.07 5.18996 14.2 5.22995 14.32 5.26995C14.44 5.30995 14.55 5.35997 14.65 5.41997C14.75 5.47997 14.84 5.53996 14.91 5.59996C14.98 5.65996 15.05 5.73997 15.1 5.81997C15.15 5.89997 15.2 5.98994 15.23 6.07994C15.26 6.16994 15.29 6.27995 15.31 6.39995C15.33 6.51995 15.33 6.63996 15.33 6.77996C15.33 6.91996 15.32 7.05995 15.3 7.20995L15.25 7.58995L14.65 7.46996C14.35 7.40996 14.07 7.35997 13.79 7.31997C13.51 7.27997 13.26 7.23996 13.02 7.21996C12.78 7.19996 12.55 7.17997 12.33 7.16997C12.11 7.15997 11.91 7.16997 11.72 7.16997C11.68 7.16997 11.65 7.16997 11.61 7.16997C11.57 7.16997 11.54 7.16997 11.5 7.16997C11.46 7.16997 11.43 7.16997 11.4 7.16997C11.37 7.16997 11.33 7.16995 11.3 7.17995C11.16 7.19995 11.03 7.21996 10.91 7.24996C10.79 7.27996 10.67 7.31994 10.56 7.35994C10.45 7.39994 10.35 7.44996 10.26 7.49996C10.17 7.54996 10.08 7.61995 10.01 7.67995C9.91001 7.75995 9.83 7.84995 9.75 7.95995C9.67 8.06995 9.60001 8.17995 9.54001 8.29995C9.48001 8.41995 9.43 8.55995 9.38 8.70995C9.33 8.85995 9.3 9.01996 9.28 9.18996C9.26 9.32996 9.25 9.45996 9.25 9.59996C9.25 9.73996 9.24999 9.86996 9.26999 9.99996C9.28999 10.13 9.31001 10.26 9.35001 10.38C9.39001 10.5 9.42999 10.63 9.48999 10.75C9.53999 10.87 9.60001 10.99 9.67001 11.1C9.74001 11.21 9.80999 11.32 9.89999 11.43C9.98999 11.54 10.07 11.63 10.17 11.73C10.27 11.83 10.37 11.92 10.49 12C10.6 12.08 10.72 12.16 10.84 12.23C10.96 12.3 11.09 12.36 11.22 12.42C11.35 12.48 11.49 12.52 11.63 12.57C11.77 12.62 11.92 12.65 12.07 12.67C12.15 12.68 12.24 12.7 12.32 12.7C12.4 12.7 12.48 12.7099 12.56 12.7099C12.64 12.7099 12.72 12.7099 12.79 12.7099C12.86 12.7099 12.94 12.7 13.01 12.69C13.04 12.69 13.06 12.69 13.09 12.68C13.12 12.67 13.14 12.67 13.17 12.66C13.2 12.65 13.22 12.65 13.25 12.64C13.28 12.63 13.3 12.63 13.33 12.62C13.42 12.59 13.52 12.5599 13.61 12.5199C13.7 12.4799 13.78 12.44 13.87 12.39C13.96 12.34 14.03 12.29 14.11 12.23C14.19 12.17 14.26 12.11 14.33 12.04C14.37 12 14.41 11.96 14.45 11.92C14.49 11.88 14.52 11.83 14.56 11.79C14.6 11.75 14.63 11.7 14.66 11.65C14.69 11.6 14.72 11.55 14.75 11.5L14.7 11.88C14.69 11.97 14.68 12.06 14.68 12.15C14.68 12.24 14.68 12.32 14.7 12.39C14.72 12.46 14.73 12.5399 14.75 12.6099C14.77 12.6799 14.81 12.7399 14.84 12.7999C14.88 12.8599 14.92 12.9099 14.96 12.9599C15 13.0099 15.06 13.0499 15.12 13.0799C15.18 13.1099 15.24 13.15 15.31 13.17C15.38 13.19 15.45 13.21 15.53 13.23C15.56 13.23 15.6 13.24 15.63 13.25C15.66 13.26 15.69 13.25 15.72 13.25C15.75 13.25 15.78 13.25 15.81 13.25C15.84 13.25 15.87 13.25 15.9 13.25C15.94 13.25 15.97 13.24 16.01 13.22C16.05 13.2 16.08 13.2 16.11 13.18C16.14 13.16 16.17 13.15 16.2 13.13C16.23 13.11 16.26 13.09 16.29 13.06C16.34 13.02 16.38 12.97 16.42 12.91C16.46 12.85 16.49 12.79 16.52 12.72C16.55 12.65 16.58 12.5699 16.6 12.4899C16.62 12.4099 16.64 12.32 16.65 12.22L17.24 7.84996C17.27 7.63996 17.29 7.43995 17.3 7.23995C17.31 7.03995 17.31 6.85995 17.3 6.67995C17.29 6.49995 17.27 6.32996 17.25 6.15996C17.23 5.98996 17.19 5.83996 17.14 5.68996C17.09 5.53996 17.04 5.39995 16.98 5.26995C16.92 5.13995 16.84 5.00997 16.76 4.88997C16.68 4.76997 16.59 4.65995 16.49 4.54995C16.39 4.43995 16.28 4.33996 16.16 4.24996C16.04 4.14996 15.91 4.06995 15.77 3.98995C15.63 3.90995 15.48 3.82997 15.31 3.75997C15.14 3.68997 14.98 3.62997 14.79 3.56997C14.6 3.50997 14.41 3.45997 14.21 3.41997C14.11 3.39997 14.01 3.37994 13.91 3.35994C13.81 3.33994 13.7 3.32997 13.59 3.31997C13.48 3.30997 13.36 3.29997 13.24 3.28997C13.12 3.27997 13 3.28997 12.87 3.28997C12.81 3.28997 12.74 3.28997 12.68 3.28997C12.62 3.28997 12.55 3.28997 12.48 3.28997C12.41 3.28997 12.35 3.28995 12.28 3.29995C12.21 3.30995 12.14 3.30997 12.07 3.31997" fill="#C4D600"/>
<path d="M20.41 4.80996C20.41 4.80996 20.34 4.81994 20.3 4.82994C20.26 4.83994 20.23 4.84994 20.2 4.85994C20.17 4.86994 20.14 4.88995 20.11 4.89995C20.08 4.90995 20.05 4.93995 20.02 4.95995C19.97 4.99995 19.93 5.03995 19.89 5.08995C19.85 5.13995 19.81 5.19995 19.78 5.26995C19.75 5.33995 19.72 5.40995 19.7 5.48995C19.68 5.56995 19.66 5.64996 19.65 5.74996L18.75 12.57C18.74 12.67 18.73 12.76 18.73 12.84C18.73 12.92 18.73 13.0099 18.75 13.0799C18.77 13.1499 18.78 13.23 18.81 13.29C18.84 13.35 18.87 13.42 18.91 13.48C18.95 13.54 18.99 13.59 19.04 13.64C19.09 13.69 19.15 13.73 19.21 13.76C19.27 13.79 19.34 13.83 19.41 13.85C19.48 13.87 19.56 13.9 19.64 13.91C19.68 13.91 19.71 13.92 19.75 13.92C19.79 13.92 19.82 13.92 19.86 13.92C19.9 13.92 19.93 13.92 19.96 13.92C19.99 13.92 20.02 13.92 20.06 13.91C20.1 13.91 20.13 13.9 20.17 13.89C20.21 13.88 20.24 13.87 20.27 13.85C20.3 13.83 20.33 13.8199 20.36 13.7999C20.39 13.7799 20.42 13.7599 20.45 13.7399C20.5 13.6999 20.54 13.65 20.58 13.59C20.62 13.53 20.66 13.47 20.69 13.41C20.72 13.35 20.75 13.27 20.77 13.19C20.79 13.11 20.81 13.02 20.82 12.93L21.3 9.20995C21.32 9.03995 21.35 8.87997 21.39 8.72997C21.43 8.57997 21.48 8.44997 21.54 8.31997C21.6 8.18997 21.67 8.08995 21.74 7.98995C21.81 7.88995 21.9 7.79997 22 7.72997C22.06 7.67997 22.12 7.63996 22.19 7.59996C22.26 7.55996 22.33 7.52995 22.4 7.48995C22.47 7.44995 22.55 7.42996 22.63 7.40996C22.71 7.38996 22.79 7.36994 22.88 7.35994C22.93 7.35994 22.98 7.34995 23.04 7.33995C23.1 7.32995 23.15 7.33995 23.2 7.33995C23.25 7.33995 23.31 7.33995 23.37 7.33995C23.43 7.33995 23.49 7.33996 23.55 7.34996L23.9 7.37996C23.9 7.37996 23.95 7.37996 23.97 7.37996C23.99 7.37996 24.02 7.37996 24.04 7.37996C24.06 7.37996 24.09 7.37996 24.11 7.37996C24.13 7.37996 24.15 7.37996 24.17 7.37996C24.21 7.37996 24.25 7.36994 24.29 7.35994C24.33 7.34994 24.36 7.33997 24.4 7.31997C24.44 7.29997 24.46 7.28995 24.49 7.26995C24.52 7.24995 24.55 7.22997 24.57 7.19997C24.61 7.15997 24.65 7.11997 24.68 7.06997C24.71 7.01997 24.74 6.96996 24.76 6.90996C24.78 6.84996 24.8 6.78997 24.81 6.72997C24.82 6.66997 24.83 6.59995 24.83 6.51995C24.83 6.43995 24.83 6.36995 24.83 6.29995C24.83 6.22995 24.82 6.16994 24.81 6.10994C24.8 6.04994 24.78 5.98996 24.76 5.93996C24.74 5.88996 24.72 5.83995 24.69 5.79995C24.66 5.75995 24.63 5.71995 24.6 5.67995C24.57 5.63995 24.53 5.61995 24.49 5.58995C24.45 5.55995 24.4 5.54996 24.35 5.52996C24.3 5.50996 24.25 5.49996 24.19 5.49996C24.11 5.49996 24.03 5.47997 23.95 5.47997C23.87 5.47997 23.79 5.47997 23.72 5.47997C23.65 5.47997 23.57 5.47997 23.5 5.47997C23.43 5.47997 23.36 5.48996 23.29 5.49996C23.21 5.50996 23.13 5.51997 23.05 5.53997C22.97 5.55997 22.89 5.57996 22.82 5.59996C22.75 5.61996 22.67 5.64995 22.6 5.67995C22.53 5.70995 22.46 5.74996 22.4 5.77996C22.31 5.82996 22.23 5.88997 22.15 5.94997C22.07 6.00997 22 6.07996 21.92 6.15996C21.84 6.23996 21.78 6.31996 21.72 6.40996C21.66 6.49996 21.6 6.59997 21.54 6.69997L21.61 6.13997C21.62 6.04997 21.63 5.95996 21.63 5.87996C21.63 5.79996 21.63 5.71997 21.61 5.63997C21.59 5.55997 21.58 5.49995 21.55 5.42995C21.52 5.35995 21.49 5.29995 21.46 5.23995C21.42 5.17995 21.38 5.12995 21.34 5.08995C21.3 5.04995 21.24 4.99996 21.19 4.96996C21.14 4.93996 21.07 4.89996 21 4.87996C20.93 4.85996 20.86 4.82996 20.78 4.80996C20.75 4.80996 20.71 4.79997 20.68 4.78997C20.65 4.77997 20.62 4.78996 20.58 4.77996C20.54 4.76996 20.52 4.77996 20.49 4.77996C20.46 4.77996 20.43 4.77996 20.4 4.77996" fill="#C4D600"/>
<path d="M26.56 6.10994C26.56 6.10994 26.49 6.11996 26.46 6.12996C26.43 6.13996 26.4 6.14996 26.37 6.15996C26.34 6.16996 26.31 6.18997 26.28 6.19997C26.25 6.20997 26.22 6.23997 26.2 6.25997C26.15 6.29997 26.11 6.33997 26.07 6.38997C26.03 6.43997 26 6.49996 25.97 6.55996C25.94 6.61996 25.92 6.69995 25.9 6.76995C25.88 6.83995 25.86 6.92995 25.85 7.01995L25.03 13.68C25.02 13.77 25.01 13.86 25.02 13.94C25.03 14.02 25.02 14.1 25.04 14.18C25.06 14.26 25.07 14.32 25.1 14.39C25.13 14.46 25.16 14.52 25.19 14.57C25.23 14.63 25.27 14.68 25.31 14.72C25.35 14.76 25.41 14.81 25.47 14.84C25.53 14.87 25.59 14.9 25.66 14.93C25.73 14.96 25.8 14.9699 25.88 14.9899C25.92 14.9899 25.95 15 25.99 15C26.03 15 26.06 15 26.09 15C26.12 15 26.16 15 26.19 15C26.22 15 26.25 14.9999 26.28 14.9899C26.32 14.9899 26.35 14.98 26.38 14.97C26.41 14.96 26.44 14.95 26.48 14.93C26.52 14.91 26.54 14.9 26.57 14.88C26.6 14.86 26.62 14.84 26.65 14.82C26.7 14.78 26.74 14.73 26.78 14.68C26.82 14.63 26.85 14.57 26.88 14.5C26.91 14.43 26.93 14.36 26.95 14.28C26.97 14.2 26.98 14.12 26.99 14.03L27.43 10.4C27.45 10.23 27.48 10.08 27.52 9.92995C27.56 9.77995 27.6 9.64996 27.66 9.52996C27.72 9.40996 27.78 9.29997 27.85 9.19997C27.92 9.09997 28 9.01996 28.09 8.93996C28.15 8.88996 28.21 8.84996 28.27 8.80996C28.33 8.76996 28.4 8.73995 28.47 8.70995C28.54 8.67995 28.61 8.64996 28.69 8.62996C28.77 8.60996 28.84 8.58994 28.93 8.57994C28.98 8.57994 29.03 8.56996 29.08 8.55996C29.13 8.54996 29.18 8.55996 29.23 8.55996C29.28 8.55996 29.34 8.55996 29.39 8.55996C29.44 8.55996 29.5 8.55997 29.56 8.56997L29.9 8.59996C29.9 8.59996 29.94 8.59996 29.96 8.59996C29.98 8.59996 30 8.59996 30.02 8.59996C30.04 8.59996 30.06 8.59996 30.08 8.59996C30.1 8.59996 30.12 8.59996 30.14 8.59996C30.18 8.59996 30.22 8.58994 30.25 8.57994C30.28 8.56994 30.32 8.55997 30.35 8.53997C30.38 8.51997 30.41 8.50995 30.44 8.48995C30.47 8.46995 30.5 8.44997 30.52 8.41997C30.56 8.37997 30.59 8.33997 30.62 8.28997C30.65 8.23997 30.67 8.18997 30.7 8.13997C30.73 8.08997 30.74 8.02995 30.75 7.95995C30.76 7.88995 30.77 7.82997 30.78 7.75997C30.78 7.67997 30.78 7.60995 30.78 7.54995C30.78 7.48995 30.77 7.41994 30.76 7.35994C30.75 7.29994 30.73 7.24997 30.71 7.19997C30.69 7.14997 30.67 7.09996 30.64 7.05996C30.61 7.01996 30.58 6.97997 30.55 6.94997C30.52 6.91997 30.48 6.88994 30.44 6.85994C30.4 6.82994 30.36 6.81995 30.31 6.79995C30.26 6.77995 30.22 6.77995 30.16 6.76995C30.08 6.76995 30.01 6.74996 29.93 6.74996C29.85 6.74996 29.78 6.74996 29.71 6.74996C29.64 6.74996 29.57 6.74996 29.5 6.74996C29.43 6.74996 29.36 6.75995 29.3 6.76995C29.22 6.77995 29.14 6.79996 29.07 6.80996C29 6.81996 28.92 6.84995 28.85 6.86995C28.78 6.88995 28.71 6.91997 28.64 6.94997C28.57 6.97997 28.51 7.00995 28.45 7.04995C28.37 7.09995 28.29 7.14995 28.22 7.20995C28.15 7.26995 28.08 7.33996 28.01 7.40996C27.94 7.47996 27.88 7.55995 27.82 7.64995C27.76 7.73995 27.7 7.82995 27.65 7.92995L27.72 7.38997C27.72 7.29997 27.73 7.20996 27.73 7.12996C27.73 7.04996 27.73 6.96995 27.71 6.89995C27.69 6.82995 27.68 6.75997 27.66 6.69997C27.64 6.63997 27.61 6.57995 27.57 6.51995C27.54 6.46995 27.5 6.41995 27.45 6.36995C27.4 6.31995 27.36 6.28996 27.3 6.24996C27.24 6.20996 27.19 6.18996 27.12 6.15996C27.05 6.12996 26.99 6.10996 26.92 6.09996C26.89 6.09996 26.85 6.08994 26.82 6.07994C26.79 6.06994 26.76 6.07994 26.73 6.07994C26.7 6.07994 26.67 6.07994 26.64 6.07994C26.61 6.07994 26.58 6.07994 26.56 6.07994" fill="#C4D600"/>
<path d="M31.8 13.43C31.8 13.43 31.7201 13.4499 31.6801 13.4599C31.6401 13.4699 31.6001 13.49 31.5701 13.51C31.5401 13.53 31.5001 13.55 31.4601 13.57C31.4201 13.59 31.39 13.62 31.36 13.65C31.3 13.7 31.2501 13.75 31.2101 13.81C31.1701 13.87 31.1201 13.94 31.0901 14.01C31.0601 14.08 31.0301 14.1599 31.0001 14.2399C30.9701 14.3199 30.9601 14.41 30.9501 14.5C30.9401 14.6 30.9401 14.69 30.9401 14.78C30.9401 14.87 30.9501 14.95 30.9701 15.04C30.9901 15.13 31.0101 15.2 31.0401 15.28C31.0701 15.36 31.1101 15.43 31.1501 15.5C31.1901 15.57 31.2401 15.63 31.2901 15.69C31.3401 15.75 31.4001 15.79 31.4601 15.84C31.5201 15.89 31.5901 15.92 31.6601 15.94C31.7301 15.96 31.8101 15.99 31.8901 16C31.9301 16 31.9601 16.01 32.0001 16.01C32.0401 16.01 32.0701 16.01 32.1001 16.01C32.1301 16.01 32.1701 16.01 32.2001 16.01C32.2301 16.01 32.2601 16.01 32.2901 16C32.3301 16 32.3701 15.98 32.4101 15.97C32.4501 15.96 32.4901 15.94 32.5201 15.92C32.5501 15.9 32.5901 15.8799 32.6301 15.8599C32.6701 15.8399 32.7001 15.81 32.7301 15.78C32.7801 15.73 32.8301 15.6699 32.8801 15.6099C32.9301 15.5499 32.9601 15.48 32.9901 15.41C33.0201 15.34 33.0501 15.26 33.0701 15.17C33.0901 15.08 33.1101 15 33.1201 14.9C33.1301 14.81 33.1401 14.72 33.1301 14.64C33.1201 14.56 33.1201 14.47 33.1001 14.39C33.0801 14.31 33.0601 14.23 33.0401 14.16C33.0201 14.09 32.9801 14.02 32.9401 13.95C32.9001 13.88 32.85 13.8199 32.8 13.7699C32.75 13.7199 32.6901 13.67 32.6301 13.63C32.5701 13.59 32.5001 13.55 32.4201 13.53C32.3401 13.51 32.2701 13.4799 32.1801 13.4599C32.1401 13.4599 32.11 13.45 32.08 13.44C32.05 13.43 32.0101 13.44 31.9801 13.44C31.9501 13.44 31.9101 13.44 31.8801 13.44C31.8501 13.44 31.8201 13.44 31.7901 13.45M32.9101 3.73995C32.9101 3.73995 32.8201 3.74995 32.7801 3.76995C32.7401 3.78995 32.7001 3.79997 32.6601 3.81997C32.6201 3.83997 32.59 3.85997 32.55 3.88997C32.51 3.91997 32.4801 3.93996 32.4501 3.96996C32.4001 4.01996 32.3501 4.07995 32.3101 4.14995C32.2701 4.21995 32.2301 4.28995 32.2001 4.36995C32.1701 4.44995 32.1501 4.53996 32.1301 4.62996C32.1101 4.71996 32.1001 4.81995 32.1001 4.92995L31.7801 11.53C31.7801 11.59 31.7801 11.65 31.7801 11.7099C31.7801 11.7699 31.79 11.82 31.8 11.87C31.81 11.92 31.8201 11.9699 31.8401 12.0199C31.8601 12.0699 31.8801 12.11 31.9001 12.15C31.9201 12.19 31.9401 12.22 31.9701 12.25C32.0001 12.28 32.0301 12.3099 32.0601 12.3299C32.0901 12.3499 32.1301 12.37 32.1701 12.39C32.2101 12.41 32.25 12.42 32.3 12.43C32.32 12.43 32.3301 12.43 32.3501 12.43C32.3701 12.43 32.3801 12.43 32.4001 12.43C32.4201 12.43 32.4301 12.43 32.4501 12.43C32.4701 12.43 32.4801 12.43 32.5001 12.43C32.5201 12.43 32.5501 12.43 32.5701 12.41C32.5901 12.39 32.6101 12.39 32.6301 12.38C32.6501 12.37 32.6701 12.36 32.6901 12.34C32.7101 12.32 32.7301 12.31 32.7501 12.29C32.7801 12.26 32.8 12.23 32.83 12.19C32.86 12.15 32.8801 12.11 32.9001 12.06C32.9201 12.01 32.9401 11.96 32.9501 11.91C32.9601 11.86 32.9801 11.7999 32.9901 11.7399L34.1601 5.35994C34.1801 5.25994 34.1901 5.15997 34.2001 5.06997C34.2101 4.97997 34.2001 4.88995 34.2001 4.79995C34.2001 4.70995 34.1801 4.62995 34.1501 4.54995C34.1201 4.46995 34.1001 4.38997 34.0601 4.31997C34.0201 4.24997 33.9801 4.17995 33.9301 4.11995C33.8801 4.05995 33.8301 4.00995 33.7601 3.95995C33.6901 3.90995 33.6301 3.86995 33.5601 3.83995C33.4901 3.80995 33.4101 3.77997 33.3201 3.75997C33.2801 3.75997 33.2501 3.73995 33.2101 3.73995C33.1701 3.73995 33.14 3.73997 33.11 3.72997C33.08 3.71997 33.0401 3.72997 33.0101 3.72997C32.9801 3.72997 32.9501 3.72997 32.9201 3.72997" fill="#C4D600"/>
<path d="M53.63 1.98999L53.34 2L52.14 2.01001L52.17 21.95L54.36 22.08L53.63 1.98999Z" fill="#C4D600"/>
<path d="M41.7 16.86L61.24 16.53C61.51 16.52 61.75 16.36 61.87 16.11C62.31 15.16 63.32 12.57 63.32 8.71C63.32 4.95 62.36 3.06002 61.9 2.38002C61.77 2.19002 61.55 2.07001 61.32 2.06001L41.84 1.03001C41.3 1.01001 40.93 1.56 41.15 2.05C41.63 3.14 42.22 5.14002 42.22 8.29002C42.22 11.84 41.47 14.52 40.98 15.89C40.81 16.38 41.18 16.88 41.7 16.86Z" fill="#C4D600"/>
<path d="M51.36 11.64L48.59 10.29C48.51 10.25 48.46 10.19 48.43 10.1C48.4 10.02 48.4101 9.92999 48.4501 9.85999L48.72 9.31C48.76 9.23 48.82 9.17999 48.91 9.14999C48.99 9.11999 49.07 9.13001 49.13 9.17001L52.78 10.93L56.43 9.17001C56.49 9.13001 56.57 9.11999 56.65 9.14999C56.73 9.17999 56.8 9.23 56.84 9.31L57.11 9.85999C57.15 9.93999 57.15 10.02 57.13 10.1C57.1 10.18 57.05 10.25 56.97 10.29L54.2001 11.64L56.97 12.99C57.05 13.03 57.1 13.09 57.13 13.18C57.16 13.26 57.15 13.35 57.11 13.42L56.84 13.97C56.8 14.05 56.74 14.1 56.65 14.13C56.56 14.16 56.49 14.15 56.43 14.11L52.78 12.35L49.13 14.11C49.06 14.15 48.99 14.16 48.91 14.13C48.82 14.1 48.76 14.05 48.72 13.97L48.4501 13.42C48.4101 13.34 48.4 13.26 48.43 13.18C48.46 13.1 48.51 13.03 48.59 12.99L51.36 11.64ZM54.33 9.28C54.36 9.41 54.33 9.52 54.27 9.62C54.2 9.72 54.12 9.76999 54.02 9.76999H51.56C51.45 9.76999 51.37 9.72 51.3 9.62C51.23 9.52 51.2001 9.41 51.2301 9.28L51.35 8.76999C50.93 8.54999 50.6 8.25 50.35 7.87C50.1 7.49 49.9801 7.08001 49.9801 6.64001C49.9801 5.95001 50.25 5.36 50.8 4.87C51.35 4.38 52.0101 4.14001 52.7901 4.14001C53.5701 4.14001 54.24 4.38 54.78 4.87C55.32 5.36 55.6 5.95001 55.6 6.64001C55.6 7.08001 55.4801 7.49 55.2301 7.87C54.9801 8.25 54.6501 8.54999 54.2301 8.76999L54.33 9.28ZM51.07 6.95999C51.07 7.12999 51.1301 7.27999 51.2601 7.39999C51.3801 7.51999 51.5301 7.59 51.7001 7.59C51.8701 7.59 52.0101 7.52999 52.1401 7.39999C52.2601 7.27999 52.33 7.12999 52.33 6.95999C52.33 6.78999 52.2701 6.63999 52.1401 6.51999C52.0201 6.39999 51.8701 6.32999 51.7001 6.32999C51.5301 6.32999 51.3801 6.38999 51.2601 6.51999C51.1401 6.63999 51.07 6.78999 51.07 6.95999ZM53.2601 6.95999C53.2601 7.12999 53.3201 7.27999 53.4501 7.39999C53.5701 7.51999 53.7201 7.59 53.8901 7.59C54.0601 7.59 54.2 7.52999 54.33 7.39999C54.45 7.27999 54.52 7.12999 54.52 6.95999C54.52 6.78999 54.46 6.63999 54.33 6.51999C54.21 6.39999 54.0601 6.32999 53.8901 6.32999C53.7201 6.32999 53.5701 6.38999 53.4501 6.51999C53.3301 6.63999 53.2601 6.78999 53.2601 6.95999Z" fill="white"/>
<path d="M38.12 21.72C37.97 21.19 38.37 20.66 38.93 20.66H66.88C67.43 20.66 67.84 21.19 67.69 21.72L67.48 22.47C66.66 25.37 64.03 27.36 61.02 27.36H44.79C41.78 27.36 39.15 25.37 38.33 22.48L38.12 21.73V21.72Z" fill="#C4D600"/>
</svg>
