<svg width="31" height="27" viewBox="0 0 31 27" fill="none" xmlns="http://www.w3.org/2000/svg">
<path d="M16.17 0.950012L15.88 0.960012L14.68 0.970012L14.71 20.92L16.9 21.05L16.17 0.950012Z" fill="#C4D600"/>
<path d="M4.23996 15.83L23.78 15.5C24.05 15.49 24.29 15.33 24.41 15.08C24.85 14.13 25.86 11.54 25.86 7.68001C25.86 3.92001 24.9 2.03001 24.44 1.35001C24.31 1.16001 24.09 1.04001 23.86 1.03001L4.38996 1.09693e-05C3.84996 -0.019989 3.47997 0.530011 3.69997 1.02001C4.17997 2.11001 4.76997 4.11001 4.76997 7.26001C4.76997 10.81 4.01997 13.49 3.52997 14.86C3.35997 15.35 3.72997 15.85 4.24997 15.83H4.23996Z" fill="#C4D600"/>
<path d="M13.9 10.6L11.13 9.25001C11.05 9.21001 11 9.15001 10.97 9.06001C10.94 8.97001 10.95 8.89001 10.99 8.82001L11.26 8.27001C11.3 8.19001 11.36 8.14001 11.45 8.11001C11.54 8.08001 11.61 8.09001 11.67 8.13001L15.32 9.89001L18.97 8.13001C19.04 8.09001 19.11 8.08001 19.19 8.11001C19.27 8.14001 19.34 8.19001 19.38 8.27001L19.65 8.82001C19.69 8.90001 19.7 8.98001 19.67 9.06001C19.64 9.14001 19.59 9.21001 19.51 9.25001L16.74 10.6L19.51 11.95C19.59 11.99 19.64 12.05 19.67 12.14C19.7 12.23 19.69 12.31 19.65 12.38L19.38 12.93C19.34 13.01 19.28 13.06 19.19 13.09C19.1 13.12 19.03 13.11 18.97 13.07L15.32 11.31L11.67 13.07C11.6 13.11 11.53 13.12 11.45 13.09C11.37 13.06 11.3 13.01 11.26 12.93L10.99 12.38C10.95 12.3 10.94 12.22 10.97 12.14C11 12.06 11.05 11.99 11.13 11.95L13.9 10.6ZM16.87 8.24001C16.9 8.37001 16.87 8.48001 16.81 8.58001C16.75 8.68001 16.66 8.73001 16.56 8.73001H14.1C14 8.73001 13.91 8.68001 13.84 8.58001C13.77 8.48001 13.75 8.37001 13.77 8.24001L13.89 7.73001C13.47 7.51001 13.14 7.21001 12.89 6.83001C12.64 6.45001 12.52 6.04001 12.52 5.60001C12.52 4.91001 12.79 4.32001 13.34 3.83001C13.89 3.34001 14.55 3.10001 15.33 3.10001C16.11 3.10001 16.78 3.34001 17.32 3.83001C17.86 4.32001 18.14 4.91001 18.14 5.60001C18.14 6.04001 18.02 6.45001 17.77 6.83001C17.52 7.21001 17.19 7.51001 16.77 7.73001L16.87 8.24001ZM13.61 5.92001C13.61 6.09001 13.67 6.24001 13.8 6.36001C13.93 6.48001 14.07 6.55001 14.24 6.55001C14.41 6.55001 14.56 6.49001 14.68 6.36001C14.8 6.23001 14.87 6.09001 14.87 5.92001C14.87 5.75001 14.81 5.60001 14.68 5.48001C14.55 5.36001 14.41 5.29001 14.24 5.29001C14.07 5.29001 13.92 5.35001 13.8 5.48001C13.68 5.61001 13.61 5.75001 13.61 5.92001ZM15.8 5.92001C15.8 6.09001 15.86 6.24001 15.99 6.36001C16.12 6.48001 16.26 6.55001 16.43 6.55001C16.6 6.55001 16.75 6.49001 16.87 6.36001C16.99 6.23001 17.06 6.09001 17.06 5.92001C17.06 5.75001 17 5.60001 16.87 5.48001C16.74 5.36001 16.6 5.29001 16.43 5.29001C16.26 5.29001 16.11 5.35001 15.99 5.48001C15.87 5.61001 15.8 5.75001 15.8 5.92001Z" fill="white"/>
<path d="M0.659985 20.68C0.509985 20.15 0.909985 19.62 1.46998 19.62H29.42C29.97 19.62 30.38 20.15 30.23 20.68L30.02 21.43C29.2 24.33 26.57 26.32 23.56 26.32H7.32999C4.31999 26.32 1.68999 24.33 0.869985 21.44L0.659985 20.69V20.68Z" fill="#C4D600"/>
</svg>
