<svg width="10" height="6" viewBox="0 0 10 6" fill="none" xmlns="http://www.w3.org/2000/svg">
<g clip-path="url(#clip0_2253_345)">
<path d="M9.77003 2.28C9.75003 2.2 9.67003 1.98 9.64003 1.9L9.55003 1.64V1.62C9.60003 1.55 9.90003 1.15 9.96003 1.06C10.08 0.910002 9.96003 0.670002 9.77003 0.670002C9.63003 0.670002 9.35003 0.670002 9.21003 0.670002H9.07003C9.07003 0.670002 9.06003 0.670002 9.05003 0.670002C8.92003 0.480002 8.79003 0.300002 8.66003 0.110002C8.65003 0.0900024 8.64003 0.0800024 8.62003 0.0700024C8.50003 -0.0399976 8.29003 2.42889e-06 8.24003 0.150002C8.24003 0.170002 8.19003 0.300002 8.18003 0.320002C8.14003 0.440002 8.07003 0.660002 8.03003 0.790002V0.820002H8.02003H8.01003L7.98003 0.830002C7.80003 0.880002 7.55003 0.950002 7.38003 1.01C7.17003 1.06 7.12003 1.34 7.29003 1.47C7.37003 1.53 7.76003 1.81 7.84003 1.87C7.84003 1.91 7.84003 2.17 7.84003 2.22C7.84003 2.28 7.84003 2.53 7.84003 2.58C7.85003 2.78 8.09003 2.9 8.26003 2.78C8.40003 2.68 8.54003 2.58 8.67003 2.48C8.70003 2.46 8.78003 2.4 8.82003 2.37C9.01003 2.43 9.25003 2.52 9.44003 2.58C9.65003 2.67 9.87003 2.48 9.81003 2.26L9.77003 2.28Z" fill="#9B9B9B"/>
<path d="M1.59998 2.44C1.55998 2.33 1.49998 2.16 1.45998 2.05C1.45998 2.03 1.45998 2.04 1.45998 2.03C1.48998 1.99 1.66998 1.74 1.70998 1.69C1.77998 1.6 1.70998 1.46 1.59998 1.47C1.50998 1.47 1.33998 1.47 1.24998 1.47H1.16998H1.15998C1.13998 1.44 0.949985 1.16 0.929985 1.14C0.869985 1.03 0.709985 1.03 0.659985 1.14C0.629985 1.21 0.549985 1.48 0.519985 1.56L0.239985 1.64L0.159985 1.66C0.159985 1.66 0.0799847 1.68 0.0499847 1.71C-0.0300153 1.78 -0.0200153 1.9 0.0599847 1.96L0.0799847 1.98C0.169985 2.05 0.259985 2.12 0.359985 2.18L0.389985 2.21C0.389985 2.32 0.389985 2.49 0.389985 2.6V2.62V2.63C0.389985 2.75 0.519985 2.84 0.629985 2.79C0.659985 2.78 0.679985 2.76 0.699985 2.74C0.739985 2.71 0.859985 2.62 0.909985 2.59C0.929985 2.58 0.979985 2.54 0.999985 2.52C1.10998 2.56 1.26998 2.61 1.37998 2.65C1.50998 2.71 1.63998 2.59 1.59998 2.45V2.44Z" fill="#9B9B9B"/>
<path d="M5.96002 4.83C5.96002 4.83 5.77002 4.69 5.72002 4.66L5.55002 4.54C5.55002 4.45 5.55002 4.12 5.55002 4.05C5.55002 3.94 5.46002 3.84 5.35002 3.85C5.31002 3.85 5.28002 3.86 5.25002 3.88C5.13002 3.96 5.03002 4.04 4.91002 4.12C4.91002 4.12 4.82002 4.18 4.83002 4.17H4.82002C4.75002 4.14 4.40002 3.99 4.35002 3.97C4.20002 3.92 4.05002 4.07 4.09002 4.22V4.24L4.12002 4.34L4.21002 4.69C4.11002 4.81 3.98002 4.95 3.88002 5.07C3.76002 5.21 3.86002 5.44 4.04002 5.47C4.20002 5.48 4.36002 5.49 4.52002 5.5H4.54002C4.58002 5.56 4.64002 5.66 4.66002 5.69C4.68002 5.72 4.78002 5.88 4.80002 5.91C4.90002 6.07 5.16002 6.06 5.25002 5.89C5.26002 5.87 5.27002 5.85 5.27002 5.84C5.32002 5.7 5.37002 5.54 5.42002 5.4C5.56002 5.36 5.72002 5.31 5.85002 5.27C6.05002 5.23 6.12002 4.97 5.96002 4.84V4.83Z" fill="#9B9B9B"/>
</g>
<defs>
<clipPath id="clip0_2253_345">
<rect width="10" height="6.01" fill="white"/>
</clipPath>
</defs>
</svg>
