<svg width="23" height="20" viewBox="0 0 23 20" fill="currentColor" xmlns="http://www.w3.org/2000/svg">
<path d="M10.8971 13.691L11.8687 9.10528L13.703 9.49393L12.1484 16.831C12.0391 17.3469 11.5241 17.6571 11.0369 17.5539L3.69979 15.9993C3.1839 15.89 2.86767 15.4037 2.97697 14.8878L4.53157 7.55069L6.36585 7.93933L5.39422 12.525L10.8971 13.691ZM21.36 8.69058C21.6337 9.37747 21.0338 10.0889 20.3173 9.93706L3.80875 6.43922C3.06358 6.28133 2.8037 5.38775 3.33247 4.87089L6.54592 1.71851C6.77254 1.497 7.09558 1.38576 7.41085 1.45256L19.0184 3.91198C19.3337 3.97878 19.5838 4.21147 19.7011 4.50585L21.36 8.69058ZM15.7198 18.0669L17.3715 10.2712L19.2058 10.6599L17.554 18.4556C17.4994 18.7135 17.2276 18.8655 16.9983 18.817L16.0812 18.6226C15.8232 18.568 15.6651 18.3249 15.7198 18.0669Z"/>
</svg>
