<svg width="35" height="25" viewBox="0 0 35 25" fill="none" xmlns="http://www.w3.org/2000/svg">
<path d="M30.4099 0.559998H4.40991C2.47692 0.559998 0.909912 2.127 0.909912 4.06V20.06C0.909912 21.993 2.47692 23.56 4.40991 23.56H30.4099C32.3429 23.56 33.9099 21.993 33.9099 20.06V4.06C33.9099 2.127 32.3429 0.559998 30.4099 0.559998Z" fill="#0D5D9D"/>
<path d="M30.4099 0.559998H4.40991C2.47692 0.559998 0.909912 2.127 0.909912 4.06V20.06C0.909912 21.993 2.47692 23.56 4.40991 23.56H30.4099C32.3429 23.56 33.9099 21.993 33.9099 20.06V4.06C33.9099 2.127 32.3429 0.559998 30.4099 0.559998Z" stroke="#DFE3E6"/>
<path d="M6.83987 9.15998C6.20987 9.15998 5.66987 9.03998 5.22987 8.79998C4.78987 8.55998 4.45987 8.22998 4.22987 7.79998C3.99987 7.36998 3.87988 6.85998 3.87988 6.27998C3.87988 5.82998 3.94988 5.42998 4.07988 5.06998C4.20988 4.70998 4.40988 4.39999 4.66988 4.14999C4.92988 3.88999 5.23988 3.68999 5.60988 3.55999C5.97988 3.42999 6.39987 3.35999 6.86987 3.35999C7.15987 3.35999 7.44987 3.38999 7.72987 3.44999C8.01987 3.50999 8.29988 3.61999 8.55988 3.76999C8.66988 3.83999 8.74987 3.91999 8.78987 4.01999C8.82987 4.11999 8.83989 4.21999 8.81989 4.32999C8.79989 4.43999 8.75988 4.52999 8.68988 4.60999C8.61988 4.68999 8.53987 4.74999 8.42987 4.76999C8.32987 4.79999 8.20989 4.76998 8.06989 4.70998C7.88989 4.60998 7.70987 4.53999 7.50987 4.48999C7.30987 4.43999 7.08987 4.41998 6.86987 4.41998C6.48987 4.41998 6.17988 4.48998 5.91988 4.63998C5.66988 4.77998 5.47988 4.98999 5.34988 5.26999C5.21988 5.54999 5.15988 5.87998 5.15988 6.27998C5.15988 6.87998 5.30988 7.33999 5.59988 7.64999C5.88988 7.95999 6.31988 8.10999 6.88988 8.10999C7.07988 8.10999 7.26987 8.08998 7.47987 8.04998C7.68987 8.00998 7.88988 7.95998 8.07988 7.88998L7.84988 8.39999V6.85999H7.12988C6.96988 6.85999 6.84987 6.81999 6.75987 6.73999C6.67987 6.65999 6.62988 6.54999 6.62988 6.39999C6.62988 6.24999 6.66987 6.14999 6.75987 6.07999C6.84987 5.99999 6.96988 5.95998 7.12988 5.95998H8.37988C8.53988 5.95998 8.65988 5.99998 8.74988 6.08998C8.83988 6.17998 8.87988 6.29999 8.87988 6.44999V8.30999C8.87988 8.44999 8.84988 8.56998 8.79988 8.66998C8.74988 8.76998 8.64988 8.82998 8.52988 8.86998C8.28988 8.94998 8.01988 9.01998 7.71988 9.06998C7.41988 9.11998 7.11988 9.14999 6.82988 9.14999L6.83987 9.15998Z" fill="white"/>
<path d="M10.88 4.43997C10.66 4.43997 10.49 4.38997 10.38 4.27997C10.26 4.16997 10.2 4.01997 10.2 3.81997C10.2 3.61997 10.26 3.47997 10.38 3.37997C10.5 3.27997 10.67 3.21997 10.88 3.21997C11.09 3.21997 11.2799 3.26997 11.3999 3.37997C11.5199 3.47997 11.58 3.62997 11.58 3.81997C11.58 4.00997 11.5199 4.16997 11.3999 4.27997C11.2799 4.38997 11.11 4.43997 10.88 4.43997ZM10.88 9.13997C10.69 9.13997 10.55 9.07997 10.44 8.96997C10.33 8.85997 10.28 8.68997 10.28 8.48997V5.74997C10.28 5.53997 10.33 5.36997 10.44 5.26997C10.55 5.15997 10.69 5.10997 10.88 5.10997C11.08 5.10997 11.23 5.15997 11.33 5.26997C11.43 5.37997 11.49 5.53997 11.49 5.74997V8.48997C11.49 8.69997 11.44 8.85997 11.34 8.96997C11.24 9.07997 11.09 9.13997 10.88 9.13997Z" fill="white"/>
<path d="M13.7399 9.14996C13.5399 9.14996 13.3899 9.09996 13.2899 8.98996C13.1899 8.87996 13.1299 8.73996 13.1299 8.53996V6.04995H12.8399C12.6899 6.04995 12.5799 6.00996 12.4999 5.92996C12.4199 5.84996 12.3799 5.73995 12.3799 5.59995C12.3799 5.45995 12.4199 5.34996 12.4999 5.26996C12.5799 5.19996 12.6899 5.15995 12.8399 5.15995H13.4799L13.1299 5.47995V5.21996C13.1299 4.64996 13.2699 4.22995 13.5599 3.93995C13.8499 3.64995 14.2699 3.47995 14.8199 3.41995L15.0799 3.39996C15.2199 3.37996 15.3299 3.39995 15.4099 3.45995C15.4899 3.50995 15.5499 3.57995 15.5799 3.66995C15.6099 3.75995 15.6199 3.83996 15.5999 3.92996C15.5799 4.01996 15.5399 4.09995 15.4799 4.15995C15.4199 4.21995 15.3499 4.25996 15.2599 4.26996H15.1499C14.8599 4.29996 14.6599 4.36995 14.5299 4.47995C14.4099 4.58995 14.3499 4.76995 14.3499 4.99995V5.27995L14.2099 5.14996H14.9299C15.0799 5.14996 15.1899 5.18995 15.2699 5.25995C15.3499 5.33995 15.3899 5.43995 15.3899 5.58996C15.3899 5.73996 15.3499 5.83995 15.2699 5.91995C15.1899 5.99995 15.0699 6.03996 14.9299 6.03996H14.3499V8.52995C14.3499 8.93995 14.1499 9.13995 13.7499 9.13995L13.7399 9.14996Z" fill="white"/>
<path d="M17.9698 9.15999C17.5998 9.15999 17.2898 9.09999 17.0498 8.97999C16.8098 8.85999 16.6198 8.67999 16.4998 8.44999C16.3798 8.21999 16.3198 7.91999 16.3198 7.55999V6.04999H15.9698C15.8298 6.04999 15.7098 6.00999 15.6298 5.92999C15.5498 5.84999 15.5098 5.73999 15.5098 5.59999C15.5098 5.45999 15.5498 5.34999 15.6298 5.26999C15.7098 5.19999 15.8298 5.15999 15.9698 5.15999H16.3198V4.53999C16.3198 4.33999 16.3698 4.18999 16.4798 4.07999C16.5798 3.97999 16.7298 3.92999 16.9198 3.92999C17.1098 3.92999 17.2698 3.97999 17.3698 4.07999C17.4698 4.17999 17.5298 4.32999 17.5298 4.53999V5.15999H18.2698C18.4298 5.15999 18.5398 5.19999 18.6198 5.26999C18.6998 5.34999 18.7398 5.44999 18.7398 5.59999C18.7398 5.74999 18.6998 5.84999 18.6198 5.92999C18.5398 6.00999 18.4198 6.04999 18.2698 6.04999H17.5298V7.50999C17.5298 7.72999 17.5798 7.89999 17.6798 8.00999C17.7798 8.11999 17.9498 8.16999 18.1798 8.16999C18.2598 8.16999 18.3398 8.16999 18.4098 8.14999C18.4798 8.12999 18.5398 8.12999 18.5898 8.12999C18.6598 8.12999 18.7298 8.14999 18.7798 8.19999C18.8298 8.24999 18.8598 8.35999 18.8598 8.52999C18.8598 8.65999 18.8398 8.77999 18.7998 8.86999C18.7598 8.96999 18.6798 9.02999 18.5698 9.06999C18.4998 9.08999 18.3998 9.10999 18.2798 9.12999C18.1598 9.14999 18.0598 9.15999 17.9798 9.15999H17.9698Z" fill="white"/>
<g clip-path="url(#clip0_2147_420)">
<path d="M15.3 21.1563L15.6712 26.8965L21.232 30.7722L26.8761 27.3242L27.1064 21.1755L24.7835 19.8729L21.2768 18.1426" fill="#F79366"/>
<path d="M20.989 18.3917L15.3001 21.1564L12.1006 15.4673L18.1925 13.0474L20.989 18.3917Z" fill="#E12726"/>
<path d="M12.1006 15.4673L18.1989 13.009L20.989 18.3916L15.3001 21.1563L12.1006 15.4673Z" fill="url(#paint0_linear_2147_420)"/>
<path d="M26.8763 27.3242L21.2322 30.7721L21.2258 24.2402L27.1066 21.1754L26.8763 27.3242Z" fill="url(#paint1_linear_2147_420)"/>
<path d="M15.3 21.1564L21.2256 24.2403L21.232 30.7722L15.6712 26.8965L15.3 21.1564Z" fill="url(#paint2_linear_2147_420)"/>
<path d="M15.5816 21.1947L21.2256 24.119L26.8633 21.1755L24.7516 19.956L21.3024 18.3406L15.5112 21.15" fill="url(#paint3_linear_2147_420)"/>
<path d="M17.6295 23.2443C17.6295 23.7678 17.2199 24.0871 16.7144 23.9658C16.2089 23.8445 15.7993 23.3337 15.7993 22.8292C15.7993 22.3248 16.2089 21.9992 16.7144 22.1077C17.2199 22.2163 17.6295 22.7271 17.6295 23.2443Z" fill="url(#paint4_linear_2147_420)"/>
<path d="M26.6842 23.57C26.6842 24.4894 25.9291 25.5238 24.9948 25.8813C24.0605 26.2389 23.3054 25.7792 23.3054 24.8534C23.3054 23.9275 24.0605 22.8932 24.9948 22.542C25.9291 22.1908 26.6842 22.6505 26.6842 23.57Z" fill="url(#paint5_linear_2147_420)"/>
<path d="M20.6306 14.7456L20.2786 14.8797C20.2211 14.9117 20.1635 14.9372 20.1059 14.9627C19.8307 15.084 19.5619 15.2054 19.2868 15.3267C19.178 15.3778 18.89 15.4863 18.7045 15.5629C18.6085 15.6012 18.5381 15.6268 18.5381 15.6268L18.986 16.7569L19.1588 16.6739V16.6867L19.5619 16.5973C19.7603 16.5526 19.9651 16.5143 20.1635 16.4632L20.4258 16.4121L20.605 15.5118L20.7394 14.7584L20.6434 14.7393L20.6306 14.7456Z" fill="url(#paint6_linear_2147_420)"/>
<path d="M27.5609 18.1617L25.5195 16.9358L26.633 15.8758L26.6714 15.8248L26.7354 15.7098L28.3543 17.0379" fill="url(#paint7_linear_2147_420)"/>
<path d="M24.6812 22.3119L24.5148 21.7245L25.0907 21.0285L24.8731 20.1921L25.4363 19.4514L25.2187 18.6278L20.4897 17.9254L20.0098 18.6405L20.2402 19.5025L19.6514 20.2113L19.8882 21.1307L19.3443 21.7373L19.5235 22.5354L19.3379 23.1484C19.5939 23.2761 21.232 24.1253 21.232 24.1253C21.232 24.1253 24.6684 22.3247 24.6812 22.3183V22.3119Z" fill="url(#paint8_linear_2147_420)"/>
<path d="M20.0164 18.6342L25.4364 19.4451L24.8733 20.1922L20.2403 19.4962" fill="url(#paint9_linear_2147_420)"/>
<path d="M19.6516 20.1985L25.0909 21.0285L24.5149 21.7245L19.8948 21.1243" fill="url(#paint10_linear_2147_420)"/>
<path d="M19.3508 21.75L24.4829 22.4204L23.3567 23.0079L19.53 22.5481" fill="url(#paint11_linear_2147_420)"/>
<path d="M28.9367 20.339C28.6999 20.2049 28.6231 19.9368 28.5591 19.7133V19.6941C28.4951 19.5026 28.4311 19.2983 28.2968 19.1195C28.2008 18.9854 28.0344 18.7491 27.9448 18.6151C27.9448 18.6151 27.9448 18.6087 27.9384 18.6023C27.7656 18.6917 27.6249 18.6534 27.5289 18.5959C27.2921 18.449 27.4201 18.1681 27.4777 18.034C27.6313 17.6956 27.8808 17.3253 28.156 17.038C28.284 16.9039 28.4759 16.6995 28.7063 16.8592C28.8279 16.9422 28.8791 17.0443 28.8663 17.172C28.8983 17.172 28.9239 17.1784 28.9559 17.1848C29.0903 17.204 29.231 17.2167 29.3654 17.2231C29.5446 17.2359 29.7302 17.2103 29.9349 17.1465L29.9861 17.1337C30.1845 17.0763 30.4021 17.006 30.626 17.0826C30.8692 17.1657 31.042 17.4019 31.0292 17.6509C31.0164 17.8552 30.882 17.9766 30.754 18.0404C30.8372 18.0723 30.9268 18.1106 31.01 18.1553C31.2404 18.2766 31.3875 18.4363 31.4387 18.6151C31.5027 18.8321 31.4131 19.0556 31.2276 19.1769C31.0676 19.2791 30.85 19.2919 30.6004 19.2089C30.5812 19.2089 30.562 19.1961 30.5493 19.1897C30.69 19.3621 30.754 19.5345 30.7412 19.7005C30.722 19.9112 30.5748 20.0836 30.3765 20.1347C30.1973 20.1794 30.0117 20.1219 29.8198 19.9623C29.775 19.924 29.7366 19.8921 29.6982 19.8538C29.6982 19.9623 29.6854 20.0645 29.6214 20.1666C29.5062 20.3518 29.2758 20.4348 29.0775 20.3901C29.0327 20.3773 28.9879 20.3646 28.9431 20.339H28.9367ZM29.551 19.3876C29.551 19.3876 29.5638 19.4004 29.5702 19.4068C29.5766 19.4132 29.583 19.4196 29.5894 19.4323C29.6214 19.4643 29.647 19.4962 29.679 19.5281C29.7686 19.6239 29.8517 19.7197 29.9477 19.7963C30.0885 19.9112 30.2101 19.9559 30.3189 19.9304C30.4277 19.9048 30.5173 19.7963 30.5301 19.675C30.5429 19.56 30.4917 19.4387 30.3701 19.2983C30.3253 19.2472 30.2741 19.1961 30.2229 19.145L30.1909 19.1131C30.1909 19.1131 30.1461 19.0748 30.1269 19.0556C30.0757 19.0109 30.0245 18.9662 29.9797 18.9088L29.711 18.5512L30.1077 18.7555C30.1077 18.7555 30.1525 18.7747 30.1653 18.7875L30.2229 18.8194C30.3637 18.896 30.5109 18.9726 30.658 19.0173C30.786 19.062 30.9716 19.0939 31.106 19.0045C31.2148 18.9343 31.266 18.8002 31.2276 18.6725C31.1892 18.5448 31.0804 18.4363 30.9012 18.3405C30.7604 18.2703 30.6068 18.2128 30.4597 18.1617L30.0757 18.0276L30.4085 17.9446C30.4085 17.9446 30.4597 17.9319 30.4853 17.9255C30.7028 17.8616 30.8052 17.7786 30.8116 17.6445C30.818 17.4913 30.7092 17.3381 30.5493 17.287C30.3893 17.2359 30.2101 17.287 30.0373 17.3444L29.9861 17.3572C29.7558 17.4274 29.551 17.453 29.3462 17.4402C29.2054 17.4338 29.0647 17.4147 28.9239 17.3955C28.8535 17.3891 28.7895 17.3764 28.7191 17.37L28.5783 17.3572L28.6295 17.2295C28.6615 17.1465 28.6679 17.0954 28.5783 17.038C28.5079 16.9869 28.4375 17.038 28.2904 17.1912C28.0344 17.4594 27.7912 17.8105 27.6505 18.1298C27.5353 18.3788 27.5865 18.4107 27.6185 18.4299C27.708 18.481 27.7848 18.4746 27.8808 18.3916L27.964 18.3213L28.028 18.4107C28.028 18.4107 28.06 18.4554 28.092 18.5065C28.1816 18.6342 28.348 18.8768 28.4375 19.0045C28.5847 19.2089 28.6615 19.4323 28.7255 19.643V19.6622C28.7831 19.8538 28.8471 20.0708 29.0071 20.1602C29.1414 20.2369 29.327 20.1858 29.4102 20.0581C29.5062 19.9112 29.4358 19.7197 29.3462 19.509L29.1158 18.979L29.5126 19.394L29.551 19.3876Z" fill="black"/>
<path d="M28.7448 17.2614C28.9495 17.2806 29.1607 17.3125 29.3655 17.3253C29.5766 17.3381 29.7686 17.3061 29.9734 17.2487C30.1718 17.1912 30.3893 17.1082 30.6005 17.1784C30.7925 17.2423 30.9397 17.4338 30.9333 17.6445C30.9205 17.868 30.7221 17.9638 30.5301 18.0149C30.5045 18.0213 30.4789 18.0276 30.4533 18.034C30.6261 18.0979 30.8053 18.1553 30.9653 18.2383C31.1252 18.3277 31.2916 18.4491 31.3428 18.6342C31.3876 18.8066 31.3236 18.9854 31.1764 19.0812C31.0165 19.1833 30.8117 19.1578 30.6389 19.1067C30.4597 19.0492 30.2934 18.9535 30.127 18.8705C30.1078 18.8577 30.0886 18.8513 30.0694 18.8385C30.127 18.9152 30.2038 18.9662 30.2678 19.0365C30.3317 19.1003 30.3957 19.1642 30.4533 19.228C30.5621 19.3557 30.6581 19.509 30.6389 19.6814C30.6261 19.841 30.5109 19.9878 30.3509 20.0262C30.1782 20.0709 30.0118 19.9815 29.8838 19.8729C29.7494 19.758 29.6342 19.6239 29.5127 19.4962C29.4999 19.4834 29.4871 19.4643 29.4743 19.4515C29.5575 19.6494 29.6598 19.8921 29.5319 20.0964C29.4167 20.2688 29.1735 20.339 28.9879 20.2369C28.7832 20.1219 28.7128 19.8601 28.6552 19.6494C28.5912 19.4323 28.5208 19.228 28.3864 19.0429C28.252 18.8641 27.9897 18.4682 27.9705 18.4491C27.8937 18.5129 27.7529 18.5959 27.5865 18.4938C27.4649 18.4171 27.4777 18.283 27.5737 18.066C27.7017 17.7786 27.9321 17.4147 28.2328 17.1018C28.3608 16.9677 28.4952 16.8273 28.6488 16.9358C28.8024 17.0443 28.7704 17.1657 28.7384 17.2551L28.7448 17.2614Z" fill="url(#paint12_linear_2147_420)"/>
<path d="M20.1443 17.0251L25.7947 17.8807L25.2188 18.6214L20.4898 17.9191" fill="url(#paint13_linear_2147_420)"/>
<g style="mix-blend-mode:multiply" opacity="0.56">
<path d="M20.7394 15.4673L20.3875 15.6014C20.3299 15.6333 20.2723 15.6588 20.2147 15.6844C19.9395 15.8057 19.6708 15.927 19.3956 16.0483C19.2996 16.093 19.0756 16.1824 18.8965 16.2526C18.8005 16.093 18.6533 15.8632 18.4037 15.9717C18.2694 16.0292 18.1926 16.1186 18.1798 16.2463C18.1478 16.2463 18.1222 16.2463 18.0902 16.2399C17.9558 16.2271 17.815 16.2143 17.6806 16.1952C17.5015 16.1696 17.3287 16.1058 17.1367 16.0036L17.0919 15.9781C16.9127 15.8759 16.7144 15.7674 16.4776 15.7865C16.2216 15.8121 16.0041 16.01 15.9657 16.2526C15.9337 16.457 16.0361 16.5974 16.1512 16.6932C16.0617 16.706 15.9721 16.7251 15.8825 16.7507C15.6265 16.8209 15.4537 16.9422 15.3642 17.1082C15.2554 17.3062 15.2938 17.5488 15.4537 17.702C15.5881 17.8361 15.7993 17.8936 16.0553 17.8681C16.0745 17.8681 16.0937 17.8681 16.1129 17.8617C15.9337 18.0021 15.8377 18.149 15.8185 18.315C15.7929 18.5257 15.9017 18.73 16.0809 18.8194C16.2472 18.9024 16.4392 18.8833 16.6632 18.7683C16.7144 18.7428 16.7592 18.7173 16.804 18.6853C16.7784 18.7875 16.772 18.896 16.8168 19.011C16.8935 19.2153 17.0919 19.343 17.3031 19.343C17.3479 19.343 17.3991 19.3366 17.4439 19.3238C17.7062 19.2472 17.8406 18.9982 17.943 18.7939L17.9558 18.7747C18.0518 18.5959 18.1606 18.4172 18.3269 18.2639C18.4485 18.1554 18.6597 17.9574 18.7749 17.8489C18.7749 17.8489 18.7749 17.8489 18.7813 17.8425C18.9285 17.9702 19.0756 17.9574 19.1844 17.9191C19.4404 17.8297 19.3892 17.5424 19.3572 17.3956L19.6708 17.3253C19.8691 17.2806 20.0739 17.2423 20.2723 17.1912L20.5346 17.1402L20.7138 16.2399L20.8482 15.4864L20.7522 15.4673H20.7394Z" fill="#4D4E4E"/>
</g>
<path d="M20.1506 17.0316L20.4834 16.5208L25.4171 16.9869L25.6603 17.0188L25.7947 17.8808" fill="black"/>
<path d="M17.188 18.615C16.9768 18.615 16.7784 18.4809 16.7017 18.283C16.6569 18.168 16.6633 18.0595 16.6889 17.9573C16.6441 17.9893 16.5929 18.0148 16.5481 18.0403C16.3241 18.1553 16.1321 18.1744 15.9658 18.0914C15.7802 18.002 15.6778 17.7977 15.7034 17.587C15.7226 17.421 15.8186 17.2741 15.9977 17.1337C15.9786 17.1337 15.9594 17.1337 15.9402 17.1401C15.6842 17.1656 15.473 17.1081 15.3386 16.974C15.1787 16.8208 15.1467 16.5782 15.2491 16.3802C15.3386 16.2142 15.5114 16.0929 15.7674 16.0227C15.857 15.9971 15.9466 15.978 16.0361 15.9652C15.921 15.8694 15.8186 15.729 15.8506 15.5246C15.889 15.282 16.1065 15.0841 16.3625 15.0585C16.5929 15.033 16.7976 15.1479 16.9768 15.2501L17.0216 15.2756C17.2136 15.3778 17.3864 15.4416 17.5655 15.4672C17.6999 15.4863 17.8407 15.4991 17.9751 15.5119C18.0071 15.5119 18.0327 15.5119 18.0647 15.5183C18.0775 15.3906 18.1543 15.3012 18.2886 15.2437C18.551 15.1415 18.6918 15.3778 18.7878 15.5374C18.9925 15.8758 19.1653 16.2908 19.2357 16.6548C19.2677 16.8017 19.3317 17.1017 19.0629 17.1911C18.9541 17.2294 18.807 17.2358 18.6598 17.1145C18.6598 17.1145 18.6598 17.1145 18.6534 17.1209C18.5382 17.2294 18.327 17.4274 18.2054 17.5359C18.0391 17.6828 17.9303 17.868 17.8343 18.0467L17.8215 18.0659C17.7127 18.2702 17.5783 18.5192 17.3224 18.5958C17.2776 18.6086 17.2328 18.615 17.1816 18.615H17.188ZM17.412 17.2167L17.0728 17.6828C16.9384 17.8743 16.8296 18.0403 16.8936 18.2064C16.9512 18.3532 17.1176 18.4362 17.2648 18.3979C17.4439 18.3468 17.5463 18.1425 17.6423 17.9701L17.6551 17.951C17.7575 17.7594 17.8791 17.5551 18.0711 17.3891C18.1926 17.2805 18.4038 17.0826 18.519 16.974C18.5638 16.9294 18.6022 16.8974 18.6022 16.891L18.6854 16.8208L18.7558 16.9038C18.8326 16.9996 18.9093 17.0315 19.0053 16.9996C19.0437 16.9868 19.0949 16.9677 19.0373 16.6995C18.9669 16.3611 18.807 15.9652 18.615 15.646C18.5062 15.4608 18.4486 15.4033 18.3718 15.4353C18.2758 15.4736 18.263 15.5246 18.2822 15.614L18.3078 15.7481L18.167 15.7354C18.0967 15.729 18.0327 15.7226 17.9623 15.7162C17.8279 15.7034 17.6807 15.6907 17.5399 15.6651C17.3352 15.6332 17.1432 15.563 16.932 15.448L16.8872 15.4225C16.7272 15.3331 16.5673 15.2437 16.3945 15.2565C16.2345 15.2756 16.0873 15.4033 16.0617 15.5502C16.0425 15.6779 16.1193 15.78 16.3177 15.8886C16.3433 15.9014 16.3625 15.9141 16.3881 15.9269L16.6953 16.0801L16.2921 16.1312C16.1385 16.1504 15.9722 16.1695 15.825 16.2142C15.6266 16.2717 15.4986 16.3547 15.4346 16.4696C15.3706 16.5846 15.3898 16.725 15.4858 16.8208C15.601 16.9357 15.7866 16.9421 15.921 16.9294C16.0745 16.9166 16.2345 16.8719 16.3881 16.8272L16.4521 16.808C16.4521 16.808 16.4969 16.7953 16.5161 16.7889L16.9512 16.674L16.6121 16.9677C16.5545 17.0187 16.4969 17.0507 16.4393 17.0826C16.4137 17.0954 16.3881 17.1145 16.3625 17.1273L16.3241 17.1528C16.2601 17.1911 16.2025 17.2294 16.1449 17.2741C15.9977 17.3891 15.921 17.4912 15.9082 17.6062C15.8954 17.7275 15.953 17.8488 16.0553 17.8999C16.1577 17.951 16.2857 17.9318 16.4457 17.8488C16.5545 17.7913 16.6569 17.7211 16.7656 17.6445C16.804 17.6189 16.836 17.5934 16.8744 17.5679C16.8872 17.5615 16.8936 17.5551 16.9 17.5487C16.9064 17.5487 16.9128 17.5359 16.9256 17.5295L17.4056 17.2039L17.412 17.2167Z" fill="black"/>
<path d="M18.1734 15.6334C17.9686 15.6078 17.7574 15.595 17.5526 15.5631C17.3479 15.5312 17.1623 15.461 16.9767 15.3588C16.7975 15.2566 16.5992 15.1353 16.3816 15.1545C16.1832 15.1736 15.9913 15.3333 15.9593 15.5376C15.9209 15.7547 16.1 15.8951 16.2728 15.9845C16.2984 15.9973 16.324 16.0101 16.3432 16.0228C16.1576 16.0484 15.9785 16.0675 15.7993 16.1122C15.6201 16.1633 15.4345 16.2527 15.3449 16.4187C15.2618 16.572 15.2874 16.7635 15.4153 16.8912C15.5497 17.0253 15.7545 17.0444 15.9337 17.0253C16.1192 17.0061 16.3048 16.9551 16.484 16.904C16.5032 16.8976 16.5288 16.8912 16.548 16.8848C16.4776 16.9487 16.388 16.987 16.3112 17.0381C16.2344 17.0891 16.1576 17.1338 16.0872 17.1849C15.9529 17.2871 15.8313 17.4148 15.8057 17.5872C15.7865 17.7468 15.8633 17.9128 16.0105 17.983C16.1704 18.0597 16.3496 18.0086 16.4968 17.932C16.6568 17.849 16.7912 17.7404 16.9383 17.6446C16.9575 17.6319 16.9703 17.6191 16.9895 17.6127C16.8615 17.7915 16.7144 18.0086 16.7975 18.2321C16.8679 18.43 17.0919 18.5449 17.2967 18.4811C17.527 18.4108 17.6422 18.1746 17.7446 17.983C17.8534 17.7851 17.9686 17.5999 18.1414 17.4467C18.3077 17.2998 18.6533 16.9742 18.6725 16.9551C18.7365 17.0317 18.8517 17.1466 19.0372 17.0828C19.1716 17.0381 19.1908 16.904 19.1396 16.6677C19.0756 16.3612 18.9285 15.9526 18.7045 15.5823C18.6085 15.4226 18.5061 15.2566 18.3333 15.3333C18.1606 15.4099 18.1606 15.5312 18.1798 15.627L18.1734 15.6334Z" fill="url(#paint14_linear_2147_420)"/>
<path style="mix-blend-mode:multiply" opacity="0.8" d="M26.0059 21.6224L21.2385 24.1253L17.9878 22.4397L26.0059 21.6224Z" fill="url(#paint15_linear_2147_420)"/>
<mask id="mask0_2147_420" style="mask-type:luminance" maskUnits="userSpaceOnUse" x="20" y="16" width="6" height="3">
<path d="M25.526 16.342L25.7948 17.8872L25.2061 18.6215L20.4963 17.9191L20.2084 17.2168L20.1636 17.038L20.5155 16.4123L25.526 16.342Z" fill="white"/>
</mask>
<g mask="url(#mask0_2147_420)">
<g style="mix-blend-mode:multiply" opacity="0.92">
<path d="M20.1636 16.8146C20.1956 17.1657 20.3683 17.4722 20.7331 17.5935C21.3986 17.7595 22.0705 17.2615 22.736 17.5105C23.2352 17.6765 23.6511 18.0916 24.1566 18.3406C24.4062 18.5066 24.7389 18.5066 25.0717 18.4236C25.5196 18.2959 25.5772 17.7723 25.846 17.4594L25.7948 16.7954L20.5667 16.5464L20.1636 16.8146Z" fill="#4D4E4E"/>
</g>
</g>
<path d="M24.6684 18.2256C24.5212 18.2256 24.3612 18.1936 24.1884 18.1106C23.9133 17.9766 23.7405 17.8488 23.5805 17.7211C23.4141 17.5934 23.2606 17.4721 22.9982 17.3636C22.4863 17.1401 22.1919 17.1848 21.9103 17.2614C21.8911 17.2614 21.8656 17.2742 21.84 17.2806C21.4944 17.37 20.8545 17.5424 20.5025 17.1337C19.9842 16.5271 20.2338 15.9653 20.5345 15.4481C20.6433 15.2629 20.5345 14.9628 20.3042 14.8351C20.2146 14.784 20.093 14.7904 19.9522 14.7968C19.709 14.8096 19.4147 14.8287 19.1715 14.5159C19.0051 14.3052 18.9348 14.0753 18.9668 13.8518C18.9987 13.622 19.1139 13.4815 19.1523 13.4432C19.2291 13.3602 19.3507 13.2836 19.4787 13.1942C19.6259 13.0984 19.7986 12.9835 19.837 12.9005C19.9074 12.7472 19.7794 12.5557 19.6387 12.3769C19.5299 12.2428 19.4595 12.0512 19.4467 11.8788C19.4275 11.6362 19.5107 11.4191 19.6963 11.2595C20.1378 10.8572 20.6497 11.0743 20.8673 11.1701C21.1744 11.2978 21.584 11.6809 21.5968 11.7001C21.8208 11.9108 21.7248 12.3194 21.5776 12.6067C21.5136 12.7281 21.0017 13.788 21.8528 14.7521C22.7038 15.7035 23.8685 15.895 24.6492 15.6588C25.5003 15.4034 26.1274 14.7968 26.4025 13.9604C26.6777 13.1303 26.5497 12.5493 26.5497 12.5429C26.5433 12.5046 26.5625 12.4727 26.6009 12.4599C26.6521 12.4471 27.7975 12.147 28.3607 12.6195C28.9174 13.092 28.6614 13.4432 28.5078 13.6539L28.4822 13.6858C28.4119 13.7816 28.2711 13.9029 28.1175 14.037C27.9511 14.1838 27.7399 14.369 27.7079 14.452C27.6568 14.6053 27.7271 14.7521 27.8679 15.0458C27.9959 15.3076 28.1815 15.9844 27.9447 16.4122C27.7335 16.7953 27.4968 16.9358 27.0168 16.9613C26.8889 16.9677 26.7673 16.9613 26.6521 16.9613C26.3705 16.9549 26.1274 16.9422 25.9418 17.0826C25.7818 17.204 25.705 17.3764 25.6282 17.536C25.577 17.6445 25.5258 17.7595 25.4491 17.8616C25.3147 18.0276 25.0331 18.2383 24.6684 18.2383V18.2256ZM22.3199 17.0635C22.5183 17.0635 22.755 17.1082 23.0558 17.2359C23.331 17.3572 23.4909 17.4785 23.6637 17.6126C23.8237 17.7339 23.9837 17.8616 24.246 17.9829C24.7708 18.232 25.1867 17.9638 25.3467 17.7595C25.4107 17.6765 25.4619 17.5743 25.5067 17.4657C25.5834 17.2934 25.673 17.1018 25.8586 16.9613C26.0826 16.7889 26.3577 16.8017 26.6521 16.8081C26.7673 16.8081 26.8889 16.8145 27.0104 16.8081C27.4392 16.7826 27.6376 16.6676 27.8231 16.3292C27.9319 16.1249 27.9831 15.5886 27.7399 15.0841C27.5992 14.7968 27.5096 14.6053 27.5736 14.3945C27.612 14.2796 27.7719 14.1328 28.0215 13.9157C28.1623 13.7944 28.3031 13.6667 28.3671 13.5837L28.3927 13.5517C28.5398 13.3474 28.7254 13.0984 28.2647 12.7025C27.8295 12.3322 26.9273 12.4982 26.6905 12.5557C26.7161 12.7344 26.7673 13.2644 26.5305 13.9795C26.2362 14.8607 25.5834 15.4928 24.6876 15.7609C23.8685 16.01 22.6398 15.812 21.7504 14.816C20.8353 13.788 21.3856 12.6451 21.456 12.5174C21.5904 12.262 21.6608 11.9235 21.5072 11.7767C21.5072 11.7767 21.0977 11.3936 20.8161 11.2723C20.4961 11.1382 20.1186 11.036 19.7858 11.3425C19.4147 11.6809 19.6323 12.1343 19.7474 12.2811C19.9138 12.4982 20.061 12.7281 19.965 12.9451C19.9138 13.0665 19.741 13.1814 19.5555 13.2963C19.4403 13.3729 19.3187 13.4496 19.2547 13.5198C19.2419 13.539 18.8964 13.9157 19.2867 14.4201C19.4851 14.6755 19.7218 14.6627 19.9522 14.65C20.1058 14.6436 20.253 14.6308 20.381 14.7074C20.6753 14.8734 20.8097 15.2565 20.6625 15.5055C20.3746 16.0036 20.157 16.4952 20.6177 17.038C20.9121 17.3827 21.5008 17.2295 21.8144 17.1401C21.84 17.1337 21.8656 17.1273 21.8848 17.121C22.0255 17.0826 22.1663 17.0571 22.3263 17.0571L22.3199 17.0635Z" fill="url(#paint16_linear_2147_420)"/>
<path d="M28.2966 12.677C27.8486 12.2939 26.9464 12.4599 26.684 12.5174H26.6456V12.5684C26.6776 12.76 26.716 13.2772 26.4856 13.9731C26.1977 14.8351 25.5514 15.4609 24.6683 15.729C23.862 15.9717 22.6526 15.7801 21.7759 14.7968C20.88 13.788 21.4239 12.677 21.4879 12.5493C21.6351 12.2683 21.6991 11.9172 21.5263 11.7512L21.5135 11.7384C21.4431 11.6682 21.0848 11.3489 20.8224 11.2404C20.4897 11.0999 20.0993 10.9977 19.7474 11.317C19.3506 11.6745 19.581 12.1598 19.7026 12.3194C19.8625 12.5237 19.9969 12.7408 19.9137 12.9388C19.8625 13.0473 19.6962 13.1559 19.5234 13.2708C19.4018 13.3474 19.2802 13.4304 19.2098 13.5007C19.197 13.5198 18.8259 13.9285 19.2354 14.4584C19.4466 14.733 19.709 14.7202 19.9393 14.701C20.0865 14.6947 20.2273 14.6819 20.3425 14.7521C20.6112 14.9054 20.7392 15.2629 20.6048 15.4928C20.3105 16.0036 20.0865 16.508 20.56 17.0763C20.8736 17.4466 21.4751 17.2806 21.8015 17.1976C21.8271 17.1912 21.8527 17.1848 21.8719 17.1784C22.019 17.1401 22.1534 17.1146 22.307 17.1146C22.5246 17.1146 22.7549 17.172 23.0237 17.287C23.2925 17.4019 23.4524 17.5296 23.6252 17.6573C23.7852 17.7786 23.9516 17.9063 24.2203 18.034C24.3803 18.1106 24.5275 18.1426 24.6619 18.1426C25.001 18.1426 25.257 17.951 25.3722 17.8042C25.4426 17.7148 25.4874 17.6126 25.5386 17.4977C25.6153 17.3317 25.6985 17.1465 25.8777 17.006C26.0889 16.8464 26.3576 16.8528 26.6456 16.8656C26.7608 16.8656 26.8824 16.872 27.004 16.8656C27.4519 16.84 27.6631 16.7123 27.855 16.3611C27.9702 16.1504 28.0214 15.5949 27.7718 15.0778C27.6375 14.7968 27.5479 14.618 27.6119 14.4201C27.6439 14.3179 27.8102 14.1647 28.047 13.9604C28.1878 13.8391 28.335 13.7114 28.399 13.622L28.4246 13.59C28.5781 13.3857 28.7829 13.0984 28.2902 12.6834L28.2966 12.677Z" fill="url(#paint17_linear_2147_420)"/>
<g style="mix-blend-mode:multiply">
<path d="M26.9848 13.3156C26.9848 14.9629 25.6282 16.3038 23.9516 16.3038C22.2751 16.3038 20.9185 14.9693 20.9185 13.3156C20.9185 11.6619 22.2751 10.3274 23.9516 10.3274C25.6282 10.3274 26.9848 11.6619 26.9848 13.3156Z" fill="#58595B"/>
</g>
<path d="M26.8951 12.9771C26.8951 14.5733 25.5833 15.8631 23.9579 15.8631C22.3326 15.8631 21.0208 14.5733 21.0208 12.9771C21.0208 11.3808 22.4478 10.0144 24.0667 10.091C26.1081 10.1868 26.8951 11.3808 26.8951 12.9771Z" fill="white"/>
<path d="M26.8951 12.9771C26.8951 14.5733 25.5833 15.8631 23.9579 15.8631C22.3326 15.8631 21.0208 14.5733 21.0208 12.9771C21.0208 11.3808 22.4478 10.0144 24.0667 10.091C26.1081 10.1868 26.8951 11.3808 26.8951 12.9771Z" fill="url(#paint18_radial_2147_420)"/>
<path d="M23.4717 12.4471C23.4269 12.8494 23.1582 13.1559 22.8702 13.1303C22.5823 13.0984 22.3839 12.7472 22.4287 12.345C22.4735 11.9427 22.7422 11.6362 23.0302 11.6618C23.3182 11.6873 23.5165 12.0449 23.4717 12.4471Z" fill="black"/>
<path d="M23.4334 12.4471C23.4078 12.8302 23.171 13.1239 22.9023 13.1048C22.6335 13.092 22.4351 12.7664 22.4607 12.3897C22.4863 12.013 22.7231 11.7129 22.9982 11.732C23.267 11.7448 23.4654 12.0704 23.4398 12.4471H23.4334Z" fill="white"/>
<path d="M23.2926 12.7601C23.267 12.9836 23.0942 13.1432 22.9022 13.1241C22.7103 13.1049 22.5759 12.907 22.5951 12.6835C22.6207 12.46 22.7935 12.3004 22.9854 12.3196C23.1774 12.3387 23.3118 12.5366 23.2926 12.7601Z" fill="black"/>
<path d="M22.1406 13.7496C22.1406 13.7496 22.1854 13.7752 22.1982 13.7879C22.211 13.8071 22.2174 13.8326 22.2302 13.8518C22.2558 13.8965 22.275 13.9348 22.307 13.9795C22.6013 14.369 22.9277 14.7393 23.4268 14.8223C23.894 14.8989 24.4507 14.8095 25.0266 14.3434C25.0586 14.3179 25.1354 14.2732 25.1674 14.2987C25.225 14.3434 25.1674 14.3881 25.0906 14.4456C24.7386 14.7329 24.1819 15.1927 23.3564 15.0522C22.8061 14.9564 22.5117 14.4967 22.3966 14.3562C22.3646 14.3115 22.3262 14.2668 22.2942 14.2285C22.1918 14.1008 22.083 13.8709 22.083 13.8135C22.083 13.7879 22.0958 13.7624 22.1278 13.756H22.1406V13.7496Z" fill="black"/>
<path d="M25.3659 12.9069C25.2443 13.2964 24.9243 13.5454 24.6428 13.4624C24.3676 13.3794 24.2396 12.9963 24.3612 12.6068C24.4828 12.2173 24.8028 11.9683 25.0843 12.0513C25.3595 12.1343 25.4875 12.5174 25.3659 12.9069Z" fill="black"/>
<path d="M25.3274 12.894C25.2314 13.2644 24.9371 13.507 24.6811 13.4432C24.4188 13.3793 24.2844 13.0217 24.3804 12.6578C24.4763 12.2875 24.7707 12.0448 25.0331 12.1151C25.2954 12.1789 25.4298 12.5301 25.3274 12.9004V12.894Z" fill="white"/>
<path d="M25.1419 13.1749C25.0779 13.3857 24.8731 13.5134 24.6876 13.4559C24.502 13.3984 24.406 13.1813 24.47 12.9706C24.534 12.7599 24.7388 12.6322 24.9243 12.6897C25.1099 12.7472 25.2059 12.9642 25.1419 13.1749Z" fill="black"/>
<g style="mix-blend-mode:multiply" opacity="0.69">
<path d="M26.9017 13.392C26.7161 15.1032 25.2571 16.3355 23.6445 16.1503C22.0319 15.9651 20.8673 14.4264 21.0529 12.7215C21.2385 11.0167 22.8574 9.77805 24.4764 9.96322C26.0954 10.1484 27.0872 11.6872 26.9081 13.392H26.9017Z" fill="url(#paint19_radial_2147_420)"/>
</g>
<g style="mix-blend-mode:multiply">
<path d="M24.553 14.1008C24.4698 14.4265 24.0411 14.5988 23.5932 14.4839C23.1452 14.369 22.8445 14.0178 22.9277 13.6922C23.0108 13.3665 23.4396 13.1941 23.8875 13.3091C24.3355 13.424 24.6362 13.7752 24.553 14.1008Z" fill="#58595B"/>
</g>
<path d="M24.5084 13.9795C24.4316 14.2988 24.0156 14.4712 23.5805 14.3562C23.1454 14.2477 22.8574 13.8965 22.9406 13.5773C23.0174 13.258 23.4333 13.0856 23.8685 13.2006C24.3036 13.3091 24.5916 13.6603 24.5084 13.9795Z" fill="url(#paint20_radial_2147_420)"/>
<path d="M23.5678 13.4624C23.5678 13.5263 23.4974 13.5773 23.4078 13.5773C23.3182 13.5773 23.2478 13.5263 23.2478 13.4624C23.2478 13.3986 23.3182 13.3475 23.4078 13.3475C23.4974 13.3475 23.5678 13.3986 23.5678 13.4624Z" fill="white"/>
<path d="M27.6694 11.5404C27.5926 11.4574 27.4775 11.4 27.3687 11.3617C27.3239 11.3489 27.2791 11.3361 27.2279 11.3233C27.1703 11.2978 27.1063 11.285 27.0487 11.2467C27.0039 11.2212 26.9847 11.1765 26.9719 11.1254C26.9719 11.0999 26.9719 11.0743 26.9719 11.0488C26.9655 10.9147 26.9591 10.7806 26.9463 10.6529C26.9335 10.5252 26.9207 10.3911 26.9015 10.2634C26.8823 10.1357 26.8503 10.008 26.8184 9.88671C26.7864 9.7654 26.7416 9.64408 26.6904 9.52277C26.6392 9.40784 26.5816 9.29291 26.5112 9.18436C26.4408 9.07582 26.364 8.97366 26.2808 8.87788C26.1912 8.7821 26.0953 8.68633 25.9929 8.60332C25.8905 8.52032 25.7753 8.4437 25.6665 8.37346C25.5513 8.30323 25.4297 8.24576 25.3018 8.19468C25.1738 8.1436 25.0458 8.09891 24.9178 8.07337C24.7898 8.04144 24.6554 8.02229 24.5211 8.00952C24.3931 7.99675 24.2587 7.99675 24.1307 8.00952C24.0027 8.02229 23.8748 8.04144 23.7532 8.07337C23.6316 8.10529 23.5164 8.14999 23.4076 8.20107C23.2988 8.25215 23.1901 8.316 23.0941 8.38623C22.9981 8.45647 22.9021 8.53947 22.8189 8.62886C22.7293 8.71825 22.6525 8.82042 22.5757 8.92258C22.4989 9.03112 22.4286 9.13967 22.3646 9.24821C22.2942 9.36314 22.2366 9.48446 22.1726 9.59939C22.115 9.7207 22.051 9.84202 21.9934 9.96972L21.9486 10.0847C21.9486 10.0847 21.9294 10.123 21.923 10.1357C21.9038 10.1613 21.8974 10.1613 21.8718 10.1677C21.8014 10.1932 21.7566 10.1932 21.6799 10.1996C21.6031 10.1996 21.5327 10.1996 21.4559 10.1996C21.4559 10.206 21.2383 10.1868 21.1423 10.1996C21.0783 10.1996 21.0016 10.2251 21.0144 10.3017C21.0719 10.538 21.4495 10.7359 21.6415 10.8445C21.9166 11.0041 22.211 11.1318 22.4989 11.2595C23.2604 11.5979 24.0987 11.7639 24.9306 11.8214C25.0842 11.8341 25.2442 11.8341 25.3977 11.8341C25.5321 11.8341 25.6601 11.8341 25.7945 11.8214C26.0441 11.8214 26.2936 11.8214 26.5432 11.8022C26.6392 11.8022 26.7352 11.7895 26.8247 11.7831C26.9399 11.7767 27.2151 11.7703 27.2471 11.7639C27.3751 11.7639 27.5159 11.7639 27.6374 11.7128C27.7398 11.6745 27.7462 11.5979 27.6758 11.5213L27.6694 11.5404Z" fill="black"/>
<mask id="mask1_2147_420" style="mask-type:luminance" maskUnits="userSpaceOnUse" x="21" y="8" width="7" height="4">
<path d="M27.6694 11.5404C27.5926 11.4574 27.4775 11.4 27.3687 11.3617C27.3239 11.3489 27.2791 11.3361 27.2279 11.3233C27.1703 11.2978 27.1063 11.285 27.0487 11.2467C27.0039 11.2212 26.9847 11.1765 26.9719 11.1254C26.9719 11.0999 26.9719 11.0743 26.9719 11.0488C26.9655 10.9147 26.9591 10.7806 26.9463 10.6529C26.9335 10.5252 26.9207 10.3911 26.9015 10.2634C26.8823 10.1357 26.8503 10.008 26.8184 9.88671C26.7864 9.7654 26.7416 9.64408 26.6904 9.52277C26.6392 9.40784 26.5816 9.29291 26.5112 9.18436C26.4408 9.07582 26.364 8.97366 26.2808 8.87788C26.1912 8.7821 26.0953 8.68633 25.9929 8.60332C25.8905 8.52032 25.7753 8.4437 25.6665 8.37346C25.5513 8.30323 25.4297 8.24576 25.3018 8.19468C25.1738 8.1436 25.0458 8.09891 24.9178 8.07337C24.7898 8.04144 24.6554 8.02229 24.5211 8.00952C24.3931 7.99675 24.2587 7.99675 24.1307 8.00952C24.0027 8.02229 23.8748 8.04144 23.7532 8.07337C23.6316 8.10529 23.5164 8.14999 23.4076 8.20107C23.2988 8.25215 23.1901 8.316 23.0941 8.38623C22.9981 8.45647 22.9021 8.53947 22.8189 8.62886C22.7293 8.71825 22.6525 8.82042 22.5757 8.92258C22.4989 9.03112 22.4286 9.13967 22.3646 9.24821C22.2942 9.36314 22.2366 9.48446 22.1726 9.59939C22.115 9.7207 22.051 9.84202 21.9934 9.96972L21.9486 10.0847C21.9486 10.0847 21.9294 10.123 21.923 10.1357C21.9038 10.1613 21.8974 10.1613 21.8718 10.1677C21.8014 10.1932 21.7566 10.1932 21.6799 10.1996C21.6031 10.1996 21.5327 10.1996 21.4559 10.1996C21.4559 10.206 21.2383 10.1868 21.1423 10.1996C21.0783 10.1996 21.0016 10.2251 21.0144 10.3017C21.0719 10.538 21.4495 10.7359 21.6415 10.8445C21.9166 11.0041 22.211 11.1318 22.4989 11.2595C23.2604 11.5979 24.0987 11.7639 24.9306 11.8214C25.0842 11.8341 25.2442 11.8341 25.3977 11.8341C25.5321 11.8341 25.6601 11.8341 25.7945 11.8214C26.0441 11.8214 26.2936 11.8214 26.5432 11.8022C26.6392 11.8022 26.7352 11.7895 26.8247 11.7831C26.9399 11.7767 27.2151 11.7703 27.2471 11.7639C27.3751 11.7639 27.5159 11.7639 27.6374 11.7128C27.7398 11.6745 27.7462 11.5979 27.6758 11.5213L27.6694 11.5404Z" fill="white"/>
</mask>
<g mask="url(#mask1_2147_420)">
<g opacity="0.3">
<path d="M20.9824 9.88679C21.4367 9.85487 21.8654 10.0209 21.8974 10.0783C21.9294 10.1358 22.0638 10.5636 22.9469 10.8701C23.83 11.1766 24.4379 11.2468 25.0586 11.2787C25.6793 11.3107 26.3896 11.483 26.0313 11.5597C25.6729 11.6363 24.4123 11.7959 23.51 11.6618C23.1069 11.598 21.3535 10.7935 21.0847 10.4998C20.816 10.206 20.9887 9.88679 20.9887 9.88679H20.9824Z" fill="white"/>
</g>
<path opacity="0.5" d="M23.7853 9.69519C24.4461 9.69519 24.9819 9.16062 24.9819 8.50119C24.9819 7.84176 24.4461 7.30719 23.7853 7.30719C23.1244 7.30719 22.5886 7.84176 22.5886 8.50119C22.5886 9.16062 23.1244 9.69519 23.7853 9.69519Z" fill="url(#paint21_radial_2147_420)"/>
</g>
<path d="M23.011 12.5876C23.0046 12.6451 22.9598 12.6898 22.9087 12.6834C22.8575 12.6834 22.8255 12.626 22.8319 12.5685C22.8319 12.511 22.8831 12.4663 22.9343 12.4727C22.9854 12.4727 23.0174 12.5302 23.011 12.5876Z" fill="white"/>
<path d="M24.822 12.9516C24.8028 13.0091 24.7516 13.041 24.7068 13.0282C24.662 13.0155 24.6364 12.958 24.6556 12.9005C24.6748 12.8431 24.726 12.8111 24.7708 12.8239C24.8156 12.8367 24.8412 12.8941 24.822 12.9516Z" fill="white"/>
</g>
<defs>
<linearGradient id="paint0_linear_2147_420" x1="18.9988" y1="19.6558" x2="14.32" y2="14.2822" gradientUnits="userSpaceOnUse">
<stop offset="0.07" stop-color="#E53528"/>
<stop offset="0.19" stop-color="#E8412F"/>
<stop offset="0.4" stop-color="#EC5039"/>
<stop offset="0.64" stop-color="#EF593F"/>
<stop offset="1" stop-color="#F05C41"/>
</linearGradient>
<linearGradient id="paint1_linear_2147_420" x1="28.6232" y1="24.17" x2="21.1217" y2="27.2144" gradientUnits="userSpaceOnUse">
<stop offset="0.12" stop-color="#E53528"/>
<stop offset="0.14" stop-color="#E53628"/>
<stop offset="0.43" stop-color="#EB4B36"/>
<stop offset="0.72" stop-color="#EE573E"/>
<stop offset="1" stop-color="#F05C41"/>
</linearGradient>
<linearGradient id="paint2_linear_2147_420" x1="21.5264" y1="27.6436" x2="15.6958" y2="24.6257" gradientUnits="userSpaceOnUse">
<stop stop-color="#95171A"/>
<stop offset="1" stop-color="#AE1F23"/>
</linearGradient>
<linearGradient id="paint3_linear_2147_420" x1="15.9912" y1="18.9344" x2="23.1659" y2="22.0682" gradientUnits="userSpaceOnUse">
<stop stop-color="#676767"/>
<stop offset="0.06" stop-color="#595959"/>
<stop offset="0.23" stop-color="#393939"/>
<stop offset="0.41" stop-color="#202020"/>
<stop offset="0.59" stop-color="#0E0E0E"/>
<stop offset="0.78" stop-color="#030303"/>
<stop offset="1"/>
</linearGradient>
<linearGradient id="paint4_linear_2147_420" x1="21.3921" y1="24.0105" x2="14.476" y2="22.5613" gradientUnits="userSpaceOnUse">
<stop offset="0.04" stop-color="#8B999B"/>
<stop offset="1" stop-color="#D2D9DA"/>
</linearGradient>
<linearGradient id="paint5_linear_2147_420" x1="27.3369" y1="23.1869" x2="20.904" y2="26.0259" gradientUnits="userSpaceOnUse">
<stop stop-color="#E1E5E5"/>
<stop offset="0.06" stop-color="#E6E9E9"/>
<stop offset="0.28" stop-color="#F4F5F5"/>
<stop offset="0.54" stop-color="#FCFCFC"/>
<stop offset="1" stop-color="white"/>
</linearGradient>
<linearGradient id="paint6_linear_2147_420" x1="20.6946" y1="16.4504" x2="19.3085" y2="15.3045" gradientUnits="userSpaceOnUse">
<stop/>
<stop offset="0.22" stop-color="#030303"/>
<stop offset="0.41" stop-color="#0E0E0E"/>
<stop offset="0.59" stop-color="#202020"/>
<stop offset="0.77" stop-color="#393939"/>
<stop offset="0.94" stop-color="#595959"/>
<stop offset="1" stop-color="#676767"/>
</linearGradient>
<linearGradient id="paint7_linear_2147_420" x1="26.5498" y1="17.2614" x2="28.0521" y2="16.4413" gradientUnits="userSpaceOnUse">
<stop/>
<stop offset="0.22" stop-color="#030303"/>
<stop offset="0.41" stop-color="#0E0E0E"/>
<stop offset="0.59" stop-color="#202020"/>
<stop offset="0.77" stop-color="#393939"/>
<stop offset="0.94" stop-color="#595959"/>
<stop offset="1" stop-color="#676767"/>
</linearGradient>
<linearGradient id="paint8_linear_2147_420" x1="22.627" y1="23.9976" x2="22.0855" y2="17.7784" gradientUnits="userSpaceOnUse">
<stop stop-color="#EE442F"/>
<stop offset="0.33" stop-color="#DC392B"/>
<stop offset="1" stop-color="#AE1F23"/>
</linearGradient>
<linearGradient id="paint9_linear_2147_420" x1="22.736" y1="18.9726" x2="22.5767" y2="19.905" gradientUnits="userSpaceOnUse">
<stop stop-color="#BFBFBF"/>
<stop offset="0.08" stop-color="#CCCCCC"/>
<stop offset="0.24" stop-color="#E3E3E3"/>
<stop offset="0.41" stop-color="#F2F2F2"/>
<stop offset="0.61" stop-color="#FCFCFC"/>
<stop offset="0.89" stop-color="white"/>
</linearGradient>
<linearGradient id="paint10_linear_2147_420" x1="22.384" y1="20.5497" x2="22.212" y2="21.5331" gradientUnits="userSpaceOnUse">
<stop stop-color="#BFBFBF"/>
<stop offset="0.08" stop-color="#CCCCCC"/>
<stop offset="0.24" stop-color="#E3E3E3"/>
<stop offset="0.42" stop-color="#F2F2F2"/>
<stop offset="0.62" stop-color="#FCFCFC"/>
<stop offset="0.9" stop-color="white"/>
</linearGradient>
<linearGradient id="paint11_linear_2147_420" x1="21.9361" y1="21.9735" x2="21.764" y2="22.9441" gradientUnits="userSpaceOnUse">
<stop stop-color="#BFBFBF"/>
<stop offset="0.08" stop-color="#CCCCCC"/>
<stop offset="0.23" stop-color="#E3E3E3"/>
<stop offset="0.4" stop-color="#F2F2F2"/>
<stop offset="0.6" stop-color="#FCFCFC"/>
<stop offset="0.86" stop-color="white"/>
</linearGradient>
<linearGradient id="paint12_linear_2147_420" x1="28.7538" y1="21.6926" x2="29.5896" y2="18.1952" gradientUnits="userSpaceOnUse">
<stop offset="0.05" stop-color="#AAACAF"/>
<stop offset="0.07" stop-color="#B5B7B9"/>
<stop offset="0.15" stop-color="#D0D1D2"/>
<stop offset="0.22" stop-color="#E4E5E6"/>
<stop offset="0.31" stop-color="#F3F3F4"/>
<stop offset="0.41" stop-color="#FCFCFC"/>
<stop offset="0.58" stop-color="white"/>
</linearGradient>
<linearGradient id="paint13_linear_2147_420" x1="22.9791" y1="17.3827" x2="22.8134" y2="18.3278" gradientUnits="userSpaceOnUse">
<stop offset="0.04" stop-color="#A4A7A9"/>
<stop offset="0.12" stop-color="#B1B4B5"/>
<stop offset="0.43" stop-color="#DBDCDD"/>
<stop offset="0.66" stop-color="#F5F5F5"/>
<stop offset="0.8" stop-color="white"/>
</linearGradient>
<linearGradient id="paint14_linear_2147_420" x1="17.2839" y1="19.3878" x2="17.2138" y2="15.793" gradientUnits="userSpaceOnUse">
<stop offset="0.14" stop-color="#A9ACAE"/>
<stop offset="0.19" stop-color="#C3C5C7"/>
<stop offset="0.24" stop-color="#D9DADB"/>
<stop offset="0.3" stop-color="#EAEBEB"/>
<stop offset="0.38" stop-color="#F6F6F6"/>
<stop offset="0.48" stop-color="#FDFDFD"/>
<stop offset="0.78" stop-color="white"/>
</linearGradient>
<linearGradient id="paint15_linear_2147_420" x1="22.2048" y1="23.7039" x2="22.0137" y2="22.165" gradientUnits="userSpaceOnUse">
<stop stop-color="#4D4E4E"/>
<stop offset="1" stop-color="#676767" stop-opacity="0"/>
</linearGradient>
<linearGradient id="paint16_linear_2147_420" x1="18.954" y1="14.6244" x2="28.6934" y2="14.6244" gradientUnits="userSpaceOnUse">
<stop stop-color="#C9DBDB"/>
<stop offset="0.08" stop-color="#CFDFDF"/>
<stop offset="0.43" stop-color="#E9F0F0"/>
<stop offset="0.75" stop-color="#F9FBFB"/>
<stop offset="1" stop-color="white"/>
</linearGradient>
<linearGradient id="paint17_linear_2147_420" x1="28.0342" y1="11.9236" x2="19.9142" y2="15.89" gradientUnits="userSpaceOnUse">
<stop stop-color="#F05E4E"/>
<stop offset="0.26" stop-color="#E8423A"/>
<stop offset="0.52" stop-color="#E32E2B"/>
<stop offset="0.7" stop-color="#E12726"/>
<stop offset="0.82" stop-color="#DE2625"/>
<stop offset="0.9" stop-color="#D52425"/>
<stop offset="0.97" stop-color="#C62023"/>
<stop offset="1" stop-color="#BC1E23"/>
</linearGradient>
<radialGradient id="paint18_radial_2147_420" cx="0" cy="0" r="1" gradientUnits="userSpaceOnUse" gradientTransform="translate(23.9579 12.9739) scale(2.918 2.62042)">
<stop offset="0.31" stop-color="white" stop-opacity="0"/>
<stop offset="0.61" stop-color="#FEFEFE" stop-opacity="0"/>
<stop offset="0.74" stop-color="#FDFDFD" stop-opacity="0.04"/>
<stop offset="0.82" stop-color="#FCFCFC" stop-opacity="0.08"/>
<stop offset="0.87" stop-color="#F3F3F3" stop-opacity="0.11"/>
<stop offset="0.92" stop-color="#D9DADA" stop-opacity="0.21"/>
<stop offset="0.97" stop-color="#AEB0B1" stop-opacity="0.37"/>
<stop offset="1" stop-color="#8D8F91" stop-opacity="0.5"/>
</radialGradient>
<radialGradient id="paint19_radial_2147_420" cx="0" cy="0" r="1" gradientUnits="userSpaceOnUse" gradientTransform="translate(0.336373 12.405) rotate(11.1161) scale(5.27039 2.42753)">
<stop offset="0.14" stop-color="#231F20"/>
<stop offset="0.45" stop-color="#8D8F91"/>
<stop offset="0.49" stop-color="#909294" stop-opacity="0.97"/>
<stop offset="0.53" stop-color="#9A9B9D" stop-opacity="0.88"/>
<stop offset="0.57" stop-color="#AAACAD" stop-opacity="0.74"/>
<stop offset="0.61" stop-color="#C1C2C3" stop-opacity="0.54"/>
<stop offset="0.65" stop-color="#DFDFE0" stop-opacity="0.28"/>
<stop offset="0.69" stop-color="white" stop-opacity="0"/>
</radialGradient>
<radialGradient id="paint20_radial_2147_420" cx="0" cy="0" r="1" gradientUnits="userSpaceOnUse" gradientTransform="translate(22.8912 12.8332) rotate(12.4534) scale(0.959386 0.704022)">
<stop offset="0.58" stop-color="#EE442F"/>
<stop offset="1" stop-color="#AE1F23"/>
</radialGradient>
<radialGradient id="paint21_radial_2147_420" cx="0" cy="0" r="1" gradientUnits="userSpaceOnUse" gradientTransform="translate(32.2107 5.5319) rotate(20.3288) scale(1.18762 1.18563)">
<stop offset="0.12" stop-color="white"/>
<stop offset="0.24" stop-color="white" stop-opacity="0.89"/>
<stop offset="0.49" stop-color="white" stop-opacity="0.62"/>
<stop offset="0.85" stop-color="white" stop-opacity="0.18"/>
<stop offset="1" stop-color="white" stop-opacity="0"/>
</radialGradient>
<clipPath id="clip0_2147_420">
<rect width="20" height="15" fill="white" transform="translate(12 7.99994)"/>
</clipPath>
</defs>
</svg>
