<svg width="87" height="25" viewBox="0 0 87 25" fill="none" xmlns="http://www.w3.org/2000/svg">
<path d="M12.3429 1.43647C12.946 1.43647 13.4032 1.53353 13.7048 1.73735C14.0063 1.93147 14.1619 2.24206 14.1619 2.64C14.1619 3.03794 14.016 3.32912 13.7145 3.52324C13.4129 3.71735 12.9557 3.81441 12.3429 3.81441H10.2613V5.82353H12.0608C12.6737 5.82353 13.1308 5.92059 13.4324 6.11471C13.7339 6.30882 13.8798 6.60971 13.8798 7.00765C13.8798 7.40559 13.7339 7.70647 13.4324 7.90059C13.1308 8.09471 12.6737 8.19176 12.0608 8.19176H10.2613V10.2979H12.4207C13.0336 10.2979 13.4908 10.395 13.7923 10.5891C14.0938 10.7832 14.2398 11.0841 14.2398 11.4724C14.2398 11.8606 14.0938 12.1712 13.7923 12.3653C13.4908 12.5594 13.0336 12.6565 12.4207 12.6565H9.43447C8.77301 12.6565 8.31582 12.54 8.07264 12.3168C7.82946 12.0935 7.703 11.6665 7.703 11.0453V3.23206C7.703 2.54294 7.82946 2.07706 8.0921 1.815C8.35473 1.55294 8.81192 1.42676 9.46365 1.42676H12.3429V1.43647Z" fill="white"/>
<path d="M14.9012 10.9676V5.95941C14.9012 5.34794 14.9985 4.89176 15.2028 4.60059C15.4071 4.30941 15.7183 4.15412 16.1366 4.15412C16.3895 4.15412 16.6132 4.22206 16.8078 4.34824C17.0023 4.48412 17.1774 4.67823 17.3233 4.95C17.586 4.65882 17.8972 4.44529 18.2474 4.30941C18.5976 4.17353 19.0256 4.10559 19.5217 4.10559C20.5042 4.10559 21.2532 4.38706 21.7687 4.95C22.2843 5.51294 22.5469 6.32823 22.5469 7.39588V10.9676C22.5469 11.5791 22.4399 12.0353 22.2356 12.3362C22.0313 12.6371 21.7201 12.7826 21.2921 12.7826C20.8641 12.7826 20.5528 12.6371 20.3485 12.3362C20.1442 12.0353 20.0372 11.5791 20.0372 10.9676V8.15294C20.0372 7.45412 19.9302 6.95912 19.726 6.66794C19.5217 6.37676 19.1715 6.22147 18.6949 6.22147C18.2377 6.22147 17.907 6.37676 17.693 6.67765C17.479 6.98823 17.372 7.46382 17.372 8.11412V10.9676C17.372 11.5791 17.265 12.0353 17.0607 12.3362C16.8564 12.6371 16.5451 12.7826 16.1171 12.7826C15.6891 12.7826 15.3876 12.6371 15.1833 12.3362C14.979 12.0353 14.8818 11.5791 14.8818 10.9676H14.9012Z" fill="white"/>
<path d="M24.7063 6.55147H24.609C24.1713 6.55147 23.8309 6.45441 23.578 6.26029C23.325 6.06618 23.2083 5.80412 23.2083 5.47412C23.2083 5.14412 23.3348 4.87235 23.578 4.68794C23.8309 4.50353 24.2005 4.39676 24.6966 4.36765V3.27088C24.6966 2.65941 24.8036 2.20324 25.0079 1.90235C25.2121 1.60147 25.5234 1.45588 25.9514 1.45588C26.3794 1.45588 26.681 1.60147 26.8852 1.90235C27.0895 2.20324 27.1868 2.65941 27.1868 3.27088V4.36765H27.4008C27.8969 4.36765 28.2762 4.46471 28.5486 4.65882C28.821 4.85294 28.9571 5.12471 28.9571 5.47412C28.9571 5.82353 28.821 6.09529 28.5583 6.27971C28.2957 6.46412 27.8969 6.55147 27.3716 6.55147H27.1673V10.9676C27.1673 11.5888 27.0701 12.045 26.8658 12.3362C26.6615 12.6274 26.3502 12.7826 25.932 12.7826C25.5137 12.7826 25.1927 12.6371 24.9884 12.3362C24.7841 12.0353 24.6771 11.5791 24.6771 10.9676V6.55147H24.7063Z" fill="white"/>
<path d="M31.5252 9.16235C31.5835 9.62823 31.7781 9.99706 32.0991 10.2591C32.4298 10.5212 32.8578 10.6571 33.4025 10.6571C33.8695 10.6571 34.3947 10.5212 34.9686 10.2494C35.5426 9.97765 35.8927 9.84176 36.0289 9.84176C36.3207 9.84176 36.5639 9.92912 36.7487 10.1135C36.9336 10.2979 37.0308 10.5212 37.0308 10.8124C37.0308 11.3462 36.6612 11.8315 35.9122 12.2585C35.1632 12.6856 34.2877 12.8991 33.2858 12.8991C32.0602 12.8991 31.0291 12.4818 30.212 11.6374C29.3852 10.8026 28.9766 9.7447 28.9766 8.48294C28.9766 7.22118 29.3754 6.15353 30.1731 5.29941C30.9707 4.455 31.9726 4.02794 33.1594 4.02794C34.3461 4.02794 35.2702 4.42588 36.0484 5.22176C36.8266 6.01765 37.2156 6.99794 37.2156 8.14324C37.2156 8.52176 37.1281 8.78382 36.9627 8.92941C36.7974 9.075 36.4666 9.15265 35.9803 9.15265H31.5349L31.5252 9.16235ZM31.496 7.53176H34.7838C34.7546 7.11441 34.5796 6.75529 34.278 6.47382C33.9667 6.19235 33.6068 6.04676 33.1788 6.04676C32.7508 6.04676 32.3909 6.18265 32.0894 6.44471C31.7878 6.71647 31.5933 7.07559 31.5057 7.52206L31.496 7.53176Z" fill="white"/>
<path d="M38.0425 10.9676V5.95941C38.0425 5.34794 38.1398 4.89176 38.344 4.60059C38.5483 4.30941 38.8596 4.15412 39.2779 4.15412C39.5308 4.15412 39.7545 4.22206 39.949 4.34824C40.1436 4.48412 40.3187 4.67823 40.4646 4.95C40.7175 4.66853 40.9899 4.46471 41.2817 4.31912C41.5735 4.17353 41.8556 4.10559 42.1571 4.10559C42.4976 4.10559 42.7991 4.23176 43.052 4.47441C43.305 4.71706 43.4217 5.00824 43.4217 5.33824C43.4217 5.83324 42.9645 6.25059 42.0501 6.59029C41.7194 6.70676 41.4762 6.80382 41.3109 6.88147C40.9996 7.02706 40.7856 7.20176 40.6883 7.37647C40.5813 7.56088 40.5327 7.89088 40.5327 8.36647V10.9579C40.5327 11.5694 40.4257 12.0256 40.2214 12.3265C40.0171 12.6274 39.7059 12.7729 39.2779 12.7729C38.8499 12.7729 38.5483 12.6274 38.344 12.3265C38.1398 12.0256 38.0425 11.5694 38.0425 10.9579V10.9676Z" fill="white"/>
<path d="M45.2115 6.55147H45.1142C44.6765 6.55147 44.3361 6.45441 44.0831 6.26029C43.8302 6.06618 43.7135 5.80412 43.7135 5.47412C43.7135 5.14412 43.84 4.87235 44.0831 4.68794C44.3361 4.50353 44.7057 4.39676 45.2018 4.36765V3.27088C45.2018 2.65941 45.3088 2.20324 45.5131 1.90235C45.7173 1.60147 46.0286 1.45588 46.4566 1.45588C46.8846 1.45588 47.1861 1.60147 47.3904 1.90235C47.5947 2.20324 47.692 2.65941 47.692 3.27088V4.36765H47.906C48.4021 4.36765 48.7814 4.46471 49.0635 4.65882C49.3359 4.85294 49.4721 5.12471 49.4721 5.47412C49.4721 5.82353 49.3359 6.09529 49.0732 6.27971C48.8106 6.46412 48.4118 6.55147 47.8865 6.55147H47.6822V10.9676C47.6822 11.5888 47.585 12.045 47.3807 12.3362C47.1764 12.6274 46.8651 12.7826 46.4469 12.7826C46.0286 12.7826 45.7076 12.6371 45.5033 12.3362C45.2991 12.0353 45.1921 11.5791 45.1921 10.9676V6.55147H45.2115Z" fill="white"/>
<path d="M55.3279 11.9188C55.075 12.2294 54.7734 12.4624 54.4135 12.6274C54.0536 12.7924 53.6645 12.87 53.2462 12.87C52.186 12.87 51.2911 12.4526 50.5615 11.6082C49.832 10.7735 49.472 9.72529 49.472 8.46353C49.472 7.20176 49.8514 6.18265 50.6004 5.32853C51.3494 4.48412 52.2638 4.05706 53.3435 4.05706C53.7618 4.05706 54.1412 4.125 54.4622 4.27059C54.7929 4.41618 55.075 4.63941 55.3279 4.94029C55.4738 4.67824 55.6392 4.48412 55.8434 4.34824C56.0477 4.21235 56.2714 4.14441 56.5146 4.14441C56.9329 4.14441 57.2442 4.29 57.4387 4.58118C57.643 4.87235 57.7403 5.32853 57.7403 5.94971V10.9579C57.7403 11.5694 57.643 12.0256 57.4387 12.3265C57.2344 12.6274 56.9329 12.7729 56.5146 12.7729C56.2325 12.7729 55.9991 12.705 55.8143 12.5691C55.6197 12.4332 55.4641 12.21 55.3279 11.9091V11.9188ZM52.0401 8.43441C52.0401 9.04588 52.186 9.54088 52.4875 9.90971C52.7891 10.2785 53.1782 10.4726 53.6548 10.4726C54.1314 10.4726 54.5011 10.2882 54.8026 9.90971C55.1042 9.53118 55.2501 9.03618 55.2501 8.43441C55.2501 7.83265 55.1042 7.36676 54.8026 6.99794C54.5011 6.62912 54.1217 6.44471 53.6548 6.44471C53.1879 6.44471 52.7988 6.62912 52.4972 6.99794C52.1957 7.36676 52.0498 7.84235 52.0498 8.43441H52.0401Z" fill="white"/>
<path d="M59.0242 2.05765C59.0242 1.65971 59.1701 1.32 59.4522 1.03853C59.7343 0.757059 60.0748 0.611471 60.4736 0.611471C60.8724 0.611471 61.2032 0.757059 61.4755 1.03853C61.7576 1.32 61.8938 1.65971 61.8938 2.05765C61.8938 2.45559 61.7576 2.79529 61.4852 3.07676C61.2129 3.35824 60.8724 3.49412 60.4833 3.49412C60.0942 3.49412 59.7343 3.35824 59.462 3.07676C59.1799 2.79529 59.0437 2.45559 59.0437 2.05765H59.0242ZM61.6895 10.9774C61.6895 11.5985 61.5922 12.0547 61.388 12.3459C61.1837 12.6371 60.8821 12.7924 60.4639 12.7924C60.0456 12.7924 59.7246 12.6468 59.5203 12.3459C59.3161 12.045 59.2091 11.5888 59.2091 10.9774V5.96912C59.2091 5.35765 59.3063 4.90147 59.5106 4.61029C59.7149 4.31912 60.0261 4.16382 60.4541 4.16382C60.8821 4.16382 61.1837 4.30941 61.3782 4.61029C61.5825 4.90147 61.6798 5.35765 61.6798 5.96912V10.9774H61.6895Z" fill="white"/>
<path d="M63.0708 10.9676V5.95941C63.0708 5.34794 63.1681 4.89176 63.3724 4.60059C63.5767 4.30941 63.8879 4.15412 64.3062 4.15412C64.5591 4.15412 64.7828 4.22206 64.9774 4.34824C65.1719 4.47441 65.347 4.67823 65.4929 4.95C65.7556 4.65882 66.0669 4.44529 66.417 4.30941C66.7672 4.17353 67.1952 4.10559 67.6913 4.10559C68.6738 4.10559 69.4228 4.38706 69.9383 4.95C70.4539 5.51294 70.7165 6.32823 70.7165 7.39588V10.9676C70.7165 11.5791 70.6095 12.0353 70.4052 12.3362C70.201 12.6371 69.8897 12.7826 69.4617 12.7826C69.0337 12.7826 68.7224 12.6371 68.5181 12.3362C68.3139 12.0353 68.2069 11.5791 68.2069 10.9676V8.15294C68.2069 7.45412 68.0999 6.95912 67.8956 6.66794C67.6913 6.37676 67.3411 6.22147 66.8645 6.22147C66.4073 6.22147 66.0766 6.37676 65.8626 6.67765C65.6486 6.98823 65.5416 7.46382 65.5416 8.11412V10.9676C65.5416 11.5791 65.4346 12.0353 65.2303 12.3362C65.026 12.6371 64.7148 12.7826 64.2868 12.7826C63.8588 12.7826 63.5572 12.6371 63.3529 12.3362C63.1487 12.0353 63.0514 11.5791 63.0514 10.9676H63.0708Z" fill="white"/>
<path d="M74.4323 9.16235C74.4906 9.62823 74.6852 9.99706 75.0062 10.2591C75.3369 10.5212 75.7649 10.6571 76.3097 10.6571C76.7766 10.6571 77.3018 10.5212 77.8758 10.2494C78.4497 9.97765 78.7998 9.84176 78.936 9.84176C79.2278 9.84176 79.471 9.92912 79.6558 10.1135C79.8407 10.2979 79.9379 10.5212 79.9379 10.8124C79.9379 11.3462 79.5683 11.8315 78.8193 12.2585C78.0703 12.6856 77.1948 12.8991 76.1929 12.8991C74.9673 12.8991 73.9362 12.4818 73.1191 11.6374C72.2923 10.8026 71.8837 9.7447 71.8837 8.48294C71.8837 7.22118 72.2826 6.15353 73.0802 5.29941C73.8778 4.455 74.8797 4.02794 76.0665 4.02794C77.2532 4.02794 78.1773 4.42588 78.9555 5.22176C79.7337 6.01765 80.1228 6.99794 80.1228 8.14324C80.1228 8.52176 80.0352 8.78382 79.8698 8.92941C79.7045 9.075 79.3738 9.15265 78.8874 9.15265H74.442L74.4323 9.16235ZM74.4031 7.53176H77.6909C77.6617 7.11441 77.4867 6.75529 77.1851 6.47382C76.8738 6.19235 76.5042 6.04676 76.0859 6.04676C75.6676 6.04676 75.298 6.18265 74.9965 6.44471C74.6949 6.71647 74.5004 7.07559 74.4128 7.52206L74.4031 7.53176Z" fill="white"/>
<path d="M81.2122 10.9676V5.95941C81.2122 5.34794 81.3095 4.89176 81.5138 4.60059C81.718 4.30941 82.0293 4.15412 82.4476 4.15412C82.7005 4.15412 82.9242 4.22206 83.1188 4.34824C83.3133 4.47441 83.4884 4.67823 83.6343 4.95C83.8872 4.66853 84.1596 4.46471 84.4514 4.31912C84.7432 4.17353 85.0253 4.10559 85.3269 4.10559C85.6673 4.10559 85.9689 4.23176 86.2218 4.47441C86.4747 4.71706 86.5914 5.00824 86.5914 5.33824C86.5914 5.83324 86.1342 6.25059 85.2199 6.59029C84.8891 6.70676 84.646 6.80382 84.4806 6.88147C84.1693 7.02706 83.9553 7.20176 83.858 7.37647C83.7608 7.55118 83.7024 7.89088 83.7024 8.36647V10.9579C83.7024 11.5694 83.5954 12.0256 83.3911 12.3265C83.1869 12.6274 82.8756 12.7729 82.4476 12.7729C82.0196 12.7729 81.718 12.6274 81.5138 12.3265C81.3095 12.0256 81.2122 11.5694 81.2122 10.9579V10.9676Z" fill="white"/>
<path d="M2.38218 11.5888V12.0062C2.38218 12.2779 2.34327 12.4818 2.25572 12.6176C2.16817 12.7535 2.04172 12.8118 1.8569 12.8118C1.67208 12.8118 1.54563 12.7438 1.45808 12.6079C1.37054 12.4721 1.3219 12.2682 1.3219 11.9965V10.0262C1.3219 9.75441 1.37054 9.55059 1.45808 9.42441C1.54563 9.28853 1.68181 9.22059 1.8569 9.22059C2.03199 9.22059 2.16817 9.28853 2.25572 9.42441C2.34327 9.56029 2.38218 9.76412 2.38218 10.0359V10.4532H5.57273C5.84509 10.4532 6.04937 10.5018 6.17582 10.5891C6.312 10.6862 6.37037 10.8221 6.37037 11.0162C6.37037 11.2103 6.30228 11.3462 6.17582 11.4432C6.03964 11.5403 5.84509 11.5791 5.57273 11.5791H2.38218V11.5888Z" fill="white"/>
<path d="M2.85882 7.88118C2.73237 7.76471 2.64482 7.62882 2.58646 7.48324C2.52809 7.33765 2.50864 7.15324 2.50864 6.93C2.50864 6.49324 2.63509 6.16324 2.87828 5.93029C3.13119 5.69735 3.4911 5.58088 3.96773 5.58088H5.55328C5.82565 5.58088 6.02992 5.62941 6.15638 5.71677C6.29256 5.80412 6.35092 5.94971 6.35092 6.13412C6.35092 6.31853 6.28283 6.46412 6.15638 6.55147C6.02019 6.63882 5.82565 6.68735 5.55328 6.68735H4.29846C3.98719 6.68735 3.77319 6.73588 3.63701 6.82324C3.50083 6.9203 3.44246 7.06588 3.44246 7.27941C3.44246 7.48324 3.51055 7.62882 3.64673 7.72588C3.78292 7.82294 3.99692 7.87147 4.28874 7.87147H5.55328C5.82565 7.87147 6.02992 7.92 6.15638 8.00735C6.29256 8.09471 6.35092 8.24029 6.35092 8.42471C6.35092 8.60912 6.28283 8.75471 6.15638 8.84206C6.02019 8.92941 5.82565 8.97794 5.55328 8.97794H1.75964C1.48727 8.97794 1.283 8.92941 1.14682 8.84206C1.01064 8.75471 0.952271 8.60912 0.952271 8.42471C0.952271 8.24029 1.02036 8.09471 1.15654 8.00735C1.29273 7.92 1.497 7.87147 1.75964 7.87147H2.85882V7.88118Z" fill="white"/>
<path d="M4.75564 3.94059C4.95991 3.91147 5.12528 3.83382 5.24201 3.68824C5.35873 3.54265 5.4171 3.34853 5.4171 3.10588C5.4171 2.90206 5.35874 2.66912 5.23228 2.41676C5.11555 2.16441 5.04746 2.00912 5.04746 1.95088C5.04746 1.82471 5.08637 1.71794 5.16419 1.63059C5.24201 1.55294 5.34901 1.50441 5.47546 1.50441C5.70892 1.50441 5.92292 1.66941 6.11747 1.99941C6.31201 2.32941 6.39955 2.71765 6.39955 3.16412C6.39955 3.70765 6.21474 4.16382 5.8451 4.53265C5.47546 4.90147 5.00855 5.07618 4.44437 5.07618C3.88018 5.07618 3.41327 4.90147 3.03391 4.54235C2.65454 4.18324 2.46973 3.74647 2.46973 3.21265C2.46973 2.67882 2.64482 2.27118 3.00473 1.93147C3.35491 1.58206 3.79264 1.41706 4.30819 1.41706C4.47355 1.41706 4.59028 1.45588 4.65837 1.53353C4.72646 1.61118 4.75564 1.75676 4.75564 1.97029V3.94059ZM4.03582 3.95029V2.49441C3.851 2.50412 3.69536 2.58176 3.56891 2.71765C3.44245 2.85353 3.38409 3.01853 3.38409 3.20294C3.38409 3.38735 3.44246 3.55235 3.55918 3.68824C3.67591 3.82412 3.84128 3.91147 4.03582 3.95029Z" fill="white"/>
<path d="M8.73412 22.1585C8.3353 22.1585 8.06294 22.0906 7.91703 21.9547C7.77112 21.8188 7.6933 21.5665 7.6933 21.1976V16.5388C7.6933 16.1312 7.77112 15.8497 7.92676 15.6944C8.08239 15.5391 8.35476 15.4615 8.74385 15.4615H9.99867C10.6601 15.4615 11.1757 15.6071 11.5453 15.8982C11.9149 16.1894 12.09 16.5971 12.09 17.1212C12.09 17.4512 12.0219 17.7229 11.8858 17.9365C11.7496 18.15 11.5453 18.315 11.2632 18.4412C11.7009 18.5479 12.0414 18.7518 12.2749 19.0429C12.5083 19.3341 12.625 19.7029 12.625 20.1397C12.625 20.7706 12.411 21.2656 11.9928 21.6247C11.5745 21.9838 10.9909 22.1585 10.2321 22.1585H8.72439H8.73412ZM9.23021 18.0724H9.87222C10.0959 18.0724 10.2808 18.0141 10.4169 17.8976C10.5531 17.7812 10.6212 17.6259 10.6212 17.4318C10.6212 17.2376 10.5531 17.0726 10.4072 16.9465C10.2613 16.8203 10.0765 16.7718 9.84303 16.7718H9.22048V18.0821L9.23021 18.0724ZM9.23021 20.8482H9.99867C10.3391 20.8482 10.592 20.7803 10.7671 20.6541C10.9422 20.5279 11.0298 20.3338 11.0298 20.0912C11.0298 19.8485 10.9422 19.6447 10.7671 19.5282C10.592 19.4021 10.3294 19.3438 9.95976 19.3438H9.22048V20.8482H9.23021Z" fill="white"/>
<path d="M13.4324 21.1394V18.1597C13.4324 17.7909 13.4908 17.5288 13.6173 17.3444C13.734 17.1697 13.9285 17.0824 14.1814 17.0824C14.3273 17.0824 14.4635 17.1212 14.5803 17.1988C14.697 17.2765 14.804 17.3929 14.8915 17.5579C15.0472 17.3929 15.2125 17.2668 15.3779 17.1794C15.553 17.0921 15.7281 17.0532 15.9032 17.0532C16.1074 17.0532 16.2825 17.1212 16.4382 17.2668C16.5841 17.4124 16.6619 17.5871 16.6619 17.7812C16.6619 18.0821 16.3895 18.3247 15.8448 18.5285C15.6503 18.5965 15.5043 18.6547 15.4071 18.7032C15.2223 18.7906 15.0958 18.8876 15.0374 19.0041C14.9791 19.1109 14.9499 19.3147 14.9499 19.5962V21.1394C14.9499 21.5082 14.8915 21.78 14.7651 21.9547C14.6386 22.1294 14.4538 22.2168 14.2009 22.2168C13.948 22.2168 13.7632 22.1294 13.6367 21.9547C13.52 21.78 13.4519 21.5082 13.4519 21.1394H13.4324Z" fill="white"/>
<path d="M16.944 15.8303C16.944 15.5974 17.0315 15.3935 17.1969 15.2188C17.3622 15.0441 17.5665 14.9665 17.8097 14.9665C18.0529 14.9665 18.2474 15.0538 18.4128 15.2188C18.5782 15.3838 18.6657 15.5876 18.6657 15.8303C18.6657 16.0729 18.5879 16.2671 18.4225 16.4418C18.2572 16.6068 18.0529 16.6941 17.8194 16.6941C17.586 16.6941 17.372 16.6068 17.2066 16.4418C17.0412 16.2768 16.9537 16.0729 16.9537 15.8303H16.944ZM18.5393 21.1394C18.5393 21.5082 18.4809 21.78 18.3642 21.9547C18.2474 22.1294 18.0626 22.2168 17.8097 22.2168C17.5568 22.2168 17.372 22.1294 17.2455 21.9547C17.1191 21.78 17.0607 21.5082 17.0607 21.1394V18.1597C17.0607 17.7909 17.1191 17.5288 17.2455 17.3444C17.3622 17.1697 17.5568 17.0824 17.8097 17.0824C18.0626 17.0824 18.2474 17.1697 18.3642 17.3444C18.4809 17.5191 18.5393 17.7909 18.5393 18.1597V21.1394Z" fill="white"/>
<path d="M19.9108 18.5091H19.8524C19.5898 18.5091 19.3855 18.4509 19.2396 18.3344C19.0937 18.2179 19.0159 18.0626 19.0159 17.8685C19.0159 17.6744 19.0937 17.5094 19.2396 17.4026C19.3855 17.2959 19.6092 17.2279 19.9108 17.2182V16.5679C19.9108 16.1991 19.9691 15.9274 20.0956 15.7526C20.2221 15.5779 20.4069 15.4906 20.6598 15.4906C20.9127 15.4906 21.0975 15.5779 21.2142 15.7526C21.331 15.9274 21.3991 16.1991 21.3991 16.5679V17.2182H21.5255C21.8173 17.2182 22.0508 17.2765 22.2162 17.3929C22.3815 17.5094 22.4593 17.6744 22.4593 17.8782C22.4593 18.0821 22.3815 18.2471 22.2259 18.3538C22.0702 18.4606 21.8271 18.5188 21.5158 18.5188H21.3991V21.1491C21.3991 21.5179 21.3407 21.7897 21.224 21.9644C21.1072 22.1391 20.9224 22.2265 20.6695 22.2265C20.4166 22.2265 20.2318 22.1391 20.1053 21.9644C19.9789 21.7897 19.9205 21.5179 19.9205 21.1491V18.5188L19.9108 18.5091Z" fill="white"/>
<path d="M25.9612 21.7024C25.8153 21.8868 25.6305 22.0226 25.4165 22.1197C25.2025 22.2168 24.969 22.2653 24.7161 22.2653C24.0838 22.2653 23.5488 22.0129 23.1111 21.5179C22.6733 21.0229 22.4594 20.3921 22.4594 19.6447C22.4594 18.8974 22.6831 18.2859 23.1305 17.7812C23.578 17.2765 24.1227 17.0241 24.7744 17.0241C25.0274 17.0241 25.2511 17.0629 25.4456 17.1503C25.6402 17.2376 25.8153 17.3735 25.9612 17.5482C26.0487 17.3929 26.146 17.2765 26.2725 17.1988C26.3892 17.1212 26.5254 17.0824 26.6713 17.0824C26.9242 17.0824 27.109 17.1697 27.2257 17.3444C27.3425 17.5191 27.4008 17.7909 27.4008 18.1597V21.1394C27.4008 21.5082 27.3425 21.78 27.216 21.9547C27.0993 22.1294 26.9145 22.2168 26.6615 22.2168C26.4962 22.2168 26.36 22.1779 26.2433 22.0906C26.1265 22.0032 26.0293 21.8771 25.9515 21.7024H25.9612ZM23.9963 19.6253C23.9963 19.9941 24.0838 20.2853 24.2589 20.5085C24.434 20.7318 24.6674 20.8385 24.9593 20.8385C25.2511 20.8385 25.4651 20.7221 25.6499 20.4988C25.825 20.2756 25.9125 19.9844 25.9125 19.6253C25.9125 19.2662 25.825 18.9944 25.6402 18.7712C25.4554 18.5479 25.2316 18.4412 24.9593 18.4412C24.6869 18.4412 24.4437 18.5479 24.2686 18.7712C24.0935 18.9944 23.9963 19.2759 23.9963 19.6253Z" fill="white"/>
<path d="M28.3735 15.8303C28.3735 15.5974 28.4611 15.3935 28.6264 15.2188C28.7918 15.0441 28.9961 14.9665 29.2393 14.9665C29.4825 14.9665 29.677 15.0538 29.8424 15.2188C30.0077 15.3838 30.0953 15.5876 30.0953 15.8303C30.0953 16.0729 30.0174 16.2671 29.8521 16.4418C29.6867 16.6068 29.4824 16.6941 29.249 16.6941C29.0155 16.6941 28.8015 16.6068 28.6362 16.4418C28.4708 16.2768 28.3833 16.0729 28.3833 15.8303H28.3735ZM29.9688 21.1394C29.9688 21.5082 29.9105 21.78 29.7937 21.9547C29.677 22.1294 29.4922 22.2168 29.2393 22.2168C28.9864 22.2168 28.8015 22.1294 28.6751 21.9547C28.5486 21.78 28.4903 21.5082 28.4903 21.1394V18.1597C28.4903 17.7909 28.5486 17.5288 28.6751 17.3444C28.7918 17.1697 28.9864 17.0824 29.2393 17.0824C29.4922 17.0824 29.677 17.1697 29.7937 17.3444C29.9105 17.5191 29.9688 17.7909 29.9688 18.1597V21.1394Z" fill="white"/>
<path d="M31.0291 21.1394V18.1597C31.0291 17.7909 31.0874 17.5288 31.2139 17.3444C31.3306 17.1697 31.5252 17.0824 31.7781 17.0824C31.924 17.0824 32.0602 17.1212 32.1769 17.1988C32.2936 17.2765 32.4006 17.3929 32.4882 17.5579C32.6438 17.3832 32.8286 17.2571 33.0426 17.1794C33.2469 17.1018 33.5095 17.0629 33.8014 17.0629C34.385 17.0629 34.8325 17.2279 35.1437 17.5676C35.455 17.8976 35.6106 18.3926 35.6106 19.0235V21.1491C35.6106 21.5179 35.5523 21.7897 35.4258 21.9644C35.2994 22.1391 35.1145 22.2265 34.8616 22.2265C34.6087 22.2265 34.4239 22.1391 34.2974 21.9644C34.171 21.7897 34.1126 21.5179 34.1126 21.1491V19.47C34.1126 19.0526 34.0543 18.7615 33.9278 18.5868C33.8014 18.4121 33.5971 18.3247 33.315 18.3247C33.0426 18.3247 32.8481 18.4121 32.7119 18.5965C32.5854 18.7809 32.5174 19.0624 32.5174 19.4506V21.1491C32.5174 21.5179 32.459 21.7897 32.3325 21.9644C32.2061 22.1391 32.0213 22.2265 31.7684 22.2265C31.5154 22.2265 31.3306 22.1391 31.2042 21.9644C31.0874 21.7897 31.0193 21.5179 31.0193 21.1491L31.0291 21.1394Z" fill="white"/>
<path d="M37.381 16.665C37.3227 16.6844 37.274 16.7038 37.2157 16.7135C37.1573 16.7232 37.0989 16.7329 37.0503 16.7329C36.846 16.7329 36.6807 16.6747 36.5542 16.5485C36.4277 16.4224 36.3694 16.2574 36.3694 16.0535C36.3694 15.8303 36.4472 15.6459 36.5931 15.5003C36.739 15.3547 36.9336 15.2868 37.1573 15.2868C37.4297 15.2868 37.6534 15.3935 37.8188 15.6071C37.9938 15.8206 38.0814 16.0924 38.0814 16.4321C38.0814 16.8591 37.9355 17.2474 37.6339 17.5871C37.3421 17.9268 37.0211 18.1015 36.6807 18.1015C36.6028 18.1015 36.5445 18.0724 36.4861 18.0238C36.4277 17.9753 36.3986 17.9171 36.3986 17.8491C36.3986 17.7326 36.5153 17.6162 36.7487 17.4997C36.8168 17.4706 36.8655 17.4415 36.9044 17.4221C37.0697 17.3347 37.1865 17.2279 37.2643 17.1115C37.3421 16.995 37.381 16.8494 37.381 16.6844V16.665Z" fill="white"/>
<path d="M40.1922 22.3041C39.6572 22.3041 39.2195 22.1974 38.8693 21.9838C38.5191 21.7703 38.3441 21.5082 38.3441 21.1976C38.3441 21.0132 38.4024 20.8482 38.5094 20.7221C38.6164 20.5959 38.7526 20.5279 38.9082 20.5279C39.0639 20.5279 39.2973 20.5959 39.5989 20.7415C39.9004 20.8871 40.1339 20.955 40.2895 20.955C40.416 20.955 40.5132 20.9259 40.5911 20.8676C40.6689 20.8094 40.7078 20.7415 40.7078 20.6541C40.7078 20.5085 40.4743 20.3338 39.9977 20.1494C39.9588 20.13 39.9199 20.1203 39.9102 20.1106C39.3654 19.8874 38.9861 19.6544 38.7915 19.4409C38.5872 19.2176 38.49 18.9362 38.49 18.5965C38.49 18.1403 38.6651 17.7618 39.0152 17.4512C39.3654 17.1503 39.8129 16.995 40.3479 16.995C40.8342 16.995 41.2428 17.1018 41.5832 17.3056C41.9237 17.5094 42.0891 17.7521 42.0891 18.0335C42.0891 18.2082 42.0307 18.3538 41.914 18.4703C41.7972 18.5868 41.6513 18.645 41.4762 18.645C41.3595 18.645 41.165 18.5868 40.9023 18.4703C40.63 18.3538 40.4257 18.2956 40.2798 18.2956C40.1825 18.2956 40.095 18.315 40.0366 18.3635C39.9782 18.4121 39.9491 18.4703 39.9491 18.5479C39.9491 18.6838 40.1436 18.8294 40.5424 18.9847C40.7272 19.0526 40.8732 19.1109 40.9802 19.1594C41.4276 19.3632 41.7389 19.5671 41.9334 19.7903C42.1182 20.0135 42.2155 20.2853 42.2155 20.5959C42.2155 21.0812 42.021 21.4888 41.6416 21.8091C41.2622 22.1294 40.7856 22.2944 40.202 22.2944L40.1922 22.3041Z" fill="white"/>
<path d="M46.8846 16.8785H46.3204C45.9508 16.8785 45.6784 16.8203 45.5033 16.7038C45.3282 16.5874 45.2407 16.4126 45.2407 16.1797C45.2407 15.9468 45.3282 15.7526 45.513 15.6362C45.6881 15.5197 45.9702 15.4615 46.3301 15.4615H48.9857C49.3456 15.4615 49.618 15.5197 49.8028 15.6362C49.9876 15.7526 50.0751 15.9371 50.0751 16.1797C50.0751 16.4224 49.9876 16.5874 49.8028 16.7038C49.6277 16.8203 49.3456 16.8785 48.9857 16.8785H48.4215V21.1588C48.4215 21.5276 48.3631 21.7994 48.2367 21.9741C48.1102 22.1488 47.9157 22.2362 47.6628 22.2362C47.4098 22.2362 47.2153 22.1488 47.0889 21.9741C46.9624 21.7994 46.904 21.5276 46.904 21.1588V16.8785H46.8846Z" fill="white"/>
<path d="M49.3651 19.6544C49.3651 18.8779 49.5985 18.2471 50.0751 17.7521C50.5518 17.2571 51.1549 17.0047 51.8844 17.0047C52.614 17.0047 53.2171 17.2571 53.6937 17.7521C54.1606 18.2471 54.3941 18.8876 54.3941 19.6641C54.3941 20.4406 54.1606 21.0812 53.6937 21.5762C53.2268 22.0712 52.6237 22.3235 51.8844 22.3235C51.1452 22.3235 50.5518 22.0712 50.0751 21.5762C49.5985 21.0812 49.3651 20.4406 49.3651 19.6641V19.6544ZM50.902 19.635C50.902 20.0135 50.9895 20.3241 51.1743 20.5571C51.3591 20.79 51.5926 20.9065 51.8844 20.9065C52.1762 20.9065 52.4097 20.79 52.5945 20.5571C52.7793 20.3241 52.8669 20.0232 52.8669 19.6447C52.8669 19.2662 52.7696 18.9847 52.5848 18.7518C52.4 18.5188 52.1665 18.4024 51.8844 18.4024C51.6023 18.4024 51.3591 18.5188 51.1743 18.7518C50.9895 18.9847 50.902 19.2759 50.902 19.6447V19.635Z" fill="white"/>
<path d="M57.8667 17.6744C57.9446 17.4706 58.0321 17.3153 58.1391 17.2279C58.2461 17.1309 58.3726 17.0824 58.5282 17.0824C58.7519 17.0824 58.927 17.1503 59.0535 17.2765C59.1896 17.4026 59.248 17.5774 59.248 17.7909C59.248 17.8588 59.2383 17.9365 59.2188 18.0238C59.1994 18.1112 59.1702 18.1985 59.1313 18.3053L56.8648 23.6726C56.7675 23.8959 56.6703 24.0609 56.573 24.1482C56.4757 24.2356 56.359 24.2841 56.2131 24.2841C55.9894 24.2841 55.8045 24.2162 55.6781 24.09C55.5419 23.9638 55.4835 23.7891 55.4835 23.5659C55.4835 23.4785 55.4933 23.4009 55.5127 23.3135C55.5322 23.2262 55.5614 23.1388 55.6003 23.0515L56.2131 21.7315L54.7151 18.2374C54.6859 18.1791 54.6762 18.1209 54.6567 18.0529C54.647 17.985 54.6373 17.9074 54.6373 17.82C54.6373 17.6162 54.7054 17.4415 54.8415 17.2959C54.9777 17.1503 55.1528 17.0824 55.3571 17.0824C55.5322 17.0824 55.6781 17.1309 55.7948 17.2376C55.9115 17.3347 56.0088 17.5288 56.1158 17.8006L56.9524 20.0426L57.8667 17.6744Z" fill="white"/>
<path d="M67.2341 20.0815C67.2341 20.7512 66.9909 21.2947 66.5143 21.7121C66.0377 22.1294 65.4054 22.3332 64.6272 22.3332C64.0241 22.3332 63.5183 22.2265 63.0903 22.0129C62.6623 21.7994 62.458 21.5471 62.458 21.2559C62.458 21.0521 62.5261 20.8871 62.6623 20.7609C62.7985 20.6347 62.9833 20.5765 63.2167 20.5765C63.3335 20.5765 63.5669 20.6347 63.9268 20.7512C64.2867 20.8676 64.598 20.9259 64.8412 20.9259C65.0552 20.9259 65.24 20.8579 65.3762 20.7318C65.5221 20.5959 65.5902 20.4406 65.5902 20.2368C65.5902 20.0232 65.5124 19.8582 65.3665 19.7224C65.2206 19.5962 64.8996 19.4603 64.4132 19.305C63.7128 19.1012 63.2167 18.8488 62.9346 18.5576C62.6526 18.2665 62.5164 17.8879 62.5164 17.4026C62.5164 16.7815 62.7401 16.2671 63.1876 15.8788C63.635 15.4809 64.2284 15.2868 64.9482 15.2868C65.4832 15.2868 65.9209 15.3838 66.2614 15.5682C66.6018 15.7526 66.7769 15.9953 66.7769 16.2768C66.7769 16.4806 66.7186 16.6359 66.5921 16.7524C66.4754 16.8688 66.3003 16.9271 66.0863 16.9271C65.9696 16.9271 65.775 16.8882 65.5027 16.8106C65.2303 16.7329 65.026 16.6941 64.8898 16.6941C64.6661 16.6941 64.4813 16.7426 64.3451 16.8494C64.2089 16.9562 64.1408 17.0921 64.1408 17.2668C64.1408 17.5385 64.4424 17.7715 65.0357 17.9559C65.1719 17.9947 65.2789 18.0335 65.3567 18.0529C65.9987 18.2665 66.4657 18.5382 66.7672 18.8682C67.059 19.1982 67.2049 19.6059 67.2049 20.0912L67.2341 20.0815Z" fill="white"/>
<path d="M69.4228 17.5191C69.5784 17.3541 69.7632 17.2376 69.9578 17.16C70.1523 17.0824 70.4052 17.0532 70.697 17.0532C71.2807 17.0532 71.7281 17.2182 72.0394 17.5579C72.3507 17.8879 72.5063 18.3829 72.5063 19.0138V21.1394C72.5063 21.5082 72.448 21.78 72.3215 21.9547C72.1951 22.1294 72.0102 22.2168 71.7573 22.2168C71.5044 22.2168 71.3196 22.1294 71.1931 21.9547C71.0667 21.78 71.0083 21.5082 71.0083 21.1394V19.4603C71.0083 19.0429 70.95 18.7518 70.8235 18.5771C70.697 18.4024 70.4928 18.315 70.2107 18.315C69.9383 18.315 69.7438 18.4024 69.6076 18.5868C69.4811 18.7712 69.413 19.0526 69.413 19.4409V21.1394C69.413 21.5082 69.3547 21.78 69.2282 21.9547C69.1018 22.1294 68.9169 22.2168 68.664 22.2168C68.4111 22.2168 68.2263 22.1294 68.0999 21.9547C67.9831 21.78 67.915 21.5082 67.915 21.1394V16.0535C67.915 15.6847 67.9734 15.4129 68.0999 15.2382C68.2166 15.0635 68.4111 14.9762 68.664 14.9762C68.9169 14.9762 69.1018 15.0635 69.2282 15.2479C69.3547 15.4324 69.413 15.7041 69.413 16.0632V17.5288L69.4228 17.5191Z" fill="white"/>
<path d="M73.197 19.6544C73.197 18.8779 73.4304 18.2471 73.9071 17.7521C74.3837 17.2571 74.9868 17.0047 75.7163 17.0047C76.4459 17.0047 77.049 17.2571 77.5256 17.7521C77.9925 18.2471 78.226 18.8876 78.226 19.6641C78.226 20.4406 77.9925 21.0812 77.5256 21.5762C77.0587 22.0712 76.4556 22.3235 75.7163 22.3235C74.9771 22.3235 74.3837 22.0712 73.9071 21.5762C73.4304 21.0812 73.197 20.4406 73.197 19.6641V19.6544ZM74.7339 19.635C74.7339 20.0135 74.8214 20.3241 75.0062 20.5571C75.1911 20.79 75.4245 20.9065 75.7163 20.9065C76.0082 20.9065 76.2416 20.79 76.4264 20.5571C76.6113 20.3241 76.6988 20.0232 76.6988 19.6447C76.6988 19.2662 76.6015 18.9847 76.4167 18.7518C76.2319 18.5188 75.9984 18.4024 75.7163 18.4024C75.4342 18.4024 75.1911 18.5188 75.0062 18.7518C74.8214 18.9847 74.7339 19.2759 74.7339 19.6447V19.635Z" fill="white"/>
<path d="M80.4633 23.1485C80.4633 23.5174 80.4049 23.7891 80.2785 23.9638C80.152 24.1385 79.9672 24.2259 79.7143 24.2259C79.4614 24.2259 79.2765 24.1385 79.1501 23.9638C79.0334 23.7891 78.9653 23.5174 78.9653 23.1485V18.1597C78.9653 17.7909 79.0236 17.5288 79.1501 17.3444C79.2668 17.1697 79.4614 17.0824 79.7143 17.0824C79.8602 17.0824 79.9964 17.1212 80.1131 17.1988C80.2298 17.2765 80.3368 17.3929 80.4244 17.5579C80.58 17.3929 80.7551 17.2668 80.9691 17.1794C81.1734 17.0921 81.4068 17.0532 81.65 17.0532C82.292 17.0532 82.827 17.3056 83.2647 17.8006C83.7025 18.2956 83.9165 18.9168 83.9165 19.6641C83.9165 20.4115 83.6927 21.0326 83.2453 21.5568C82.7978 22.0809 82.2628 22.3332 81.6306 22.3332C81.4068 22.3332 81.2026 22.2944 81.008 22.2265C80.8135 22.1585 80.6384 22.0421 80.4633 21.9062V23.1679V23.1485ZM80.4341 19.6738C80.4341 20.0524 80.5216 20.3629 80.7065 20.5959C80.8913 20.8288 81.1247 20.9453 81.4166 20.9453C81.7084 20.9453 81.9418 20.8288 82.1266 20.5959C82.3115 20.3629 82.399 20.0621 82.399 19.6835C82.399 19.305 82.3017 19.0235 82.1169 18.7906C81.9321 18.5576 81.6986 18.4412 81.4166 18.4412C81.1345 18.4412 80.8913 18.5576 80.7162 18.7906C80.5411 19.0235 80.4438 19.3147 80.4438 19.6835L80.4341 19.6738Z" fill="white"/>
</svg>
