<svg width="17" height="18" viewBox="0 0 17 18" fill="none" xmlns="http://www.w3.org/2000/svg">
<path d="M16.0182 8.46397L15.9872 8.45962C14.605 8.26536 13.403 7.6862 12.3814 6.72214L11.6073 12.2305C11.4101 13.6334 10.7483 14.7501 9.62173 15.5805C8.51292 16.4345 7.25707 16.7629 5.85419 16.5658C4.47194 16.3715 3.35527 15.7097 2.50418 14.5802C1.67081 13.4743 1.35126 12.2302 1.54553 10.848C1.74269 9.44509 2.39422 8.32697 3.50014 7.49361C4.62958 6.64251 5.89574 6.31555 7.29862 6.51271C7.52555 6.5446 7.75104 6.58681 7.97508 6.63934L7.58365 9.42446C7.36541 9.33068 7.14283 9.26784 6.91589 9.23595C6.27634 9.14606 5.69774 9.29616 5.18008 9.68625C4.66242 10.0763 4.35865 10.5912 4.26876 11.2307C4.18178 11.8496 4.33333 12.4179 4.72342 12.9356C5.1135 13.4532 5.618 13.7555 6.23692 13.8425C6.87647 13.9324 7.45507 13.7823 7.97273 13.3922C8.49039 13.0021 8.79417 12.4873 8.88405 11.8478L10.4019 1.04767L13.1251 1.43039C13.1222 1.45102 13.1208 1.46134 13.1208 1.46134C13.0889 1.68828 13.0791 1.9078 13.0914 2.1199C13.1469 3.22169 13.5879 4.12519 14.4145 4.83043C14.9754 5.33002 15.6376 5.63346 16.4009 5.74074L16.3965 5.77168L16.0182 8.46397Z" fill="#00548B"/>
</svg>
