<svg width="99" height="23" viewBox="0 0 99 23" fill="none" xmlns="http://www.w3.org/2000/svg">
<g clip-path="url(#clip0_2253_354)">
<path d="M74.4401 14.58H73.0601C72.6458 14.58 72.3101 14.9158 72.3101 15.33V18.69C72.3101 19.1042 72.6458 19.44 73.0601 19.44H74.4401C74.8543 19.44 75.1901 19.1042 75.1901 18.69V15.33C75.1901 14.9158 74.8543 14.58 74.4401 14.58Z" fill="#C4D600"/>
<path d="M95.18 15.01C95.8041 15.01 96.31 14.034 96.31 12.83C96.31 11.626 95.8041 10.65 95.18 10.65C94.556 10.65 94.05 11.626 94.05 12.83C94.05 14.034 94.556 15.01 95.18 15.01Z" fill="#C4D600"/>
<path d="M93.5301 16.81C94.6678 16.81 95.5901 15.0281 95.5901 12.83C95.5901 10.6319 94.6678 8.85001 93.5301 8.85001C92.3924 8.85001 91.4701 10.6319 91.4701 12.83C91.4701 15.0281 92.3924 16.81 93.5301 16.81Z" fill="#C4D600"/>
<path d="M87.4801 9.64001C87.0001 9.64001 86.5401 9.65001 86.1901 9.62001C85.8301 9.59001 85.5801 9.50001 85.4001 9.26001C85.2201 9.03001 85.1201 8.64001 85.0501 8.07001C84.9701 7.48001 84.9101 6.67001 84.8201 5.77001C84.7401 4.81001 84.6301 3.83001 84.5901 3.03001C84.5401 2.18001 84.5701 1.56001 84.7401 1.17001C84.9101 0.760005 85.2401 0.600005 85.7201 0.530005C86.1901 0.470005 86.8201 0.500005 87.4701 0.490005C88.1201 0.500005 88.7501 0.470005 89.2201 0.530005C89.7001 0.590005 90.0201 0.760005 90.2001 1.17001C90.3701 1.57001 90.4001 2.19001 90.3501 3.03001C90.3101 3.83001 90.2001 4.8 90.1201 5.77001C90.0301 6.67001 89.9701 7.48001 89.8901 8.07001C89.8101 8.64001 89.7201 9.03001 89.5401 9.26001C89.3701 9.49001 89.1101 9.58001 88.7501 9.62001C88.4001 9.65001 87.9401 9.64001 87.4601 9.64001H87.4801Z" fill="#C4D600"/>
<path d="M90.2801 8.07C90.2601 8.24 90.2501 8.4 90.2301 8.57C90.2001 8.81 90.0301 8.98 89.8301 8.96C88.2401 8.74 86.6301 8.74 85.0301 8.96C84.8401 8.99 84.6601 8.82 84.6301 8.57C84.6101 8.4 84.6001 8.24 84.5801 8.07C84.5501 7.83 84.7001 7.61 84.9101 7.58C86.5901 7.35 88.2801 7.35 89.9501 7.58C90.1501 7.61 90.3001 7.83 90.2801 8.07Z" fill="#C4D600"/>
<path d="M92.6501 12.83C92.6401 13.72 92.6701 14.58 92.6101 15.23C92.5501 15.89 92.4001 18.85 92.0101 19.13C91.6301 19.41 91.0201 19.5 90.1501 19.52C89.3101 19.54 88.2201 19.48 87.1001 19.46C86.0001 19.42 84.5401 19.41 83.7601 19.35C82.9801 19.29 82.4301 19.16 82.1001 18.88C81.7601 18.61 81.6301 18.17 81.5801 17.56C81.5301 16.95 81.5601 13.66 81.5501 12.83C81.5501 12 81.5301 11.21 81.5801 10.61C81.6301 10 81.7601 9.56 82.1001 9.29C82.4301 9.01 83.4001 8.89 84.1801 8.82C84.9601 8.75 86.0001 8.75 87.1001 8.71C88.2201 8.68 89.3101 8.63 90.1501 8.65C91.0101 8.67 91.6301 8.76 92.0101 9.04C92.4001 9.32 92.5501 9.78 92.6101 10.44C92.6701 11.09 92.6401 11.94 92.6501 12.84V12.83Z" fill="#C4D600"/>
<path d="M77.84 17.49C77.07 17.49 76.33 17.51 75.76 17.46C75.18 17.41 74.77 17.28 74.49 16.95C74.2 16.62 74.05 16.07 73.92 15.26C73.79 14.42 73.7 13.27 73.56 11.99C73.43 10.62 73.26 9.23 73.19 8.1C73.12 6.9 73.16 6.01 73.44 5.45C73.72 4.87 74.25 4.63 75.02 4.54C75.79 4.45 76.79 4.5 77.85 4.48C78.9 4.5 79.91 4.45 80.68 4.54C81.45 4.63 81.98 4.86 82.26 5.45C82.54 6.01 82.58 6.9 82.51 8.1C82.44 9.23 82.27 10.62 82.14 11.99C82 13.27 81.9 14.42 81.78 15.26C81.66 16.07 81.5 16.62 81.21 16.95C80.93 17.28 80.52 17.41 79.94 17.46C79.37 17.51 78.64 17.48 77.86 17.49H77.84Z" fill="#C4D600"/>
<path d="M77.8301 12.07C77.4701 12.07 77.1201 12.07 76.8601 12.07C76.5901 12.06 76.4001 12.02 76.2701 11.92C76.1401 11.82 76.0601 11.67 76.0001 11.43C75.9401 11.19 75.9001 10.86 75.8301 10.49C75.7701 10.1 75.6901 9.7 75.6601 9.38C75.6301 9.04 75.6401 8.78 75.7801 8.62C75.9101 8.45 76.1601 8.39 76.5201 8.36C76.8801 8.33 77.3501 8.35 77.8401 8.34C78.3301 8.34 78.8001 8.34 79.1601 8.36C79.5201 8.39 79.7701 8.45 79.9001 8.62C80.0301 8.78 80.0501 9.03 80.0201 9.38C79.9901 9.7 79.9101 10.1 79.8501 10.49C79.7801 10.86 79.7401 11.19 79.6801 11.43C79.6201 11.66 79.5501 11.82 79.4101 11.92C79.2801 12.01 79.0901 12.05 78.8201 12.07C78.5501 12.08 78.2101 12.07 77.8501 12.07H77.8301Z" fill="#FAFAFA"/>
<path d="M83.1701 4.81C83.1401 5.06 83.1101 5.32 83.0701 5.57C83.0201 5.94 82.6901 6.19 82.3201 6.15C79.3101 5.82 76.2801 5.82 73.2701 6.15C72.9001 6.19 72.5701 5.93 72.5201 5.57C72.4901 5.32 72.4601 5.06 72.4201 4.81C72.3701 4.44 72.6501 4.11 73.0301 4.07C76.1901 3.72 79.3801 3.72 82.5401 4.07C82.9301 4.11 83.2001 4.45 83.1501 4.81H83.1701Z" fill="#C4D600"/>
<path d="M91.0001 0.750003C90.9801 0.940003 90.9601 1.13 90.9401 1.32C90.9101 1.59 90.6901 1.79 90.4401 1.76C88.4501 1.51 86.4401 1.51 84.4401 1.76C84.2001 1.79 83.9801 1.6 83.9401 1.32C83.9201 1.13 83.9001 0.940003 83.8801 0.750003C83.8501 0.480003 84.0301 0.220003 84.2901 0.190003C86.3801 -0.0699973 88.5001 -0.0699973 90.5901 0.190003C90.8501 0.220003 91.0301 0.470003 91.0001 0.750003Z" fill="#C4D600"/>
<path d="M93.1501 17.62C92.9101 17.59 92.6701 17.56 92.4401 17.54C92.1001 17.5 91.8501 17.2 91.8901 16.88C92.2001 14.22 92.2001 11.54 91.8901 8.88C91.8501 8.56 92.0901 8.26 92.4401 8.22C92.6801 8.19 92.9201 8.16 93.1501 8.14C93.4901 8.1 93.8101 8.34 93.8501 8.68C94.1801 11.47 94.1801 14.29 93.8501 17.09C93.8101 17.43 93.4901 17.67 93.1501 17.63V17.62Z" fill="#C4D600"/>
<path d="M93.4601 17.45H86.0501C85.1001 17.45 84.2401 16.88 83.8701 16C82.9701 13.87 80.8601 12.37 78.4001 12.37C75.1601 12.37 72.5301 14.96 72.4601 18.18V20.1C72.4601 20.8 73.0201 21.36 73.7201 21.36H93.4701C93.9401 21.36 94.3201 20.98 94.3201 20.51V18.32C94.3201 17.85 93.9401 17.47 93.4701 17.47L93.4601 17.45Z" fill="#C4D600"/>
<path d="M88.0601 22.84C89.7832 22.84 91.1801 21.4431 91.1801 19.72C91.1801 17.9969 89.7832 16.6 88.0601 16.6C86.3369 16.6 84.9401 17.9969 84.9401 19.72C84.9401 21.4431 86.3369 22.84 88.0601 22.84Z" fill="#C4D600"/>
<path d="M88.06 20.98C88.7559 20.98 89.32 20.4159 89.32 19.72C89.32 19.0241 88.7559 18.46 88.06 18.46C87.3642 18.46 86.8 19.0241 86.8 19.72C86.8 20.4159 87.3642 20.98 88.06 20.98Z" fill="#FAFAFA"/>
<path d="M78.3901 22.77C80.6268 22.77 82.4401 20.9568 82.4401 18.72C82.4401 16.4832 80.6268 14.67 78.3901 14.67C76.1533 14.67 74.3401 16.4832 74.3401 18.72C74.3401 20.9568 76.1533 22.77 78.3901 22.77Z" fill="#C4D600"/>
<path d="M78.39 20.35C79.2902 20.35 80.02 19.6202 80.02 18.72C80.02 17.8198 79.2902 17.09 78.39 17.09C77.4898 17.09 76.76 17.8198 76.76 18.72C76.76 19.6202 77.4898 20.35 78.39 20.35Z" fill="#FAFAFA"/>
<path d="M97.81 21.35H93.53C93.25 21.35 93.03 21.3 93.03 20.9V17.04C93.03 16.78 93.3 16.3 94.04 16.73C94.49 17.04 95.56 17.84 97.03 19.24L97.92 20.27C97.92 20.27 98.52 21.08 97.81 21.34V21.35Z" fill="#C4D600"/>
<path d="M73.7699 17.82H68.2299C67.9924 17.82 67.7999 18.0125 67.7999 18.25V18.68C67.7999 18.9175 67.9924 19.11 68.2299 19.11H73.7699C74.0074 19.11 74.1999 18.9175 74.1999 18.68V18.25C74.1999 18.0125 74.0074 17.82 73.7699 17.82Z" fill="#C4D600"/>
<path d="M58.95 17.82H53.41C53.1725 17.82 52.98 18.0125 52.98 18.25V18.68C52.98 18.9175 53.1725 19.11 53.41 19.11H58.95C59.1875 19.11 59.38 18.9175 59.38 18.68V18.25C59.38 18.0125 59.1875 17.82 58.95 17.82Z" fill="#C4D600"/>
<path d="M58.28 21.92C57.72 21.92 57.18 21.93 56.76 21.9C56.34 21.86 56.04 21.77 55.83 21.52C55.62 21.27 55.51 20.86 55.42 20.24C55.33 19.61 55.26 18.74 55.15 17.77C55.05 16.74 54.93 15.69 54.88 14.84C54.83 13.93 54.86 13.27 55.06 12.84C55.27 12.4 55.65 12.22 56.21 12.15C56.77 12.08 57.5 12.12 58.27 12.11C59.04 12.12 67.23 12.08 67.79 12.15C68.35 12.22 68.74 12.39 68.94 12.84C69.14 13.26 69.17 13.93 69.12 14.84C69.07 15.69 68.95 16.74 68.85 17.77C68.75 18.74 68.68 19.61 68.58 20.24C68.49 20.85 68.38 21.27 68.17 21.52C67.97 21.77 67.66 21.87 67.24 21.9C66.83 21.94 58.83 21.92 58.26 21.92H58.28Z" fill="#C4D600"/>
<path d="M69.73 12.36C69.7 12.55 69.68 12.74 69.65 12.93C69.61 13.21 69.35 13.4 69.06 13.37C66.68 13.12 57.29 13.12 54.9 13.37C54.61 13.4 54.35 13.21 54.31 12.93C54.28 12.74 54.26 12.55 54.23 12.36C54.19 12.08 54.41 11.83 54.72 11.8C57.22 11.54 66.73 11.54 69.24 11.8C69.55 11.83 69.76 12.09 69.73 12.36Z" fill="#C4D600"/>
<path d="M56.9 22.96C58.0709 22.96 59.02 22.0108 59.02 20.84C59.02 19.6692 58.0709 18.72 56.9 18.72C55.7292 18.72 54.78 19.6692 54.78 20.84C54.78 22.0108 55.7292 22.96 56.9 22.96Z" fill="#C4D600"/>
<path d="M56.8999 21.69C57.3694 21.69 57.7499 21.3094 57.7499 20.84C57.7499 20.3705 57.3694 19.99 56.8999 19.99C56.4305 19.99 56.0499 20.3705 56.0499 20.84C56.0499 21.3094 56.4305 21.69 56.8999 21.69Z" fill="#FAFAFA"/>
<path d="M67.09 22.96C68.2608 22.96 69.21 22.0108 69.21 20.84C69.21 19.6692 68.2608 18.72 67.09 18.72C65.9191 18.72 64.97 19.6692 64.97 20.84C64.97 22.0108 65.9191 22.96 67.09 22.96Z" fill="#C4D600"/>
<path d="M67.09 21.69C67.5594 21.69 67.94 21.3094 67.94 20.84C67.94 20.3705 67.5594 19.99 67.09 19.99C66.6205 19.99 66.24 20.3705 66.24 20.84C66.24 21.3094 66.6205 21.69 67.09 21.69Z" fill="#FAFAFA"/>
<path d="M54.0399 17.82H48.4999C48.2625 17.82 48.0699 18.0125 48.0699 18.25V18.68C48.0699 18.9175 48.2625 19.11 48.4999 19.11H54.0399C54.2774 19.11 54.4699 18.9175 54.4699 18.68V18.25C54.4699 18.0125 54.2774 17.82 54.0399 17.82Z" fill="#C4D600"/>
<path d="M41.22 17.82H35.68C35.4425 17.82 35.25 18.0125 35.25 18.25V18.68C35.25 18.9175 35.4425 19.11 35.68 19.11H41.22C41.4575 19.11 41.65 18.9175 41.65 18.68V18.25C41.65 18.0125 41.4575 17.82 41.22 17.82Z" fill="#C4D600"/>
<path d="M40.55 21.95C39.99 21.95 39.45 21.96 39.03 21.93C38.61 21.89 38.31 21.8 38.1 21.55C37.89 21.3 37.78 20.89 37.69 20.27C37.6 19.64 37.53 18.77 37.42 17.8C37.32 16.77 37.2 15.72 37.15 14.87C37.1 13.96 37.13 13.3 37.33 12.87C37.54 12.43 37.92 12.25 38.48 12.18C39.04 12.11 39.77 12.15 40.54 12.14C41.31 12.15 49.5 12.11 50.06 12.18C50.62 12.25 51.01 12.42 51.21 12.87C51.41 13.29 51.44 13.96 51.39 14.87C51.34 15.72 51.22 16.77 51.12 17.8C51.02 18.77 50.95 19.64 50.85 20.27C50.76 20.88 50.65 21.3 50.44 21.55C50.24 21.8 49.93 21.9 49.51 21.93C49.1 21.97 41.1 21.95 40.53 21.95H40.55Z" fill="#C4D600"/>
<path d="M52.0001 12.39C51.9701 12.58 51.9501 12.77 51.9201 12.96C51.8801 13.24 51.6201 13.43 51.3301 13.4C48.9501 13.15 39.5601 13.15 37.1701 13.4C36.8801 13.43 36.6201 13.24 36.5801 12.96C36.5501 12.77 36.5301 12.58 36.5001 12.39C36.4601 12.11 36.6801 11.86 36.9901 11.83C39.4901 11.57 49.0001 11.57 51.5101 11.83C51.8201 11.86 52.0301 12.12 52.0001 12.39Z" fill="#C4D600"/>
<path d="M39.17 22.99C40.3409 22.99 41.2901 22.0408 41.2901 20.87C41.2901 19.6992 40.3409 18.75 39.17 18.75C37.9992 18.75 37.05 19.6992 37.05 20.87C37.05 22.0408 37.9992 22.99 39.17 22.99Z" fill="#C4D600"/>
<path d="M39.1699 21.72C39.6394 21.72 40.0199 21.3394 40.0199 20.87C40.0199 20.4005 39.6394 20.02 39.1699 20.02C38.7005 20.02 38.3199 20.4005 38.3199 20.87C38.3199 21.3394 38.7005 21.72 39.1699 21.72Z" fill="#FAFAFA"/>
<path d="M49.36 22.99C50.5308 22.99 51.48 22.0408 51.48 20.87C51.48 19.6992 50.5308 18.75 49.36 18.75C48.1891 18.75 47.24 19.6992 47.24 20.87C47.24 22.0408 48.1891 22.99 49.36 22.99Z" fill="#C4D600"/>
<path d="M49.36 21.72C49.8295 21.72 50.21 21.3394 50.21 20.87C50.21 20.4005 49.8295 20.02 49.36 20.02C48.8906 20.02 48.51 20.4005 48.51 20.87C48.51 21.3394 48.8906 21.72 49.36 21.72Z" fill="#FAFAFA"/>
<path d="M36.3799 17.82H30.8399C30.6024 17.82 30.4099 18.0125 30.4099 18.25V18.68C30.4099 18.9175 30.6024 19.11 30.8399 19.11H36.3799C36.6174 19.11 36.8099 18.9175 36.8099 18.68V18.25C36.8099 18.0125 36.6174 17.82 36.3799 17.82Z" fill="#C4D600"/>
<path d="M23.56 17.82H18.02C17.7825 17.82 17.59 18.0125 17.59 18.25V18.68C17.59 18.9175 17.7825 19.11 18.02 19.11H23.56C23.7974 19.11 23.99 18.9175 23.99 18.68V18.25C23.99 18.0125 23.7974 17.82 23.56 17.82Z" fill="#C4D600"/>
<path d="M22.89 21.95C22.33 21.95 21.79 21.96 21.37 21.93C20.95 21.89 20.65 21.8 20.44 21.55C20.23 21.3 20.12 20.89 20.03 20.27C19.94 19.64 19.87 18.77 19.76 17.8C19.66 16.77 19.54 15.72 19.49 14.87C19.44 13.96 19.47 13.3 19.67 12.87C19.88 12.43 20.26 12.25 20.82 12.18C21.38 12.11 22.11 12.15 22.88 12.14C23.65 12.15 31.84 12.11 32.4 12.18C32.96 12.25 33.35 12.42 33.55 12.87C33.75 13.29 33.78 13.96 33.73 14.87C33.68 15.72 33.56 16.77 33.46 17.8C33.36 18.77 33.29 19.64 33.19 20.27C33.1 20.88 32.99 21.3 32.78 21.55C32.58 21.8 32.27 21.9 31.85 21.93C31.44 21.97 23.44 21.95 22.87 21.95H22.89Z" fill="#C4D600"/>
<path d="M34.34 12.39C34.31 12.58 34.29 12.77 34.26 12.96C34.22 13.24 33.96 13.43 33.67 13.4C31.29 13.15 21.9 13.15 19.51 13.4C19.22 13.43 18.96 13.24 18.92 12.96C18.89 12.77 18.87 12.58 18.84 12.39C18.8 12.11 19.02 11.86 19.33 11.83C21.83 11.57 31.34 11.57 33.85 11.83C34.16 11.86 34.37 12.12 34.34 12.39Z" fill="#C4D600"/>
<path d="M21.51 22.99C22.6809 22.99 23.63 22.0408 23.63 20.87C23.63 19.6992 22.6809 18.75 21.51 18.75C20.3392 18.75 19.39 19.6992 19.39 20.87C19.39 22.0408 20.3392 22.99 21.51 22.99Z" fill="#C4D600"/>
<path d="M21.5099 21.72C21.9794 21.72 22.3599 21.3394 22.3599 20.87C22.3599 20.4005 21.9794 20.02 21.5099 20.02C21.0405 20.02 20.6599 20.4005 20.6599 20.87C20.6599 21.3394 21.0405 21.72 21.5099 21.72Z" fill="#FAFAFA"/>
<path d="M31.7 22.99C32.8708 22.99 33.82 22.0408 33.82 20.87C33.82 19.6992 32.8708 18.75 31.7 18.75C30.5291 18.75 29.58 19.6992 29.58 20.87C29.58 22.0408 30.5291 22.99 31.7 22.99Z" fill="#C4D600"/>
<path d="M31.7 21.72C32.1694 21.72 32.55 21.3394 32.55 20.87C32.55 20.4005 32.1694 20.02 31.7 20.02C31.2305 20.02 30.85 20.4005 30.85 20.87C30.85 21.3394 31.2305 21.72 31.7 21.72Z" fill="#FAFAFA"/>
<path d="M18.7899 17.82H13.2499C13.0125 17.82 12.8199 18.0125 12.8199 18.25V18.68C12.8199 18.9175 13.0125 19.11 13.2499 19.11H18.7899C19.0274 19.11 19.2199 18.9175 19.2199 18.68V18.25C19.2199 18.0125 19.0274 17.82 18.7899 17.82Z" fill="#C4D600"/>
<path d="M5.97 17.82H0.43C0.192518 17.82 0 18.0125 0 18.25V18.68C0 18.9175 0.192518 19.11 0.43 19.11H5.97C6.20748 19.11 6.4 18.9175 6.4 18.68V18.25C6.4 18.0125 6.20748 17.82 5.97 17.82Z" fill="#C4D600"/>
<path d="M5.30002 21.95C4.74002 21.95 4.20002 21.96 3.78002 21.93C3.36002 21.89 3.06002 21.8 2.85002 21.55C2.64002 21.3 2.53002 20.89 2.44002 20.27C2.35002 19.64 2.28002 18.77 2.17002 17.8C2.07002 16.77 1.95002 15.72 1.90002 14.87C1.85002 13.96 1.88002 13.3 2.08002 12.87C2.29002 12.43 2.67002 12.25 3.23002 12.18C3.79002 12.11 4.52002 12.15 5.29002 12.14C6.06002 12.15 14.25 12.11 14.81 12.18C15.37 12.25 15.76 12.42 15.96 12.87C16.16 13.29 16.19 13.96 16.14 14.87C16.09 15.72 15.97 16.77 15.87 17.8C15.77 18.77 15.7 19.64 15.6 20.27C15.51 20.88 15.4 21.3 15.19 21.55C14.99 21.8 14.68 21.9 14.26 21.93C13.85 21.97 5.85002 21.95 5.28002 21.95H5.30002Z" fill="#C4D600"/>
<path d="M16.74 12.39C16.71 12.58 16.69 12.77 16.66 12.96C16.62 13.24 16.36 13.43 16.07 13.4C13.69 13.15 4.30005 13.15 1.91005 13.4C1.62005 13.43 1.36005 13.24 1.32005 12.96C1.29005 12.77 1.27005 12.58 1.24005 12.39C1.20005 12.11 1.42005 11.86 1.73005 11.83C4.23005 11.57 13.74 11.57 16.25 11.83C16.56 11.86 16.77 12.12 16.74 12.39Z" fill="#C4D600"/>
<path d="M3.92005 22.99C5.09089 22.99 6.04005 22.0408 6.04005 20.87C6.04005 19.6992 5.09089 18.75 3.92005 18.75C2.74921 18.75 1.80005 19.6992 1.80005 20.87C1.80005 22.0408 2.74921 22.99 3.92005 22.99Z" fill="#C4D600"/>
<path d="M3.91995 21.72C4.38939 21.72 4.76995 21.3394 4.76995 20.87C4.76995 20.4005 4.38939 20.02 3.91995 20.02C3.4505 20.02 3.06995 20.4005 3.06995 20.87C3.06995 21.3394 3.4505 21.72 3.91995 21.72Z" fill="#FAFAFA"/>
<path d="M14.11 22.99C15.2808 22.99 16.23 22.0408 16.23 20.87C16.23 19.6992 15.2808 18.75 14.11 18.75C12.9391 18.75 11.99 19.6992 11.99 20.87C11.99 22.0408 12.9391 22.99 14.11 22.99Z" fill="#C4D600"/>
<path d="M14.11 21.72C14.5795 21.72 14.96 21.3394 14.96 20.87C14.96 20.4005 14.5795 20.02 14.11 20.02C13.6406 20.02 13.26 20.4005 13.26 20.87C13.26 21.3394 13.6406 21.72 14.11 21.72Z" fill="#FAFAFA"/>
</g>
<defs>
<clipPath id="clip0_2253_354">
<rect width="98.16" height="22.98" fill="white"/>
</clipPath>
</defs>
</svg>
