<svg width="35" height="24" viewBox="0 0 35 24" fill="none" xmlns="http://www.w3.org/2000/svg">
<path d="M30.1699 0.5H4.16992C2.23693 0.5 0.669922 2.067 0.669922 4V20C0.669922 21.933 2.23693 23.5 4.16992 23.5H30.1699C32.1029 23.5 33.6699 21.933 33.6699 20V4C33.6699 2.067 32.1029 0.5 30.1699 0.5Z" fill="white"/>
<path d="M30.1699 0.5H4.16992C2.23693 0.5 0.669922 2.067 0.669922 4V20C0.669922 21.933 2.23693 23.5 4.16992 23.5H30.1699C32.1029 23.5 33.6699 21.933 33.6699 20V4C33.6699 2.067 32.1029 0.5 30.1699 0.5Z" stroke="#DFE3E6"/>
<path fill-rule="evenodd" clip-rule="evenodd" d="M10.92 15.86H8.85997L7.31997 9.78999C7.24997 9.50999 7.08997 9.25999 6.85997 9.14999C6.28997 8.85999 5.65997 8.62999 4.96997 8.50999V8.27999H8.28997C8.74997 8.27999 9.08997 8.62999 9.14997 9.03999L9.94997 13.42L12.01 8.28999H14.01L10.92 15.87V15.86ZM15.15 15.86H13.2L14.8 8.27999H16.75L15.15 15.86ZM19.27 10.38C19.33 9.96999 19.67 9.73999 20.07 9.73999C20.7 9.67999 21.39 9.79999 21.96 10.09L22.3 8.45999C21.73 8.22999 21.1 8.10999 20.53 8.10999C18.64 8.10999 17.27 9.15999 17.27 10.62C17.27 11.73 18.24 12.31 18.93 12.66C19.67 13.01 19.96 13.24 19.9 13.59C19.9 14.11 19.33 14.35 18.76 14.35C18.07 14.35 17.39 14.18 16.76 13.88L16.42 15.51C17.11 15.8 17.85 15.92 18.54 15.92C20.66 15.98 21.97 14.93 21.97 13.35C21.97 11.37 19.28 11.25 19.28 10.38H19.27ZM28.77 15.86L27.23 8.27999H25.57C25.23 8.27999 24.88 8.50999 24.77 8.85999L21.91 15.86H23.91L24.31 14.75H26.77L27 15.86H28.77ZM25.85 10.32L26.42 13.18H24.82L25.85 10.32Z" fill="#172B85"/>
</svg>
